<svg width="122" height="122" viewBox="0 0 122 122" fill="none" xmlns="http://www.w3.org/2000/svg">
<g clip-path="url(#clip0_288_9358)">
<path d="M60.5684 2.00012C92.9107 2.00014 119.143 28.3077 119.143 60.7726C119.143 79.3699 110.536 95.9447 97.1074 106.719C88.3829 113.717 77.6157 118.26 65.8525 119.31L65.8428 119.311C64.3219 119.454 62.7795 119.529 61.2148 119.545H61.1826C61.004 119.55 60.8156 119.55 60.6016 119.55H60.5742C60.3546 119.55 60.1545 119.55 59.9697 119.545H59.9316C58.3931 119.534 56.8622 119.454 55.3496 119.316H55.3438C43.559 118.271 32.7815 113.727 24.0352 106.713C10.601 95.9391 2.00007 79.3647 2 60.7726C2 28.3074 28.2262 2.00012 60.5684 2.00012Z" fill="#E6E6E6" stroke="#0075FF" stroke-width="4"/>
<path d="M59.9778 85.9918V114.854C58.5504 114.843 57.134 114.771 55.7396 114.645C44.8495 113.68 34.8962 109.497 26.8223 103.044V101.759C26.8223 99.2133 28.4095 96.9371 30.7959 96.0553L46.1005 90.3843L51.7881 88.5821L59.9778 85.9863V85.9918Z" fill="#BAE1FF"/>
<path d="M94.3062 101.765V103.055C86.2488 109.492 76.3066 113.675 65.4385 114.645C64.0276 114.777 62.6002 114.843 61.1562 114.86V85.9976L69.3845 88.6044L75.0335 90.3955L90.3382 96.0666C92.7245 96.9539 94.3062 99.23 94.3062 101.771V101.765Z" fill="#BAE1FF"/>
<path d="M69.3848 72.8035H51.793V90.3953H69.3848V72.8035Z" fill="#DE9C73"/>
<path d="M41.6963 49.4911H46.1053V60.0892H43.1568C42.2033 60.0892 41.3766 59.4278 41.1672 58.4964L39.7067 51.9822C39.4201 50.7036 40.3901 49.4966 41.6963 49.4966V49.4911Z" fill="#E8B799"/>
<path d="M60.5674 25.5999L39.6523 37.0136L45.7257 67.9095C46.4036 71.3706 49.1427 74.793 52.6974 77.5266C54.1248 78.6233 55.8939 79.1855 57.6961 79.1855H63.8135C65.759 79.1855 67.6438 78.5076 69.1429 77.2676C72.2788 74.6773 74.7533 71.2107 75.3981 67.9095L82.6454 31.0339L60.5564 25.5944L60.5674 25.5999Z" fill="#E8B799"/>
<path d="M79.4441 49.4911H75.0352V60.0892H77.9837C78.9371 60.0892 79.7638 59.4278 79.9732 58.4964L81.4337 51.9822C81.7203 50.7036 80.7503 49.4966 79.4441 49.4966V49.4911Z" fill="#E8B799"/>
<path d="M39.1738 34.5667L43.0922 54.4953L44.8007 53.3159C45.6935 52.6987 46.184 51.6405 46.0738 50.5603L43.8032 28.317L41.5215 29.4854C39.7194 30.4058 38.7494 32.4063 39.1407 34.3904L39.1738 34.5612V34.5667Z" fill="#54472D"/>
<path d="M81.9447 34.5667L78.0262 54.4953L76.3177 53.3159C75.4249 52.6987 74.9344 51.6405 75.0446 50.5603L77.3152 28.317L79.5969 29.4854C81.3991 30.4058 82.369 32.4063 81.9777 34.3904L81.9447 34.5612V34.5667Z" fill="#54472D"/>
<path d="M47.5932 22.3483H86.7174V25.3409C86.7174 31.789 81.4817 37.0302 75.0281 37.0302H42.5449V27.4021C42.5449 24.6134 44.81 22.3538 47.5932 22.3538V22.3483Z" fill="#54472D"/>
<path d="M43.9351 44.0956C45.6639 44.0956 47.0654 41.5911 47.0654 38.5017C47.0654 35.4123 45.6639 32.9078 43.9351 32.9078C42.2062 32.9078 40.8047 35.4123 40.8047 38.5017C40.8047 41.5911 42.2062 44.0956 43.9351 44.0956Z" fill="#54472D"/>
<path d="M80.3643 38.5017C80.3643 41.588 78.9644 44.0956 77.2339 44.0956C75.5034 44.0956 74.1035 41.5935 74.1035 38.5017C74.1035 35.4099 75.5034 32.9078 77.2339 32.9078C78.9644 32.9078 80.3643 35.4099 80.3643 38.5017Z" fill="#54472D"/>
<path d="M60.596 85.9917V114.859H60.5684C60.3755 114.859 60.1771 114.859 59.9842 114.859C58.5568 114.848 57.1404 114.777 55.7461 114.65L59.1024 94.2365L57.6805 92.3131L56.3523 90.5164L56.4736 90.3897L59.9897 86.642L60.2157 86.3995L60.6015 85.9917H60.596Z" fill="#99D2FF"/>
<path d="M65.4397 114.645C64.0288 114.777 62.6014 114.843 61.1575 114.859C60.9701 114.859 60.7827 114.859 60.5898 114.859V85.9917L60.9481 86.3665L61.1575 86.5924L64.7233 90.3897L64.8445 90.5164L63.4887 92.3406L62.0834 94.231L65.4397 114.639V114.645Z" fill="#99D2FF"/>
<path d="M46.1055 90.3897L51.793 81.5938L61.1566 85.9917L55.8603 95.5922L46.1055 90.3897Z" fill="#D6EDFF"/>
<path d="M75.0336 90.3897L69.3405 81.5938L59.9824 85.9917L65.2732 95.5922L75.0336 90.3897Z" fill="#D6EDFF"/>
<path d="M31.1932 70.2131H27.8203V95.967H53.1499V92.5941H31.1932V70.2131ZM27.8203 29.2923V54.1864H31.1932V32.6596H53.1554V29.2867H27.8203V29.2923ZM91.1222 92.5941H69.1765V95.967H94.4896V70.2131H91.1167V92.5941H91.1222ZM69.182 29.2923V32.6651H91.1277V54.1864H94.5006V29.2923H69.1875H69.182Z" fill="white"/>
<path d="M51.233 44.5253C51.233 45.1922 50.6929 45.7267 50.0315 45.7267C49.3702 45.7267 48.8301 45.1866 48.8301 44.5253C48.8301 43.864 49.3702 43.3239 50.0315 43.3239C50.6929 43.3239 51.233 43.864 51.233 44.5253Z" fill="white"/>
<path d="M62.067 48.2895C62.067 48.9563 61.5269 49.4909 60.8655 49.4909C60.2042 49.4909 59.6641 48.9508 59.6641 48.2895C59.6641 47.6281 60.2042 47.088 60.8655 47.088C61.5269 47.088 62.067 47.6281 62.067 48.2895Z" fill="white"/>
<path d="M47.6233 58.9702C48.2869 58.9702 48.8248 58.4322 48.8248 57.7687C48.8248 57.1052 48.2869 56.5673 47.6233 56.5673C46.9598 56.5673 46.4219 57.1052 46.4219 57.7687C46.4219 58.4322 46.9598 58.9702 47.6233 58.9702Z" fill="white"/>
<path d="M58.9595 58.9759C58.9595 59.6427 58.4194 60.1773 57.7581 60.1773C57.0967 60.1773 56.5566 59.6372 56.5566 58.9759C56.5566 58.3145 57.0967 57.7744 57.7581 57.7744C58.4194 57.7744 58.9595 58.3145 58.9595 58.9759Z" fill="white"/>
<path d="M55.0471 75.1236C55.7107 75.1236 56.2486 74.5857 56.2486 73.9222C56.2486 73.2586 55.7107 72.7207 55.0471 72.7207C54.3836 72.7207 53.8457 73.2586 53.8457 73.9222C53.8457 74.5857 54.3836 75.1236 55.0471 75.1236Z" fill="white"/>
<path d="M68.4439 73.9222C68.4439 74.589 67.9038 75.1236 67.2425 75.1236C66.5811 75.1236 66.041 74.5835 66.041 73.9222C66.041 73.2608 66.5811 72.7207 67.2425 72.7207C67.9038 72.7207 68.4439 73.2608 68.4439 73.9222Z" fill="white"/>
<path d="M62.3599 67.9314C62.3599 68.5983 61.8198 69.1329 61.1585 69.1329C60.4971 69.1329 59.957 68.5928 59.957 67.9314C59.957 67.2701 60.4971 66.73 61.1585 66.73C61.8198 66.73 62.3599 67.2701 62.3599 67.9314Z" fill="white"/>
<path d="M50.0259 44.5253L60.8665 48.2894L57.7582 58.9757L61.1586 67.9314L55.0467 73.9221L47.623 57.7687L50.0259 44.5253ZM50.0259 44.5253L57.7582 58.9757" stroke="white" stroke-width="0.551122" stroke-miterlimit="10"/>
<path d="M70.9512 44.5253C70.9512 45.1922 71.4913 45.7267 72.1526 45.7267C72.814 45.7267 73.3541 45.1866 73.3541 44.5253C73.3541 43.864 72.814 43.3239 72.1526 43.3239C71.4913 43.3239 70.9512 43.864 70.9512 44.5253Z" fill="white"/>
<path d="M73.3594 57.7687C73.3594 58.4356 73.8995 58.9702 74.5608 58.9702C75.2222 58.9702 75.7623 58.4301 75.7623 57.7687C75.7623 57.1074 75.2222 56.5673 74.5608 56.5673C73.8995 56.5673 73.3594 57.1074 73.3594 57.7687Z" fill="white"/>
<path d="M64.4261 60.1771C65.0896 60.1771 65.6275 59.6392 65.6275 58.9756C65.6275 58.3121 65.0896 57.7742 64.4261 57.7742C63.7625 57.7742 63.2246 58.3121 63.2246 58.9756C63.2246 59.6392 63.7625 60.1771 64.4261 60.1771Z" fill="white"/>
<path d="M72.1525 44.5253L74.5609 57.7687L67.1373 73.9221L61.0254 67.9314L64.4258 58.9757L61.3175 48.2894L72.1525 44.5253ZM72.1525 44.5253L64.4258 58.9757" stroke="white" stroke-width="0.551122" stroke-miterlimit="10"/>
</g>
<defs>
<clipPath id="clip0_288_9358">
<rect width="121.142" height="121.55" fill="white"/>
</clipPath>
</defs>
</svg>
