<svg width="222" height="128" viewBox="0 0 222 128" fill="none" xmlns="http://www.w3.org/2000/svg">
<mask id="mask0_288_5520" style="mask-type:alpha" maskUnits="userSpaceOnUse" x="0" y="0" width="222" height="128">
<rect width="221.382" height="127.999" fill="#D9D9D9"/>
</mask>
<g mask="url(#mask0_288_5520)">
<path d="M176.505 -3.60327V110.781C176.505 114.277 173.669 117.112 170.173 117.112H48.6143C45.1179 117.111 42.2833 114.277 42.2832 110.781V-3.60327H176.505Z" fill="white" stroke="#1D1D1D" stroke-width="0.844158"/>
<rect x="51.9902" y="55.0656" width="45.9338" height="53.8839" rx="5.06495" fill="#0075FF"/>
<path d="M75.0656 67.9838C67.3175 67.9838 60.9973 74.2592 60.9338 82.0071C60.8702 89.755 67.0874 96.0305 74.8356 96.0305C82.5837 96.0305 88.9179 89.755 88.9814 82.0071C89.045 74.2592 82.8138 67.9838 75.0656 67.9838ZM84.7081 76.3978H80.5711C80.1297 74.6449 79.5054 72.9621 78.6767 71.4055C81.2499 72.2889 83.3808 74.0769 84.7081 76.3978ZM75.0492 70.8375C76.2064 72.5203 77.1026 74.3924 77.6822 76.3978H72.3251C72.9375 74.3924 73.8645 72.5203 75.0492 70.8375ZM64.0802 84.8118C63.8561 83.9143 63.7306 82.9747 63.7386 82.0071C63.7465 81.0395 63.8874 80.1 64.1262 79.2025H68.8592C68.7395 80.121 68.6547 81.0535 68.6469 82.0071C68.6391 82.9607 68.7085 83.8933 68.8202 84.8118H64.0802ZM65.2001 87.6164H69.3371C69.7785 89.3694 70.4028 91.0522 71.2314 92.6158C68.6583 91.7323 66.5273 89.9373 65.2001 87.6164ZM69.4292 76.3978H65.2921C66.6574 74.0769 68.8178 72.2819 71.4054 71.3985C70.5512 72.9621 69.8993 74.6449 69.4292 76.3978ZM74.866 93.1767C73.7158 91.4939 72.8196 89.6218 72.2331 87.6165H77.5902C76.9707 89.6218 76.0438 91.4939 74.866 93.1767ZM78.2162 84.8118H71.653C71.5274 83.8933 71.4438 82.9607 71.4517 82.0071C71.4595 81.0535 71.5583 80.121 71.6991 79.2025H78.2622C78.3879 80.121 78.4714 81.0535 78.4636 82.0071C78.4557 82.9607 78.3569 83.8933 78.2162 84.8118ZM78.5098 92.6088C79.3641 91.0452 80.0159 89.3694 80.4861 87.6165H84.6231C83.2508 89.9373 81.0904 91.7253 78.5098 92.6088ZM81.049 84.8118C81.1687 83.8933 81.2605 82.9607 81.2683 82.0071C81.2762 81.0535 81.2067 80.121 81.095 79.2025H85.828C86.0521 80.1 86.1846 81.0395 86.1767 82.0071C86.1687 82.9747 86.0278 83.9143 85.782 84.8118H81.049Z" fill="#1D1D1D"/>
<rect opacity="0.8" x="106.018" y="92.2104" width="16.8832" height="16.8832" rx="1.68832" fill="#86D993" fill-opacity="0.12"/>
<rect x="126.277" y="99.9425" width="15.1948" height="3.37663" rx="1.68832" fill="#EBE9E9"/>
<rect x="126.277" y="105.717" width="10.1299" height="3.37663" rx="1.68832" fill="#EBE9E9"/>
<rect x="106.018" y="56.7549" width="25.3247" height="5.06495" rx="1.68832" fill="#EBE9E9"/>
<rect x="136.408" y="56.7548" width="30.3897" height="5.06495" rx="1.68832" fill="#EBE9E9"/>
<rect x="106.018" y="68.5739" width="13.5065" height="5.06495" rx="1.68832" fill="#EBE9E9"/>
<rect x="124.59" y="68.5739" width="42.2079" height="5.06495" rx="1.68832" fill="#EBE9E9"/>
<rect x="106.018" y="80.3914" width="60.7794" height="5.06495" rx="1.68832" fill="#EBE9E9"/>
<rect x="51.9902" y="31.4298" width="114.805" height="15.1948" rx="3.37663" fill="#EBE9E9"/>
<mask id="mask1_288_5520" style="mask-type:alpha" maskUnits="userSpaceOnUse" x="41" y="-5" width="136" height="123">
<path d="M176.505 -3.60352V110.78C176.505 114.277 173.669 117.111 170.173 117.111H48.6143C45.1179 117.111 42.2833 114.277 42.2832 110.78V-3.60352H176.505Z" fill="white" stroke="black" stroke-width="0.844158"/>
</mask>
<g mask="url(#mask1_288_5520)">
<rect x="42.416" y="-2.25818" width="133.926" height="26.0452" fill="#F5F5F6"/>
<path d="M41.0176 23.8313L177.771 23.8313" stroke="#B8A9A9" stroke-width="0.844158" stroke-linecap="round"/>
<rect x="62.1191" y="-4.02576" width="8.44158" height="16.8832" rx="1.68832" fill="#EBE9E9"/>
<rect x="84.0684" y="-4.02576" width="5.06495" height="16.8832" rx="1.68832" fill="#EBE9E9"/>
<rect x="94.1973" y="-4.02576" width="5.06495" height="16.8832" rx="1.68832" fill="#EBE9E9"/>
<rect x="112.768" y="-4.02576" width="5.06495" height="16.8832" rx="1.68832" fill="#EBE9E9"/>
<rect x="122.898" y="-4.02576" width="5.06495" height="16.8832" rx="1.68832" fill="#EBE9E9"/>
<rect x="141.471" y="-4.02576" width="5.06495" height="16.8832" rx="1.68832" fill="#EBE9E9"/>
<rect x="151.6" y="-4.02576" width="5.06495" height="16.8832" rx="1.68832" fill="#EBE9E9"/>
</g>
<path d="M176.505 -3.60327V110.781C176.505 114.277 173.669 117.112 170.173 117.112H48.6143C45.1179 117.111 42.2833 114.277 42.2832 110.781V-3.60327H176.505Z" stroke="#1D1D1D" stroke-width="0.844158"/>
</g>
</svg>
