<svg width="139" height="129" viewBox="0 0 139 129" fill="none" xmlns="http://www.w3.org/2000/svg">
<rect x="1.02219" y="17.8884" width="118.827" height="125.096" rx="2.79375" fill="white" stroke="#1D1D1D" stroke-width="0.3725"/>
<mask id="mask0_288_7236" style="mask-type:alpha" maskUnits="userSpaceOnUse" x="6" y="24" width="109" height="113">
<rect x="6.98312" y="24.5417" width="106.907" height="111.789" rx="2.04875" fill="#D9D9D9" stroke="#EAE9E9" stroke-width="0.3725"/>
</mask>
<g mask="url(#mask0_288_7236)">
<rect x="6.98312" y="24.5417" width="106.907" height="111.789" rx="2.04875" fill="white" stroke="#EBE9E9" stroke-width="0.3725"/>
<path d="M4.18945 39.0891H117.057" stroke="#EBE9E9" stroke-width="0.3725" stroke-linecap="round"/>
<path d="M4.18945 53.8218H117.057" stroke="#EBE9E9" stroke-width="0.3725" stroke-linecap="round"/>
<path d="M4.18945 68.0801H117.057" stroke="#EBE9E9" stroke-width="0.3725" stroke-linecap="round"/>
<path d="M4.18945 82.8127H117.057" stroke="#EBE9E9" stroke-width="0.3725" stroke-linecap="round"/>
<path d="M4.18945 97.5461H117.057" stroke="#EBE9E9" stroke-width="0.3725" stroke-linecap="round"/>
<path d="M4.18945 112.279H117.057" stroke="#EBE9E9" stroke-width="0.3725" stroke-linecap="round"/>
<path d="M4.18945 127.179H117.057" stroke="#EBE9E9" stroke-width="0.3725" stroke-linecap="round"/>
<rect x="6.98312" y="24.5417" width="106.907" height="111.789" rx="2.04875" stroke="#EBE9E9" stroke-width="0.3725"/>
<path d="M22.6602 45.6772C23.4141 45.6772 24.108 45.781 24.7417 45.9886C25.3755 46.1962 25.9218 46.5076 26.3807 46.9228C26.8396 47.3271 27.1948 47.8407 27.4461 48.4635C27.7083 49.0754 27.8394 49.7911 27.8394 50.6106C27.8394 51.5831 27.6865 52.4135 27.3805 53.1019C27.0746 53.7793 26.6594 54.3366 26.1349 54.7736C25.6213 55.1998 25.0149 55.5112 24.3156 55.7079C23.6272 55.9046 22.9006 56.0029 22.1357 56.0029H19.2183V45.6772H22.6602ZM20.972 54.5934H21.9882C22.4908 54.5934 22.9771 54.5387 23.4469 54.4295C23.9277 54.3093 24.3538 54.1017 24.7253 53.8066C25.0968 53.5007 25.3919 53.0909 25.6104 52.5774C25.8399 52.0638 25.9546 51.4082 25.9546 50.6106C25.9546 49.4742 25.6268 48.6055 24.9712 48.0046C24.3265 47.3927 23.4578 47.0867 22.3652 47.0867H20.972V54.5934ZM29.6522 48.9552C30.1548 48.682 30.6356 48.4799 31.0945 48.3488C31.5644 48.2067 32.0834 48.1357 32.6516 48.1357C33.0886 48.1357 33.4875 48.1849 33.848 48.2832C34.2195 48.3816 34.5364 48.54 34.7987 48.7585C35.0609 48.9771 35.263 49.2721 35.4051 49.6436C35.5581 50.0042 35.6345 50.4467 35.6345 50.9712V56.0029H34.2742L34.0939 55.167H34.0447C33.7388 55.5167 33.3837 55.7734 32.9794 55.9373C32.5751 56.0903 32.1271 56.1668 31.6354 56.1668C30.8596 56.1668 30.2313 55.9592 29.7505 55.544C29.2807 55.1288 29.0458 54.577 29.0458 53.8886C29.0458 53.4624 29.1332 53.0964 29.308 52.7905C29.4828 52.4736 29.7287 52.2113 30.0456 52.0037C30.3624 51.7961 30.7394 51.6432 31.1765 51.5448C31.6135 51.4356 32.0943 51.3809 32.6188 51.3809H33.93V50.7909C33.93 50.2992 33.7989 49.9605 33.5366 49.7747C33.2744 49.578 32.9138 49.4797 32.4549 49.4797C32.1708 49.4797 31.8485 49.5288 31.4879 49.6272C31.1382 49.7146 30.7339 49.884 30.275 50.1353L29.6522 48.9552ZM33.9464 52.4954L32.9138 52.5118C32.138 52.5337 31.5917 52.6703 31.2748 52.9216C30.9579 53.1729 30.7995 53.4679 30.7995 53.8066C30.7995 54.0252 30.8323 54.2055 30.8978 54.3475C30.9743 54.4896 31.0727 54.6043 31.1929 54.6917C31.313 54.7791 31.4496 54.8447 31.6026 54.8884C31.7665 54.9212 31.9304 54.9375 32.0943 54.9375C32.433 54.9375 32.7663 54.8556 33.0941 54.6917C33.4328 54.5169 33.7169 54.271 33.9464 53.9541V52.4954ZM42.3747 48.2668H44.1612L41.3257 56.0029H39.5556L36.7201 48.2668H38.5394L40.0801 53.0855L40.4243 54.6917H40.4898L40.834 53.1019L42.3747 48.2668ZM45.5799 56.0029V48.2668H47.2681V56.0029H45.5799ZM46.4322 46.3492C46.1372 46.3492 45.9023 46.2618 45.7275 46.087C45.5526 45.9012 45.4652 45.6717 45.4652 45.3986C45.4652 45.1254 45.5526 44.9014 45.7275 44.7266C45.9023 44.5408 46.1372 44.448 46.4322 44.448C46.7163 44.448 46.9458 44.5408 47.1206 44.7266C47.3064 44.9014 47.3992 45.1254 47.3992 45.3986C47.3992 45.6827 47.3064 45.9121 47.1206 46.087C46.9458 46.2618 46.7163 46.3492 46.4322 46.3492ZM54.6905 44.3496H56.3786V56.0029H55.0511L54.8544 55.1506H54.7888C54.5047 55.4784 54.1878 55.7297 53.8382 55.9046C53.4885 56.0794 53.0351 56.1668 52.4778 56.1668C52.0408 56.1668 51.6201 56.0848 51.2158 55.9209C50.8224 55.7461 50.4673 55.4893 50.1504 55.1506C49.8445 54.8119 49.5986 54.3912 49.4129 53.8886C49.2271 53.386 49.1343 52.8068 49.1343 52.1512C49.1343 51.5394 49.2108 50.9876 49.3637 50.4959C49.5276 50.0042 49.7571 49.5835 50.0521 49.2338C50.3581 48.8842 50.7296 48.6165 51.1666 48.4307C51.6037 48.234 52.1009 48.1357 52.6581 48.1357C53.0405 48.1357 53.4121 48.1958 53.7726 48.316C54.1332 48.4362 54.4392 48.6055 54.6905 48.8241V44.3496ZM54.6905 50.1844C54.2316 49.66 53.6798 49.3977 53.0351 49.3977C52.751 49.3977 52.4778 49.4469 52.2156 49.5452C51.9533 49.6436 51.7184 49.802 51.5108 50.0205C51.3032 50.2391 51.1393 50.5177 51.0191 50.8564C50.8989 51.1952 50.8388 51.6104 50.8388 52.1021C50.8388 52.5938 50.8935 53.0145 51.0027 53.3641C51.1229 53.7138 51.2759 54.0033 51.4616 54.2328C51.6474 54.4622 51.8605 54.6316 52.1009 54.7409C52.3522 54.8392 52.6089 54.8884 52.8712 54.8884C53.2645 54.8884 53.6087 54.801 53.9038 54.6261C54.2097 54.4513 54.4719 54.2055 54.6905 53.8886V50.1844ZM65.4506 45.5133C66.5761 45.5133 67.5595 45.7209 68.4008 46.1361L67.9911 47.5293C67.5322 47.3107 67.106 47.1523 66.7127 47.054C66.3302 46.9447 65.9423 46.8901 65.549 46.8901C64.9589 46.8901 64.4946 47.0157 64.1558 47.267C63.8171 47.5183 63.6477 47.868 63.6477 48.316C63.6477 48.7093 63.7789 49.0208 64.0411 49.2502C64.3033 49.4797 64.7295 49.6873 65.3195 49.873L66.3357 50.2008C67.2317 50.4849 67.8873 50.8838 68.3025 51.3973C68.7177 51.8999 68.9253 52.4845 68.9253 53.151C68.9253 53.599 68.8379 54.0088 68.6631 54.3803C68.4882 54.7518 68.2369 55.0687 67.9091 55.3309C67.5923 55.5931 67.2044 55.8008 66.7454 55.9537C66.2865 56.0958 65.7784 56.1668 65.2212 56.1668C64.6639 56.1668 64.1067 56.1122 63.5494 56.0029C63.0031 55.9046 62.4677 55.7297 61.9432 55.4784L62.3529 54.1017C62.8228 54.3311 63.2817 54.5059 63.7297 54.6261C64.1777 54.7354 64.6475 54.79 65.1392 54.79C65.7293 54.79 66.21 54.6644 66.5815 54.4131C66.9531 54.1618 67.1388 53.7902 67.1388 53.2985C67.1388 52.9489 67.0077 52.6375 66.7454 52.3643C66.4941 52.0912 65.997 51.8344 65.254 51.594L64.2869 51.2826C63.533 51.0313 62.9375 50.698 62.5004 50.2828C62.0743 49.8566 61.8612 49.2666 61.8612 48.5127C61.8612 47.6058 62.1672 46.8791 62.7791 46.3328C63.391 45.7865 64.2815 45.5133 65.4506 45.5133ZM72.3451 56.0029H70.6569V48.2668H71.9681L72.1976 49.2994C72.5581 48.9388 72.946 48.6547 73.3612 48.4471C73.7765 48.2395 74.2627 48.1357 74.82 48.1357C75.3772 48.1357 75.8307 48.245 76.1803 48.4635C76.5409 48.682 76.8141 48.988 76.9998 49.3813C77.3713 48.988 77.7811 48.682 78.2291 48.4635C78.688 48.245 79.1906 48.1357 79.737 48.1357C80.5455 48.1357 81.152 48.3597 81.5562 48.8077C81.9715 49.2448 82.1791 49.8676 82.1791 50.6761V56.0029H80.4909V50.9384C80.4909 50.4685 80.3871 50.108 80.1795 49.8566C79.9828 49.6053 79.655 49.4797 79.1961 49.4797C78.4968 49.4797 77.8521 49.7911 77.2621 50.4139V56.0029H75.5739V50.9384C75.5739 50.4685 75.4701 50.108 75.2625 49.8566C75.0658 49.6053 74.738 49.4797 74.2791 49.4797C73.5798 49.4797 72.9351 49.8075 72.3451 50.4631V56.0029ZM84.5062 56.0029V48.2668H86.1944V56.0029H84.5062ZM85.3585 46.3492C85.0634 46.3492 84.8285 46.2618 84.6537 46.087C84.4789 45.9012 84.3915 45.6717 84.3915 45.3986C84.3915 45.1254 84.4789 44.9014 84.6537 44.7266C84.8285 44.5408 85.0634 44.448 85.3585 44.448C85.6426 44.448 85.872 44.5408 86.0468 44.7266C86.2326 44.9014 86.3255 45.1254 86.3255 45.3986C86.3255 45.6827 86.2326 45.9121 86.0468 46.087C85.872 46.2618 85.6426 46.3492 85.3585 46.3492ZM92.7808 49.5125H90.5846V53.6919C90.5846 54.0743 90.672 54.3311 90.8468 54.4622C91.0326 54.5934 91.2784 54.6589 91.5844 54.6589C91.8029 54.6589 92.0324 54.6371 92.2727 54.5934C92.5241 54.5387 92.7426 54.4786 92.9283 54.4131L93.1906 55.6587C92.972 55.7461 92.688 55.8281 92.3383 55.9046C91.9996 55.9701 91.639 56.0029 91.2566 56.0029C90.4261 56.0029 89.8252 55.8335 89.4537 55.4948C89.0931 55.1452 88.9128 54.6316 88.9128 53.9541V49.5125H87.7327V48.2668H88.9128V45.8247H90.5846V48.2668H92.7808V49.5125ZM96.3066 56.0029H94.6184V44.3496H96.3066V49.1519C96.6563 48.8678 97.0387 48.6274 97.4539 48.4307C97.88 48.234 98.3499 48.1357 98.8634 48.1357C99.3005 48.1357 99.6829 48.2013 100.011 48.3324C100.339 48.4635 100.606 48.6438 100.814 48.8732C101.032 49.1027 101.191 49.3759 101.289 49.6927C101.398 50.0096 101.453 50.3538 101.453 50.7253V56.0029H99.7649V51.1023C99.7649 50.5232 99.6447 50.108 99.4043 49.8566C99.1639 49.6053 98.8143 49.4797 98.3554 49.4797C98.0166 49.4797 97.667 49.5671 97.3064 49.7419C96.9567 49.9058 96.6235 50.1353 96.3066 50.4303V56.0029Z" fill="#1D1D1D"/>
<path d="M20.6427 82.427H21.498L24.1159 88.9979H23.1146L22.395 87.1727H19.6936L18.9844 88.9979H17.9935L20.6427 82.427ZM19.9544 86.4113H22.1134L21.6753 85.2744C21.5571 84.9754 21.4493 84.6868 21.352 84.4087C21.2546 84.1306 21.1573 83.8455 21.0599 83.5534H21.0391C20.9417 83.8455 20.8409 84.1271 20.7366 84.3983C20.6323 84.6695 20.5211 84.9615 20.4028 85.2744L19.9544 86.4113ZM28.0372 81.5926H28.955V88.9979H28.1832L28.0685 88.4555H28.0372C27.8216 88.678 27.6026 88.8415 27.3801 88.9458C27.1646 89.0431 26.8899 89.0918 26.5561 89.0918C26.2919 89.0918 26.0346 89.0396 25.7843 88.9353C25.541 88.831 25.3219 88.6746 25.1272 88.466C24.9325 88.2574 24.7761 87.9966 24.6579 87.6837C24.5397 87.3639 24.4806 86.9884 24.4806 86.5573C24.4806 86.1748 24.5292 85.8272 24.6266 85.5143C24.7309 85.2014 24.8769 84.9337 25.0646 84.7112C25.2524 84.4887 25.4818 84.3183 25.753 84.2001C26.0242 84.0819 26.3336 84.0228 26.6813 84.0228C26.9386 84.0228 27.1819 84.0645 27.4114 84.148C27.6478 84.2244 27.8564 84.3426 28.0372 84.5026V81.5926ZM28.0372 85.2744C27.7104 84.9059 27.3245 84.7216 26.8795 84.7216C26.6917 84.7216 26.5075 84.7564 26.3267 84.8259C26.1528 84.8885 25.9964 84.9928 25.8573 85.1388C25.7252 85.2848 25.6174 85.4726 25.534 85.702C25.4506 85.9315 25.4088 86.2061 25.4088 86.526C25.4088 86.8598 25.4471 87.1448 25.5236 87.3813C25.6001 87.6107 25.7009 87.8019 25.826 87.9549C25.9582 88.1009 26.1042 88.2087 26.2641 88.2782C26.431 88.3478 26.5979 88.3825 26.7647 88.3825C27.2862 88.3825 27.7104 88.1565 28.0372 87.7046V85.2744ZM33.6291 81.5926H34.5469V88.9979H33.7751L33.6604 88.4555H33.6291C33.4135 88.678 33.1945 88.8415 32.972 88.9458C32.7564 89.0431 32.4818 89.0918 32.148 89.0918C31.8838 89.0918 31.6265 89.0396 31.3762 88.9353C31.1328 88.831 30.9138 88.6746 30.7191 88.466C30.5244 88.2574 30.3679 87.9966 30.2497 87.6837C30.1315 87.3639 30.0724 86.9884 30.0724 86.5573C30.0724 86.1748 30.1211 85.8272 30.2185 85.5143C30.3228 85.2014 30.4688 84.9337 30.6565 84.7112C30.8443 84.4887 31.0737 84.3183 31.3449 84.2001C31.6161 84.0819 31.9255 84.0228 32.2732 84.0228C32.5304 84.0228 32.7738 84.0645 33.0033 84.148C33.2397 84.2244 33.4483 84.3426 33.6291 84.5026V81.5926ZM33.6291 85.2744C33.3023 84.9059 32.9163 84.7216 32.4713 84.7216C32.2836 84.7216 32.0993 84.7564 31.9185 84.8259C31.7447 84.8885 31.5883 84.9928 31.4492 85.1388C31.3171 85.2848 31.2093 85.4726 31.1259 85.702C31.0424 85.9315 31.0007 86.2061 31.0007 86.526C31.0007 86.8598 31.0389 87.1448 31.1154 87.3813C31.1919 87.6107 31.2927 87.8019 31.4179 87.9549C31.55 88.1009 31.696 88.2087 31.856 88.2782C32.0228 88.3478 32.1897 88.3825 32.3566 88.3825C32.8781 88.3825 33.3023 88.1565 33.6291 87.7046V85.2744ZM35.9459 88.9979V84.0958H36.6343L36.7907 85.0762C36.9089 84.7633 37.1036 84.5095 37.3748 84.3148C37.646 84.1201 37.9589 84.0228 38.3135 84.0228C38.4943 84.0228 38.6438 84.0367 38.762 84.0645C38.8802 84.0923 38.988 84.1271 39.0853 84.1688L38.908 84.9719C38.8246 84.9302 38.7307 84.8954 38.6264 84.8676C38.5291 84.8398 38.4109 84.8259 38.2718 84.8259C38.0701 84.8259 37.8824 84.8607 37.7086 84.9302C37.5417 84.9997 37.3922 85.104 37.2601 85.2431C37.1349 85.3822 37.0341 85.556 36.9576 85.7646C36.8881 85.9662 36.8533 86.1992 36.8533 86.4634V88.9979H35.9459ZM43.7648 86.6512H40.2499V86.6929C40.2499 87.2352 40.3959 87.6524 40.688 87.9445C40.987 88.2365 41.3903 88.3825 41.8978 88.3825C42.1621 88.3825 42.395 88.3617 42.5967 88.32C42.8053 88.2782 43.0312 88.2087 43.2746 88.1114L43.4623 88.7893C43.2607 88.8797 43.0208 88.9527 42.7427 89.0083C42.4715 89.064 42.1795 89.0918 41.8666 89.0918C41.5119 89.0918 41.1782 89.0431 40.8653 88.9458C40.5593 88.8484 40.2882 88.6989 40.0517 88.4973C39.8153 88.2887 39.6276 88.0244 39.4885 87.7046C39.3564 87.3847 39.2903 87.0023 39.2903 86.5573C39.2903 86.1748 39.346 85.8272 39.4572 85.5143C39.5754 85.2014 39.7388 84.9372 39.9474 84.7216C40.156 84.4991 40.4064 84.3287 40.6984 84.2105C40.9974 84.0854 41.3312 84.0228 41.6997 84.0228C42.0126 84.0228 42.2942 84.0749 42.5445 84.1792C42.8018 84.2835 43.0208 84.4296 43.2016 84.6173C43.3824 84.805 43.5215 85.031 43.6188 85.2953C43.7161 85.5595 43.7648 85.8515 43.7648 86.1714V86.6512ZM42.8157 85.9941C42.8157 85.8133 42.7914 85.6464 42.7427 85.4934C42.701 85.3335 42.6314 85.1944 42.5341 85.0762C42.4437 84.958 42.3255 84.8641 42.1795 84.7946C42.0334 84.7251 41.8561 84.6903 41.6475 84.6903C41.2651 84.6903 40.9522 84.812 40.7088 85.0554C40.4724 85.2987 40.3264 85.6186 40.2708 86.0149L42.8157 85.9941ZM47.6021 85.0136C47.3726 84.9024 47.164 84.8259 46.9763 84.7842C46.7885 84.7425 46.6008 84.7216 46.4131 84.7216C46.0793 84.7216 45.8325 84.7842 45.6725 84.9093C45.5126 85.0275 45.4326 85.1875 45.4326 85.3891C45.4326 85.5351 45.4883 85.6638 45.5995 85.775C45.7108 85.8793 45.9437 85.9836 46.2983 86.0879L46.6112 86.1818C47.0771 86.3209 47.4282 86.5017 47.6647 86.7242C47.908 86.9397 48.0297 87.2352 48.0297 87.6107C48.0297 88.0557 47.8628 88.4138 47.5291 88.685C47.2023 88.9562 46.7433 89.0918 46.1523 89.0918C45.8394 89.0918 45.5369 89.064 45.2449 89.0083C44.9598 88.9527 44.713 88.8762 44.5044 88.7789L44.7234 88.0592C44.925 88.1565 45.1441 88.2365 45.3805 88.2991C45.6169 88.3547 45.8568 88.3825 46.1002 88.3825C46.4131 88.3825 46.6599 88.3269 46.8407 88.2157C47.0284 88.1044 47.1223 87.9201 47.1223 87.6629C47.1223 87.4404 47.0423 87.2839 46.8824 87.1935C46.7225 87.0962 46.493 87.0023 46.194 86.9119L45.8707 86.8076C45.4187 86.6616 45.0815 86.4808 44.859 86.2652C44.6434 86.0427 44.5357 85.7576 44.5357 85.41C44.5357 85.2014 44.5809 85.0102 44.6713 84.8363C44.7616 84.6625 44.8833 84.5165 45.0363 84.3983C45.1962 84.2801 45.384 84.1897 45.5995 84.1271C45.8151 84.0576 46.0515 84.0228 46.3088 84.0228C46.5521 84.0228 46.8024 84.0471 47.0597 84.0958C47.3239 84.1375 47.5743 84.2105 47.8107 84.3148L47.6021 85.0136ZM51.8495 85.0136C51.62 84.9024 51.4114 84.8259 51.2237 84.7842C51.0359 84.7425 50.8482 84.7216 50.6604 84.7216C50.3267 84.7216 50.0798 84.7842 49.9199 84.9093C49.76 85.0275 49.68 85.1875 49.68 85.3891C49.68 85.5351 49.7356 85.6638 49.8469 85.775C49.9581 85.8793 50.1911 85.9836 50.5457 86.0879L50.8586 86.1818C51.3245 86.3209 51.6756 86.5017 51.912 86.7242C52.1554 86.9397 52.2771 87.2352 52.2771 87.6107C52.2771 88.0557 52.1102 88.4138 51.7764 88.685C51.4496 88.9562 50.9907 89.0918 50.3997 89.0918C50.0868 89.0918 49.7843 89.064 49.4923 89.0083C49.2072 88.9527 48.9603 88.8762 48.7517 88.7789L48.9708 88.0592C49.1724 88.1565 49.3914 88.2365 49.6279 88.2991C49.8643 88.3547 50.1042 88.3825 50.3475 88.3825C50.6604 88.3825 50.9073 88.3269 51.0881 88.2157C51.2758 88.1044 51.3697 87.9201 51.3697 87.6629C51.3697 87.4404 51.2897 87.2839 51.1298 87.1935C50.9699 87.0962 50.7404 87.0023 50.4414 86.9119L50.1181 86.8076C49.6661 86.6616 49.3289 86.4808 49.1064 86.2652C48.8908 86.0427 48.783 85.7576 48.783 85.41C48.783 85.2014 48.8282 85.0102 48.9186 84.8363C49.009 84.6625 49.1307 84.5165 49.2837 84.3983C49.4436 84.2801 49.6313 84.1897 49.8469 84.1271C50.0624 84.0576 50.2989 84.0228 50.5561 84.0228C50.7995 84.0228 51.0498 84.0471 51.3071 84.0958C51.5713 84.1375 51.8216 84.2105 52.0581 84.3148L51.8495 85.0136Z" fill="#1D1D1D"/>
<path d="M20.9765 102.448C21.3381 102.448 21.6753 102.514 21.9882 102.646C22.3011 102.771 22.5723 102.97 22.8017 103.241C23.0312 103.512 23.2085 103.863 23.3337 104.294C23.4658 104.718 23.5318 105.229 23.5318 105.827C23.5318 106.425 23.4623 106.94 23.3232 107.371C23.1842 107.795 22.9964 108.143 22.76 108.414C22.5236 108.685 22.2524 108.887 21.9465 109.019C21.6405 109.144 21.3172 109.207 20.9765 109.207C20.608 109.207 20.2673 109.144 19.9544 109.019C19.6484 108.887 19.3807 108.685 19.1512 108.414C18.9218 108.143 18.741 107.795 18.6089 107.371C18.4837 106.94 18.4211 106.425 18.4211 105.827C18.4211 105.257 18.4907 104.76 18.6297 104.336C18.7688 103.912 18.9531 103.561 19.1825 103.283C19.4189 102.997 19.6901 102.789 19.9961 102.657C20.309 102.518 20.6358 102.448 20.9765 102.448ZM19.3807 105.827C19.3807 106.377 19.4259 106.825 19.5163 107.173C19.6067 107.514 19.7249 107.781 19.8709 107.976C20.0169 108.171 20.1873 108.306 20.382 108.383C20.5767 108.452 20.7783 108.487 20.9869 108.487C21.1955 108.487 21.3937 108.449 21.5814 108.372C21.7761 108.289 21.9465 108.146 22.0925 107.945C22.2385 107.736 22.3533 107.461 22.4367 107.121C22.5271 106.78 22.5723 106.349 22.5723 105.827C22.5723 105.285 22.5271 104.84 22.4367 104.492C22.3463 104.145 22.2281 103.874 22.0821 103.679C21.9361 103.484 21.7657 103.352 21.571 103.283C21.3763 103.206 21.1747 103.168 20.9661 103.168C20.7575 103.168 20.5558 103.209 20.3611 103.293C20.1734 103.369 20.0065 103.512 19.8605 103.721C19.7145 103.922 19.5963 104.193 19.5059 104.534C19.4224 104.875 19.3807 105.306 19.3807 105.827ZM27.2574 102.448C27.7302 102.448 28.1509 102.518 28.5194 102.657L28.3004 103.397C28.1544 103.335 27.9979 103.286 27.831 103.251C27.6642 103.209 27.4834 103.189 27.2887 103.189C26.9827 103.189 26.715 103.248 26.4856 103.366C26.2561 103.477 26.0614 103.634 25.9015 103.835C25.7485 104.037 25.6268 104.28 25.5364 104.565C25.453 104.85 25.4078 105.163 25.4009 105.504C25.5955 105.261 25.8285 105.083 26.0997 104.972C26.3778 104.854 26.6629 104.795 26.9549 104.795C27.247 104.795 27.5216 104.844 27.7789 104.941C28.0362 105.031 28.2587 105.17 28.4464 105.358C28.6411 105.539 28.7941 105.761 28.9053 106.026C29.0166 106.29 29.0722 106.592 29.0722 106.933C29.0722 107.281 29.0131 107.594 28.8949 107.872C28.7836 108.15 28.6237 108.39 28.4151 108.591C28.2135 108.786 27.9736 108.939 27.6955 109.05C27.4173 109.155 27.1114 109.207 26.7776 109.207C26.4786 109.207 26.1901 109.151 25.9119 109.04C25.6338 108.922 25.3835 108.737 25.161 108.487C24.9454 108.237 24.7716 107.917 24.6395 107.528C24.5073 107.131 24.4413 106.655 24.4413 106.099C24.4413 105.424 24.5178 104.857 24.6708 104.399C24.8307 103.933 25.0393 103.557 25.2966 103.272C25.5608 102.98 25.8598 102.771 26.1935 102.646C26.5342 102.514 26.8889 102.448 27.2574 102.448ZM25.4009 106.714C25.4009 106.964 25.4321 107.197 25.4947 107.413C25.5643 107.628 25.6616 107.816 25.7868 107.976C25.9119 108.136 26.0614 108.265 26.2353 108.362C26.4091 108.452 26.6003 108.498 26.8089 108.498C27.0105 108.498 27.1913 108.459 27.3513 108.383C27.5181 108.306 27.6607 108.199 27.7789 108.059C27.8971 107.92 27.9875 107.757 28.0501 107.569C28.1196 107.381 28.1544 107.176 28.1544 106.954C28.1544 106.46 28.0292 106.099 27.7789 105.869C27.5286 105.64 27.1948 105.525 26.7776 105.525C26.4647 105.525 26.2005 105.598 25.9849 105.744C25.7763 105.89 25.6164 106.06 25.5052 106.255C25.4634 106.332 25.4356 106.408 25.4217 106.485C25.4078 106.561 25.4009 106.637 25.4009 106.714ZM32.0491 105.64V106.464H29.7545V105.64H32.0491ZM35.3687 102.448C35.7302 102.448 36.0675 102.514 36.3804 102.646C36.6933 102.771 36.9645 102.97 37.1939 103.241C37.4234 103.512 37.6007 103.863 37.7258 104.294C37.858 104.718 37.924 105.229 37.924 105.827C37.924 106.425 37.8545 106.94 37.7154 107.371C37.5764 107.795 37.3886 108.143 37.1522 108.414C36.9158 108.685 36.6446 108.887 36.3387 109.019C36.0327 109.144 35.7094 109.207 35.3687 109.207C35.0001 109.207 34.6594 109.144 34.3465 109.019C34.0406 108.887 33.7729 108.685 33.5434 108.414C33.314 108.143 33.1332 107.795 33.0011 107.371C32.8759 106.94 32.8133 106.425 32.8133 105.827C32.8133 105.257 32.8829 104.76 33.0219 104.336C33.161 103.912 33.3452 103.561 33.5747 103.283C33.8111 102.997 34.0823 102.789 34.3882 102.657C34.7011 102.518 35.028 102.448 35.3687 102.448ZM33.7729 105.827C33.7729 106.377 33.8181 106.825 33.9085 107.173C33.9989 107.514 34.1171 107.781 34.2631 107.976C34.4091 108.171 34.5795 108.306 34.7742 108.383C34.9689 108.452 35.1705 108.487 35.3791 108.487C35.5877 108.487 35.7859 108.449 35.9736 108.372C36.1683 108.289 36.3387 108.146 36.4847 107.945C36.6307 107.736 36.7454 107.461 36.8289 107.121C36.9193 106.78 36.9645 106.349 36.9645 105.827C36.9645 105.285 36.9193 104.84 36.8289 104.492C36.7385 104.145 36.6203 103.874 36.4742 103.679C36.3282 103.484 36.1579 103.352 35.9632 103.283C35.7685 103.206 35.5668 103.168 35.3582 103.168C35.1496 103.168 34.948 103.209 34.7533 103.293C34.5656 103.369 34.3987 103.512 34.2527 103.721C34.1066 103.922 33.9884 104.193 33.898 104.534C33.8146 104.875 33.7729 105.306 33.7729 105.827ZM41.0133 102.448C41.354 102.448 41.6496 102.493 41.8999 102.584C42.1572 102.674 42.3727 102.796 42.5465 102.949C42.7204 103.102 42.849 103.276 42.9325 103.47C43.0228 103.665 43.068 103.87 43.068 104.086C43.068 104.399 42.9637 104.694 42.7551 104.972C42.5535 105.25 42.2406 105.473 41.8164 105.64C42.2962 105.841 42.6508 106.074 42.8803 106.338C43.1167 106.596 43.2349 106.93 43.2349 107.34C43.2349 107.646 43.1793 107.913 43.068 108.143C42.9568 108.372 42.8003 108.567 42.5987 108.727C42.404 108.887 42.1711 109.009 41.8999 109.092C41.6287 109.169 41.3332 109.207 41.0133 109.207C40.7004 109.207 40.4049 109.165 40.1268 109.082C39.8556 108.998 39.6192 108.88 39.4175 108.727C39.2159 108.574 39.056 108.39 38.9378 108.174C38.8196 107.952 38.7605 107.701 38.7605 107.423C38.7605 106.999 38.8682 106.658 39.0838 106.401C39.3063 106.144 39.6505 105.914 40.1164 105.713C39.7617 105.553 39.4836 105.344 39.282 105.087C39.0803 104.823 38.9795 104.52 38.9795 104.179C38.9795 103.95 39.0212 103.731 39.1046 103.522C39.1881 103.314 39.3132 103.13 39.4801 102.97C39.654 102.81 39.866 102.685 40.1164 102.594C40.3736 102.497 40.6726 102.448 41.0133 102.448ZM39.8452 104.127C39.8452 104.287 39.8765 104.43 39.939 104.555C40.0086 104.68 40.0955 104.791 40.1998 104.889C40.311 104.979 40.4397 105.063 40.5857 105.139C40.7317 105.209 40.8847 105.271 41.0446 105.327C41.2046 105.264 41.354 105.195 41.4931 105.118C41.6322 105.042 41.7539 104.955 41.8582 104.857C41.9625 104.753 42.0424 104.642 42.0981 104.524C42.1606 104.399 42.1919 104.259 42.1919 104.106C42.1919 103.96 42.1606 103.828 42.0981 103.71C42.0355 103.592 41.9486 103.491 41.8373 103.408C41.733 103.317 41.6078 103.251 41.4618 103.209C41.3228 103.161 41.1733 103.136 41.0133 103.136C40.8186 103.136 40.6483 103.164 40.5023 103.22C40.3562 103.276 40.2346 103.349 40.1372 103.439C40.0399 103.529 39.9669 103.637 39.9182 103.762C39.8695 103.88 39.8452 104.002 39.8452 104.127ZM40.9299 106.046C40.5614 106.165 40.2624 106.328 40.0329 106.537C39.8035 106.738 39.6887 107.023 39.6887 107.392C39.6887 107.684 39.7965 107.941 40.0121 108.164C40.2346 108.386 40.5683 108.498 41.0133 108.498C41.215 108.498 41.3958 108.47 41.5557 108.414C41.7226 108.351 41.8616 108.268 41.9729 108.164C42.0841 108.059 42.1676 107.941 42.2232 107.809C42.2858 107.677 42.3171 107.538 42.3171 107.392C42.3171 107.218 42.2823 107.062 42.2128 106.923C42.1433 106.777 42.0459 106.651 41.9207 106.547C41.7956 106.436 41.6461 106.338 41.4723 106.255C41.3054 106.172 41.1246 106.102 40.9299 106.046ZM46.2375 105.64V106.464H43.9429V105.64H46.2375ZM48.6859 103.199C48.4634 103.199 48.2513 103.237 48.0497 103.314C47.848 103.39 47.6255 103.522 47.3822 103.71L46.9754 103.095C47.2883 102.831 47.5838 102.657 47.8619 102.573C48.147 102.49 48.4217 102.448 48.6859 102.448C49.0475 102.448 49.3569 102.5 49.6142 102.605C49.8784 102.702 50.0974 102.837 50.2713 103.011C50.4451 103.185 50.5737 103.39 50.6572 103.627C50.7406 103.863 50.7823 104.12 50.7823 104.399C50.7823 104.649 50.7302 104.906 50.6259 105.17C50.5216 105.428 50.3721 105.695 50.1774 105.973C49.9897 106.245 49.7602 106.53 49.489 106.829C49.2178 107.121 48.9119 107.43 48.5712 107.757L47.9558 108.351H50.9388V109.113H46.9858L46.8189 108.456L47.6846 107.59C48.0671 107.208 48.3939 106.867 48.665 106.568C48.9432 106.269 49.1692 105.994 49.343 105.744C49.5168 105.494 49.642 105.264 49.7185 105.056C49.8019 104.847 49.8436 104.638 49.8436 104.43C49.8436 104.075 49.7463 103.783 49.5516 103.554C49.3639 103.317 49.0753 103.199 48.6859 103.199ZM54.3953 102.448C54.7568 102.448 55.0941 102.514 55.407 102.646C55.7199 102.771 55.9911 102.97 56.2205 103.241C56.45 103.512 56.6273 103.863 56.7524 104.294C56.8846 104.718 56.9506 105.229 56.9506 105.827C56.9506 106.425 56.8811 106.94 56.742 107.371C56.6029 107.795 56.4152 108.143 56.1788 108.414C55.9424 108.685 55.6712 108.887 55.3653 109.019C55.0593 109.144 54.736 109.207 54.3953 109.207C54.0267 109.207 53.686 109.144 53.3731 109.019C53.0672 108.887 52.7995 108.685 52.57 108.414C52.3406 108.143 52.1598 107.795 52.0277 107.371C51.9025 106.94 51.8399 106.425 51.8399 105.827C51.8399 105.257 51.9094 104.76 52.0485 104.336C52.1876 103.912 52.3718 103.561 52.6013 103.283C52.8377 102.997 53.1089 102.789 53.4148 102.657C53.7277 102.518 54.0546 102.448 54.3953 102.448ZM52.7995 105.827C52.7995 106.377 52.8447 106.825 52.9351 107.173C53.0255 107.514 53.1437 107.781 53.2897 107.976C53.4357 108.171 53.6061 108.306 53.8008 108.383C53.9954 108.452 54.1971 108.487 54.4057 108.487C54.6143 108.487 54.8125 108.449 55.0002 108.372C55.1949 108.289 55.3653 108.146 55.5113 107.945C55.6573 107.736 55.772 107.461 55.8555 107.121C55.9459 106.78 55.9911 106.349 55.9911 105.827C55.9911 105.285 55.9459 104.84 55.8555 104.492C55.7651 104.145 55.6469 103.874 55.5008 103.679C55.3548 103.484 55.1845 103.352 54.9898 103.283C54.7951 103.206 54.5934 103.168 54.3848 103.168C54.1762 103.168 53.9746 103.209 53.7799 103.293C53.5922 103.369 53.4253 103.512 53.2793 103.721C53.1332 103.922 53.015 104.193 52.9246 104.534C52.8412 104.875 52.7995 105.306 52.7995 105.827ZM59.727 103.199C59.5045 103.199 59.2924 103.237 59.0908 103.314C58.8892 103.39 58.6666 103.522 58.4233 103.71L58.0165 103.095C58.3294 102.831 58.6249 102.657 58.9031 102.573C59.1881 102.49 59.4628 102.448 59.727 102.448C60.0886 102.448 60.398 102.5 60.6553 102.605C60.9195 102.702 61.1386 102.837 61.3124 103.011C61.4862 103.185 61.6149 103.39 61.6983 103.627C61.7817 103.863 61.8235 104.12 61.8235 104.399C61.8235 104.649 61.7713 104.906 61.667 105.17C61.5627 105.428 61.4132 105.695 61.2185 105.973C61.0308 106.245 60.8013 106.53 60.5301 106.829C60.259 107.121 59.953 107.43 59.6123 107.757L58.9969 108.351H61.9799V109.113H58.0269L57.8601 108.456L58.7258 107.59C59.1082 107.208 59.435 106.867 59.7062 106.568C59.9843 106.269 60.2103 105.994 60.3841 105.744C60.558 105.494 60.6831 105.264 60.7596 105.056C60.843 104.847 60.8848 104.638 60.8848 104.43C60.8848 104.075 60.7874 103.783 60.5927 103.554C60.405 103.317 60.1164 103.199 59.727 103.199ZM62.8326 102.938C63.1037 102.758 63.3854 102.632 63.6774 102.563C63.9694 102.486 64.2476 102.448 64.5118 102.448C64.8038 102.448 65.0715 102.49 65.3149 102.573C65.5652 102.657 65.7773 102.775 65.9511 102.928C66.125 103.074 66.2606 103.251 66.3579 103.46C66.4552 103.661 66.5039 103.884 66.5039 104.127C66.5039 104.538 66.3961 104.878 66.1806 105.149C65.972 105.421 65.7147 105.612 65.4088 105.723C65.7912 105.807 66.1076 105.991 66.3579 106.276C66.6082 106.554 66.7334 106.891 66.7334 107.288C66.7334 107.642 66.6638 107.941 66.5248 108.185C66.3857 108.428 66.2049 108.626 65.9824 108.779C65.7599 108.925 65.5061 109.033 65.221 109.102C64.9429 109.172 64.6578 109.207 64.3658 109.207C64.0737 109.207 63.7817 109.179 63.4897 109.123C63.1976 109.068 62.9403 108.988 62.7178 108.883L62.9264 108.174C63.0446 108.216 63.1559 108.258 63.2602 108.299C63.3645 108.334 63.4723 108.365 63.5835 108.393C63.6948 108.414 63.8095 108.431 63.9277 108.445C64.0529 108.459 64.1954 108.466 64.3553 108.466C64.5292 108.466 64.6995 108.445 64.8664 108.404C65.0402 108.362 65.1932 108.292 65.3253 108.195C65.4574 108.098 65.5652 107.976 65.6487 107.83C65.7321 107.677 65.7738 107.489 65.7738 107.267C65.7738 107.072 65.7356 106.902 65.6591 106.756C65.5896 106.61 65.4887 106.491 65.3566 106.401C65.2315 106.311 65.082 106.245 64.9081 106.203C64.7343 106.154 64.5431 106.13 64.3345 106.13H63.5522V105.421H64.1572C64.5605 105.421 64.8942 105.323 65.1585 105.129C65.4296 104.934 65.5652 104.635 65.5652 104.232C65.5652 104.086 65.5339 103.95 65.4714 103.825C65.4157 103.693 65.3358 103.582 65.2315 103.491C65.1341 103.394 65.0159 103.317 64.8768 103.262C64.7447 103.206 64.5987 103.178 64.4388 103.178C64.2163 103.178 64.0077 103.206 63.813 103.262C63.6183 103.317 63.3888 103.422 63.1246 103.575L62.8326 102.938Z" fill="#1D1D1D"/>
</g>
<rect x="91.1667" y="7.66424" width="47.3075" height="33.0035" rx="2.79375" fill="white" stroke="#1D1D1D" stroke-width="0.3725"/>
<path d="M95.6761 15.7355C95.1794 15.4488 94.5586 15.8072 94.5586 16.3807V20.6231C94.5586 21.1966 95.1794 21.555 95.6761 21.2683L99.3501 19.1471C99.8468 18.8603 99.8468 18.1435 99.3501 17.8567L95.6761 15.7355Z" fill="#EBE9E9"/>
<path d="M94.9311 26.2864C94.7006 26.4195 94.5586 26.6654 94.5586 26.9316V34.0989C94.5586 35.8545 95.9817 37.2776 97.7373 37.2776H131.908C132.21 37.2776 132.502 37.2355 132.779 37.1568L105.186 21.226C104.725 20.9599 104.157 20.9599 103.696 21.226L94.9311 26.2864Z" fill="#EBE9E9"/>
<path d="M135.087 33.9012V20.1481C135.087 19.5746 134.466 19.2162 133.969 19.5029L123.176 25.7343C122.679 26.021 122.679 26.7379 123.176 27.0246L135.087 33.9012Z" fill="#EBE9E9"/>
<path d="M135.087 14.2697V14.2323C135.087 12.4767 133.663 11.0536 131.908 11.0536H97.7373C97.1794 11.0536 96.6552 11.1973 96.1995 11.4497L117.34 23.6553C117.801 23.9215 118.369 23.9215 118.83 23.6553L135.087 14.2697Z" fill="#EBE9E9"/>
<mask id="mask1_288_7236" style="mask-type:alpha" maskUnits="userSpaceOnUse" x="94" y="11" width="42" height="27">
<path d="M95.6761 15.7355C95.1794 15.4488 94.5586 15.8072 94.5586 16.3807V20.6231C94.5586 21.1966 95.1794 21.555 95.6761 21.2683L99.3501 19.1471C99.8468 18.8603 99.8468 18.1435 99.3501 17.8567L95.6761 15.7355Z" fill="#EBE9E9"/>
<path d="M94.9311 26.2864C94.7006 26.4195 94.5586 26.6654 94.5586 26.9316V34.0989C94.5586 35.8545 95.9817 37.2776 97.7373 37.2776H131.908C132.21 37.2776 132.502 37.2355 132.779 37.1568L105.186 21.226C104.725 20.9599 104.157 20.9599 103.696 21.226L94.9311 26.2864Z" fill="#EBE9E9"/>
<path d="M135.087 33.9012V20.1481C135.087 19.5746 134.466 19.2162 133.969 19.5029L123.176 25.7343C122.679 26.021 122.679 26.7379 123.176 27.0246L135.087 33.9012Z" fill="#EBE9E9"/>
<path d="M135.087 14.2697V14.2323C135.087 12.4767 133.663 11.0536 131.908 11.0536H97.7373C97.1794 11.0536 96.6552 11.1973 96.1995 11.4497L117.34 23.6553C117.801 23.9215 118.369 23.9215 118.83 23.6553L135.087 14.2697Z" fill="#EBE9E9"/>
</mask>
<g mask="url(#mask1_288_7236)">
<path fill-rule="evenodd" clip-rule="evenodd" d="M116.657 19.5744L100.277 9.60389L101.052 8.33114L117.432 18.3016C117.665 18.4433 117.956 18.4466 118.192 18.3103L134.189 9.06745L134.935 10.3576L118.938 19.6005C118.23 20.0093 117.356 19.9993 116.657 19.5744Z" fill="white" fill-opacity="0.4"/>
<path fill-rule="evenodd" clip-rule="evenodd" d="M127.876 37.76L105.56 24.0822C104.843 23.643 103.941 23.643 103.224 24.0822L92.4551 30.6825L93.2337 31.9529L104.003 25.3526C104.241 25.2062 104.542 25.2062 104.781 25.3526L127.098 39.0304L127.876 37.76Z" fill="white" fill-opacity="0.4"/>
</g>
<path d="M112.586 21.7462C112.586 25.078 107.845 31.4631 105.927 33.9104C105.522 34.4268 104.749 34.4268 104.345 33.9104C102.426 31.4631 97.6855 25.078 97.6855 21.7462C97.6855 17.5694 101.021 14.1827 105.136 14.1827C109.25 14.1827 112.586 17.5694 112.586 21.7462Z" fill="#0075FF"/>
<path d="M105.361 18.054L106.171 19.7745C106.3 20.0481 106.548 20.2372 106.835 20.2807L108.646 20.5566C108.851 20.5883 108.933 20.8514 108.785 21.0029L107.474 22.3417C107.266 22.5543 107.171 22.8608 107.22 23.1603L107.529 25.0511C107.564 25.2649 107.35 25.4281 107.166 25.3271L105.546 24.4345C105.288 24.2924 104.981 24.2924 104.725 24.4345L103.105 25.3271C102.921 25.4281 102.707 25.2649 102.742 25.0511L103.051 23.1603C103.1 22.8597 103.005 22.5543 102.796 22.3417L101.486 21.0029C101.338 20.8514 101.419 20.5872 101.625 20.5566L103.435 20.2807C103.723 20.2372 103.972 20.0481 104.099 19.7745L104.909 18.054C105.001 17.859 105.266 17.859 105.358 18.054H105.361Z" fill="#1D1D1D"/>
</svg>
