<svg width="146" height="129" viewBox="0 0 146 129" fill="none" xmlns="http://www.w3.org/2000/svg">
<g clip-path="url(#clip0_1725_12115)">
<path d="M119.127 0.412964H47.7369V127.667H119.127V0.412964Z" fill="#87B7E0" stroke="#AFCDFB" stroke-width="0.825896" stroke-miterlimit="10"/>
<path d="M98.4883 4.04675H68.3761V7.25123H98.4883V4.04675Z" fill="#AFCDFB"/>
<path d="M115.32 9.56396H51.5526V115.782H115.32V9.56396Z" fill="white" stroke="#AFCDFB" stroke-width="0.825896" stroke-linecap="round" stroke-linejoin="round"/>
<path d="M90.8571 121.745C90.8571 123.009 89.8329 124.033 88.5693 124.033H78.2952C77.0316 124.033 76.0074 123.009 76.0074 121.745C76.0074 120.482 77.0316 119.458 78.2952 119.458H88.5693C89.8329 119.458 90.8571 120.482 90.8571 121.745Z" fill="white" stroke="#AFCDFB" stroke-width="0.825896" stroke-linecap="round" stroke-linejoin="round"/>
<g style="mix-blend-mode:multiply">
<path d="M78.1052 119.466C76.949 119.466 76.0074 120.49 76.0074 121.754C76.0074 123.017 76.9407 124.041 78.1052 124.041H83.4323V119.466H78.1052Z" fill="#D8DADE"/>
</g>
<path d="M75.644 49.6693V37.3056L72.8607 33.2587V19.2845" stroke="#AFCDFB" stroke-width="0.825896" stroke-miterlimit="10"/>
<path d="M91.3278 49.6694V40.3202L94.111 36.2733V19.7389" stroke="#AFCDFB" stroke-width="0.825896" stroke-miterlimit="10"/>
<path d="M86.7111 49.6695V37.7766L89.4943 34.8942V24.2401" stroke="#AFCDFB" stroke-width="0.825896" stroke-miterlimit="10"/>
<path d="M80.2608 49.6693V37.7764L77.4692 34.8941V24.24" stroke="#AFCDFB" stroke-width="0.825896" stroke-miterlimit="10"/>
<path d="M83.4818 49.6693V27.2627" stroke="#AFCDFB" stroke-width="0.825896" stroke-miterlimit="10"/>
<path d="M85.274 28.7164C85.274 29.7901 84.3985 30.6656 83.3248 30.6656C82.2512 30.6656 81.3757 29.7984 81.3757 28.7164C81.3757 27.6345 82.2512 26.7673 83.3248 26.7673C84.3985 26.7673 85.274 27.6345 85.274 28.7164Z" fill="#AFCDFB"/>
<path d="M79.344 23.1829C79.344 24.2648 78.4686 25.132 77.3949 25.132C76.3213 25.132 75.4458 24.2648 75.4458 23.1829C75.4458 22.101 76.3213 21.2338 77.3949 21.2338C78.4686 21.2338 79.344 22.101 79.344 23.1829Z" fill="#AFCDFB"/>
<path d="M91.4434 23.1829C91.4434 24.2648 90.5762 25.132 89.4943 25.132C88.4124 25.132 87.5452 24.2648 87.5452 23.1829C87.5452 22.101 88.4206 21.2338 89.4943 21.2338C90.5679 21.2338 91.4434 22.101 91.4434 23.1829Z" fill="#AFCDFB"/>
<path d="M96.0602 18.3678C96.0602 19.4415 95.1848 20.3169 94.1111 20.3169C93.0374 20.3169 92.162 19.4415 92.162 18.3678C92.162 17.2942 93.0374 16.4187 94.1111 16.4187C95.1848 16.4187 96.0602 17.2942 96.0602 18.3678Z" fill="#AFCDFB"/>
<path d="M74.8099 18.3678C74.8099 19.4415 73.9344 20.3169 72.8607 20.3169C71.7871 20.3169 70.9116 19.4415 70.9116 18.3678C70.9116 17.2942 71.7871 16.4187 72.8607 16.4187C73.9344 16.4187 74.8099 17.2942 74.8099 18.3678Z" fill="#AFCDFB"/>
<path d="M91.3278 78.4105V90.7742L94.111 94.8211V108.795" stroke="#AFCDFB" stroke-width="0.825896" stroke-miterlimit="10"/>
<path d="M75.644 78.4105V87.7597L72.8607 91.8066V108.333" stroke="#AFCDFB" stroke-width="0.825896" stroke-miterlimit="10"/>
<path d="M80.2608 78.4105V90.2952L77.4692 93.1775V103.84" stroke="#AFCDFB" stroke-width="0.825896" stroke-miterlimit="10"/>
<path d="M86.7111 78.4105V90.2952L89.4943 93.1775V103.84" stroke="#AFCDFB" stroke-width="0.825896" stroke-miterlimit="10"/>
<path d="M83.4818 78.4105V100.809" stroke="#AFCDFB" stroke-width="0.825896" stroke-miterlimit="10"/>
<path d="M81.6979 99.3635C81.6979 98.2899 82.5733 97.4144 83.647 97.4144C84.7207 97.4144 85.5961 98.2899 85.5961 99.3635C85.5961 100.437 84.7289 101.313 83.647 101.313C82.5651 101.313 81.6979 100.437 81.6979 99.3635Z" fill="#AFCDFB"/>
<path d="M87.6195 104.889C87.6195 103.815 88.495 102.94 89.5686 102.94C90.6423 102.94 91.5177 103.815 91.5177 104.889C91.5177 105.962 90.6423 106.846 89.5686 106.846C88.495 106.846 87.6195 105.971 87.6195 104.889Z" fill="#AFCDFB"/>
<path d="M75.5283 104.889C75.5283 103.815 76.4038 102.94 77.4774 102.94C78.5511 102.94 79.4266 103.815 79.4266 104.889C79.4266 105.962 78.5511 106.846 77.4774 106.846C76.4038 106.846 75.5283 105.971 75.5283 104.889Z" fill="#AFCDFB"/>
<path d="M70.9116 109.712C70.9116 108.639 71.7871 107.763 72.8607 107.763C73.9344 107.763 74.8099 108.639 74.8099 109.712C74.8099 110.786 73.9344 111.661 72.8607 111.661C71.7871 111.661 70.9116 110.786 70.9116 109.712Z" fill="#AFCDFB"/>
<path d="M92.162 109.712C92.162 108.639 93.0374 107.763 94.1111 107.763C95.1848 107.763 96.0602 108.639 96.0602 109.712C96.0602 110.786 95.1848 111.661 94.1111 111.661C93.0374 111.661 92.162 110.786 92.162 109.712Z" fill="#AFCDFB"/>
<path d="M106.962 56.0454H119.326L123.381 53.2621H137.347" stroke="#AFCDFB" stroke-width="0.825896" stroke-miterlimit="10"/>
<path d="M106.962 71.7291H116.311L120.358 74.5124H136.892" stroke="#AFCDFB" stroke-width="0.825896" stroke-miterlimit="10"/>
<path d="M106.962 67.1121H118.855L121.737 69.8953H132.391" stroke="#AFCDFB" stroke-width="0.825896" stroke-miterlimit="10"/>
<path d="M106.962 60.6619H118.855L121.737 57.8787H132.391" stroke="#AFCDFB" stroke-width="0.825896" stroke-miterlimit="10"/>
<path d="M106.962 63.8831H129.368" stroke="#AFCDFB" stroke-width="0.825896" stroke-miterlimit="10"/>
<path d="M127.923 65.6752C126.85 65.6752 125.974 64.7997 125.974 63.7261C125.974 62.6524 126.841 61.7687 127.923 61.7687C129.005 61.7687 129.872 62.6441 129.872 63.7261C129.872 64.808 129.005 65.6752 127.923 65.6752Z" fill="#AFCDFB"/>
<path d="M133.448 59.7451C132.375 59.7451 131.499 58.8697 131.499 57.796C131.499 56.7224 132.375 55.8469 133.448 55.8469C134.522 55.8469 135.397 56.7224 135.397 57.796C135.397 58.8697 134.522 59.7451 133.448 59.7451Z" fill="#AFCDFB"/>
<path d="M133.448 71.8445C132.375 71.8445 131.499 70.9691 131.499 69.8954C131.499 68.8217 132.375 67.9463 133.448 67.9463C134.522 67.9463 135.397 68.8135 135.397 69.8954C135.397 70.9773 134.522 71.8445 133.448 71.8445Z" fill="#AFCDFB"/>
<path d="M138.263 76.4613C137.19 76.4613 136.314 75.5859 136.314 74.5122C136.314 73.4386 137.181 72.5631 138.263 72.5631C139.345 72.5631 140.212 73.4303 140.212 74.5122C140.212 75.5942 139.337 76.4613 138.263 76.4613Z" fill="#AFCDFB"/>
<path d="M138.263 55.211C137.19 55.211 136.314 54.3355 136.314 53.2619C136.314 52.1882 137.181 51.3127 138.263 51.3127C139.345 51.3127 140.212 52.1882 140.212 53.2619C140.212 54.3355 139.337 55.211 138.263 55.211Z" fill="#AFCDFB"/>
<path d="M59.9024 56.0454H47.5305L43.4919 53.2621H29.5177" stroke="#AFCDFB" stroke-width="0.825896" stroke-miterlimit="10"/>
<path d="M59.9025 71.7291H50.5451L46.5065 74.5124H29.972" stroke="#AFCDFB" stroke-width="0.825896" stroke-miterlimit="10"/>
<path d="M59.9024 67.1121H48.0177L45.1271 69.8953H34.473" stroke="#AFCDFB" stroke-width="0.825896" stroke-miterlimit="10"/>
<path d="M59.9024 60.6619H48.0177L45.1271 57.8787H34.473" stroke="#AFCDFB" stroke-width="0.825896" stroke-miterlimit="10"/>
<path d="M59.9024 63.8831H37.4958" stroke="#AFCDFB" stroke-width="0.825896" stroke-miterlimit="10"/>
<path d="M38.9411 65.6752C40.0147 65.6752 40.8902 64.7997 40.8902 63.7261C40.8902 62.6524 40.0147 61.7687 38.9411 61.7687C37.8674 61.7687 36.9919 62.6441 36.9919 63.7261C36.9919 64.808 37.8591 65.6752 38.9411 65.6752Z" fill="#AFCDFB"/>
<path d="M33.4159 59.7451C34.4978 59.7451 35.365 58.8697 35.365 57.796C35.365 56.7224 34.4978 55.8469 33.4159 55.8469C32.334 55.8469 31.4668 56.7224 31.4668 57.796C31.4668 58.8697 32.334 59.7451 33.4159 59.7451Z" fill="#AFCDFB"/>
<path d="M33.4159 71.8445C34.4978 71.8445 35.365 70.9691 35.365 69.8954C35.365 68.8217 34.4978 67.9463 33.4159 67.9463C32.334 67.9463 31.4668 68.8135 31.4668 69.8954C31.4668 70.9773 32.334 71.8445 33.4159 71.8445Z" fill="#AFCDFB"/>
<path d="M28.5927 76.4613C29.6746 76.4613 30.5418 75.5859 30.5418 74.5122C30.5418 73.4386 29.6746 72.5631 28.5927 72.5631C27.5107 72.5631 26.6436 73.4303 26.6436 74.5122C26.6436 75.5942 27.519 76.4613 28.5927 76.4613Z" fill="#AFCDFB"/>
<path d="M28.5927 55.211C29.6746 55.211 30.5418 54.3355 30.5418 53.2619C30.5418 52.1882 29.6746 51.3127 28.5927 51.3127C27.5107 51.3127 26.6436 52.1882 26.6436 53.2619C26.6436 54.3355 27.519 55.211 28.5927 55.211Z" fill="#AFCDFB"/>
<path d="M106.599 79.3355C106.599 83.5476 103.188 86.9585 98.9673 86.9585H68.0128C63.8007 86.9585 60.3815 83.5476 60.3815 79.3355V48.3727C60.3815 44.1606 63.8007 40.7496 68.0128 40.7496H98.9673C103.179 40.7496 106.599 44.1606 106.599 48.3727V79.3273V79.3355Z" fill="#87B7E0" stroke="#AFCDFB" stroke-width="0.825896" stroke-miterlimit="10"/>
<path d="M94.8626 65.3118C93.9954 64.2381 92.6409 63.4783 90.8074 63.0323C92.0132 62.6111 92.9383 62.0412 93.5659 61.3227C94.5075 60.2408 94.9782 58.9441 94.9782 57.4327C94.9782 55.6323 94.3175 54.1209 92.9961 52.8985C91.9885 51.957 90.634 51.3871 88.9574 51.1642V48.8434H86.1659V51.065H83.3V48.8434H80.5085V51.065H72.5221V76.6431H80.5085V78.8647H83.3V76.6431H86.1659V78.8647H88.9574V76.3953C89.1887 76.3622 89.4447 76.3292 89.709 76.2962C91.047 76.1227 92.0463 75.8419 92.707 75.4538C93.7807 74.8343 94.6231 74.0002 95.2342 72.943C95.8537 71.8859 96.1593 70.6966 96.1593 69.3669C96.1593 67.7399 95.7215 66.3854 94.8626 65.3118ZM80.492 56.2434H83.9773C85.1748 56.2434 86.0172 56.4581 86.4963 56.8711C86.9835 57.2923 87.2231 57.8704 87.2231 58.6137C87.2231 59.4149 86.9835 60.026 86.4963 60.4555C86.0172 60.8767 85.1583 61.0914 83.9195 61.0914H80.4837V56.2352L80.492 56.2434ZM80.492 71.1508V65.9642H84.5059C85.8934 65.9642 86.8597 66.1955 87.413 66.6497C87.9664 67.1122 88.2389 67.7234 88.2389 68.4749C88.2389 69.2843 87.9581 69.9368 87.4047 70.4241C86.8431 70.9113 85.8851 71.1508 84.5306 71.1508H80.5003H80.492Z" fill="white"/>
<path d="M115.312 98.2074H140.51C143.153 98.2074 145.3 100.355 145.3 102.998V122.869C145.3 125.512 143.153 127.659 140.51 127.659H115.312C112.669 127.659 110.521 125.512 110.521 122.869V102.998C110.521 100.355 112.669 98.2074 115.312 98.2074Z" fill="#AFCDFB" stroke="#AFCDFB" stroke-width="0.825896" stroke-miterlimit="10"/>
<path d="M141.212 98.2074H136.545V90.6174C136.545 85.8602 132.672 81.9867 127.915 81.9867C123.158 81.9867 119.284 85.8602 119.284 90.6174V98.2074H114.618V90.6174C114.618 83.2834 120.581 77.3204 127.915 77.3204C135.249 77.3204 141.212 83.2834 141.212 90.6174V98.2074Z" fill="#75B2DF" stroke="#AFCDFB" stroke-width="0.825896" stroke-miterlimit="10"/>
<path d="M132.375 109.481C132.375 107.02 130.376 105.021 127.907 105.021C125.437 105.021 123.438 107.02 123.438 109.481C123.438 111.389 124.628 113.008 126.313 113.652L125.701 120.763H130.112L129.501 113.652C131.177 113.008 132.375 111.381 132.375 109.481Z" fill="#87B7E0"/>
<path d="M123.298 100.834H117.112C114.899 100.834 113.107 102.626 113.107 104.839V110.637" stroke="white" stroke-width="0.825896" stroke-linecap="round" stroke-linejoin="round"/>
<path d="M125.421 100.833H129.261" stroke="white" stroke-width="0.825896" stroke-linecap="round" stroke-linejoin="round"/>
<path d="M116.749 89.7668C117.583 85.1996 120.887 81.4913 125.231 80.0873" stroke="white" stroke-width="0.825896" stroke-linecap="round" stroke-linejoin="round"/>
<path d="M127.915 79.699C127.915 79.699 129.451 79.5504 131.45 80.4093" stroke="white" stroke-width="0.825896" stroke-linecap="round" stroke-linejoin="round"/>
<path d="M56.7804 82.7054H0.412964V127.659H56.7804V82.7054Z" fill="white" stroke="#AFCDFB" stroke-width="0.825896" stroke-linecap="round" stroke-linejoin="round"/>
<path d="M12.1986 99.62H4.50952V104.072H12.1986V99.62Z" fill="#AFCDFB"/>
<path d="M22.3158 99.62H14.6267V104.072H22.3158V99.62Z" fill="#AFCDFB"/>
<path d="M32.4414 99.62H24.7523V104.072H32.4414V99.62Z" fill="#AFCDFB"/>
<path d="M42.5668 99.62H34.8777V104.072H42.5668V99.62Z" fill="#AFCDFB"/>
<path d="M52.6923 99.62H45.0032V104.072H52.6923V99.62Z" fill="#AFCDFB"/>
<path d="M12.1986 106.351H4.50952V110.803H12.1986V106.351Z" fill="#AFCDFB"/>
<path d="M22.3158 106.351H14.6267V110.803H22.3158V106.351Z" fill="#AFCDFB"/>
<path d="M32.4414 106.351H24.7523V110.803H32.4414V106.351Z" fill="#AFCDFB"/>
<path d="M42.5668 106.351H34.8777V110.803H42.5668V106.351Z" fill="#AFCDFB"/>
<path d="M52.6923 106.351H45.0032V110.803H52.6923V106.351Z" fill="#AFCDFB"/>
<path d="M12.1986 113.074H4.50952V117.525H12.1986V113.074Z" fill="#AFCDFB"/>
<path d="M22.3158 113.074H14.6267V117.525H22.3158V113.074Z" fill="#AFCDFB"/>
<path d="M32.4414 113.074H24.7523V117.525H32.4414V113.074Z" fill="#AFCDFB"/>
<path d="M42.5668 113.074H34.8777V117.525H42.5668V113.074Z" fill="#AFCDFB"/>
<path d="M52.6923 113.074H45.0032V117.525H52.6923V113.074Z" fill="#AFCDFB"/>
<path d="M12.1986 119.797H4.50952V124.24H12.1986V119.797Z" fill="#AFCDFB"/>
<path d="M22.3158 119.797H14.6267V124.24H22.3158V119.797Z" fill="#AFCDFB"/>
<path d="M32.4414 119.797H24.7523V124.24H32.4414V119.797Z" fill="#AFCDFB"/>
<path d="M42.5668 119.797H34.8777V124.24H42.5668V119.797Z" fill="#AFCDFB"/>
<path d="M52.6923 119.797H45.0032V124.24H52.6923V119.797Z" fill="#AFCDFB"/>
<path d="M56.7804 82.7054H0.412964V96.085H56.7804V82.7054Z" fill="#87B7E0" stroke="#AFCDFB" stroke-width="0.825896" stroke-miterlimit="10"/>
<path d="M9.69602 87.5287C9.69602 89.4613 8.12682 91.0305 6.20248 91.0305C4.27815 91.0305 2.70068 89.4613 2.70068 87.5287C2.70068 85.5961 4.26163 84.0269 6.20248 84.0269C8.14334 84.0269 9.69602 85.5961 9.69602 87.5287Z" fill="#AFCDFB"/>
<path d="M7.75519 88.652C7.75519 89.5109 7.06144 90.2129 6.19424 90.2129C5.33531 90.2129 4.6333 89.5109 4.6333 88.652V81.8962C4.6333 81.0372 5.32705 80.3352 6.19424 80.3352C7.05318 80.3352 7.75519 81.0372 7.75519 81.8962V88.652Z" fill="white" stroke="#AFCDFB" stroke-width="0.825896" stroke-linecap="round" stroke-linejoin="round"/>
<path d="M18.657 87.5288C18.657 89.4614 17.0878 91.0306 15.1635 91.0306C13.2391 91.0306 11.6699 89.4614 11.6699 87.5288C11.6699 85.5962 13.2391 84.027 15.1635 84.027C17.0878 84.027 18.657 85.5962 18.657 87.5288Z" fill="#AFCDFB"/>
<path d="M16.7161 88.6521C16.7161 89.511 16.0141 90.2131 15.1552 90.2131C14.2963 90.2131 13.5942 89.511 13.5942 88.6521V81.8963C13.5942 81.0373 14.2963 80.3353 15.1552 80.3353C16.0141 80.3353 16.7161 81.0373 16.7161 81.8963V88.6521Z" fill="white" stroke="#AFCDFB" stroke-width="0.825896" stroke-linecap="round" stroke-linejoin="round"/>
<path d="M27.6179 87.5288C27.6179 89.4614 26.0487 91.0306 24.1244 91.0306C22.2001 91.0306 20.6309 89.4614 20.6309 87.5288C20.6309 85.5962 22.1918 84.027 24.1244 84.027C26.057 84.027 27.6179 85.5962 27.6179 87.5288Z" fill="#AFCDFB"/>
<path d="M25.6771 88.6521C25.6771 89.511 24.9751 90.2131 24.1161 90.2131C23.2572 90.2131 22.5552 89.511 22.5552 88.6521V81.8963C22.5552 81.0373 23.2489 80.3353 24.1161 80.3353C24.9751 80.3353 25.6771 81.0373 25.6771 81.8963V88.6521Z" fill="white" stroke="#AFCDFB" stroke-width="0.825896" stroke-linecap="round" stroke-linejoin="round"/>
<path d="M36.579 87.5288C36.579 89.4614 35.0098 91.0306 33.0854 91.0306C31.1611 91.0306 29.5836 89.4614 29.5836 87.5288C29.5836 85.5962 31.1446 84.027 33.0854 84.027C35.0263 84.027 36.579 85.5962 36.579 87.5288Z" fill="#AFCDFB"/>
<path d="M34.638 88.6521C34.638 89.511 33.936 90.2131 33.0771 90.2131C32.2181 90.2131 31.5161 89.511 31.5161 88.6521V81.8963C31.5161 81.0373 32.2099 80.3353 33.0771 80.3353C33.936 80.3353 34.638 81.0373 34.638 81.8963V88.6521Z" fill="white" stroke="#AFCDFB" stroke-width="0.825896" stroke-linecap="round" stroke-linejoin="round"/>
<path d="M42.0382 91.0306C43.9722 91.0306 45.54 89.4628 45.54 87.5288C45.54 85.5948 43.9722 84.027 42.0382 84.027C40.1042 84.027 38.5364 85.5948 38.5364 87.5288C38.5364 89.4628 40.1042 91.0306 42.0382 91.0306Z" fill="#AFCDFB"/>
<path d="M43.5991 88.6521C43.5991 89.511 42.9053 90.2131 42.0381 90.2131C41.1792 90.2131 40.4772 89.511 40.4772 88.6521V81.8963C40.4772 81.0373 41.1709 80.3353 42.0381 80.3353C42.8971 80.3353 43.5991 81.0373 43.5991 81.8963V88.6521Z" fill="white" stroke="#AFCDFB" stroke-width="0.825896" stroke-linecap="round" stroke-linejoin="round"/>
<path d="M54.4927 87.5288C54.4927 89.4614 52.9235 91.0306 50.9909 91.0306C49.0583 91.0306 47.4973 89.4614 47.4973 87.5288C47.4973 85.5962 49.0583 84.027 50.9909 84.027C52.9235 84.027 54.4927 85.5962 54.4927 87.5288Z" fill="#AFCDFB"/>
<path d="M52.5601 88.6521C52.5601 89.511 51.8581 90.2131 50.9992 90.2131C50.1402 90.2131 49.4382 89.511 49.4382 88.6521V81.8963C49.4382 81.0373 50.1402 80.3353 50.9992 80.3353C51.8581 80.3353 52.5601 81.0373 52.5601 81.8963V88.6521Z" fill="white" stroke="#AFCDFB" stroke-width="0.825896" stroke-linecap="round" stroke-linejoin="round"/>
</g>
<defs>
<clipPath id="clip0_1725_12115">
<rect width="145.713" height="128.08" fill="white"/>
</clipPath>
</defs>
</svg>
