<svg width="13" height="12" viewBox="0 0 13 12" fill="none" xmlns="http://www.w3.org/2000/svg">
<path d="M11.9343 5.40524L9.47334 7.52875L10.2231 10.7045C10.2645 10.8768 10.2538 11.0576 10.1925 11.224C10.1312 11.3903 10.0219 11.5348 9.87854 11.639C9.73517 11.7433 9.56411 11.8028 9.38696 11.8099C9.20982 11.817 9.03454 11.7714 8.88327 11.679L6.12155 9.9793L3.35819 11.679C3.20694 11.7709 3.03187 11.816 2.85503 11.8087C2.67819 11.8013 2.50748 11.7418 2.36441 11.6376C2.22133 11.5334 2.11228 11.3892 2.051 11.2231C1.98971 11.0571 1.97892 10.8766 2.01999 10.7045L2.77249 7.52875L0.311548 5.40524C0.177727 5.28958 0.0809444 5.13706 0.0332884 4.96672C-0.0143677 4.79639 -0.0107855 4.61579 0.0435874 4.44748C0.0979604 4.27917 0.200714 4.1306 0.339017 4.02034C0.477319 3.91008 0.645041 3.84301 0.821236 3.8275L4.0478 3.56719L5.29249 0.555002C5.35986 0.39084 5.47452 0.250419 5.62191 0.151593C5.76929 0.0527673 5.94273 0 6.12018 0C6.29763 0 6.47107 0.0527673 6.61845 0.151593C6.76584 0.250419 6.8805 0.39084 6.94788 0.555002L8.19202 3.56719L11.4186 3.8275C11.5951 3.84243 11.7633 3.90913 11.9021 4.01924C12.0409 4.12935 12.1442 4.27797 12.1989 4.44649C12.2536 4.615 12.2574 4.79591 12.2097 4.96656C12.1621 5.13721 12.0651 5.28999 11.931 5.40578L11.9343 5.40524Z" fill="#FFAE00"/>
</svg>
