<svg width="30" height="36" viewBox="0 0 30 36" fill="none" xmlns="http://www.w3.org/2000/svg">
<g opacity="0.3">
<path opacity="0.3" d="M20.9496 7.38719C20.1296 7.3864 19.3434 7.06027 18.7635 6.48042C18.1837 5.90057 17.8575 5.11434 17.8568 4.2943V0H4.03633C2.96583 0 1.93918 0.425267 1.18222 1.18223C0.425258 1.93919 0 2.96582 0 4.03632V28.3683C0.00158969 29.4378 0.427545 30.4629 1.18433 31.2185C1.94112 31.9742 2.96687 32.3987 4.03633 32.3987H20.6271C21.6966 32.3987 22.7224 31.9742 23.4791 31.2185C24.2359 30.4629 24.6619 29.4378 24.6635 28.3683V7.38719H20.9496Z" fill="black"/>
</g>
<path d="M24.6622 7.38719H20.9483C20.1283 7.3864 19.3421 7.06027 18.7622 6.48042C18.1824 5.90057 17.8563 5.11434 17.8555 4.2943V0L24.6622 7.38719Z" fill="black"/>
<path d="M19.5888 22.6252H4.10349C3.95431 22.6252 3.81124 22.5659 3.70576 22.4604C3.60027 22.3549 3.54102 22.2119 3.54102 22.0627C3.54141 21.9138 3.60085 21.7711 3.70629 21.6659C3.81173 21.5608 3.95457 21.5017 4.10349 21.5017H19.5888C19.7376 21.5017 19.8803 21.5608 19.9855 21.666C20.0907 21.7712 20.1498 21.9139 20.1498 22.0627C20.15 22.1365 20.1357 22.2096 20.1076 22.2778C20.0795 22.3461 20.0382 22.408 19.986 22.4603C19.9339 22.5125 19.872 22.554 19.8039 22.5823C19.7357 22.6106 19.6626 22.6252 19.5888 22.6252Z" fill="black"/>
<path d="M19.5888 16.2892H4.10349C3.95457 16.2892 3.81173 16.2301 3.70629 16.125C3.60085 16.0198 3.54141 15.8772 3.54102 15.7282C3.54102 15.5791 3.60027 15.436 3.70576 15.3305C3.81124 15.225 3.95431 15.1658 4.10349 15.1658H19.5888C19.6626 15.1658 19.7357 15.1803 19.8039 15.2086C19.872 15.2369 19.9339 15.2783 19.986 15.3306C20.0382 15.3828 20.0795 15.4449 20.1076 15.5131C20.1357 15.5813 20.15 15.6545 20.1498 15.7282C20.1498 15.877 20.0907 16.0197 19.9855 16.1249C19.8803 16.2301 19.7376 16.2892 19.5888 16.2892Z" fill="black"/>
<path d="M19.5888 19.4572H4.10349C3.95431 19.4572 3.81124 19.3979 3.70576 19.2924C3.60027 19.187 3.54102 19.0439 3.54102 18.8947C3.54141 18.7458 3.60085 18.6031 3.70629 18.4979C3.81173 18.3928 3.95457 18.3337 4.10349 18.3337H19.5888C19.7376 18.3337 19.8803 18.3928 19.9855 18.4981C20.0907 18.6033 20.1498 18.7459 20.1498 18.8947C20.15 18.9685 20.1357 19.0416 20.1076 19.1099C20.0795 19.1781 20.0382 19.2401 19.986 19.2924C19.9339 19.3446 19.872 19.3861 19.8039 19.4143C19.7357 19.4426 19.6626 19.4572 19.5888 19.4572Z" fill="black"/>
<path d="M13.4811 13.1215H4.10349C3.95457 13.1215 3.81173 13.0625 3.70629 12.9573C3.60085 12.8521 3.54141 12.7094 3.54102 12.5605C3.54102 12.4113 3.60027 12.2683 3.70576 12.1628C3.81124 12.0573 3.95431 11.998 4.10349 11.998H13.4811C13.63 11.9984 13.7727 12.0579 13.8779 12.1633C13.983 12.2688 14.0421 12.4116 14.0421 12.5605C14.0417 12.7092 13.9825 12.8516 13.8773 12.9567C13.7722 13.0619 13.6298 13.1211 13.4811 13.1215Z" fill="black"/>
<path d="M13.4811 9.95353H4.10349C3.95457 9.95353 3.81173 9.89445 3.70629 9.78929C3.60085 9.68413 3.54141 9.54147 3.54102 9.39255C3.54102 9.24338 3.60027 9.10028 3.70576 8.99479C3.81124 8.88931 3.95431 8.83008 4.10349 8.83008H13.4811C13.63 8.83048 13.7727 8.8899 13.8779 8.99534C13.983 9.10078 14.0421 9.24364 14.0421 9.39255C14.0417 9.54121 13.9825 9.68366 13.8773 9.78878C13.7722 9.8939 13.6298 9.95313 13.4811 9.95353Z" fill="black"/>
<path d="M27.5899 25.5903H8.83468C7.50428 25.5903 6.42578 26.6688 6.42578 27.9992V33.591C6.42578 34.9214 7.50428 35.9999 8.83468 35.9999H27.5899C28.9203 35.9999 29.9988 34.9214 29.9988 33.591V27.9992C29.9988 26.6688 28.9203 25.5903 27.5899 25.5903Z" fill="black"/>
<path d="M12.5772 32.0056V33.0961H11.4492V32.0056H12.5772Z" fill="white"/>
<path d="M14.2369 31.5136V33.096H13.1465V28.5857H14.9134C15.4489 28.5857 15.8584 28.7192 16.1389 28.9847C16.2808 29.1241 16.3916 29.2921 16.464 29.4774C16.5364 29.6628 16.5687 29.8614 16.5588 30.0601C16.5643 30.3223 16.4996 30.5813 16.3714 30.8101C16.2404 31.0338 16.0463 31.2138 15.8134 31.3276C15.5324 31.4604 15.224 31.5246 14.9134 31.5151L14.2369 31.5136ZM15.4489 30.0601C15.4489 29.6601 15.2299 29.4601 14.7919 29.4601H14.2369V30.6346H14.7919C15.2299 30.6386 15.4489 30.4471 15.4489 30.0601Z" fill="white"/>
<path d="M20.868 32.0086C20.6803 32.3497 20.3966 32.6282 20.0521 32.8096C19.6645 33.008 19.2335 33.1065 18.7981 33.0961H17.0957V28.5858H18.7981C19.2338 28.5748 19.6654 28.6711 20.0551 28.8663C20.3986 29.0438 20.6816 29.3195 20.868 29.6582C21.0632 30.0179 21.1614 30.4221 21.153 30.8312C21.1612 31.2417 21.063 31.6473 20.868 32.0086ZM19.6951 31.7821C19.817 31.657 19.9115 31.5078 19.9724 31.344C20.0334 31.1803 20.0595 31.0056 20.0491 30.8312C20.0596 30.657 20.0335 30.4825 19.9725 30.319C19.9116 30.1555 19.8171 30.0065 19.6951 29.8817C19.4223 29.6424 19.0659 29.5205 18.7036 29.5427H18.1862V32.1196H18.7036C19.0656 32.1416 19.4217 32.0204 19.6951 31.7821Z" fill="white"/>
<path d="M24.7129 28.5857V29.4542H22.8634V30.4426H24.2914V31.2721H22.8634V33.096H21.7715V28.5857H24.7129Z" fill="white"/>
<path d="M19.315 8.83008H16.6631C16.2009 8.83008 15.8262 9.2048 15.8262 9.66704V12.3189C15.8262 12.7812 16.2009 13.1559 16.6631 13.1559H19.315C19.7773 13.1559 20.152 12.7812 20.152 12.3189V9.66704C20.152 9.2048 19.7773 8.83008 19.315 8.83008Z" fill="black"/>
</svg>
