<svg width="24" height="24" viewBox="0 0 24 24" fill="none" xmlns="http://www.w3.org/2000/svg">
<path d="M21.9656 10.7671L17.7469 14.4074L19.0322 19.8515C19.1031 20.147 19.0848 20.4569 18.9797 20.7421C18.8746 21.0272 18.6873 21.2748 18.4415 21.4536C18.1957 21.6324 17.9024 21.7343 17.5988 21.7465C17.2951 21.7587 16.9946 21.6806 16.7353 21.5221L12.0009 18.6083L7.26373 21.5221C7.00444 21.6797 6.70433 21.757 6.40117 21.7444C6.09802 21.7318 5.80538 21.6297 5.56011 21.4511C5.31484 21.2725 5.1279 21.0253 5.02283 20.7406C4.91776 20.456 4.89927 20.1466 4.96967 19.8515L6.25967 14.4074L2.04092 10.7671C1.81151 10.5688 1.6456 10.3074 1.5639 10.0154C1.48221 9.72336 1.48835 9.41376 1.58156 9.12522C1.67477 8.83669 1.85092 8.58201 2.08801 8.39299C2.3251 8.20397 2.61262 8.08899 2.91467 8.06241L8.44592 7.61616L10.5797 2.45241C10.6952 2.17099 10.8917 1.93027 11.1444 1.76085C11.397 1.59143 11.6944 1.50098 11.9986 1.50098C12.3028 1.50098 12.6001 1.59143 12.8528 1.76085C13.1054 1.93027 13.302 2.17099 13.4175 2.45241L15.5503 7.61616L21.0815 8.06241C21.3842 8.088 21.6726 8.20234 21.9105 8.3911C22.1485 8.57986 22.3254 8.83464 22.4192 9.12352C22.513 9.41241 22.5195 9.72254 22.4378 10.0151C22.3561 10.3076 22.1899 10.5695 21.96 10.768L21.9656 10.7671Z" fill="#FFAE00"/>
</svg>
