<svg width="99" height="31" viewBox="0 0 99 31" fill="none" xmlns="http://www.w3.org/2000/svg">
<path d="M97.0906 7.10708H99V30.4609L-5.1856e-06 30.4609V9.95043L2.86411 17.0581L4.002 19.9012H5.33601L8.00401 17.0581L9.87161 19.9012L15.4744 19.9015L18.4092 17.0582L20.01 12.7929L22.34 14.9258L24.4404 17.0581L25.0963 20.3071L26.4303 19.9012H28.0682L31.1233 9.95043L32.078 12.7935L33.6055 9.95043L34.7511 14.9258L37.8062 6.39659L39.5247 9.95043H42.7706L46.2076 2.84275L48.3079 6.39659L51.074 4.26401L54.4443 9.95015L56.6112 -0.00060109L58.1795 9.95015L68.6405 14.2148L69.9771 11.3717H71.3136L74.3687 7.10708H77.4237L78.5694 11.3717L83.1519 2.84247L85.0614 14.2148L86.0161 9.95015H88.1164L90.0258 -0.00060109L91.9352 8.52862L92.8899 4.26401H95.3721L97.0906 7.10708Z" fill="url(#paint0_linear_946_1268)" fill-opacity="0.16"/>
<defs>
<linearGradient id="paint0_linear_946_1268" x1="49.5" y1="30.4609" x2="49.5" y2="-0.000602997" gradientUnits="userSpaceOnUse">
<stop stop-color="#0059BF" stop-opacity="0"/>
<stop offset="0.809892" stop-color="#0059BF"/>
</linearGradient>
</defs>
</svg>
