<svg width="196" height="122" viewBox="0 0 196 122" fill="none" xmlns="http://www.w3.org/2000/svg">
<path d="M102.636 74.6025L110.157 71.8242C111.552 71.3097 111.552 70.4665 110.157 69.9505L101.508 66.7563L102.636 74.6025Z" fill="black" stroke="white" stroke-width="0.370227"/>
<path d="M103.626 48.932L57.373 65.911C53.4633 67.3469 47.1061 67.3521 43.1728 65.9215L29.5413 60.9706C27.5655 60.254 26.5776 59.3098 26.5776 58.3683L26.5645 83.5099C26.5645 84.4515 27.5524 85.3956 29.5282 86.1122L43.1623 91.0658C47.0956 92.4938 53.4528 92.4885 57.3625 91.0553L103.616 74.0763C105.563 73.3623 106.535 72.4259 106.535 71.4923L106.548 46.3506C106.548 47.2843 105.576 48.2206 103.629 48.9346L103.626 48.932Z" fill="white"/>
<mask id="mask0_315_2929" style="mask-type:alpha" maskUnits="userSpaceOnUse" x="26" y="46" width="81" height="47">
<path d="M103.626 48.9332L57.373 65.9122C53.4633 67.3481 47.1061 67.3533 43.1728 65.9227L29.5413 60.9718C27.5655 60.2552 26.5776 59.311 26.5776 58.3695L26.5645 83.5112C26.5645 84.4527 27.5524 85.3968 29.5282 86.1135L43.1623 91.067C47.0956 92.495 53.4528 92.4898 57.3625 91.0565L103.616 74.0775C105.563 73.3635 106.535 72.4272 106.535 71.4935L106.548 46.3518C106.548 47.2855 105.576 48.2218 103.629 48.9358L103.626 48.9332Z" fill="white"/>
</mask>
<g mask="url(#mask0_315_2929)">
<path d="M50.4148 111.218C51.5943 111.218 52.7723 111.064 53.6612 110.734L109.864 89.952C110.758 89.6296 111.204 89.2028 111.204 88.7775V47.1411L52.7831 68.7479C51.4784 69.2208 50.4102 70.7362 50.4102 72.1149L50.4148 111.218Z" fill="#EBE9E9"/>
</g>
<path d="M95.1484 65.8389C95.2124 65.8151 95.2786 65.8173 95.3389 65.8447C95.3967 65.8711 95.4411 65.9173 95.4736 65.9688C95.5378 66.0706 95.5703 66.2157 95.5703 66.375V66.7305C95.5703 66.8917 95.5371 67.051 95.4814 67.1797C95.4283 67.3027 95.3437 67.4226 95.2256 67.4668H95.2246L63.8125 78.877C63.7482 78.9009 63.6822 78.8989 63.6221 78.8711C63.5644 78.8444 63.5196 78.7986 63.4873 78.7471C63.4233 78.645 63.3906 78.4998 63.3906 78.3418V77.9863C63.3906 77.8255 63.4237 77.6665 63.4785 77.5381C63.5306 77.416 63.6138 77.2956 63.7334 77.2529L95.1484 65.8398V65.8389Z" fill="#D9D9D9" stroke="black" stroke-width="0.222136" stroke-miterlimit="10"/>
<mask id="mask1_315_2929" style="mask-type:alpha" maskUnits="userSpaceOnUse" x="63" y="65" width="33" height="14">
<path d="M95.187 65.9443C95.3373 65.888 95.4594 66.0818 95.4594 66.3756V66.7319C95.4594 67.0257 95.3373 67.307 95.187 67.3633L63.7744 78.7745C63.6241 78.8307 63.502 78.6338 63.502 78.3432V77.9869C63.502 77.6931 63.621 77.4118 63.7713 77.3586L95.187 65.9443Z" fill="white"/>
</mask>
<g mask="url(#mask1_315_2929)">
<path d="M94.2749 65.6508C94.4252 65.5946 94.5473 65.7884 94.5473 66.0822V66.4385C94.5473 66.7323 94.4252 67.0136 94.2749 67.0698L62.8623 78.481C62.712 78.5373 62.5898 78.3404 62.5898 78.0497V77.6934C62.5898 77.3996 62.7088 77.1183 62.8592 77.0652L94.2749 65.6508Z" fill="black" stroke="white" stroke-width="0.222136" stroke-miterlimit="10"/>
<path d="M95.4606 66.3757C95.4606 66.1444 95.3854 65.9756 95.2789 65.9413C95.0065 65.8537 94.6432 65.735 94.3676 65.6475C94.4741 65.6818 94.5493 65.8506 94.5493 66.0819V66.4382C94.5493 66.732 94.4271 67.0133 94.2768 67.0696L62.8643 78.4808C62.8329 78.4933 62.8016 78.4933 62.7734 78.4808C63.0459 78.5683 63.4091 78.6871 63.6847 78.7746C63.7129 78.784 63.7442 78.784 63.7755 78.7746L95.1881 67.3634C95.3384 67.3071 95.4606 67.0258 95.4606 66.732V66.3757V66.3757Z" fill="white" stroke="black" stroke-width="0.222136" stroke-miterlimit="10"/>
</g>
<path d="M95.1484 62.1445C95.2124 62.1207 95.2786 62.123 95.3389 62.1504C95.3967 62.1767 95.4411 62.223 95.4736 62.2744C95.5378 62.3763 95.5703 62.5214 95.5703 62.6807V63.0361C95.5703 63.1973 95.5371 63.3566 95.4814 63.4854C95.4283 63.6083 95.3437 63.7282 95.2256 63.7725H95.2246L63.8125 75.1826C63.7482 75.2065 63.6822 75.2046 63.6221 75.1768C63.5644 75.1501 63.5196 75.1042 63.4873 75.0527C63.4233 74.9507 63.3906 74.8055 63.3906 74.6475V74.292C63.3906 74.1312 63.4237 73.9722 63.4785 73.8438C63.5306 73.7217 63.6138 73.6013 63.7334 73.5586L95.1484 62.1455V62.1445Z" fill="#D9D9D9" stroke="black" stroke-width="0.222136" stroke-miterlimit="10"/>
<mask id="mask2_315_2929" style="mask-type:alpha" maskUnits="userSpaceOnUse" x="63" y="62" width="33" height="14">
<path d="M95.187 62.2492C95.3373 62.193 95.4594 62.3867 95.4594 62.6805V63.0368C95.4594 63.3306 95.3373 63.6119 95.187 63.6682L63.7744 75.0794C63.6241 75.1357 63.502 74.9388 63.502 74.6481V74.2918C63.502 73.998 63.621 73.7167 63.7713 73.6636L95.187 62.2492Z" fill="white"/>
</mask>
<g mask="url(#mask2_315_2929)">
<path d="M94.2749 61.9553C94.4252 61.899 94.5473 62.0928 94.5473 62.3866V62.7429C94.5473 63.0367 94.4252 63.318 94.2749 63.3743L62.8623 74.7855C62.712 74.8417 62.5898 74.6448 62.5898 74.3542V73.9978C62.5898 73.704 62.7088 73.4228 62.8592 73.3696L94.2749 61.9553Z" fill="black" stroke="white" stroke-width="0.222136" stroke-miterlimit="10"/>
<path d="M95.4606 62.6804C95.4606 62.4491 95.3854 62.2803 95.2789 62.2459C95.0065 62.1584 94.6432 62.0397 94.3676 61.9521C94.4741 61.9865 94.5493 62.1553 94.5493 62.3866V62.7429C94.5493 63.0367 94.4271 63.318 94.2768 63.3743L62.8643 74.7855C62.8329 74.798 62.8016 74.798 62.7734 74.7855C63.0459 74.873 63.4091 74.9918 63.6847 75.0793C63.7129 75.0886 63.7442 75.0886 63.7755 75.0793L95.1881 63.6681C95.3384 63.6118 95.4606 63.3305 95.4606 63.0367V62.6804V62.6804Z" fill="white" stroke="black" stroke-width="0.222136" stroke-miterlimit="10"/>
</g>
<path d="M103.626 48.932L57.373 65.911C53.4633 67.3469 47.1061 67.3521 43.1728 65.9215L29.5413 60.9706C27.5655 60.254 26.5776 59.3098 26.5776 58.3683L26.5645 83.5099C26.5645 84.4515 27.5524 85.3956 29.5282 86.1122L43.1623 91.0658C47.0956 92.4938 53.4528 92.4885 57.3625 91.0553L103.616 74.0763C105.563 73.3623 106.535 72.4259 106.535 71.4923L106.548 46.3506C106.548 47.2843 105.576 48.2206 103.629 48.9346L103.626 48.932Z" stroke="black" stroke-width="0.370227" stroke-miterlimit="10"/>
<path d="M103.584 43.746C107.517 45.174 107.535 47.4965 103.626 48.9323L57.3723 65.9114C53.4626 67.3473 47.1054 67.3525 43.1721 65.9219L29.5406 60.971C25.6073 59.543 25.589 57.2205 29.496 55.7847L75.7494 38.8056C79.6591 37.3697 86.0163 37.3645 89.9522 38.7925L103.586 43.746H103.584Z" fill="white" stroke="black" stroke-width="0.370227" stroke-miterlimit="10"/>
<path d="M79.6714 47.3609C81.1282 47.9018 81.135 48.7815 79.687 49.3253L62.5558 55.7566C61.1078 56.3004 58.7532 56.3024 57.2964 55.7605L52.2476 53.8852C50.7908 53.3444 50.784 52.4647 52.2311 51.9208L69.3623 45.4896C70.8103 44.9457 73.1649 44.9437 74.6226 45.4846L79.6724 47.3609H79.6714Z" fill="black"/>
<path d="M26.4805 82.1564L28.9366 83.0505C29.5866 83.2881 30.1187 82.9152 30.1187 82.2226V79.2981C30.101 78.9334 29.9806 78.5811 29.7714 78.282C29.5623 77.9829 29.2729 77.7491 28.9366 77.6077L27.4684 77.072C27.0376 76.9066 26.6849 76.5848 26.4805 76.1707" stroke="black" stroke-width="0.370227" stroke-miterlimit="10" stroke-linecap="round"/>
<path d="M27.8224 80.9098C28.1879 80.7929 28.3455 80.2633 28.1744 79.7269C28.0033 79.1904 27.5683 78.8502 27.2028 78.9671C26.8373 79.084 26.6797 79.6136 26.8508 80.1501C27.0219 80.6865 27.4569 81.0267 27.8224 80.9098Z" fill="black"/>
<path d="M66.6133 50.509L62.5481 47.9673C62.458 47.9107 62.3779 47.8307 62.3145 47.7241L66.3797 50.2658C66.4431 50.3724 66.5232 50.4524 66.6133 50.509Z" fill="#EBE9E9" stroke="#EBE9E9" stroke-width="0.370227" stroke-miterlimit="10"/>
<path d="M66.3775 50.2653L62.3122 47.7236L60.9004 45.3984L64.9656 47.9401L66.3775 50.2653Z" fill="#EBE9E9" stroke="#EBE9E9" stroke-width="0.370227" stroke-miterlimit="10"/>
<path d="M78.0106 16.9338C77.5067 16.6173 76.8458 16.5507 76.1149 16.8039L51.5398 25.2485C49.9211 25.8048 48.576 27.7169 48.5393 29.5157L48.1922 46.5282C48.1721 47.5175 48.5493 48.2637 49.1601 48.6468L53.2253 51.1885C52.6145 50.8054 52.2374 50.0559 52.2574 49.0699L52.6045 32.0541C52.6412 30.2553 53.983 28.3432 55.6051 27.7869L80.1801 19.3456C80.911 19.0958 81.5719 19.1624 82.0759 19.4755L78.0106 16.9338V16.9338Z" fill="white" stroke="black" stroke-width="0.370227" stroke-miterlimit="10"/>
<path d="M80.1799 19.3455C81.7986 18.7892 83.0836 19.7986 83.0469 21.5974L82.6998 38.6132C82.6631 40.412 81.3214 42.3241 79.6993 42.8805L69.8599 46.2616L68.3313 49.5962C68.1043 50.0892 67.7238 50.4256 67.3433 50.5555C66.9628 50.6855 66.589 50.6088 66.3821 50.2657L64.9703 47.9405L55.1276 51.3217C53.5088 51.878 52.2238 50.872 52.2605 49.0698L52.6076 32.0541C52.6444 30.2552 53.9861 28.3431 55.6082 27.7868L80.1799 19.3455Z" fill="#EBE9E9" stroke="black" stroke-width="0.370227" stroke-miterlimit="10"/>
<path d="M66.2803 43.1597L65.2657 42.5234C65.2389 42.5068 65.2122 42.4868 65.1855 42.4668L66.2002 43.1031C66.2269 43.123 66.2536 43.143 66.2803 43.1597Z" fill="#EBE9E9" stroke="black" stroke-width="0.370227" stroke-miterlimit="10"/>
<path d="M76.5472 26.2272C76.2736 26.0574 75.9298 26.0407 75.5827 26.1606C75.1988 26.2905 74.815 26.587 74.5146 27.0101L66.3574 38.616L67.3721 39.2522L75.5293 27.6463C75.8263 27.2233 76.2135 26.9268 76.5973 26.7969C76.9444 26.677 77.2882 26.6936 77.5619 26.8635L76.5472 26.2272V26.2272Z" fill="#EBE9E9" stroke="black" stroke-width="0.370227" stroke-miterlimit="10"/>
<path d="M61.4251 36.9674C61.7221 36.5443 62.1093 36.2478 62.4898 36.1179C62.8369 35.998 63.1807 36.0113 63.4544 36.1846L62.4397 35.5483C62.166 35.3784 61.8223 35.3617 61.4751 35.4817C61.0913 35.6116 60.7075 35.9081 60.4071 36.3311C59.8097 37.1806 59.7896 38.2299 60.3604 38.6796L65.1866 42.4705L66.2012 43.1068L61.375 39.3159C60.8043 38.8662 60.8276 37.8168 61.4217 36.9674H61.4251Z" fill="#EBE9E9" stroke="black" stroke-width="0.370227" stroke-miterlimit="10"/>
<path d="M76.5969 26.7968C76.9808 26.6669 77.3579 26.6969 77.645 26.92C78.2157 27.3664 78.1923 28.4191 77.5982 29.2685L68.403 42.3502C68.106 42.7732 67.7222 43.063 67.3417 43.1929C66.8677 43.3562 66.4906 43.3262 66.2069 43.103L61.3806 39.3121C60.8099 38.8624 60.8333 37.8131 61.4274 36.9636C61.7244 36.5405 62.1116 36.2441 62.4921 36.1142C62.8726 35.9842 63.2531 36.0142 63.5401 36.2374L67.375 39.2521L75.5322 27.6462C75.8293 27.2232 76.2165 26.9267 76.6003 26.7968H76.5969Z" fill="#0075FF" stroke="black" stroke-width="0.370227" stroke-miterlimit="10"/>
<path d="M166.372 92.7172L173.893 89.9389C175.289 89.4244 175.289 88.5812 173.893 88.0653L165.244 84.8711L166.372 92.7172Z" fill="black" stroke="white" stroke-width="0.370227"/>
<path d="M165.371 76.5843L138.965 86.2786C135.626 87.5049 130.194 87.5094 126.835 86.2898L100.272 76.6402C98.5865 76.0282 97.7428 75.224 97.7428 74.4176L97.7383 91.0476C97.7383 91.8517 98.582 92.6559 100.267 93.2701L126.83 102.92C130.19 104.139 135.619 104.135 138.96 102.909L165.367 93.2143C167.03 92.6045 167.86 91.8048 167.86 91.0074L167.865 74.3774C167.865 75.1749 167.034 75.9745 165.371 76.5843V76.5843Z" fill="white"/>
<path d="M165.336 72.1555C168.695 73.3751 168.711 75.3586 165.371 76.5849L138.965 86.2792C135.626 87.5055 130.194 87.51 126.835 86.2904L100.272 76.6408C96.9125 75.4212 96.8968 73.4376 100.238 72.2113L126.642 62.517C129.982 61.2907 135.411 61.2863 138.77 62.5059L165.333 72.1555H165.336Z" fill="white" stroke="black" stroke-width="0.370227" stroke-miterlimit="10"/>
<mask id="mask3_315_2929" style="mask-type:alpha" maskUnits="userSpaceOnUse" x="97" y="74" width="71" height="30">
<path d="M165.371 76.5843L138.965 86.2786C135.626 87.5049 130.194 87.5094 126.835 86.2898L100.272 76.6402C98.5865 76.0282 97.7428 75.224 97.7428 74.4176L97.7383 91.0476C97.7383 91.8517 98.582 92.6559 100.267 93.2701L126.83 102.92C130.19 104.139 135.619 104.135 138.96 102.909L165.367 93.2143C167.03 92.6045 167.86 91.8048 167.86 91.0074L167.865 74.3774C167.865 75.1749 167.034 75.9745 165.371 76.5843V76.5843Z" fill="white"/>
</mask>
<g mask="url(#mask3_315_2929)">
<path d="M134.065 104.225C135.245 104.225 136.423 104.071 137.312 103.741L167.31 92.8973C168.204 92.5749 168.65 92.1481 168.65 91.7228V76.2402L136.434 87.9086C135.129 88.3815 134.061 89.8968 134.061 91.2755L134.065 104.225Z" fill="#EBE9E9"/>
</g>
<path d="M165.371 76.5834L138.965 86.2777C135.626 87.504 130.194 87.5084 126.835 86.2888L100.272 76.6392C98.5865 76.0272 97.7428 75.223 97.7428 74.4167L97.7383 91.0466C97.7383 91.8508 98.582 92.6549 100.267 93.2692L126.83 102.919C130.19 104.138 135.619 104.134 138.96 102.908L165.367 93.2133C167.03 92.6035 167.86 91.8038 167.86 91.0064L167.865 74.3765C167.865 75.1739 167.034 75.9736 165.371 76.5834V76.5834Z" stroke="black" stroke-width="0.370227" stroke-miterlimit="10"/>
<path d="M138.036 82.7779L157.55 75.5543C161.171 74.2166 161.171 72.0243 157.55 70.6828L135.109 62.3779L138.036 82.7779Z" fill="black"/>
<path d="M155.171 66.954L141.743 53.4951C141.385 53.1397 140.961 52.9009 140.507 52.7952L129.376 50.1493C129.831 50.2576 130.255 50.4938 130.612 50.8493L144.041 64.3082C144.774 65.043 145.065 66.1374 144.822 67.2337C144.579 68.33 143.848 69.1983 142.872 69.5572L124.972 76.1558C124.468 76.3413 123.954 76.3723 123.472 76.2569L134.602 78.9028C135.085 79.0182 135.598 78.9871 136.103 78.8016L154.002 72.203C154.981 71.8412 155.71 70.9732 155.953 69.8795C156.195 68.7832 155.905 67.6914 155.171 66.954V66.954Z" fill="black" stroke="black" stroke-width="0.370227" stroke-miterlimit="10"/>
<path d="M129.682 48.8793C128.998 48.7157 128.264 48.7616 127.551 49.0237C126.161 49.5354 125.123 50.7697 124.775 52.3275L120.308 72.3831C119.96 73.9409 120.376 75.494 121.418 76.5402C121.924 77.0455 122.527 77.3802 123.17 77.5358L134.299 80.1814C133.654 80.0288 133.054 79.6937 132.548 79.1859C131.505 78.1397 131.09 76.5866 131.437 75.0288L135.905 54.9731C136.252 53.4153 137.291 52.181 138.68 51.6694C139.397 51.4069 140.128 51.3614 140.811 51.5249L129.682 48.8793V48.8793Z" fill="white" stroke="black" stroke-width="0.370227" stroke-miterlimit="10"/>
<path d="M155.994 65.9727C157.036 67.0189 157.452 68.5721 157.104 70.13C156.757 71.6852 155.721 72.9219 154.331 73.4335L136.432 80.0319C135.045 80.5432 133.591 80.2244 132.549 79.1808C131.507 78.1346 131.091 76.5814 131.439 75.0235L135.907 54.967C136.254 53.4092 137.292 52.1748 138.682 51.6631C140.072 51.1515 141.523 51.468 142.565 52.5143L155.994 65.9727V65.9727ZM155.954 69.8753C156.197 68.7791 155.907 67.6873 155.173 66.9499L141.745 53.4915C141.009 52.757 139.987 52.531 139.011 52.8924C138.035 53.2538 137.304 54.1221 137.061 55.2184L132.591 75.2752C132.348 76.3715 132.638 77.4632 133.372 78.2006C134.108 78.9351 135.129 79.1586 136.105 78.7971L154.004 72.1987C154.983 71.837 155.712 70.969 155.954 69.8753" fill="white"/>
<path d="M155.954 69.8753C156.197 68.7791 155.907 67.6873 155.173 66.9499L141.745 53.4915C141.009 52.757 139.987 52.531 139.011 52.8924C138.035 53.2538 137.304 54.1221 137.061 55.2184L132.591 75.2752C132.348 76.3715 132.638 77.4632 133.372 78.2006C134.108 78.9351 135.129 79.1586 136.105 78.7971L154.004 72.1987C154.983 71.837 155.712 70.969 155.954 69.8753M155.994 65.9727C157.036 67.0189 157.452 68.5721 157.104 70.13C156.757 71.6852 155.721 72.9219 154.331 73.4335L136.432 80.0319C135.045 80.5432 133.591 80.2244 132.549 79.1808C131.507 78.1346 131.091 76.5814 131.439 75.0235L135.907 54.967C136.254 53.4092 137.292 52.1748 138.682 51.6631C140.072 51.1515 141.523 51.468 142.565 52.5143L155.994 65.9727V65.9727Z" stroke="black" stroke-width="0.370227" stroke-miterlimit="10"/>
<path d="M140.603 79.4869C139.546 82.3815 137.129 84.183 134.632 83.2764L113.567 75.6149C111.011 74.6853 110.382 71.7726 111.439 68.878L134.03 7.00762C135.087 4.11307 137.549 2.32482 140.001 3.20986L161.068 10.8797C163.432 11.7399 164.251 14.722 163.195 17.6166L140.603 79.4869Z" fill="white" stroke="black" stroke-width="0.370227" stroke-miterlimit="10" stroke-linecap="round"/>
<path fill-rule="evenodd" clip-rule="evenodd" d="M147.231 61.331C146.688 61.298 146.136 61.185 145.582 60.9842L117.978 50.9658L111.437 68.8781C110.38 71.7727 111.009 74.6854 113.565 75.615L134.63 83.2766C137.127 84.1831 139.544 82.3816 140.601 79.4871L147.231 61.331Z" fill="black"/>
<path d="M147.231 61.331L147.405 61.3945L147.49 61.1612L147.242 61.1462L147.231 61.331ZM145.582 60.9842L145.519 61.1582L145.519 61.1582L145.582 60.9842ZM117.978 50.9658L118.041 50.7918L117.867 50.7288L117.804 50.9023L117.978 50.9658ZM111.437 68.8781L111.611 68.9416L111.611 68.9416L111.437 68.8781ZM113.565 75.615L113.628 75.4411L113.628 75.4411L113.565 75.615ZM134.63 83.2766L134.567 83.4505L134.567 83.4506L134.63 83.2766ZM140.601 79.4871L140.775 79.5506L140.775 79.5506L140.601 79.4871ZM147.231 61.331L147.242 61.1462C146.717 61.1143 146.183 61.005 145.645 60.8101L145.582 60.9842L145.519 61.1582C146.089 61.3649 146.658 61.4817 147.219 61.5157L147.231 61.331ZM145.582 60.9842L145.645 60.8102L118.041 50.7918L117.978 50.9658L117.914 51.1398L145.519 61.1582L145.582 60.9842ZM111.437 68.8781L111.611 68.9416L118.151 51.0293L117.978 50.9658L117.804 50.9023L111.263 68.8146L111.437 68.8781ZM113.565 75.615L113.628 75.4411C112.411 74.9984 111.654 74.0872 111.324 72.9326C110.993 71.7724 111.093 70.3613 111.611 68.9416L111.437 68.8781L111.263 68.8146C110.725 70.2895 110.61 71.7821 110.968 73.0343C111.327 74.2921 112.163 75.302 113.502 75.789L113.565 75.615ZM134.63 83.2766L134.693 83.1026L113.628 75.4411L113.565 75.615L113.502 75.789L134.567 83.4505L134.63 83.2766ZM140.601 79.4871L140.427 79.4236C139.909 80.8418 139.062 81.9804 138.053 82.6532C137.047 83.3234 135.88 83.5335 134.693 83.1026L134.63 83.2766L134.567 83.4506C135.877 83.9262 137.166 83.6888 138.258 82.9613C139.346 82.2363 140.236 81.0269 140.775 79.5506L140.601 79.4871ZM147.231 61.331L147.057 61.2675L140.427 79.4236L140.601 79.4871L140.775 79.5506L147.405 61.3945L147.231 61.331Z" fill="black"/>
<path d="M163.545 13.842C163.545 13.842 163.16 12.5211 162.665 12.0158L160.453 11.1902L160.681 12.8282L163.545 13.842Z" fill="black"/>
<path d="M163.193 17.6157C163.392 17.0724 163.528 16.5077 163.596 15.9331L161.194 15.0894L136.418 81.5253L138.787 82.2931C139.609 81.511 140.233 80.5448 140.607 79.4745L163.193 17.6157Z" fill="black"/>
<path d="M138.789 82.2941C139.611 81.512 140.235 80.5459 140.609 79.4755L147.891 59.4941" stroke="#EBE9E9" stroke-width="0.370227" stroke-miterlimit="10" stroke-linecap="round"/>
<path d="M138.506 78.7186C137.449 81.6131 135.032 83.4146 132.536 82.5081L111.465 74.8465C109.224 74.0374 108.282 71.0042 109.34 68.1096L131.93 6.24419C132.987 3.34964 135.448 1.56139 137.901 2.44643L158.966 10.1096C161.332 10.9699 162.151 13.952 161.094 16.8465L138.506 78.7186Z" fill="#EBE9E9" stroke="black" stroke-width="0.370227" stroke-miterlimit="10" stroke-linecap="round"/>
<path d="M158.408 29.6956C158.508 29.4232 158.367 29.1218 158.094 29.0225C157.821 28.9233 157.519 29.0637 157.42 29.3361L155.24 35.306C155.141 35.5785 155.281 35.8798 155.554 35.9791C155.827 36.0784 156.129 35.938 156.229 35.6655L158.408 29.6956Z" fill="white" stroke="black" stroke-width="0.370227" stroke-miterlimit="10" stroke-linecap="round"/>
<path d="M158.55 11.0214C151.572 8.48632 144.553 6.12251 137.637 3.41928C135.617 2.68615 133.592 4.15737 132.721 6.54004L110.131 68.3989C109.261 70.7816 110.032 73.2699 111.881 73.9436L132.796 81.549C134.846 82.2954 136.839 80.8126 137.709 78.4299L160.3 16.5645C161.17 14.1818 160.495 11.7281 158.55 11.0214Z" fill="white"/>
<path d="M134.542 17.8001C133.268 17.3382 131.63 18.6046 130.893 20.6272L122.784 42.8657C122.047 44.8883 122.484 46.9084 123.758 47.3703L124.129 47.5048C122.855 47.0429 122.418 45.0203 123.155 43.0002L131.264 20.7617C132.001 18.7391 133.636 17.4727 134.913 17.9346L134.542 17.8001V17.8001Z" fill="white" stroke="black" stroke-width="0.370227" stroke-miterlimit="10"/>
<path d="M150.716 22.5939C152.323 23.1776 152.874 25.7256 151.944 28.2735L143.835 50.512C142.907 53.0599 140.842 54.6587 139.235 54.075L123.41 48.3244C121.803 47.7407 121.254 45.1928 122.182 42.6449L130.29 20.4064C131.218 17.8585 133.281 16.2597 134.887 16.8434L150.713 22.5939H150.716Z" fill="#0075FF" stroke="black" stroke-width="0.370227" stroke-miterlimit="10"/>
<path d="M151.088 22.7314L150.717 22.5969C152.324 23.1806 152.875 25.7285 151.945 28.2765L143.836 50.515C142.908 53.0629 140.843 54.6617 139.236 54.078L139.608 54.2125C141.215 54.7962 143.277 53.1974 144.207 50.6495L152.316 28.411C153.244 25.863 152.695 23.3151 151.088 22.7314V22.7314Z" fill="black" stroke="black" stroke-width="0.370227" stroke-miterlimit="10"/>
<path d="M136.132 35.3095C139.493 36.5302 140.874 41.4103 139.572 46.6889C139.333 47.6558 138.565 48.3384 137.97 48.1227L126.47 43.9455C125.875 43.7298 125.727 42.7147 126.167 41.8214C128.57 36.9413 132.77 34.0888 136.132 35.3095Z" fill="white" stroke="black" stroke-width="0.370227" stroke-miterlimit="10"/>
<path d="M136.131 35.3088L137.059 35.6464C140.42 36.867 141.801 41.7472 140.499 47.0257C140.26 47.9926 139.492 48.6753 138.897 48.4596L137.969 48.1221C138.564 48.3378 139.332 47.6576 139.571 46.6882C140.873 41.4071 139.49 36.5295 136.131 35.3088Z" fill="black" stroke="black" stroke-width="0.370227" stroke-miterlimit="10"/>
<path d="M140.671 22.8606L141.599 23.1981C143.595 23.9239 144.279 27.0758 143.122 30.243C141.968 33.4076 139.412 35.387 137.416 34.6638L136.488 34.3263C138.484 35.0521 141.04 33.0726 142.194 29.9055C143.348 26.7383 142.667 23.5839 140.671 22.8606Z" fill="black" stroke="black" stroke-width="0.370227" stroke-miterlimit="10"/>
<path d="M142.196 29.9031C143.35 26.7369 142.668 23.5823 140.671 22.857C138.675 22.1317 136.12 24.1105 134.966 27.2766C133.811 30.4428 134.494 33.5975 136.49 34.3228C138.487 35.048 141.041 33.0693 142.196 29.9031Z" fill="white" stroke="black" stroke-width="0.370227" stroke-miterlimit="10"/>
<path d="M132.403 63.6451C133.234 63.9471 133.516 65.2591 133.036 66.5762C132.555 67.8933 131.492 68.7181 130.661 68.4161L119.267 64.277C118.438 63.975 118.153 62.6629 118.634 61.3433C119.115 60.0237 120.177 59.204 121.006 59.5059L132.4 63.6451H132.403Z" fill="#050505" stroke="black" stroke-width="0.370227" stroke-miterlimit="10"/>
<path d="M124.128 63.6366C124.108 63.735 124.094 63.8274 124.085 63.9152C123.923 64.0348 123.791 64.1363 123.688 64.218C123.619 64.268 123.566 64.3134 123.531 64.3513L123.488 64.1196C123.553 64.053 123.6 63.9803 123.628 63.9001L123.892 63.1491L123.722 63.0855L123.81 62.8357L124.138 62.9598L123.817 63.8698C123.864 63.8425 123.968 63.7638 124.128 63.6351V63.6366Z" fill="white"/>
<path d="M124.427 62.6496L124.223 62.7768C124.204 62.633 124.178 62.4604 124.143 62.259L124.327 62.147C124.36 62.3029 124.393 62.471 124.427 62.6481V62.6496Z" fill="white"/>
<path d="M124.962 62.8603C124.714 63.6946 124.668 64.3062 124.827 64.6908C124.807 64.7059 124.775 64.7393 124.73 64.7892C124.68 64.8392 124.645 64.874 124.623 64.8967C124.511 64.5439 124.515 64.1079 124.634 63.5871C124.42 64.0352 124.14 64.3835 123.791 64.6287C123.786 64.5212 123.779 64.4289 123.766 64.3486C124.166 64.114 124.492 63.6431 124.741 62.936C124.768 62.8634 124.81 62.7468 124.871 62.5893L124.941 62.3879L125.113 62.4515C125.05 62.6317 124.998 62.768 124.962 62.8603V62.8603Z" fill="white"/>
<path d="M126.032 65.0769L126.41 65.2192L126.329 65.4478L125.248 65.0421L125.33 64.8134L125.5 64.877L125.948 63.6068L126.106 63.6673L125.659 64.9376L125.867 65.0148L126.445 63.3751L125.988 63.2025L126.076 62.9512L127.047 63.3161L126.957 63.5674L126.61 63.4372L126.384 64.0761L126.689 64.1912L126.604 64.4304L126.3 64.3168L126.032 65.0769Z" fill="white"/>
<path d="M125.573 64.3022C125.535 64.4233 125.507 64.5263 125.491 64.611C125.378 64.6973 125.235 64.8064 125.064 64.9381L125.031 64.6989C125.084 64.6504 125.131 64.5702 125.171 64.4566L125.429 63.7253L125.276 63.6678L125.364 63.418L125.675 63.5346L125.336 64.4945C125.35 64.4854 125.379 64.4611 125.423 64.4263C125.489 64.3673 125.539 64.3264 125.571 64.3007L125.573 64.3022Z" fill="white"/>
<path d="M125.916 63.2445L125.714 63.3491C125.705 63.2035 125.689 63.026 125.664 62.8212L125.847 62.7302C125.85 62.7469 125.855 62.7757 125.859 62.8152C125.886 63.0139 125.905 63.158 125.915 63.2445H125.916Z" fill="white"/>
<path d="M97.6953 89.8295L100.151 90.7236C100.801 90.9612 101.334 90.5883 101.334 89.8957V86.9712C101.316 86.6065 101.195 86.2542 100.986 85.9551C100.777 85.6559 100.488 85.4222 100.151 85.2808L98.6832 84.7451C98.2525 84.5797 97.8997 84.2579 97.6953 83.8438" stroke="black" stroke-width="0.370227" stroke-miterlimit="10" stroke-linecap="round"/>
<path d="M99.0372 88.5829C99.4027 88.466 99.5603 87.9364 99.3892 87.3999C99.2181 86.8635 98.7832 86.5233 98.4177 86.6402C98.0522 86.7571 97.8946 87.2867 98.0656 87.8232C98.2367 88.3596 98.6717 88.6998 99.0372 88.5829Z" fill="black"/>
<path d="M139.654 96.9295C140.02 97.0464 140.178 97.576 140.006 98.1125C139.835 98.649 139.4 98.9891 139.035 98.8723C138.669 98.7554 138.512 98.2258 138.683 97.6893C138.854 97.1528 139.289 96.8127 139.654 96.9295Z" fill="black"/>
<path d="M168.456 102.681L173.734 100.764C174.714 100.409 174.714 99.8267 173.734 99.4707L167.664 97.2661L168.456 102.681Z" fill="black" stroke="white" stroke-width="0.370227"/>
<path d="M168.51 102.667L163.795 104.356C163.33 104.522 162.914 104.013 163.17 103.592L168.773 94.3777C169.048 93.9254 169.745 94.1188 169.745 94.6479V100.493C169.745 101.981 168.922 102.562 168.51 102.667Z" fill="#EBE9E9" stroke="black" stroke-width="0.370227"/>
<path d="M161.198 91.4926C161.459 91.0663 161.987 90.8836 162.457 91.0566L168.964 93.4526C169.583 93.6806 169.839 94.416 169.493 94.978L163.955 103.997C163.693 104.423 163.165 104.606 162.695 104.433L156.188 102.037C155.569 101.809 155.314 101.074 155.659 100.512L161.198 91.4926Z" fill="white" stroke="black" stroke-width="0.370227"/>
<mask id="mask4_315_2929" style="mask-type:alpha" maskUnits="userSpaceOnUse" x="155" y="90" width="15" height="15">
<path d="M161.198 91.4926C161.459 91.0663 161.987 90.8836 162.457 91.0566L168.964 93.4526C169.583 93.6806 169.839 94.416 169.493 94.978L163.955 103.997C163.693 104.423 163.165 104.606 162.695 104.433L156.188 102.037C155.569 101.809 155.314 101.074 155.659 100.512L161.198 91.4926Z" fill="#2D3033"/>
</mask>
<g mask="url(#mask4_315_2929)">
<path fill-rule="evenodd" clip-rule="evenodd" d="M161.151 95.093C160.916 95.0063 160.652 95.0982 160.521 95.3121L156.352 102.139C156.181 102.42 156.308 102.787 156.618 102.9L160.971 104.504C161.207 104.59 161.471 104.498 161.602 104.284L165.771 97.4577C165.942 97.1767 165.814 96.8099 165.505 96.6961L161.151 95.093Z" fill="white" stroke="black" stroke-width="0.370227"/>
</g>
<path d="M161.198 91.4926C161.459 91.0663 161.987 90.8836 162.457 91.0566L168.964 93.4526C169.583 93.6806 169.839 94.416 169.493 94.978L163.955 103.997C163.693 104.423 163.165 104.606 162.695 104.433L156.188 102.037C155.569 101.809 155.314 101.074 155.659 100.512L161.198 91.4926Z" stroke="black" stroke-width="0.370227"/>
<ellipse cx="0.785979" cy="1.04635" rx="0.785979" ry="1.04635" transform="matrix(0.94901 0.315246 -0.316344 0.948645 160.332 98.6387)" fill="black"/>
<path d="M138.905 97.7314C139.01 97.4658 139.311 97.3348 139.577 97.4395L149.312 101.262L149.362 101.288C149.994 101.619 152.235 102.244 155.039 101.23C158.125 100.115 159.838 99.5235 160.316 99.3643C160.588 99.2738 160.882 99.4206 160.973 99.6914C161.063 99.9619 160.916 100.254 160.645 100.345C160.179 100.5 158.477 101.088 155.392 102.203C152.317 103.314 149.779 102.671 148.888 102.207L148.88 102.203L148.873 102.2L139.197 98.4014C138.931 98.2967 138.801 97.9968 138.905 97.7314Z" fill="black" stroke="black" stroke-width="0.296181" stroke-linecap="round"/>
<path d="M155.215 101.717C158.301 100.602 160.008 100.011 160.48 99.8544M142.623 99.1909L139.387 97.9202M145.86 100.462L144.241 99.8263" stroke="#0075FF" stroke-width="0.592363" stroke-linecap="round"/>
<path fill-rule="evenodd" clip-rule="evenodd" d="M27.2498 79.913C27.3496 80.1842 27.2102 80.4848 26.9385 80.5843C26.0127 80.9235 25.3338 81.233 24.8836 81.4595C24.6108 81.5968 24.4349 81.89 24.4349 82.2434V85.5572C24.4349 86.4302 24.978 87.2115 25.7974 87.5171L48.9125 96.1389C51.7647 97.2028 54.9068 97.1979 57.7557 96.1251L76.3709 89.4378C79.4094 88.2937 82.7574 88.2703 85.8117 89.3718L94.0057 91.8549C94.6889 92.1013 95.4101 91.5961 95.4101 90.871V89.7419C95.4101 88.8737 95.9473 88.0957 96.7601 87.7867L98.499 87.1255C98.7695 87.0226 99.0723 87.1581 99.1754 87.4281C99.2784 87.698 99.1427 88.0003 98.8722 88.1031L97.1333 88.7643C96.7268 88.9188 96.4583 89.3078 96.4583 89.7419V90.871C96.4583 92.3212 95.016 93.3316 93.6495 92.8388L85.4555 90.3556C82.6361 89.3389 79.5457 89.3605 76.7409 90.4166L58.1257 97.1039C55.0394 98.2661 51.6355 98.2714 48.5455 97.1188L25.4304 88.497C24.2014 88.0386 23.3867 86.8667 23.3867 85.5572V82.2434C23.3867 81.5446 23.7432 80.8617 24.4118 80.5254C24.8976 80.281 25.6134 79.9554 26.5772 79.6023C26.849 79.5027 27.1501 79.6418 27.2498 79.913Z" fill="black" stroke="black" stroke-width="0.370227" stroke-linecap="round"/>
<path fill-rule="evenodd" clip-rule="evenodd" d="M26.1126 80.3375C26.1793 80.4975 26.1033 80.6812 25.943 80.7478C25.4629 80.947 25.0798 81.1265 24.7891 81.2727C24.437 81.4499 24.2246 81.8214 24.2246 82.2437V82.709C24.2246 82.8823 24.0838 83.0228 23.9102 83.0228C23.7365 83.0228 23.5957 82.8823 23.5957 82.709V82.2437C23.5957 81.6138 23.9168 81.0087 24.5061 80.7122C24.8103 80.5592 25.2072 80.3733 25.7015 80.1682C25.8619 80.1016 26.046 80.1774 26.1126 80.3375ZM98.2909 87.7644C98.3528 87.9264 98.2713 88.1078 98.109 88.1695L97.058 88.5691C96.5703 88.7545 96.248 89.2213 96.248 89.7422V90.8839C96.248 91.0572 96.1072 91.1977 95.9335 91.1977C95.7598 91.1977 95.619 91.0572 95.619 90.8839V89.7422C95.619 88.9609 96.1025 88.2607 96.8341 87.9825L97.8852 87.5829C98.0474 87.5212 98.2291 87.6025 98.2909 87.7644ZM23.9102 83.5609C24.0838 83.5609 24.2246 83.7015 24.2246 83.8748V85.0406C24.2246 85.2139 24.0838 85.3544 23.9102 85.3544C23.7365 85.3544 23.5957 85.2139 23.5957 85.0406V83.8748C23.5957 83.7015 23.7365 83.5609 23.9102 83.5609Z" fill="#0075FF"/>
<path fill-rule="evenodd" clip-rule="evenodd" d="M77.2017 89.706C77.2603 89.8692 77.1754 90.0489 77.0119 90.1074L75.4879 90.6534C75.3245 90.7119 75.1444 90.6271 75.0857 90.464C75.0271 90.3009 75.112 90.1211 75.2755 90.0626L76.7995 89.5166C76.9629 89.4581 77.143 89.5429 77.2017 89.706ZM74.1537 90.7979C74.2124 90.961 74.1274 91.1408 73.964 91.1993L67.868 93.3831C67.7046 93.4416 67.5245 93.3568 67.4658 93.1937C67.4072 93.0306 67.4921 92.8508 67.6556 92.7923L73.7515 90.6085C73.915 90.55 74.095 90.6348 74.1537 90.7979Z" fill="#0075FF"/>
<path d="M77.2017 89.706C77.2603 89.8692 77.1754 90.0489 77.0119 90.1074L75.4879 90.6534C75.3245 90.7119 75.1444 90.6271 75.0857 90.464C75.0271 90.3009 75.112 90.1211 75.2755 90.0626L76.7995 89.5166C76.9629 89.4581 77.143 89.5429 77.2017 89.706Z" fill="#0075FF"/>
<path d="M74.1537 90.7979C74.2124 90.961 74.1274 91.1408 73.964 91.1993L67.868 93.3831C67.7046 93.4416 67.5245 93.3568 67.4658 93.1937C67.4072 93.0306 67.4921 92.8508 67.6556 92.7923L73.7515 90.6085C73.915 90.55 74.095 90.6348 74.1537 90.7979Z" fill="#0075FF"/>
<path d="M118.324 106.154C121.683 107.373 121.699 109.357 118.36 110.583L91.9533 120.277C88.6141 121.504 83.1824 121.508 79.8232 120.289L53.26 110.639C49.9008 109.419 49.8851 107.436 53.2265 106.21L79.6307 96.5153C82.9698 95.289 88.3993 95.2846 91.7586 96.5042L118.322 106.154H118.324Z" fill="#EBE9E9" stroke="black" stroke-width="0.370227" stroke-miterlimit="10"/>
<path d="M104.792 112.372L108.42 111.054C109.093 110.81 109.093 110.41 108.42 110.166L104.248 108.65L104.792 112.372Z" fill="black"/>
<path d="M77.5889 104.42C78.927 104.42 80.2549 104.604 81.251 104.968H81.252L97.0781 110.695C97.5785 110.876 97.94 111.082 98.1729 111.291C98.4054 111.5 98.4971 111.7 98.4971 111.876C98.497 112.052 98.4054 112.252 98.1729 112.461C97.9409 112.669 97.5814 112.874 97.084 113.055L92.8887 114.407L92.8818 114.41C91.8823 114.773 90.5527 114.958 89.2148 114.958C88.0439 114.958 86.8802 114.817 85.9404 114.538L85.5518 114.41L69.7236 108.682C69.2237 108.501 68.8626 108.295 68.6299 108.086C68.3977 107.877 68.3068 107.677 68.3066 107.501C68.3066 107.325 68.3976 107.125 68.6299 106.916C68.8615 106.707 69.2202 106.503 69.7168 106.322L73.915 104.969L73.9209 104.968C74.9206 104.604 76.2507 104.42 77.5889 104.42Z" fill="white" stroke="black" stroke-width="0.370227" stroke-miterlimit="10" stroke-linecap="round"/>
<path d="M106.526 110.815C106.721 111.114 106.587 111.516 106.252 111.639L96.7598 115.123L96.1152 106.897L101.906 103.722L106.526 110.815Z" fill="#EBE9E9" stroke="black" stroke-width="0.370227"/>
<path d="M72.9111 94.0217C73.196 93.4145 73.8971 93.1243 74.5273 93.3538L100.955 102.978C101.67 103.238 102.009 104.056 101.686 104.745L97.1338 114.447C96.8489 115.054 96.1478 115.343 95.5176 115.114L69.0889 105.49C68.3738 105.23 68.0362 104.412 68.3594 103.723L72.9111 94.0217Z" fill="white" stroke="black" stroke-width="0.370227"/>
<path d="M73.779 96.7237C74.103 96.0332 74.8983 95.7017 75.6168 95.9577L97.8294 103.873C98.6529 104.166 99.0443 105.106 98.673 105.897L95.9676 111.664C95.6436 112.354 94.8483 112.686 94.1298 112.43L71.9172 104.514C71.0937 104.221 70.7023 103.282 71.0736 102.49L73.779 96.7237Z" fill="black"/>
<mask id="mask5_315_2929" style="mask-type:alpha" maskUnits="userSpaceOnUse" x="70" y="95" width="29" height="18">
<path d="M73.779 96.7242C74.103 96.0337 74.8983 95.7022 75.6168 95.9582L97.8294 103.873C98.6529 104.167 99.0443 105.106 98.673 105.897L95.9676 111.664C95.6437 112.355 94.8483 112.686 94.1298 112.43L71.9172 104.515C71.0937 104.221 70.7023 103.282 71.0736 102.491L73.779 96.7242Z" fill="black"/>
</mask>
<g mask="url(#mask5_315_2929)">
<path d="M73.1058 102.665L72.2908 102.364L71.7468 103.519L72.5617 103.819L73.1058 102.665Z" fill="#0075FF"/>
<path d="M93.0257 107.102L92.2108 106.802L91.6667 107.957L92.4817 108.257L93.0257 107.102Z" fill="#0075FF"/>
<path d="M89.4026 101.578L88.5877 101.278L88.0437 102.433L88.8586 102.733L89.4026 101.578Z" fill="#0075FF"/>
<path d="M76.121 100.41L75.3061 100.11L73.36 104.089L74.1749 104.389L76.121 100.41Z" fill="#0075FF"/>
<path d="M81.5175 101.374L80.7026 101.074L78.7565 105.053L79.5714 105.353L81.5175 101.374Z" fill="#0075FF"/>
<path d="M84.3242 99.73L83.5092 99.4298L81.5631 103.409L82.3781 103.709L84.3242 99.73Z" fill="#0075FF"/>
<path d="M93.0488 102.808L92.2338 102.508L90.2878 106.487L91.1027 106.787L93.0488 102.808Z" fill="#0075FF"/>
<path d="M96.498 107.891L95.683 107.59L93.737 111.569L94.5519 111.87L96.498 107.891Z" fill="#0075FF"/>
<path d="M87.3252 101.886L86.5103 101.586L84.1611 106.263L84.976 106.563L87.3252 101.886Z" fill="#0075FF"/>
<path d="M78.546 99.4441L77.7311 99.1438L76.334 101.937L77.1489 102.238L78.546 99.4441Z" fill="#0075FF"/>
<path d="M79.1076 102.234L78.2927 101.934L77.3238 103.903L78.1388 104.203L79.1076 102.234Z" fill="#0075FF"/>
<path d="M85.3322 101.79L84.5173 101.49L83.5484 103.459L84.3634 103.76L85.3322 101.79Z" fill="#0075FF"/>
<path d="M91.2443 102.181L90.4294 101.881L89.4606 103.85L90.2755 104.151L91.2443 102.181Z" fill="#0075FF"/>
<path d="M94.1447 108.761L93.3298 108.461L92.3609 110.43L93.1759 110.731L94.1447 108.761Z" fill="#0075FF"/>
<path d="M88.5588 103.284L87.7438 102.984L86.7606 104.979L87.5755 105.28L88.5588 103.284Z" fill="#0075FF"/>
<path d="M95.0218 106.989L94.2068 106.689L93.6628 107.844L94.4778 108.144L95.0218 106.989Z" fill="#0075FF"/>
<path d="M88.6136 107.718L87.7986 107.418L87.2546 108.573L88.0696 108.873L88.6136 107.718Z" fill="#0075FF"/>
<path d="M81.8167 104.783L81.0018 104.483L80.4578 105.638L81.2727 105.938L81.8167 104.783Z" fill="#0075FF"/>
<path d="M77.0179 98.5942L76.2029 98.294L75.6589 99.4489L76.4739 99.7492L77.0179 98.5942Z" fill="#0075FF"/>
<path d="M79.2084 98.0954L78.3935 97.7952L78.0258 98.5132L78.8407 98.8134L79.2084 98.0954Z" fill="#0075FF"/>
<path d="M97.4124 106.11L96.5975 105.809L96.0535 106.964L96.8684 107.265L97.4124 106.11Z" fill="#0075FF"/>
</g>
<path d="M73.9463 96.8022C74.2297 96.1981 74.926 95.9083 75.5547 96.1323L97.7676 104.047C98.4877 104.304 98.8303 105.126 98.5059 105.818L95.7998 111.585C95.5163 112.189 94.8208 112.479 94.1924 112.255L71.9795 104.34C71.259 104.084 70.9163 103.261 71.2412 102.569L73.9463 96.8022Z" stroke="black" stroke-width="0.370227"/>
</svg>
