<svg width="240" height="144" viewBox="0 0 240 144" fill="none" xmlns="http://www.w3.org/2000/svg">
<g clip-path="url(#clip0_288_17613)">
<path d="M80.235 57.5544H111.54C112.585 57.5544 113.569 57.9628 114.223 58.6697L118.644 63.4291C119.079 63.8989 119.738 64.1712 120.436 64.1712H169.308C171.038 64.1712 172.443 65.3874 172.443 66.889V126.215C172.443 129.456 169.413 132.081 165.681 132.081H81.7761C79.1593 132.081 77.043 130.242 77.043 127.972V60.3249C77.043 58.797 78.4699 57.5544 80.235 57.5544Z" fill="#2866AE"/>
<path d="M103.186 22.1262L90.0137 35.2938V85.7687H154.583V22.1262H103.186Z" fill="white"/>
<path d="M103.186 35.2938V22.1262L90.0137 35.2938H103.186Z" fill="#B9CFE6"/>
<path d="M69.25 72.4255H156C158.046 72.4255 159.798 73.69 160.176 75.4331L171.495 127.721C171.987 129.991 169.98 132.09 167.319 132.09H80.5691C78.523 132.09 76.7711 130.826 76.3936 129.082L65.0745 76.7942C64.5827 74.5243 66.5892 72.4255 69.25 72.4255Z" fill="#BEDCFF"/>
<path d="M124.932 49.1552C126.583 47.4824 128.229 45.8051 129.88 44.1279C130.851 43.14 130.939 41.3618 129.88 40.3915C128.831 39.4299 127.18 39.3377 126.144 40.3915C124.471 42.0336 122.798 43.6801 121.13 45.3266C119.479 43.6757 117.819 42.0292 116.142 40.4002C115.167 39.3948 113.328 39.3465 112.362 40.4002C111.369 41.4803 111.321 43.1093 112.362 44.1806C113.986 45.8534 115.624 47.5087 117.275 49.1552C115.628 50.8017 113.986 52.4526 112.366 54.1254C111.361 55.1001 111.312 56.9398 112.366 57.9058C113.446 58.898 115.075 58.9463 116.146 57.9058C117.824 56.2812 119.479 54.6347 121.13 52.9838C122.798 54.6303 124.467 56.2724 126.14 57.9145C127.127 58.8849 128.906 58.9727 129.876 57.9145C130.838 56.8652 130.93 55.2143 129.876 54.1781C128.229 52.5009 126.583 50.828 124.932 49.1552Z" fill="#EA3740"/>
</g>
<defs>
<clipPath id="clip0_288_17613">
<rect width="111" height="119.465" fill="white" transform="translate(65 12.625)"/>
</clipPath>
</defs>
</svg>
