<svg width="148" height="120" viewBox="0 0 148 120" fill="none" xmlns="http://www.w3.org/2000/svg">
<g clip-path="url(#clip0_298_4434)">
<path d="M144.585 113.931H4.62109V115.954H144.585V113.931Z" fill="#C0D8FB"/>
<path d="M146.021 115.954H3.1875V117.977H146.021V115.954Z" fill="#AFCDFB"/>
<path d="M147.991 117.977H1.21875V120H147.991V117.977Z" fill="#C0D8FB"/>
<path d="M138.784 36.5989H7.88672V113.931H138.784V36.5989Z" fill="#D2E3FC"/>
<path d="M147.669 38.0741H0.121094L75.2368 0L147.669 38.0741Z" fill="#DCEAFF"/>
<path d="M22.5195 32.9917L125.275 32.776L75.1878 6.72949L22.5195 32.9917Z" fill="#AFCDFB"/>
<path d="M144.537 38.0742H3.97266V41.3341H144.537V38.0742Z" fill="#C0D8FB"/>
<path d="M28.2559 38.0742H14.4102V42.9756H28.2559V38.0742Z" fill="#DCEAFF"/>
<path d="M25.1518 42.9756H17.5195V113.931H25.1518V42.9756Z" fill="#DCEAFF"/>
<path d="M58.1739 38.0742H44.3281V42.9756H58.1739V38.0742Z" fill="#DCEAFF"/>
<path d="M55.0697 42.9756H47.4375V113.931H55.0697V42.9756Z" fill="#DCEAFF"/>
<path d="M105.205 38.0742H91.3594V42.9756H105.205V38.0742Z" fill="#DCEAFF"/>
<path d="M102.097 42.9756H94.4648V113.931H102.097V42.9756Z" fill="#DCEAFF"/>
<path d="M133.373 38.0742H119.527V42.9756H133.373V38.0742Z" fill="#DCEAFF"/>
<path d="M130.265 42.9756H122.633V113.931H130.265V42.9756Z" fill="#DCEAFF"/>
<path d="M72.7114 84.2654H74.4026C79.0359 84.2654 82.7983 88.0278 82.7983 92.6611V113.931H63.8008V93.176C63.8008 88.2577 67.794 84.2654 72.7114 84.2654Z" fill="#C0D8FB"/>
<path d="M62.2766 55.0308H63.0747C65.2622 55.0308 67.0378 56.8063 67.0378 58.9938V69.0346H58.0703V59.2371C58.0703 56.9155 59.9551 55.0308 62.2766 55.0308Z" fill="#C0D8FB"/>
<path d="M36.0149 55.0308H36.813C39.0005 55.0308 40.776 56.8063 40.776 58.9938V69.0346H31.8086V59.2371C31.8086 56.9155 33.6933 55.0308 36.0149 55.0308Z" fill="#C0D8FB"/>
<path d="M36.0149 85.0945H36.813C39.0005 85.0945 40.776 86.87 40.776 89.0575V99.0983H31.8086V89.3008C31.8086 86.9792 33.6933 85.0945 36.0149 85.0945Z" fill="#C0D8FB"/>
<path d="M112.089 55.0308H112.887C115.075 55.0308 116.85 56.8063 116.85 58.9938V69.0346H107.883V59.2371C107.883 56.9155 109.768 55.0308 112.089 55.0308Z" fill="#C0D8FB"/>
<path d="M112.089 85.0945H112.887C115.075 85.0945 116.85 86.87 116.85 89.0575V99.0983H107.883V89.3008C107.883 86.9792 109.768 85.0945 112.089 85.0945Z" fill="#C0D8FB"/>
<path d="M84.9524 55.0308H85.7505C87.938 55.0308 89.7135 56.8063 89.7135 58.9938V69.0346H80.7461V59.2371C80.7461 56.9155 82.6308 55.0308 84.9524 55.0308Z" fill="#C0D8FB"/>
</g>
<defs>
<clipPath id="clip0_298_4434">
<rect width="147.867" height="120" fill="white" transform="translate(0.121094)"/>
</clipPath>
</defs>
</svg>
