<svg width="198" height="126" viewBox="0 0 198 126" fill="none" xmlns="http://www.w3.org/2000/svg">
<g clip-path="url(#clip0_294_9065)">
<path d="M84.6946 77.3767C84.7806 78.1789 85.9149 78.15 87.1969 77.9579C88.4789 77.7658 88.1478 78.1027 89.9512 78.0679C91.7545 78.0332 92.3559 77.4163 92.4341 77.1566C92.5046 76.9259 91.63 76.7618 90.6935 76.5667C90.5758 76.5426 90.458 76.5166 90.3392 76.4915C89.2831 76.2598 88.5639 75.499 87.6449 74.8445C86.775 74.2247 86.1881 71.3836 86.1881 71.3836L83.625 71.3682C83.625 71.3682 84.4301 73.938 84.8501 74.831C85.0972 75.3562 84.8337 76.031 84.7516 76.5378C84.7072 76.8129 84.6638 77.0948 84.6937 77.3767H84.6946Z" fill="#FFB07B"/>
<path d="M87.1967 77.9582C88.4787 77.7661 88.1476 78.103 89.951 78.0682C91.7543 78.0335 92.3557 77.4166 92.4339 77.1569C92.5044 76.9262 91.6298 76.7621 90.6933 76.5671L90.6827 76.5844C90.6827 76.5844 89.5426 77.2457 88.054 77.1463C86.8405 77.0652 85.5894 76.6008 84.7514 76.5391C84.707 76.8142 84.6636 77.0961 84.6935 77.378C84.7794 78.1802 85.9137 78.1513 87.1958 77.9591L87.1967 77.9582Z" fill="#365DA4"/>
<path d="M64.6538 77.2496C64.7098 78.0538 65.8441 78.0682 67.1329 77.9244C68.4216 77.7806 68.078 78.1049 69.8803 78.1377C71.6837 78.1706 72.3073 77.5778 72.3961 77.3201C72.4753 77.0913 71.6074 76.8953 70.6787 76.6646C70.5619 76.6356 70.4451 76.6057 70.3273 76.5758C69.2808 76.3045 68.5906 75.5177 67.6976 74.8294C66.851 74.1768 67.548 71.4708 67.548 71.4708L65.6027 70.5527C65.6027 70.5527 65.3353 73.3417 65.1905 74.7521C65.1316 75.3294 64.8439 75.9096 64.7416 76.4126C64.6866 76.6858 64.6325 76.9658 64.6528 77.2486L64.6538 77.2496Z" fill="#FFB07B"/>
<path d="M67.1329 77.9241C68.4216 77.7803 68.078 78.1047 69.8803 78.1375C71.6837 78.1703 72.3073 77.5776 72.3961 77.3198C72.4753 77.091 71.6074 76.895 70.6787 76.6643L70.6671 76.6817C70.6671 76.6817 69.5029 77.2995 68.0191 77.1441C66.8095 77.0177 65.5767 76.507 64.7416 76.4124C64.6866 76.6856 64.6325 76.9655 64.6528 77.2484C64.7088 78.0525 65.8431 78.067 67.1319 77.9232L67.1329 77.9241Z" fill="#365DA4"/>
<path d="M69.0235 37.0906C69.0235 37.0906 68.4848 39.6991 67.9452 52.9287C67.9452 52.9287 66.9441 55.3779 66.2191 58.3734C65.4931 61.3681 64.9805 73.8659 64.9805 73.8659C64.9805 73.8659 65.2701 74.2829 66.1486 74.336C66.8659 74.3795 67.4248 74.0648 67.4248 74.0648C67.4248 74.0648 72.4709 57.6957 74.9278 51.3416C77.3837 44.9865 78.8231 35.9128 78.8231 35.9128L69.0235 37.0916V37.0906Z" fill="#2B478B"/>
<path d="M75.0957 38.2064C75.0957 38.2064 75.4934 40.84 79.5673 53.4382C79.5673 53.4382 79.4766 56.0824 79.8328 59.1437C80.189 62.2049 84.3122 74.2577 84.3122 74.2577C84.3122 74.2577 84.8596 74.4479 85.6811 74.2307C86.4447 74.0289 87.0433 73.5694 87.0433 73.5694C87.0433 73.5694 85.462 56.3431 85.5662 49.5304C85.6705 42.7186 83.8787 33.7068 83.8787 33.7068L75.0938 38.2055L75.0957 38.2064Z" fill="#2B478B"/>
<path d="M82.3082 1.72104C81.6691 1.31462 80.8843 1.23449 80.3311 1.23932C80.4807 1.1003 80.7617 1.06072 80.7617 1.06072C80.4228 0.993146 79.6428 1.29338 79.6428 1.29338C74.9829 -0.775435 73.8862 6.18401 73.9045 7.81454C73.9229 9.44507 73.8408 11.3169 71.3955 12.6559C66.585 15.2914 70.2728 20.4958 70.2728 20.4958C69.4068 22.9807 72.6129 26.0246 72.6129 26.0246C72.5588 24.7049 78.6156 16.2983 81.8815 14.3801C82.7079 13.2854 83.0815 11.2967 83.1104 11.1403C82.8981 12.7206 82.5824 13.5981 82.314 14.0866C85.1146 11.7562 83.9996 2.79745 82.3072 1.72008L82.3082 1.72104Z" fill="#C65447"/>
<path d="M81.2941 13.4799C81.3105 13.4876 79.7659 14.2889 78.6045 13.9713C77.5117 13.6739 76.7973 12.2558 76.8127 12.2529C77.2752 12.1612 77.4094 11.525 77.3997 8.79297L77.6092 8.83448L81.0006 9.50639L81.127 9.53052C81.127 9.53052 81.0469 10.6378 81.044 11.6804C81.044 11.9015 81.0469 12.1187 81.0546 12.3224C81.0778 12.9277 81.1444 13.4094 81.295 13.4799H81.2941Z" fill="#FFB07B"/>
<path d="M81.0441 11.6806C81.0441 11.9017 81.047 12.1189 81.0547 12.3226C79.0824 12.2434 77.9452 9.98732 77.5156 8.9978L81.0007 9.50656L81.1271 9.53069C81.1271 9.53069 81.047 10.638 81.0441 11.6806Z" fill="#EA8E50"/>
<path d="M77.2429 8.45131C77.2429 8.45131 76.2109 6.82175 75.9637 5.42773C75.7871 4.43242 76.2939 0.744663 80 1.27562C80 1.27562 81.0764 1.38182 82.0881 2.06531C82.8933 2.60882 84.0546 3.78176 82.7552 7.00034L82.4183 8.08736L77.2419 8.45131H77.2429Z" fill="#C65447"/>
<path d="M81.3344 11.169C81.3344 11.169 76.717 10.5589 77.1408 7.68882C77.5655 4.81874 77.2547 2.80688 80.2213 3.07526C83.1879 3.34363 83.5972 4.52333 83.689 5.51575C83.7807 6.50816 82.5469 11.254 81.3344 11.169Z" fill="#FFB07B"/>
<path d="M82.3305 3.31822C82.3305 3.31822 80.5677 6.49626 78.5577 6.70575C76.5478 6.91523 75.7852 6.27132 75.7852 6.27132C75.7852 6.27132 77.4456 5.3127 78.0606 3.29988C78.0606 3.29988 81.617 1.57377 82.3295 3.31725L82.3305 3.31822Z" fill="#C65447"/>
<path d="M81.9766 3.54435C81.9766 3.54435 82.8068 4.43636 82.9275 5.20094C83.0481 5.96552 82.9275 7.48504 83.3735 7.49952C83.3735 7.49952 84.6652 5.35251 83.7896 3.89961C82.8618 2.35789 81.9766 3.54435 81.9766 3.54435Z" fill="#C65447"/>
<path d="M112.641 42.5371C111.672 40.4847 108.979 38.7866 106.71 38.7866C105.034 38.7866 103.556 39.3581 102.412 40.2897C101.758 40.8226 100.772 40.4712 100.594 39.6468L98.6083 30.4187C98.3187 29.0729 96.9933 28.2166 95.6475 28.5063L63.509 35.4232C62.1941 35.7061 61.3581 37.0016 61.6409 38.3165L68.5502 70.4203C68.7481 71.3384 69.421 72.0315 70.256 72.297L69.8341 72.4167H71.0814L71.092 72.4148C71.2446 72.4099 71.399 72.3926 71.5535 72.3597L72.2534 72.2091L80.5016 70.4338C81.6591 70.1847 82.1293 68.784 81.3512 67.8919C80.6001 67.0299 80.0595 65.9612 79.8287 64.7516C79.18 61.3418 81.2874 57.9649 84.6373 57.0565C88.3637 56.0467 92.1268 58.3733 92.929 62.0987C93.2302 63.5004 93.069 64.8935 92.5467 66.1195C92.344 66.5954 92.5119 67.0907 92.8605 67.3726L92.3797 67.6071H93.4947C93.5777 67.6081 93.6646 67.6014 93.7525 67.582L103.601 65.4621C104.947 65.1725 105.804 63.846 105.514 62.5003L103.54 53.3291C103.357 52.4806 104.13 51.7363 104.972 51.9525C105.944 52.2025 106.988 52.2363 108.036 52.0104C112.157 51.1232 114.566 46.613 112.642 42.5371H112.641Z" fill="#D86713"/>
<path d="M105.577 38.7856C103.901 38.7856 102.423 39.3571 101.279 40.2887C100.626 40.8216 99.639 40.4702 99.4613 39.6458L97.4755 30.4177C97.1859 29.072 95.8604 28.2157 94.5147 28.5053L62.3761 35.4222C61.0613 35.7051 60.2253 37.0006 60.5081 38.3155L67.4174 70.4193C67.7108 71.7843 69.0556 72.6522 70.4207 72.3587L79.3688 70.4328C80.5263 70.1837 80.9964 68.783 80.2183 67.891C79.4673 67.0289 78.9267 65.9602 78.6959 64.7506C78.0472 61.3408 80.1546 57.9639 83.5045 57.0555C87.2309 56.0457 90.9939 58.3723 91.7962 62.0977C92.0983 63.4994 91.9362 64.8925 91.4139 66.1185C91.0741 66.915 91.772 67.7635 92.6177 67.5811L102.467 65.4611C103.812 65.1715 104.669 63.845 104.379 62.4993L102.405 53.3282C102.222 52.4796 102.997 51.7353 103.837 51.9515C104.81 52.2016 105.853 52.2353 106.902 52.0094C111.023 51.1223 113.431 46.612 111.507 42.5361C110.538 40.4837 107.846 38.7856 105.576 38.7856H105.577Z" fill="#F1A34F"/>
<path d="M93.8164 26.5813C93.8164 26.5813 95.8205 26.9095 96.3467 28.2138C96.8728 29.518 96.1382 30.4004 95.8563 30.3975C95.5744 30.3946 95.0328 30.186 94.7799 29.5093C94.5269 28.8335 93.8174 26.5813 93.8174 26.5813H93.8164Z" fill="#FFB07B"/>
<path d="M66.2188 32.3987C66.2188 32.3987 68.4691 32.3958 69.279 33.7261C70.088 35.0564 69.446 36.1531 69.1371 36.2013C68.8282 36.2486 68.1997 36.1183 67.8 35.4252C67.4013 34.732 66.2188 32.3987 66.2188 32.3987Z" fill="#FFB07B"/>
<path d="M93.8751 28.0941C93.6752 28.0516 92.8035 27.9492 91.6933 27.7745C89.6506 27.454 86.8017 26.8893 85.846 26.0079C85.5873 25.7684 84.9839 24.4517 84.3574 22.9418C83.7231 26.284 83.6884 28.848 83.8563 30.7991L70.0475 33.7715C71.232 31.3773 73.0643 28.4097 72.7207 26.0079C72.5932 25.1178 72.1057 23.8956 71.9232 22.5228C71.9078 22.4051 71.8952 22.2863 71.8846 22.1666C69.9481 23.7605 67.7103 25.5194 67.6572 25.8717C67.5684 26.4616 69.0763 32.9895 69.0763 32.9895C68.7018 33.8516 67.0761 33.6701 67.0761 33.6701C65.5517 32.5821 63.3111 26.4153 63.4906 25.0492C63.6702 23.6832 69.226 15.8974 70.5717 14.0371C71.9001 12.1981 76.7502 12.2444 76.867 12.2454H76.8699C80.7266 14.5613 81.0741 12.6363 81.0741 12.6363C81.0741 12.6363 84.5543 13.2986 85.1519 14.3258C85.7504 15.3539 88.3724 23.1494 88.5578 23.4245C88.9458 23.9989 95.2855 26.2955 95.3994 26.9607C95.5143 27.6258 94.4437 28.2157 93.8751 28.095V28.0941Z" fill="#80BDCC"/>
<path d="M74.8622 32.7404L70.0469 33.7723C71.2459 31.385 72.8214 28.4125 72.4767 26.0252C72.3474 25.1341 72.0587 24.0789 71.9197 22.7004C71.9062 22.5671 71.883 22.1675 71.883 22.1675C71.883 22.1675 75.2928 24.8512 75.3526 27.7551C75.3835 29.2621 75.1209 31.2324 74.8612 32.7404H74.8622Z" fill="#5F9AA8"/>
<path d="M91.8188 27.7927C89.7509 27.4712 86.8673 26.9074 85.9 26.025C85.6374 25.7856 85.0273 24.4669 84.3931 22.9551C84.3931 22.9551 84.171 20.5253 84.8062 20.616C85.4415 20.7068 86.376 25.0162 87.043 25.2885C87.6396 25.5327 90.9403 26.7993 91.8198 27.7917L91.8188 27.7927Z" fill="#5F9AA8"/>
<path d="M193.694 120.365C193.403 121.347 192.057 122.003 191.875 123.203C191.787 123.789 191.568 124.244 191.291 124.557H187.102C187.143 124.326 187.327 124.078 187.872 123.959C189.035 123.704 189.474 122.293 189.402 120.984C189.372 120.435 189.386 119.809 189.413 119.268C189.449 118.518 189.511 117.929 189.511 117.929L191.984 117.347L192.244 117.681L192.493 118.001C192.493 118.001 193.985 119.383 193.694 120.365Z" fill="#2C3A64"/>
<path d="M174.184 124.557H165.707C165.899 124.332 166.224 124.115 166.776 124.025C168.08 123.814 170.34 123.056 170.843 121.389C170.859 121.336 170.874 121.281 170.886 121.225C171.286 119.443 174.197 121.77 174.197 121.77C174.197 121.77 174.205 121.842 174.219 121.963C174.27 122.464 174.383 123.825 174.183 124.557H174.184Z" fill="#2C3A64"/>
<path d="M167.121 77.3327C167.121 77.3327 167.563 82.847 168.083 89.4753C168.788 98.4794 169.638 109.54 169.722 111.635C169.867 115.273 170.45 121.093 170.45 121.093C170.45 121.093 171.831 122.475 174.597 121.893C174.597 121.893 177.061 113.585 177.765 104.795C177.776 104.651 177.788 104.505 177.798 104.361C178.453 95.4124 179.471 76.5691 179.471 76.5691L167.122 77.3327H167.121Z" fill="#35488B"/>
<path d="M167.121 77.3327C167.121 77.3327 167.563 82.847 168.083 89.4753L177.764 104.795C177.775 104.651 177.787 104.505 177.797 104.361C178.452 95.4124 179.47 76.5691 179.47 76.5691L167.121 77.3327Z" fill="#2C3A64"/>
<path d="M169.141 77.9869C169.141 77.9869 177.107 97.9577 182.345 107.342C187.583 116.727 189.221 119.347 189.221 119.347C189.221 119.347 192.222 118.147 192.494 117.328C192.494 117.328 190.491 99.2098 186.983 94.7932C185.001 92.2977 182.672 84.8083 182.563 82.1892C182.454 79.5701 181.854 74.387 181.854 74.387L169.141 77.9878V77.9869Z" fill="#35488B"/>
<path d="M173.228 47.1615C172.873 45.0705 172.863 43.8309 172.863 43.8309L176.905 40.5737C176.754 45.0531 179.624 47.2069 179.624 47.2069C179.624 47.2069 174.238 49.8578 171.125 48.876C171.125 48.876 171.892 47.8962 173.228 47.1625V47.1615Z" fill="#935C2F"/>
<path d="M171.91 43.7566C171.91 43.7566 177.052 44.611 177.534 41.4001C178.017 38.1892 179.006 36.1378 175.743 35.4562C172.48 34.7747 171.657 35.9042 171.235 36.9362C170.813 37.9682 170.584 43.4506 171.91 43.7556V43.7566Z" fill="#A16D3C"/>
<path d="M153.852 50.3739L152.757 49.6962C152.757 49.6962 151.392 47.6814 149.061 48.9335C149.061 48.9335 148.137 49.5224 148.757 50.0157C149.377 50.509 149.21 50.23 150.069 50.9444C150.927 51.6588 152.038 51.9136 152.755 51.5198L153.674 51.4329L153.851 50.3748L153.852 50.3739Z" fill="#A16D3C"/>
<path d="M152.552 50.5859C152.833 49.7035 152.968 49.6263 152.968 49.6263C152.968 49.6263 161.821 50.6727 162.655 50.7345C163.49 50.7963 175.081 48.408 175.081 48.408L180.553 55.0537C180.553 55.0537 164.417 55.6618 162.306 55.4639C158.816 55.1367 152.488 51.8882 152.488 51.8882C152.488 51.8882 152.331 51.279 152.552 50.5859Z" fill="#D3782F"/>
<path d="M182.462 75.4066C182.478 75.7493 181.771 76.1258 181.464 76.2639C179.153 77.2997 177.001 78.0199 174.569 78.2535C171.685 78.549 168.276 77.9002 167.107 77.9157C166.981 77.9157 166.873 77.8693 166.78 77.7911C166.701 77.7284 166.639 74.2057 166.701 69.763C166.701 69.5912 166.701 69.4039 166.717 69.232V69.1703C166.722 68.7078 166.728 68.2377 166.739 67.7627C166.768 66.4643 166.817 65.1311 166.873 63.8066C166.958 61.8536 167.074 59.9344 167.234 58.2344C167.402 56.4591 167.616 54.9202 167.887 53.8303C168.511 51.3203 169.945 49.6676 171.254 48.4512L172.33 47.5013C173.405 47.7195 174.543 47.6567 175.681 47.0958C176.912 46.4876 178.254 45.8331 178.471 45.9885C180.134 47.231 181.253 50.0509 181.826 53.6353C182.135 55.5642 182.286 57.7141 182.277 59.9586C182.273 60.8197 182.247 61.6934 182.197 62.5757C181.919 67.309 182.204 71.4138 182.368 73.7983C182.415 74.4847 182.453 75.0292 182.463 75.4057L182.462 75.4066Z" fill="#E69D43"/>
<path d="M155.126 31.6466L122.607 26.4818C121.224 26.2617 119.925 27.2049 119.706 28.5873L118.267 37.6513C118.2 38.0712 118.306 39.2509 118.306 39.2509L119.478 39.4257C119.545 39.4402 119.612 39.4508 119.681 39.4556C119.893 39.473 120.114 39.446 120.335 39.3668C121.414 38.9768 122.608 38.858 123.823 39.081C127.247 39.7085 129.641 42.903 129.277 46.3639C128.871 50.2138 125.333 52.8899 121.559 52.2904C120.139 52.0645 118.895 51.409 117.938 50.4764C117.753 50.2959 117.529 50.2003 117.304 50.1771L116.078 49.9928L114.551 61.0493C114.335 62.4124 115.264 63.6935 116.627 63.9107L125.917 65.3858C126.776 65.5219 127.192 66.5153 126.686 67.2229C126.1 68.0416 125.69 69.005 125.522 70.0669C124.859 74.2412 128.204 78.1269 132.712 77.8035C134.981 77.6404 137.543 75.7376 138.366 73.6157C138.973 72.0489 138.974 70.4598 138.516 69.0533C138.255 68.2491 138.941 67.4536 139.776 67.5869L149.124 69.0716C150.487 69.2879 151.767 68.3592 151.983 66.9961L157.153 34.4414C157.365 33.1101 156.456 31.859 155.125 31.6476L155.126 31.6466Z" fill="#4A75CB"/>
<path d="M178.589 53.5408C178.589 53.5408 176.097 65.1727 166.738 67.7647C166.767 66.4663 166.816 65.1331 166.872 63.8086C166.957 61.8556 167.073 59.9364 167.234 58.2364C167.401 58.1505 167.558 58.0829 167.701 58.0356C170.877 56.9882 178.589 53.5408 178.589 53.5408Z" fill="#D3782F"/>
<path d="M137.165 73.4341C137.772 71.8672 137.773 70.2782 137.315 68.8717C137.054 68.0675 137.74 67.272 138.575 67.4052L147.922 68.89C149.285 69.1063 150.565 68.1766 150.781 66.8144L155.951 34.2598C156.162 32.9285 155.254 31.6774 153.923 31.466L121.404 26.3012C120.021 26.082 118.722 27.0242 118.503 28.4067L117.063 37.4707C116.877 38.6436 118.016 39.5897 119.133 39.1861C120.212 38.7961 121.406 38.6774 122.62 38.9004C126.043 39.5279 128.438 42.7223 128.074 46.1832C127.668 50.0332 124.131 52.7092 120.356 52.1097C118.936 51.8838 117.693 51.2283 116.735 50.2958C116.113 49.6895 115.068 50.0351 114.932 50.8924L113.348 60.8686C113.131 62.2318 114.061 63.5128 115.424 63.73L124.714 65.2051C125.574 65.3413 125.989 66.3346 125.483 67.0423C124.897 67.8609 124.487 68.8244 124.319 69.8863C123.656 74.0606 127.001 77.9463 131.508 77.6229C133.778 77.4597 136.341 75.5569 137.163 73.435L137.165 73.4341Z" fill="#699DEE"/>
<path d="M153.887 57.8742L152.55 57.6531C152.55 57.6531 151.025 55.4472 148.368 56.6849C148.368 56.6849 147.315 57.2737 148.011 57.8259C148.708 58.3772 148.523 58.0731 149.487 58.8714C150.453 59.6689 151.709 59.9874 152.525 59.5974L153.568 59.5434L153.887 57.8752V57.8742Z" fill="#A16D3C"/>
<path d="M152.866 58.554C152.909 57.5703 153.434 57.465 153.434 57.465C153.434 57.465 163.561 56.7951 164.435 56.6261C165.309 56.4562 173.375 49.7729 173.375 49.7729C173.375 49.7729 176.495 46.9694 178.68 47.9155C180.579 48.738 181.174 50.3598 181.269 51.8513C181.383 53.6286 180.381 55.291 178.767 56.044C175.144 57.7363 167.899 61.0572 166.249 61.344C162.577 61.9821 153.138 59.9374 153.138 59.9374C153.138 59.9374 152.832 59.3263 152.866 58.554Z" fill="#E69D43"/>
<path d="M171.238 36.9369C171.238 36.9369 169.151 35.3894 170.512 32.9846C170.512 32.9846 172.154 33.5291 174.485 32.9846C176.818 32.4401 178.905 33.2115 179.177 34.0282C179.177 34.0282 180.084 34.3912 180.175 35.7524C180.266 37.1135 177.537 41.4008 177.537 41.4008C177.537 41.4008 176.954 40.6748 177.113 40.1757C177.271 39.6766 177.77 38.5655 177.158 38.5655C176.546 38.5655 176.342 39.4729 176.093 39.11C175.844 38.747 176.297 37.2275 175.571 36.9774C174.845 36.7284 172.055 37.3964 171.239 36.9369H171.238Z" fill="#2C3A64"/>
<path d="M100.302 123.397L91.1094 81.6608H93.6397C94.2392 81.6608 94.7296 81.1704 94.7296 80.5709V79.1614C94.7296 78.5619 94.2392 78.0715 93.6397 78.0715H61.5417C60.9422 78.0715 60.4508 78.5619 60.4508 79.1614V80.5709C60.4508 81.1704 60.9412 81.6608 61.5417 81.6608H64.7989L55.6065 123.397C55.483 123.958 55.8392 124.519 56.3991 124.643C56.9581 124.767 57.517 124.409 57.6406 123.848L66.9324 81.6608H88.975L98.2668 123.848C98.3904 124.409 98.9493 124.767 99.5083 124.643C100.068 124.519 100.424 123.958 100.301 123.397H100.302Z" fill="#C3E0F4"/>
<path d="M148.854 86.6807H139.678C138.49 86.6807 137.734 87.954 138.309 88.9937C138.863 89.9977 136.912 98.6939 132.801 98.9207C128.936 99.1341 125.737 96.0497 125.737 92.2287C125.737 90.7913 126.19 89.459 126.961 88.3682C127.462 87.6586 126.957 86.6807 126.089 86.6807H115.988C114.608 86.6807 113.488 87.7995 113.488 89.181C113.488 89.181 112.572 100.023 111.793 99.6342C110.991 99.2335 110.097 98.9893 109.152 98.9401H109.143C109.03 98.9343 108.918 98.9314 108.803 98.9314C108.688 98.9314 107.025 98.9034 107.025 98.9034L106.773 112.302L108.218 112.317C109.59 112.277 110.783 112.147 111.843 111.608C112.596 111.224 113.489 111.776 113.489 112.621V122.086C113.489 123.466 114.608 124.584 115.987 124.584H148.949C150.298 124.584 151.391 123.492 151.391 122.143V89.2167C151.391 87.8169 150.255 86.6816 148.855 86.6816L148.854 86.6807Z" fill="#D86713"/>
<path d="M105.535 112.145C107.178 112.499 108.747 112.25 110.065 111.578C110.818 111.194 111.711 111.746 111.711 112.592V122.056C111.711 123.436 112.83 124.555 114.209 124.555H147.171C148.52 124.555 149.613 123.462 149.613 122.113V89.187C149.613 87.7871 148.477 86.6519 147.078 86.6519H137.901C136.713 86.6519 135.957 87.9252 136.532 88.9649C137.086 89.9689 137.391 91.1303 137.361 92.364C137.278 95.8433 134.5 98.7095 131.024 98.8919C127.159 99.0956 123.961 96.0209 123.961 92.1999C123.961 90.7625 124.413 89.4302 125.184 88.3393C125.685 87.6298 125.18 86.6519 124.312 86.6519H114.211C112.831 86.6519 111.711 87.7707 111.711 89.1522V98.5579C111.711 99.4287 110.796 99.9944 110.017 99.6054C109.116 99.1555 108.1 98.9026 107.026 98.9026C102.799 98.9026 99.4861 102.815 100.512 107.216C101.029 109.432 103.311 111.665 105.535 112.145Z" fill="#F1A34F"/>
<path d="M31.2626 76.8687L32.1391 77.5801C32.1391 77.5801 34.5371 76.72 35.0777 79.5698C35.0777 79.5698 35.2216 80.7842 34.4522 80.7862C33.6828 80.7881 34.0004 80.653 32.9114 80.6858C31.8225 80.7176 30.9198 80.1432 30.7596 79.2599L30.2383 78.5108L31.2616 76.8687H31.2626Z" fill="#EA8E50"/>
<path d="M31.1623 78.3956C31.8612 77.6658 31.8052 77.1262 31.8052 77.1262C31.8052 77.1262 23.7076 70.4959 22.886 69.9563C22.3261 69.5885 16.363 64.3011 13.5749 61.0776C12.1925 59.479 10.4789 60.0997 8.51922 60.6616L6.9051 61.125C4.95599 61.6839 4.44916 64.4092 6.0488 65.7337C10.5523 69.4639 18.0427 73.6585 19.4445 74.5409C22.9237 76.7294 29.7345 79.3311 29.7345 79.3311C29.7345 79.3311 30.5608 79.0241 31.1613 78.3966L31.1623 78.3956Z" fill="#1E3D70"/>
<path d="M40.6409 119.061C40.6409 119.061 42.6065 120.533 45.6175 119.755C45.6175 119.755 48.0454 119.202 48.5783 120.413C48.5783 120.413 44.8548 122.304 43.9126 122.821C43.2021 123.211 42.4617 123.826 41.9375 124.302C41.5233 124.679 40.8765 124.628 40.5232 124.193C40.3591 123.991 40.1718 123.752 39.9661 123.474C39.3917 122.696 38.0547 120.183 38.0547 120.183L40.6409 119.061Z" fill="#233862"/>
<path d="M41.5573 118.38C41.5573 118.38 40.3602 121.14 37.5983 120.633C37.5983 120.633 31.9614 115.978 28.0951 111.142C26.8391 109.571 25.7704 107.982 25.1419 106.528C22.5779 100.591 15.658 91.7379 11.2578 87.2508L22.2661 83.2686C22.2661 83.2686 25.7916 90.3612 30.4834 99.0738C33.8642 105.351 37.8493 112.469 41.5573 118.381V118.38Z" fill="#2B478B"/>
<path d="M30.4834 99.0728L28.0951 111.142C26.8391 109.571 25.7704 107.982 25.1419 106.528C22.5779 100.591 15.658 91.7379 11.2578 87.2508L22.2661 83.2686C22.2661 83.2686 25.7917 90.3612 30.4834 99.0738V99.0728Z" fill="#233862"/>
<path d="M21.4565 120.626C21.4565 120.626 21.3368 122.828 24.006 123.122C24.006 123.122 25.5313 123.129 25.5352 124.531L17.7774 124.555C17.7774 124.555 17.5525 123.99 17.4974 122.779C17.4559 121.849 18.3981 119.418 18.3981 119.418L21.4555 120.625L21.4565 120.626Z" fill="#233862"/>
<path d="M18.6555 83.2678C18.6555 83.2678 23.5596 88.6566 26.672 98.3644C28.3653 103.646 23.5673 116.926 22.6319 121.54C22.6319 121.54 19.4133 121.814 17.2122 120.963C17.2122 120.963 17.0452 111.433 18.3321 104.088C19.0522 99.9776 11.8756 95.2965 8.73907 87.8688C6.60557 82.816 9.20148 82.9019 12.3911 82.7803L18.6545 83.2688L18.6555 83.2678Z" fill="#2B478B"/>
<path d="M12.9975 59.2267C10.2693 60.7674 4.68359 59.3464 4.68359 59.3464C4.68359 59.3464 6.95224 56.7534 5.92121 52.5762L8.0634 53.6642L10.3649 54.8332C10.3649 54.8332 10.5135 55.5708 10.6168 56.8953C10.6429 57.2361 10.667 57.6174 10.6834 58.0335C12.0842 58.4583 12.9984 59.2257 12.9984 59.2257L12.9975 59.2267Z" fill="#FFB07B"/>
<path d="M22.9992 82.9896C22.9992 83.4694 22.447 83.6991 22.3292 83.7223C21.2286 83.9231 18.1558 85.1183 15.3881 85.3924C13.0576 85.6367 10.8933 85.405 8.51648 84.9271C8.20177 84.8634 7.46229 84.6645 7.41016 84.3633C7.34451 84.0341 -1.76002 65.8029 5.31817 57.9727C5.48422 57.7892 6.88113 58.1194 8.15929 58.4235C9.33899 58.7035 10.4212 58.5471 11.3875 58.1599L12.5856 58.7903C14.0568 59.61 16.841 62.5235 17.1663 64.8085C17.3314 65.9709 17.9965 66.832 18.1887 67.8543C18.2601 68.2327 18.3335 68.6025 18.4078 68.9616C18.5526 69.6683 18.7022 70.3402 18.8557 70.9793C19.2718 72.7083 19.7111 74.1959 20.1426 75.4818C20.6021 76.8469 21.052 77.9822 21.4545 78.9321C21.9768 80.1639 22.417 81.0839 22.6931 81.7896C22.8881 82.2858 22.9992 82.6749 22.9992 82.9906V82.9896Z" fill="#2A4E96"/>
<path d="M22.6932 81.7886C9.84104 75.7338 5.39062 64.1067 5.39062 64.1067C5.39062 64.1067 15.8322 67.9586 18.4078 68.9616C18.5527 69.6683 18.7023 70.3402 18.8558 70.9792C19.2719 72.7083 19.7111 74.1959 20.1426 75.4818C20.6022 76.8468 21.052 77.9821 21.4546 78.9321C21.9769 80.1639 22.4171 81.0839 22.6932 81.7896V81.7886Z" fill="#1E3D70"/>
<path d="M58.9962 68.9114L56.2439 60.1825C55.9765 59.3349 55.0989 58.9333 54.3334 59.1495H54.3314C54.2909 59.1621 54.2503 59.1756 54.2108 59.19L53.2454 59.5125C53.2454 59.5125 51.7346 61.0687 50.6495 61.3824C47.315 62.3468 44.1505 60.5696 42.9341 57.3191C41.5807 53.7038 43.1513 49.7332 46.785 48.5863C48.0285 48.1943 50.4757 48.9251 50.4757 48.9251L51.4585 48.5988C51.9923 48.4366 52.3582 47.8613 52.168 47.256L49.1377 37.6485C48.7235 36.3356 47.3237 35.6067 46.0098 36.0209L37.0636 38.8427C36.2353 39.1043 35.4225 38.4025 35.5596 37.5452C35.7179 36.5538 35.6532 35.5121 35.3308 34.4898C34.0632 30.4699 29.3473 28.4918 25.4684 30.7885C23.5155 31.945 22.077 34.7842 22.2875 37.0442C22.4439 38.7123 23.1505 40.1305 24.1854 41.1828C24.7772 41.7842 24.5195 42.7988 23.7143 43.0527L14.7121 45.8919C13.3992 46.3061 12.6713 47.7059 13.0845 49.0178L22.9719 80.3705C23.3764 81.6526 24.7444 82.365 26.0264 81.9605L57.3444 72.0837C58.6757 71.6638 59.4151 70.2437 58.9952 68.9124L58.9962 68.9114Z" fill="#4A75CB"/>
<path d="M21.3344 37.3608C21.4908 39.029 22.1974 40.4471 23.2323 41.4994C23.8231 42.1008 23.5663 43.1154 22.7612 43.3693L13.759 46.2085C12.4461 46.6227 11.7182 48.0225 12.1314 49.3354L22.0188 80.6881C22.4233 81.9711 23.7913 82.6826 25.0733 82.2781L56.3913 72.4013C57.7225 71.9813 58.462 70.5612 58.0421 69.23L55.2888 60.501C54.9326 59.3715 53.4942 59.0346 52.6784 59.8928C51.8897 60.7211 50.877 61.3592 49.6935 61.7019C46.359 62.6664 42.7997 60.8833 41.5833 57.6328C40.2298 54.0175 42.1953 50.0527 45.83 48.9067C47.197 48.4752 48.5997 48.5071 49.8692 48.9125C50.6936 49.1761 51.4736 48.4028 51.213 47.5765L48.1826 37.968C47.7685 36.6551 46.3687 35.9262 45.0548 36.3404L36.1076 39.1622C35.2793 39.4228 34.4665 38.722 34.6036 37.8647C34.7619 36.8733 34.6972 35.8316 34.3748 34.8083C33.1072 30.7875 28.3913 28.8104 24.5134 31.107C22.5604 32.2636 21.122 35.1027 21.3324 37.3627L21.3344 37.3608Z" fill="#699DEE"/>
<path d="M30.212 78.2797L31.3222 78.6871C31.3222 78.6871 33.5465 77.1145 34.9308 79.6718C34.9308 79.6718 35.4319 80.7888 34.6393 81.0311C33.8467 81.2734 34.1344 81.0456 33.0203 81.4163C31.9063 81.787 30.8086 81.5205 30.3877 80.7241L29.6328 80.17L30.212 78.2788V78.2797Z" fill="#FFB07B"/>
<path d="M31.1275 79.8501C31.5378 78.7785 31.7261 78.2939 31.7261 78.2939C31.7261 78.2939 23.334 71.4541 22.4796 70.8672C21.8965 70.4675 16.0965 66.132 13.2679 62.7522C11.8652 61.0763 9.65355 60.3098 7.51427 60.7587L5.75244 61.1284C3.6257 61.5744 2.93449 64.2669 4.58433 65.6812C9.23168 69.6653 17.0696 74.2856 18.5312 75.2471C22.1591 77.6326 30.1834 80.9767 30.1834 80.9767C30.1834 80.9767 30.8051 80.6929 31.1275 79.851V79.8501Z" fill="#2A4E96"/>
<path d="M10.6157 56.8964C7.93291 57.047 6.1875 54.8315 6.1875 54.8315C6.1875 54.8315 7.40099 54.1596 8.06227 53.6653L10.3637 54.8344C10.3637 54.8344 10.5124 55.5719 10.6157 56.8964Z" fill="#EA8E50"/>
<path d="M11.7586 54.141C11.7586 54.141 7.6934 57.0583 5.91517 54.4991C4.1379 51.9399 2.41565 50.5922 4.9353 48.6209C7.45592 46.6496 8.6443 47.2723 9.44461 47.9828C10.2459 48.6933 12.7694 53.3165 11.7577 54.141H11.7586Z" fill="#FFB07B"/>
<path d="M9.8749 45.6718C9.72913 44.688 9.4009 43.9958 9.4009 43.9958C9.4009 43.9958 9.14604 45.0529 7.2143 44.9072C5.28257 44.7614 2.22231 45.0974 1.2019 47.2975C1.13722 47.4374 1.0793 47.5822 1.02813 47.729C0.843744 47.2415 0.799337 46.5097 0.799337 46.5097C0.432491 47.4567 0.799337 48.6422 0.799337 48.6422C0.793545 48.677 0.789683 48.7117 0.783891 48.7465C0.358157 49.1066 0 50.2274 0 50.2274C0.128396 49.9156 0.442145 49.7109 0.722106 49.5854C0.713418 51.298 1.40753 52.972 2.62681 53.4701C4.4089 54.199 4.39539 53.6429 6.1881 54.8323C6.1881 54.8323 6.66886 54.2357 6.34063 53.835C6.0124 53.4344 4.77382 52.8513 5.466 52.2682C6.15818 51.6851 6.41304 52.3406 6.66886 51.94C6.92372 51.5394 5.64845 50.3732 7.28864 49.2804C8.92882 48.1875 10.0216 46.6564 9.87586 45.6727L9.8749 45.6718Z" fill="#233862"/>
</g>
<defs>
<clipPath id="clip0_294_9065">
<rect width="198" height="124.341" fill="white" transform="translate(0 0.912598)"/>
</clipPath>
</defs>
</svg>
