<svg width="151" height="125" viewBox="0 0 151 125" fill="none" xmlns="http://www.w3.org/2000/svg">
<g clip-path="url(#clip0_294_9999)">
<path d="M86.0543 28.3584V22.6054C86.0543 19.9927 88.1712 17.875 90.7831 17.875H141.134C143.747 17.875 145.865 19.9927 145.865 22.6054V124.294H15.6211V28.3584H86.0543Z" fill="white"/>
<path d="M85.6363 28.3584V22.6054C85.6363 19.9927 87.7532 17.875 90.3651 17.875H140.716C143.329 17.875 145.447 19.9927 145.447 22.6054V124.294H15.2031V28.3584H85.6363Z" fill="#B3CBF2"/>
<path d="M141.085 32.3329V124.294H20.4336V31.8811L141.085 32.3329Z" fill="#BAE2FF"/>
<path d="M8.94388 28.3592H128.138C130.585 28.3592 132.387 30.0146 132.738 32.3043V124.295H2.64865V34.6373C2.6193 31.3331 5.60138 28.3584 8.94388 28.3584V28.3592Z" fill="white"/>
<path d="M52.6634 62.5088L122.328 62.7034L122.476 9.76003L52.8112 9.56549L52.6634 62.5088Z" fill="#EBF3FF"/>
<path d="M54.4886 59.9695L120.59 60.1541L120.726 11.482L54.6245 11.2974L54.4886 59.9695Z" fill="white"/>
<path d="M115.022 56.2314L72.543 56.1132L95.7693 33.8303L115.022 56.2314Z" fill="#E3EEFF"/>
<path d="M95.7037 56.1774L60.0117 56.0779L79.3793 37.6619L95.7037 56.1774Z" fill="#E3EEFF"/>
<path d="M85.979 32.3527C87.9002 30.4315 87.9002 27.3166 85.979 25.3954C84.0578 23.4741 80.9428 23.4741 79.0216 25.3954C77.1004 27.3166 77.1004 30.4315 79.0216 32.3527C80.9428 34.2739 84.0578 34.2739 85.979 32.3527Z" fill="#E3EEFF"/>
<path d="M43.3834 56.1731L107.969 56.376L108.145 0.210075L43.5599 0.00717332L43.3834 56.1731Z" fill="#EBF3FF"/>
<path d="M45.2583 53.4811L106.176 53.6725L106.338 2.03881L45.4205 1.84743L45.2583 53.4811Z" fill="white"/>
<path d="M100.367 9.1626H76.1055V11.2942H100.367V9.1626Z" fill="#CCE5FF"/>
<path d="M51.0067 17.0496L100.367 17.0496V14.918L51.0067 14.918V17.0496Z" fill="#CCE5FF"/>
<path d="M51.0067 22.9109L100.367 22.9109V20.7793L51.0067 20.7793V22.9109Z" fill="#CCE5FF"/>
<path d="M8.36966 28.3592H127.565C130.011 28.3592 131.813 30.0146 132.165 32.3043V124.625H2.07443V34.6373C2.04508 31.3331 5.02716 28.3584 8.36966 28.3584V28.3592Z" fill="#B7DDFF"/>
<g style="mix-blend-mode:darken" opacity="0.5">
<path d="M145.864 67.2681L141.083 70.3871H134.766L132.738 71.9471V70.4654H2.64844V67.2681H145.864Z" fill="black"/>
</g>
<path d="M-0.00273132 68.6951L147.711 68.6951V52.0054L-0.00273132 52.0054V68.6951Z" fill="#6EB3E6"/>
<path d="M-0.00216675 68.6951L134.414 68.6951V52.0054L-0.00216675 52.0054V68.6951Z" fill="#7DC0F2"/>
<path d="M97.2538 52.0049V68.6897H85.5742L93.7637 52.0049H97.2538Z" fill="#0E0E0E"/>
<path d="M93.2196 60.3317C93.2196 62.6402 93.6232 64.7302 94.3008 66.2338C94.9622 67.7734 95.8828 68.6891 96.8989 68.6891H100V52.0109H96.8989C94.8651 52.0109 93.2188 55.7497 93.2188 60.3317H93.2196ZM96.1568 63.0805C95.5762 62.897 95.1244 61.7611 95.1244 60.3317C95.1244 58.9022 95.5762 57.803 96.1568 57.6195C96.7382 57.803 97.19 58.9397 97.19 60.3317C97.19 61.7236 96.7382 62.897 96.1568 63.0805Z" fill="#CAE8FF"/>
<path d="M94.7977 60.3317C94.7977 62.6402 95.2201 64.7302 95.9287 66.2338C96.621 67.7734 97.5832 68.6891 98.6474 68.6891H99.9986V52.0109H98.6474C96.5199 52.0109 94.7969 55.7497 94.7969 60.3317H94.7977ZM96.2842 60.3317C96.2842 58.9389 97.1625 57.803 97.77 57.6195C98.3783 57.803 98.8513 58.9397 98.8513 60.3317C98.8513 61.7236 98.3783 62.897 97.77 63.0805C97.1625 62.897 96.2842 61.7611 96.2842 60.3317Z" fill="#3F9EE6"/>
<path d="M94.7039 60.3319C94.7039 62.6404 95.1076 64.7304 95.7852 66.2341C96.4465 67.7737 97.3672 68.6894 98.3832 68.6894H101.484V52.0111H98.3832C96.3495 52.0111 94.7031 55.7499 94.7031 60.3319H94.7039ZM97.6412 63.0808C97.0606 62.8973 96.6088 61.7614 96.6088 60.3319C96.6088 58.9024 97.0606 57.8032 97.6412 57.6197C98.2226 57.8032 98.6743 58.9399 98.6743 60.3319C98.6743 61.7239 98.2226 62.8973 97.6412 63.0808Z" fill="#CAE8FF"/>
<path d="M96.286 60.3319C96.286 62.6404 96.7084 64.7304 97.417 66.2341C98.1093 67.7737 99.0715 68.6894 100.136 68.6894H101.487V52.0111H100.136C98.0082 52.0111 96.2852 55.7499 96.2852 60.3319H96.286ZM97.7725 60.3319C97.7725 58.9391 98.2455 57.8032 98.853 57.6197C99.4613 57.8032 99.9343 58.9399 99.9343 60.3319C99.9343 61.7239 99.4613 62.8973 98.853 63.0808C98.2455 62.8973 97.7725 61.7614 97.7725 60.3319Z" fill="#61B3F2"/>
<path d="M98.3705 68.7986C98.2384 68.7986 97.4825 68.7635 96.6834 67.9962C95.7766 67.1253 94.6953 65.1584 94.6953 60.7322C94.6953 56.306 95.6812 54.3456 96.508 53.2668C97.4189 52.0795 98.3281 51.9107 98.3664 51.9042C98.426 51.8944 98.4814 51.9336 98.492 51.9931C98.5018 52.0518 98.4627 52.1081 98.404 52.1187C98.395 52.1203 97.5257 52.2866 96.6662 53.4185C95.8663 54.472 94.9122 56.5955 94.9122 60.7322C94.9122 65.0712 95.9527 66.9883 96.8253 67.8315C97.6187 68.598 98.3746 68.5825 98.3803 68.5809C98.4415 68.5784 98.4904 68.6257 98.4928 68.6852C98.4953 68.7448 98.4488 68.7953 98.3893 68.7978C98.3868 68.7978 98.3803 68.7978 98.3705 68.7978V68.7986Z" fill="#1A5380"/>
<path d="M98.8523 62.8579C98.9991 62.8946 99.1084 62.9313 99.2552 62.968C99.2307 62.9924 99.2307 63.0047 99.2552 63.0047C105.157 64.7644 109.519 70.1888 109.519 76.6772V90.6099H114.211V76.6772C114.211 67.6601 107.87 60.109 99.4019 58.2025C99.2185 58.1291 99.035 58.0924 98.8523 58.0566C97.4954 57.763 97.3853 62.6385 98.8523 62.8579Z" fill="#E6E6E6"/>
<path d="M93.2977 57.8071V62.4731C87.2495 63.2518 82.3667 67.7384 81.0677 73.6023C81.0301 73.7482 80.9943 73.8583 80.9943 73.9684C80.9209 74.2987 80.8842 74.5914 80.8475 74.9217C80.7741 75.508 80.7374 76.0951 80.7374 76.6814V90.6141H76.082V76.6814C76.082 66.8276 83.6551 58.7539 93.2977 57.8079V57.8071Z" fill="#E6E6E6"/>
<path d="M98.7443 61.4815C109.746 63.4109 111.163 75.3889 111.163 75.3889V90.6133H109.512V76.6806C109.512 70.0559 104.969 64.5182 98.856 62.8678C98.3888 62.7161 98.0977 61.3478 98.0977 61.3478C98.0977 61.3478 98.3871 61.413 98.7443 61.4815Z" fill="#999999"/>
<path d="M93.3003 61.4814V62.473C87.2522 63.2518 82.3693 67.7384 81.0703 73.6022C81.3329 70.1798 84.1714 62.7005 93.3003 61.4814Z" fill="#808080"/>
<path d="M98.8523 62.8579C98.9991 62.8946 99.1084 62.9313 99.2552 62.968C99.1451 62.6744 98.549 62.0082 98.4756 60.6162C98.4022 59.186 98.8874 58.2197 99.4019 58.2025C99.2185 58.1291 99.035 58.0924 98.8523 58.0566C97.4954 57.763 97.3853 62.6385 98.8523 62.8579Z" fill="#666666"/>
<path d="M118.234 86.8112H72.0117V124.596H118.234V86.8112Z" fill="#FFD77D"/>
<path d="M95.8192 96.1446C95.6724 96.1079 95.5256 96.1079 95.3789 96.1079C92.2272 96.1079 89.6602 98.6611 89.6602 101.844C89.6602 104.174 91.0537 106.173 93.0328 107.098V116.829C93.0328 118.125 94.0954 119.198 95.3781 119.198C95.4881 119.198 95.6349 119.198 95.745 119.161H95.8543C96.9176 118.939 97.7249 117.977 97.7249 116.83V107.098C99.7032 106.21 101.097 104.175 101.097 101.845C101.097 98.8103 98.7866 96.368 95.8184 96.1462L95.8192 96.1446Z" fill="#CC840A"/>
<path d="M95.8198 96.1448C92.8508 96.3291 90.5039 98.8088 90.5039 101.843C90.5039 104.174 91.8975 106.172 93.8766 107.097V116.829C93.8766 117.976 94.6831 118.938 95.7464 119.16H95.8557C96.919 118.937 97.7263 117.976 97.7263 116.829V107.097C99.7046 106.209 101.098 104.174 101.098 101.843C101.098 98.8088 98.788 96.3666 95.8198 96.1448Z" fill="#803D00"/>
<path d="M35.3969 29.0241C40.0164 33.885 47.3627 37.8456 55.2073 39.5026C55.213 40.0237 55.2448 42.9079 55.3932 56.2053C55.5905 73.9437 38.688 82.7236 36.0639 84.0707C33.505 82.9185 16.2739 74.3759 16.0765 56.6375C15.929 43.3401 15.8963 40.455 15.8906 39.9348C23.6961 38.1057 30.8866 33.9853 35.3977 29.0233L35.3969 29.0241Z" fill="white"/>
<path d="M35.4641 32.2296C39.9833 36.3019 46.228 39.4854 53.0834 41.1979L53.2506 56.2273C53.3272 63.104 50.6232 69.3437 45.2152 74.773C41.6615 78.3405 37.9153 80.5626 36.0129 81.564C35.9305 81.5232 35.84 81.4767 35.7511 81.4319L35.4258 32.2663C35.4388 32.2541 35.4519 32.2427 35.4649 32.2312L35.4641 32.2296Z" fill="#8AC7CC"/>
<path d="M35.4271 32.2646L35.7524 81.4302C33.7611 80.4158 30.1397 78.3152 26.6635 74.976C21.1356 69.6674 18.2946 63.4888 18.2179 56.6122L18.0508 41.5827C24.8467 39.7251 31.0025 36.4185 35.4271 32.2646Z" fill="#8AC7CC"/>
<path d="M27.6211 53.9797L27.6986 65.6235C27.7075 66.92 43.6103 66.8157 43.6014 65.5191L43.5239 53.8754L27.6211 53.9797ZM33.6374 58.3359C33.6301 57.2554 34.5002 56.378 35.5855 56.3715C36.6709 56.3641 37.5597 57.2301 37.5663 58.3106C37.5711 59.0999 37.0974 59.789 36.4181 60.0988L36.4401 63.4063C36.4434 63.8458 36.0862 64.2136 35.6369 64.216C35.1949 64.2193 34.8337 63.8564 34.8304 63.4169L34.8084 60.1168C34.1177 59.8159 33.6415 59.1334 33.6366 58.3367L33.6374 58.3359Z" fill="white"/>
<path d="M29.0089 53.1406L30.6186 53.13L30.6137 52.3463C30.5958 49.6301 32.8016 47.4047 35.53 47.3868C38.2593 47.3689 40.4945 49.564 40.5124 52.2811L40.5173 53.0647L42.127 53.0541L42.1221 52.2705C42.0985 48.6703 39.1368 45.7608 35.5194 45.7844C31.903 45.8081 28.9804 48.7567 29.004 52.3569L29.0089 53.1406Z" fill="white"/>
</g>
<defs>
<clipPath id="clip0_294_9999">
<rect width="150.613" height="124.6" fill="white"/>
</clipPath>
</defs>
</svg>
