<svg width="25" height="25" viewBox="0 0 25 25" fill="none" xmlns="http://www.w3.org/2000/svg">
<path fill-rule="evenodd" clip-rule="evenodd" d="M11.4304 1.05864C11.0168 1.17136 10.8068 1.30054 9.77131 2.07922C9.23722 2.48089 8.71418 2.8539 8.609 2.90818C8.28491 3.07555 7.83298 3.14654 6.7144 3.20594C6.12271 3.23734 5.51477 3.28717 5.3634 3.31669C4.90231 3.40657 4.47219 3.64569 4.10853 4.01424C3.64588 4.48311 3.51954 4.78011 3.21251 6.12028C3.07211 6.73301 2.9196 7.33597 2.87361 7.46014C2.71545 7.88702 2.41668 8.24894 1.54238 9.07269C0.631055 9.93133 0.369862 10.2564 0.198936 10.7447C0.0583317 11.1464 0.0267083 11.762 0.126432 12.1556C0.170114 12.3278 0.454825 12.9724 0.7592 13.5879C1.06357 14.2035 1.34588 14.8365 1.38656 14.9945C1.48809 15.389 1.48053 15.6467 1.33107 16.8917C1.14223 18.4642 1.19682 18.9006 1.67242 19.6214C1.99006 20.1028 2.33872 20.3274 3.64773 20.8942C5.18072 21.558 5.16671 21.5461 6.09044 22.9549C6.88593 24.1682 7.17594 24.4918 7.68687 24.7365C8.43813 25.0964 8.88331 25.0718 10.4922 24.5817C11.6866 24.2178 11.6957 24.216 12.1684 24.2383C12.579 24.2577 12.7904 24.307 13.7196 24.6002C14.9605 24.9918 15.4154 25.0557 15.958 24.9149C16.7801 24.7016 17.0951 24.4056 18.0502 22.949C18.9679 21.5495 18.9579 21.5579 20.4741 20.9008C21.0936 20.6324 21.7294 20.3216 21.8871 20.2102C22.5061 19.7726 22.9267 18.959 22.9262 18.1997C22.9261 18.0454 22.8699 17.4521 22.8013 16.8811C22.6567 15.6775 22.6488 15.3883 22.7502 14.9945C22.7908 14.8365 23.0731 14.2035 23.3775 13.5879C23.6819 12.9724 23.9666 12.3278 24.0103 12.1556C24.11 11.762 24.0784 11.1464 23.9378 10.7447C23.7674 10.2577 23.5053 9.93097 22.6024 9.07953C21.7356 8.26211 21.5335 8.03135 21.3316 7.62816C21.2727 7.51052 21.0986 6.87247 20.9448 6.21026C20.7704 5.45964 20.6074 4.88225 20.5118 4.67706C20.3055 4.23462 19.8108 3.73396 19.3738 3.52547C18.9329 3.31522 18.6683 3.27111 17.4724 3.20878C16.3113 3.14831 15.9651 3.09747 15.6008 2.93411C15.4605 2.87122 14.9292 2.50368 14.4201 2.11735C13.911 1.73103 13.3812 1.35235 13.2428 1.27593C12.7286 0.991795 11.9974 0.904139 11.4304 1.05864ZM13.7301 4.8748C17.059 5.61029 19.5608 8.24702 20.1297 11.6195C20.2212 12.1619 20.232 12.3789 20.2091 13.2098C20.1898 13.9106 20.1542 14.3047 20.0783 14.661C19.7442 16.2282 18.9523 17.7041 17.8434 18.8264C16.6557 20.0284 15.0867 20.8506 13.4358 21.1363C12.1847 21.3527 10.7113 21.2393 9.51497 20.8345C7.02974 19.9936 5.14214 18.0882 4.31573 15.5863C3.76682 13.9244 3.76682 12.0393 4.31573 10.3775C5.26918 7.49082 7.68717 5.37274 10.6487 4.82999C11.4043 4.69154 13.006 4.71484 13.7301 4.8748ZM11.412 5.53803C9.65007 5.7061 8.12249 6.43596 6.86141 7.71227C5.98326 8.60093 5.44446 9.48018 5.06303 10.6468C4.79734 11.4594 4.69851 12.0925 4.69851 12.9819C4.69851 15.021 5.4298 16.8027 6.86141 18.2515C7.73951 19.1402 8.6083 19.6855 9.76105 20.0715C10.5592 20.3388 11.1876 20.4388 12.0684 20.4388C14.0871 20.4388 15.8428 19.7013 17.2753 18.2515C18.1535 17.3628 18.6923 16.4836 19.0737 15.317C19.3394 14.5044 19.4382 13.8713 19.4382 12.9819C19.4382 10.9427 18.7069 9.16105 17.2753 7.71227C16.3972 6.82355 15.5284 6.27827 14.3757 5.89225C13.445 5.58061 12.3445 5.44905 11.412 5.53803ZM15.9672 9.77374C16.4497 10.0171 16.6682 10.5534 16.5019 11.0871C16.4241 11.3368 16.2646 11.5121 14.115 13.7107C12.848 15.0066 11.7371 16.1134 11.6461 16.1702C11.421 16.3111 11.0721 16.3522 10.7806 16.2723C10.5649 16.2132 10.4103 16.0744 9.15506 14.813C8.39209 14.0464 7.73095 13.3403 7.68577 13.2439C7.33636 12.4987 7.84974 11.6653 8.65824 11.6653C8.8018 11.6653 9.00264 11.7006 9.10462 11.7437C9.2196 11.7923 9.63266 12.167 10.1923 12.7304L11.0946 13.6387L12.97 11.7353C14.2063 10.4805 14.9136 9.79951 15.0456 9.73692C15.3329 9.60055 15.6488 9.61316 15.9672 9.77374Z" fill="#00B83E"/>
</svg>
