<svg width="206" height="219" viewBox="0 0 206 219" fill="none" xmlns="http://www.w3.org/2000/svg">
<g clip-path="url(#clip0_706_657)">
<path d="M19.1866 168.789L24.9646 178.389C26.9004 181.604 30.6625 183.238 34.3336 182.457L43.0348 180.604C45.3879 180.103 47.822 180.809 49.5816 182.449C54.009 186.577 58.8521 190.133 63.9957 193.09C66.0842 194.291 67.4773 196.411 67.6902 198.811L68.4765 207.681C68.8079 211.42 71.4749 214.537 75.1176 215.442L85.9916 218.145C89.6344 219.05 93.4499 217.544 95.4933 214.396L100.341 206.926C101.653 204.905 103.877 203.683 106.285 203.599C112.215 203.394 118.159 202.519 124.003 200.945C126.327 200.319 128.807 200.836 130.652 202.38L137.473 208.09C140.352 210.499 144.441 210.817 147.657 208.882L157.257 203.104C160.473 201.168 162.106 197.406 161.325 193.735L159.473 185.033C158.972 182.68 159.677 180.246 161.318 178.487C165.445 174.059 169.001 169.216 171.959 164.072C173.16 161.983 175.28 160.591 177.681 160.378L186.551 159.592C190.289 159.26 193.406 156.593 194.311 152.951L197.014 142.077C197.92 138.434 196.414 134.618 193.266 132.575L185.796 127.727C183.775 126.415 182.553 124.192 182.47 121.783C182.265 115.854 181.39 109.909 179.816 104.065C179.19 101.742 179.707 99.2608 181.251 97.4169L186.961 90.5955C189.37 87.7173 189.688 83.628 187.753 80.4126L181.974 70.8116C180.038 67.5962 176.276 65.9626 172.606 66.7439L163.904 68.5962C161.551 69.0971 159.117 68.3917 157.358 66.7515C152.93 62.6237 148.087 59.0678 142.943 56.1103C140.855 54.9092 139.462 52.789 139.249 50.3891L138.463 41.5193C138.131 37.7805 135.464 34.6645 131.822 33.7588L120.948 31.056C117.305 30.1503 113.489 31.6561 111.446 34.8047L106.598 42.2747C105.286 44.2956 103.063 45.5176 100.654 45.6003C94.7245 45.8056 88.7804 46.6804 82.9357 48.2547C80.6126 48.8808 78.1318 48.3641 76.2871 46.8198L69.4657 41.1094C66.5875 38.7004 62.4982 38.3824 59.282 40.3181L49.6809 46.0961C46.4656 48.0318 44.8312 51.794 45.6133 55.4651L47.4656 64.1663C47.9664 66.5194 47.2611 68.9535 45.6208 70.7131C41.4931 75.1405 37.9372 79.9836 34.9797 85.1272C33.7785 87.2157 31.6583 88.6088 29.2585 88.8217L20.3887 89.608C16.6499 89.9394 13.533 92.6063 12.6274 96.2491L9.9245 107.123C9.01882 110.765 10.5247 114.581 13.6733 116.624L21.1432 121.472C23.165 122.783 24.3862 125.007 24.4696 127.415C24.675 133.345 25.5498 139.289 27.1241 145.134C27.7501 147.457 27.2334 149.938 25.6892 151.783L19.9788 158.604C17.5698 161.482 17.2517 165.572 19.1875 168.788L19.1866 168.789ZM44.4964 152.424C29.1299 119.854 43.0757 80.9953 75.6452 65.6279C108.215 50.2614 147.075 64.2072 162.441 96.7766C177.808 129.346 163.862 168.206 131.292 183.573C98.7229 198.939 59.863 184.993 44.4964 152.424Z" fill="#AFCDFB"/>
<path d="M140.293 107.51C133.34 106.017 109.627 101.634 84.7976 105.189C76.4812 106.379 69.1198 111.211 64.6314 118.313C56.5446 131.108 45.1055 153.918 47.5245 177.708L60.2174 180.846C60.2174 180.846 68.9895 152.622 78.8619 141.134C78.8619 141.134 90.5539 167.785 89.9629 182.421C89.9462 182.835 89.9195 183.239 89.8828 183.632C88.5414 197.951 146.01 186.304 146.01 186.304L142.43 110.035C142.372 108.805 141.496 107.769 140.293 107.511V107.51Z" fill="url(#paint0_linear_706_657)"/>
<path d="M120.52 80.7265L122.191 100.541C122.346 102.384 121.396 104.109 119.813 104.847C116.166 106.547 109.163 108.986 101.674 107.196C100.303 106.869 99.4103 105.436 99.6365 103.975L104.494 72.567L120.52 80.7257V80.7265Z" fill="url(#paint1_linear_706_657)"/>
<path d="M98.22 56.7113C98.22 56.7113 94.4479 71.3524 95.1958 78.6012C95.9437 85.85 95.1399 90.7599 103.679 90.8792C112.218 90.9986 118.556 85.7423 121.203 77.9793C121.203 77.9793 125.382 66.0018 123.328 61.6988C121.274 57.3949 98.2209 56.7113 98.2209 56.7113H98.22Z" fill="url(#paint2_linear_706_657)"/>
<path d="M117.541 73.2872L116.491 73.455C116.491 73.455 119.4 63.8873 115.349 62.9357C111.298 61.9842 95.7459 61.3189 91.6423 56.4933C87.6866 51.8422 89.4169 44.7403 93.2993 42.2103C93.5447 42.05 93.8769 42.1251 94.053 42.3589L94.5038 42.959C94.8126 43.3697 95.4646 43.1961 95.528 42.6861C95.5881 42.2019 96.1949 42.0016 96.5146 42.3697C97.7651 43.8088 100.874 45.9774 108.31 46.1569C118.863 46.4106 126.303 49.4766 127.601 56.5342C127.683 56.9816 128.203 57.1519 128.548 56.8573C129.231 56.2755 130.408 55.8656 132.244 56.9674C135.436 58.8848 135.265 65.2079 129.902 71.2438C129.648 71.5309 129.723 71.9884 130.073 72.1436C131.308 72.6929 133.252 74.1595 129.3 77.1595C125.258 80.228 122.602 80.3883 121.574 80.2939C121.298 80.2681 121.081 80.0552 121.053 79.7789L120.438 73.4391C120.406 73.1111 120.104 72.8782 119.779 72.9299L117.541 73.2872Z" fill="url(#paint3_linear_706_657)"/>
<path d="M117.492 74.6423C117.492 74.6423 118.369 65.5346 122.681 67.3601C126.993 69.1857 122.212 77.4829 119.112 78.3135L117.492 74.6423Z" fill="url(#paint4_linear_706_657)"/>
<path d="M142.159 163.546C143.399 154.795 134.336 141.932 130.588 137.05C129.515 135.654 128.916 133.947 128.901 132.186C128.791 119.793 132.987 113.319 141.325 107.974C141.325 107.974 172.594 141.745 164.889 168.862C164.058 171.789 162.769 174.303 161.135 176.463C159.921 166.246 148.111 164.017 142.159 163.545V163.546Z" fill="url(#paint5_linear_706_657)"/>
<path d="M141.592 160.161L142.745 160.029C141.768 151.447 134.238 140.853 131.046 136.697L130.125 137.404C133.259 141.484 140.648 151.868 141.592 160.161Z" fill="url(#paint6_linear_706_657)"/>
<path d="M141.921 164.758C142.027 164.365 142.1 163.958 142.158 163.546C148.11 164.018 159.921 166.246 161.134 176.464C147.63 194.325 110.406 187.881 110.406 187.881V180.931C110.406 180.931 138.994 175.62 141.921 164.757V164.758Z" fill="url(#paint7_linear_706_657)"/>
<path d="M113.989 185.962C113.989 185.962 108.493 172.993 98.8084 177.593C89.1239 182.194 89.8851 185.204 89.8851 185.204L113.989 185.961V185.962Z" fill="url(#paint8_linear_706_657)"/>
<path d="M115.218 188.653C115.142 189.635 114.305 190.381 113.322 190.347L63.1381 188.597C62.3584 188.569 61.6806 188.052 61.4477 187.308L59.9911 182.647C59.633 181.501 60.4502 180.326 61.6481 180.263L79.9487 179.29C80.1148 179.281 80.2817 179.295 80.4436 179.331L113.784 186.715C114.678 186.913 115.29 187.74 115.218 188.653Z" fill="url(#paint9_linear_706_657)"/>
<path d="M91.2195 117.409C92.2837 126.102 97.0692 161.422 98.439 171.513C98.6319 172.932 97.5041 174.18 96.0726 174.139L14.8844 171.816C13.8218 171.786 12.9161 171.038 12.6857 170L0.056268 113.122C-0.277623 111.619 0.919377 110.213 2.45695 110.303L89.0517 115.375C90.171 115.44 91.0826 116.294 91.2186 117.408L91.2195 117.409Z" fill="url(#paint10_linear_706_657)"/>
<path d="M58.5824 153.233L70.5817 187.29L42.6809 187.881L40.3578 153.436C40.2485 151.82 41.589 150.478 43.2059 150.586L56.236 151.451C57.3045 151.521 58.2277 152.222 58.5833 153.232L58.5824 153.233Z" fill="url(#paint11_linear_706_657)"/>
<path d="M81.8952 187.775C82.2024 188.712 81.5046 189.675 80.5179 189.675H36.8241C36.0236 189.675 35.375 189.027 35.375 188.226V186.352C35.375 185.528 36.062 184.869 36.8859 184.905L80.5805 186.779C81.1832 186.805 81.7074 187.201 81.8952 187.775Z" fill="url(#paint12_linear_706_657)"/>
<path d="M103.688 83.6992C113.471 86.2635 121.113 77.0606 121.189 76.9671L120.592 76.4796C120.519 76.5689 113.183 85.3903 103.883 82.9529L103.688 83.6983V83.6992Z" fill="url(#paint13_linear_706_657)"/>
<path d="M101.215 82.3791L101.33 82.0648C101.534 81.5059 102.154 81.2173 102.714 81.4221L104.588 82.108C105.147 82.3126 105.436 82.9328 105.231 83.4925L105.116 83.8068C104.912 84.3658 104.291 84.6543 103.732 84.4495L101.857 83.7636C101.298 83.5591 101.01 82.9388 101.215 82.3791Z" fill="url(#paint14_linear_706_657)"/>
<path d="M122.713 65.5829C122.713 65.5829 122.028 49.0811 112.449 45.6462C112.449 45.6462 115.45 44.8983 118.116 46.8783C120.782 48.8582 126.827 58.0177 125.105 66.4585C122.999 66.7298 122.713 65.5829 122.713 65.5829Z" fill="url(#paint15_linear_706_657)"/>
<path d="M124.569 64.9325C129.82 67.0368 127.888 73.8106 127.888 73.8106C127.365 78.8875 125.45 81.1012 123.363 81.9409C121.936 82.5144 120.312 82.2948 119.087 81.3666C117.862 80.4384 117.212 78.935 117.377 77.4067C117.525 76.026 117.647 74.7105 117.63 74.2322C117.589 73.0736 119.317 62.8281 124.569 64.9325Z" fill="url(#paint16_linear_706_657)"/>
<path d="M92.4129 153.501L93.059 153.419L89.0706 121.961C88.821 119.991 87.2025 118.477 85.2225 118.358L10.3908 113.838L10.3516 114.488L85.1833 119.007C86.8511 119.107 88.2133 120.384 88.4245 122.041L92.4129 153.5V153.501Z" fill="#91B3FA"/>
<path d="M94.1929 162.38L93.5469 162.461L94.4049 169.272L95.0509 169.191L94.1929 162.38Z" fill="#91B3FA"/>
<path d="M66.6293 81.0427C66.6293 81.0427 -6.29004 45.0142 17.5573 18.4873C41.4047 -8.03948 85.8631 2.56324 88.1152 30.4832C90.3673 58.4032 36.2552 51.8531 66.6293 81.0427Z" fill="#DCEAFF"/>
<path d="M22.9883 25.339C22.9883 25.7455 23.3172 26.0744 23.7237 26.0744H55.905C56.3106 26.0744 56.6404 25.7455 56.6404 25.339C56.6404 24.9325 56.3115 24.6036 55.905 24.6036H23.7237C23.318 24.6036 22.9883 24.9325 22.9883 25.339Z" fill="white"/>
<path d="M65.462 26.0735H75.0113C75.4169 26.0735 75.7466 25.7446 75.7466 25.3381C75.7466 24.9315 75.4178 24.6027 75.0113 24.6027H65.462C65.0563 24.6027 64.7266 24.9315 64.7266 25.3381C64.7266 25.7446 65.0554 26.0735 65.462 26.0735Z" fill="white"/>
<path d="M21.9062 31.8531C21.9062 32.2596 22.2351 32.5885 22.6416 32.5885H34.7252C35.1308 32.5885 35.4606 32.2596 35.4606 31.8531C35.4606 31.4466 35.1317 31.1177 34.7252 31.1177H22.6416C22.236 31.1177 21.9062 31.4466 21.9062 31.8531Z" fill="white"/>
<path d="M51.7188 31.8531C51.7188 32.2596 52.0476 32.5885 52.4541 32.5885H73.9259C74.3315 32.5885 74.6613 32.2596 74.6613 31.8531C74.6613 31.4466 74.3324 31.1177 73.9259 31.1177H52.4541C52.0485 31.1177 51.7188 31.4466 51.7188 31.8531Z" fill="white"/>
<path d="M21.5557 39.1043H53.6777C54.0834 39.1043 54.4131 38.7754 54.4131 38.3689C54.4131 37.9624 54.0842 37.6335 53.6777 37.6335H21.5557C21.15 37.6335 20.8203 37.9624 20.8203 38.3689C20.8203 38.7754 21.1492 39.1043 21.5557 39.1043Z" fill="white"/>
<path d="M61.7237 39.1043H72.8439C73.2496 39.1043 73.5793 38.7754 73.5793 38.3689C73.5793 37.9624 73.2504 37.6335 72.8439 37.6335H61.7237C61.318 37.6335 60.9883 37.9624 60.9883 38.3689C60.9883 38.7754 61.3172 39.1043 61.7237 39.1043Z" fill="white"/>
<path d="M174.202 56.9675C189.774 56.9675 202.397 44.3443 202.397 28.7729C202.397 13.2014 189.774 0.578247 174.202 0.578247C158.631 0.578247 146.008 13.2014 146.008 28.7729C146.008 44.3443 158.631 56.9675 174.202 56.9675Z" fill="#7EA5DF"/>
<path d="M174.359 54.0376C188.119 54.0376 199.274 42.8831 199.274 29.1234C199.274 15.3637 188.119 4.20929 174.359 4.20929C160.6 4.20929 149.445 15.3637 149.445 29.1234C149.445 42.8831 160.6 54.0376 174.359 54.0376Z" fill="white"/>
<path d="M163.525 36.4741H154.868V34.2329L157.739 30.1694C158.526 29.0509 159.067 28.2203 159.362 27.6794C159.657 27.1385 159.874 26.6193 160.013 26.1226C160.153 25.626 160.223 25.1126 160.223 24.5826C160.223 23.964 160.085 23.5008 159.809 23.1911C159.532 22.8822 159.173 22.727 158.732 22.727C158.341 22.727 157.977 22.8305 157.638 23.0358C157.299 23.242 156.887 23.6135 156.401 24.151L154.723 22.3847C155.496 21.5091 156.213 20.9089 156.875 20.5851C157.538 20.2612 158.255 20.0992 159.028 20.0992C160.331 20.0992 161.349 20.4824 162.082 21.2478C162.814 22.0133 163.18 23.0776 163.18 24.439C163.18 25.0575 163.114 25.6427 162.981 26.1944C162.849 26.7462 162.648 27.3004 162.38 27.8564C162.111 28.4123 161.774 28.9899 161.37 29.5901C160.965 30.1903 159.919 31.5651 158.234 33.7145V33.803H163.522V36.4749L163.525 36.4741Z" fill="#7EA5DF"/>
<path d="M174.658 33.0843H173.023V36.4742H170.197V33.0843H164.93V30.6444L169.81 20.3314H173.023V30.6002H174.658V33.0843ZM170.197 30.6002V27.1995L170.252 25.6978L170.33 24.2621H170.241C169.983 25.0643 169.704 25.7896 169.402 26.4374L167.459 30.6002H170.198H170.197Z" fill="#7EA5DF"/>
<path d="M184.008 20.3314L177.99 36.4742H175.164L181.182 20.3314H184.008Z" fill="#7EA5DF"/>
<path d="M186.128 36.4743L190.655 23.0143H185.023V20.3531H193.68V22.3849L189.23 36.4743H186.128Z" fill="#7EA5DF"/>
</g>
<defs>
<linearGradient id="paint0_linear_706_657" x1="-1429.91" y1="1736.22" x2="-1359.65" y2="1663.71" gradientUnits="userSpaceOnUse">
<stop stop-color="#FF928E"/>
<stop offset="1" stop-color="#FE7062"/>
</linearGradient>
<linearGradient id="paint1_linear_706_657" x1="119.548" y1="132.904" x2="107.824" y2="83.2055" gradientUnits="userSpaceOnUse">
<stop stop-color="#FEBBBA"/>
<stop offset="1" stop-color="#FF928E"/>
</linearGradient>
<linearGradient id="paint2_linear_706_657" x1="117.774" y1="76.97" x2="96.4703" y2="71.3931" gradientUnits="userSpaceOnUse">
<stop stop-color="#FEBBBA"/>
<stop offset="1" stop-color="#FF928E"/>
</linearGradient>
<linearGradient id="paint3_linear_706_657" x1="137.804" y1="87.0511" x2="97.6641" y2="39.7503" gradientUnits="userSpaceOnUse">
<stop stop-color="#E1473D"/>
<stop offset="1" stop-color="#E9605A"/>
</linearGradient>
<linearGradient id="paint4_linear_706_657" x1="118.992" y1="72.3129" x2="97.6879" y2="66.7361" gradientUnits="userSpaceOnUse">
<stop stop-color="#FEBBBA"/>
<stop offset="1" stop-color="#FF928E"/>
</linearGradient>
<linearGradient id="paint5_linear_706_657" x1="-1353.2" y1="1694.11" x2="-1285.57" y2="1624.32" gradientUnits="userSpaceOnUse">
<stop stop-color="#FF928E"/>
<stop offset="1" stop-color="#FE7062"/>
</linearGradient>
<linearGradient id="paint6_linear_706_657" x1="241.176" y1="40.1722" x2="38.7839" y2="249.914" gradientUnits="userSpaceOnUse">
<stop stop-color="#E1473D"/>
<stop offset="1" stop-color="#E9605A"/>
</linearGradient>
<linearGradient id="paint7_linear_706_657" x1="145.34" y1="153.514" x2="123.281" y2="211.563" gradientUnits="userSpaceOnUse">
<stop stop-color="#FEBBBA"/>
<stop offset="1" stop-color="#FF928E"/>
</linearGradient>
<linearGradient id="paint8_linear_706_657" x1="117.975" y1="143.113" x2="95.9161" y2="201.163" gradientUnits="userSpaceOnUse">
<stop stop-color="#FEBBBA"/>
<stop offset="1" stop-color="#FF928E"/>
</linearGradient>
<linearGradient id="paint9_linear_706_657" x1="87.5652" y1="179.287" x2="87.5652" y2="190.348" gradientUnits="userSpaceOnUse">
<stop stop-color="#729AD8"/>
<stop offset="1" stop-color="#8EAFE0"/>
</linearGradient>
<linearGradient id="paint10_linear_706_657" x1="49.2303" y1="110.299" x2="49.2303" y2="174.14" gradientUnits="userSpaceOnUse">
<stop stop-color="#729AD8"/>
<stop offset="1" stop-color="#AFCDFB"/>
</linearGradient>
<linearGradient id="paint11_linear_706_657" x1="55.4666" y1="150.58" x2="55.4666" y2="187.881" gradientUnits="userSpaceOnUse">
<stop stop-color="#729AD8"/>
<stop offset="1" stop-color="#AFCDFB"/>
</linearGradient>
<linearGradient id="paint12_linear_706_657" x1="58.6717" y1="184.903" x2="58.6717" y2="189.675" gradientUnits="userSpaceOnUse">
<stop stop-color="#729AD8"/>
<stop offset="1" stop-color="#AFCDFB"/>
</linearGradient>
<linearGradient id="paint13_linear_706_657" x1="138.383" y1="68.0257" x2="137.219" y2="75.5855" gradientUnits="userSpaceOnUse">
<stop stop-color="#789EDB"/>
<stop offset="1" stop-color="#AFCDFB"/>
</linearGradient>
<linearGradient id="paint14_linear_706_657" x1="98.2425" y1="77.1774" x2="100.546" y2="79.9664" gradientUnits="userSpaceOnUse">
<stop stop-color="#789EDB"/>
<stop offset="1" stop-color="#AFCDFB"/>
</linearGradient>
<linearGradient id="paint15_linear_706_657" x1="138.14" y1="22.3715" x2="129.036" y2="38.3696" gradientUnits="userSpaceOnUse">
<stop stop-color="#789EDB"/>
<stop offset="1" stop-color="#AFCDFB"/>
</linearGradient>
<linearGradient id="paint16_linear_706_657" x1="138.927" y1="45.2429" x2="131.295" y2="58.6695" gradientUnits="userSpaceOnUse">
<stop stop-color="#789EDB"/>
<stop offset="1" stop-color="#AFCDFB"/>
</linearGradient>
<clipPath id="clip0_706_657">
<rect width="205.028" height="217.881" fill="white" transform="translate(0 0.559692)"/>
</clipPath>
</defs>
</svg>
