<svg width="172" height="199" viewBox="0 0 172 199" fill="none" xmlns="http://www.w3.org/2000/svg">
<g clip-path="url(#clip0_798_692)">
<path d="M125.107 0.158386L0 35.2224L47.5435 198.869L172 159.543L125.107 0.158386Z" fill="#B8D0FC"/>
<path d="M124.903 -0.0125111L4.37109 35.5764L51.4777 195.117L172.01 159.528L124.903 -0.0125111Z" fill="#E5EDFF"/>
<path d="M63.34 85.5591L32.187 94.755C32.1642 94.7626 32.1398 94.7489 32.1322 94.7245L31.5367 92.7065C31.5306 92.6837 31.5428 92.6593 31.5657 92.6517L62.7186 83.4558C62.7415 83.4482 62.7658 83.4619 62.7734 83.4863L63.3689 85.5043C63.3766 85.5271 63.3628 85.5515 63.3385 85.5591H63.34Z" fill="#B8D0FC"/>
<path d="M111.778 71.2612L68.1701 84.1336C68.1427 84.1412 68.1137 84.1259 68.1046 84.0985L67.5137 82.0958C67.5061 82.0684 67.5213 82.0394 67.5487 82.0318L111.157 69.1594C111.184 69.1518 111.213 69.167 111.222 69.1945L111.813 71.1972C111.821 71.2246 111.806 71.2536 111.778 71.2612Z" fill="#B8D0FC"/>
<path d="M130.044 52.2434L28.5356 82.207C28.4868 82.2222 28.4335 82.1932 28.4198 82.1445L27.8517 80.221C27.8365 80.1722 27.8654 80.1189 27.9142 80.1052L129.424 50.1417C129.472 50.1265 129.526 50.1554 129.539 50.2042L130.107 52.1277C130.123 52.1764 130.094 52.2297 130.045 52.2434H130.044Z" fill="#B8D0FC"/>
<path d="M121.633 61.1972L30.2898 88.1589C30.2426 88.1726 30.1938 88.1452 30.1801 88.0995L29.609 86.1668C29.5953 86.1196 29.6227 86.0708 29.6684 86.0571L121.012 59.0939C121.059 59.0802 121.108 59.1076 121.122 59.1533L121.693 61.086C121.706 61.1332 121.679 61.182 121.633 61.1957V61.1972Z" fill="#B8D0FC"/>
<path d="M125.557 74.5005L34.2156 101.464C34.1684 101.477 34.1196 101.45 34.1059 101.404L33.5348 99.4717C33.5211 99.4244 33.5485 99.3757 33.5942 99.362L124.938 72.3988C124.985 72.3851 125.034 72.4125 125.047 72.4582L125.618 74.3909C125.632 74.4381 125.605 74.4868 125.559 74.5005H125.557Z" fill="#B8D0FC"/>
<path d="M57.8673 67.0074L26.7144 76.2033C26.6915 76.2109 26.6672 76.1972 26.6596 76.1728L26.0641 74.1548C26.058 74.132 26.0702 74.1076 26.093 74.1L57.246 64.9041C57.2688 64.8965 57.2932 64.9102 57.3008 64.9346L57.8963 66.9526C57.9039 66.9754 57.8902 66.9998 57.8658 67.0074H57.8673Z" fill="#B8D0FC"/>
<path d="M106.302 52.711L62.6935 65.5834C62.6661 65.591 62.6372 65.5758 62.628 65.5484L62.0371 63.5456C62.0295 63.5182 62.0447 63.4893 62.0721 63.4817L105.68 50.6093C105.708 50.6016 105.737 50.6169 105.746 50.6443L106.337 52.647C106.344 52.6744 106.329 52.7034 106.302 52.7125V52.711Z" fill="#B8D0FC"/>
<path d="M44.4396 50.9976C44.5523 51.5139 44.5752 52.0135 44.5097 52.4932C44.4427 52.973 44.2858 53.4146 44.0391 53.8182C43.7908 54.2203 43.4527 54.5782 43.0217 54.892C42.5907 55.2042 42.0683 55.4524 41.453 55.6337C40.8149 55.8225 40.2087 55.8804 39.6361 55.8103C39.0619 55.7387 38.538 55.5484 38.0628 55.2377C37.5876 54.927 37.1673 54.5051 36.8048 53.9705C36.4408 53.436 36.1514 52.8024 35.9352 52.0683L35.7418 51.4119C35.5255 50.6778 35.428 49.9864 35.4478 49.336C35.4691 48.6857 35.5971 48.1009 35.8331 47.58C36.0692 47.0592 36.4088 46.6129 36.8535 46.2383C37.2983 45.8651 37.8344 45.5849 38.4634 45.3991C39.0832 45.2163 39.6574 45.1417 40.1859 45.1767C40.7144 45.2118 41.1911 45.3366 41.616 45.5499C42.0409 45.7646 42.4095 46.0586 42.7247 46.4347C43.0385 46.8109 43.2958 47.2434 43.4953 47.7354L41.4439 48.34C41.3342 48.0506 41.2048 47.8039 41.0586 47.5998C40.9108 47.3957 40.7402 47.2389 40.5438 47.1277C40.3473 47.0165 40.1189 46.9571 39.8584 46.9465C39.598 46.9373 39.2995 46.9815 38.9614 47.0805C38.2684 47.2846 37.8267 47.6897 37.6364 48.2928C37.446 48.8974 37.5069 49.7275 37.8176 50.7844L38.0156 51.4545C38.1679 51.9693 38.3385 52.4095 38.5273 52.775C38.7162 53.1405 38.9309 53.4283 39.17 53.64C39.4091 53.8517 39.6757 53.9858 39.9711 54.0391C40.2666 54.0924 40.5971 54.0665 40.9611 53.9584C41.284 53.8624 41.5535 53.7436 41.7667 53.602C41.98 53.4603 42.1429 53.2913 42.2572 53.0963C42.3714 52.9014 42.4384 52.6806 42.4582 52.4308C42.4795 52.1825 42.4582 51.9053 42.3927 51.6023L44.4442 50.9976H44.4396Z" fill="#89ADFF"/>
<path d="M53.5391 46.7515C53.7645 47.513 53.8619 48.2258 53.836 48.8898C53.8086 49.5539 53.6716 50.1509 53.4248 50.6793C53.1766 51.2078 52.8263 51.6617 52.374 52.0409C51.9216 52.4201 51.3825 52.7019 50.7581 52.8862C50.1336 53.0705 49.529 53.1268 48.9426 53.0537C48.3563 52.9821 47.8141 52.7917 47.313 52.4826C46.8135 52.1749 46.3688 51.75 45.9819 51.2078C45.5936 50.6656 45.2874 50.0138 45.0636 49.2538L44.9341 48.8167C44.7102 48.0598 44.6127 47.3485 44.6417 46.6815C44.6706 46.0144 44.8092 45.4128 45.0575 44.8798C45.3057 44.3452 45.6575 43.8898 46.1099 43.5106C46.5622 43.1314 47.1013 42.8496 47.7258 42.6653C48.3502 42.481 48.9548 42.4247 49.5412 42.4978C50.1275 42.5694 50.6697 42.7628 51.1693 43.0765C51.6673 43.3903 52.1105 43.8198 52.4973 44.3635C52.8842 44.9087 53.1888 45.559 53.4111 46.316L53.5406 46.7531L53.5391 46.7515ZM51.3277 46.9145C51.02 45.8712 50.5981 45.1326 50.0651 44.7016C49.5305 44.269 48.9183 44.1563 48.2253 44.3604C47.5323 44.5645 47.08 44.994 46.8653 45.6458C46.652 46.2992 46.6993 47.146 47.0069 48.1908L47.1394 48.6416C47.2932 49.1609 47.4775 49.6056 47.6938 49.9757C47.91 50.3458 48.1492 50.6382 48.4142 50.856C48.6792 51.0723 48.9655 51.2109 49.2762 51.2703C49.5853 51.3297 49.9143 51.3083 50.26 51.2063C50.953 51.0022 51.4023 50.5712 51.6109 49.9163C51.8181 49.2599 51.7678 48.4101 51.4602 47.3668L51.3277 46.916V46.9145Z" fill="#89ADFF"/>
<path d="M64.5263 48.6735L62.4748 49.2781L56.5488 43.908L58.4815 50.4569L56.4301 51.0616L53.4922 41.1088L55.5437 40.5041L61.4803 45.8864L59.5431 39.3238L61.5869 38.7207L64.5248 48.6735H64.5263Z" fill="#89ADFF"/>
<path d="M71.1653 37.6988L68.1162 38.5989L70.5637 46.8917L68.5122 47.4963L66.0647 39.2035L63.0568 40.0915L62.5664 38.4299L70.6733 36.0372L71.1637 37.6988H71.1653Z" fill="#89ADFF"/>
<path d="M77.3881 40.9154L75.754 41.3982L76.8292 45.0412L74.7777 45.6473L71.8398 35.6945L75.5377 34.6025C76.1119 34.4335 76.6464 34.3467 77.1399 34.3421C77.6333 34.3375 78.075 34.4152 78.4649 34.5751C78.8548 34.735 79.1883 34.9772 79.467 35.3016C79.7457 35.626 79.9574 36.0342 80.1036 36.5261C80.2118 36.8901 80.2666 37.2297 80.2696 37.5435C80.2727 37.8572 80.23 38.1496 80.1417 38.4207C80.0534 38.6918 79.9255 38.9446 79.7564 39.1776C79.5873 39.4107 79.3848 39.63 79.1472 39.8325L82.5008 43.2638L82.5298 43.3598L80.329 44.0101L77.3866 40.9169L77.3881 40.9154ZM75.2635 39.7366L76.9175 39.2477C77.1871 39.1685 77.4125 39.0634 77.5937 38.9324C77.775 38.8015 77.9151 38.6522 78.011 38.4816C78.107 38.3126 78.1633 38.1268 78.1786 37.9273C78.1938 37.7277 78.1679 37.516 78.1024 37.2922C77.9638 36.8231 77.7217 36.4926 77.3759 36.3022C77.0302 36.1118 76.5809 36.0981 76.0296 36.2611L74.3817 36.7469L75.2635 39.7351V39.7366Z" fill="#89ADFF"/>
<path d="M88.7294 39.2994L85.1336 40.361L85.0559 42.6135L82.875 43.2577L83.6426 32.2099L85.5433 31.6494L92.2064 40.5026L90.0255 41.1468L88.7294 39.2994ZM85.1976 38.5364L87.6862 37.8023L85.3346 34.4456L85.1976 38.5364Z" fill="#89ADFF"/>
<path d="M99.8263 34.6482C99.939 35.1645 99.9619 35.6641 99.8964 36.1438C99.8309 36.6235 99.6725 37.0652 99.4258 37.4688C99.1775 37.8709 98.8394 38.2288 98.4084 38.5425C97.9774 38.8547 97.455 39.103 96.8397 39.2842C96.2016 39.4731 95.5954 39.531 95.0228 39.4609C94.4501 39.3893 93.9247 39.1989 93.4495 38.8882C92.9744 38.5776 92.554 38.1557 92.1915 37.6211C91.8275 37.0865 91.5382 36.453 91.3219 35.7189L91.1285 35.0625C90.9122 34.3284 90.8147 33.6369 90.8345 32.9866C90.8559 32.3363 90.9838 31.7515 91.2199 31.2306C91.4559 30.7097 91.7956 30.2635 92.2403 29.8888C92.685 29.5157 93.2211 29.2355 93.8501 29.0497C94.4699 28.8669 95.0441 28.7923 95.5726 28.8273C96.1011 28.8623 96.5762 28.9872 97.0012 29.2004C97.4261 29.4152 97.7962 29.7091 98.1099 30.0853C98.4236 30.4615 98.681 30.894 98.8805 31.3859L96.8291 31.9906C96.7194 31.7012 96.59 31.4545 96.4437 31.2504C96.296 31.0463 96.1254 30.8894 95.929 30.7783C95.7325 30.6671 95.5041 30.6077 95.2436 30.597C94.9832 30.5879 94.6847 30.6321 94.3466 30.7311C93.6536 30.9351 93.2119 31.3403 93.0216 31.9434C92.8312 32.548 92.8921 33.378 93.2028 34.435L93.4008 35.1051C93.5531 35.6199 93.7237 36.06 93.9125 36.4256C94.1014 36.7911 94.3161 37.0789 94.5552 37.2906C94.7943 37.5023 95.0609 37.6363 95.3563 37.6896C95.6518 37.7429 95.9823 37.7171 96.3463 37.6089C96.6692 37.513 96.9387 37.3942 97.1519 37.2525C97.3652 37.1109 97.5281 36.9419 97.6423 36.7469C97.7566 36.552 97.8236 36.3311 97.8434 36.0814C97.8647 35.8331 97.8434 35.5559 97.7779 35.2528L99.8294 34.6482H99.8263Z" fill="#89ADFF"/>
<path d="M106.997 27.1216L103.948 28.0216L106.396 36.3144L104.344 36.919L101.897 28.6263L98.8888 29.5142L98.3984 27.8526L106.505 25.46L106.996 27.1216H106.997Z" fill="#89ADFF"/>
<path d="M119.704 114.004C119.265 114.134 118.922 113.987 118.743 113.878C118.476 113.713 118.252 113.442 118.079 113.109C117.724 113.619 117.277 114.051 116.729 114.297C115.515 114.843 114.288 114.437 113.484 113.677C113.185 113.94 112.847 114.201 112.465 114.452C111.132 115.332 109.134 115.85 107.89 114.415C107.823 114.338 107.76 114.257 107.704 114.176C107.425 114.411 107.125 114.653 106.801 114.903C104.404 116.746 101.95 117.006 100.24 115.599C98.3237 114.022 97.4845 110.229 99.932 105.306C101.371 102.411 102.855 100.955 104.341 100.979C106.167 101.008 107.212 103.246 107.255 103.342L106.619 103.633L106.936 103.488L106.619 103.634C106.61 103.614 105.713 101.7 104.327 101.68C103.149 101.662 101.846 103.025 100.556 105.62C98.2795 110.198 98.9801 113.662 100.683 115.063C102.125 116.249 104.253 115.984 106.374 114.353C106.744 114.07 107.078 113.799 107.379 113.54C107.003 112.435 107.411 111.184 108.159 110.34C108.912 109.492 109.685 109.073 110.234 109.222C110.512 109.298 110.706 109.513 110.765 109.811C110.905 110.524 110.275 111.878 108.235 113.718C108.29 113.806 108.35 113.888 108.415 113.965C109.036 114.68 110.325 115.034 112.078 113.875C112.44 113.636 112.756 113.392 113.028 113.151C113.024 113.144 113.018 113.136 113.012 113.127C112.323 112.091 112.408 110.928 113.229 110.162C113.91 109.527 114.408 109.578 114.644 109.665C114.964 109.782 115.174 110.086 115.223 110.495C115.304 111.19 114.929 112.19 113.982 113.197C114.602 113.773 115.532 114.076 116.44 113.666C117.009 113.41 117.448 112.877 117.772 112.274C117.559 111.363 117.62 110.287 118.034 109.508C118.141 109.307 118.391 108.837 118.785 108.91C118.945 108.94 119.146 109.062 119.196 109.472C119.259 109.994 119.059 111.235 118.516 112.358C118.65 112.789 118.857 113.133 119.108 113.288C119.53 113.549 120.002 113.068 120.323 112.618C121.767 110.597 122.839 109.725 123.915 109.703C124.69 109.688 125.412 110.124 126.12 111.036L125.569 111.464C125.005 110.737 124.469 110.39 123.93 110.401C123.112 110.418 122.175 111.226 120.892 113.023C120.459 113.63 120.051 113.907 119.702 114.009L119.704 114.004ZM114.234 110.323C114.111 110.36 113.933 110.456 113.709 110.666C113.066 111.266 113.191 112.064 113.54 112.644C114.323 111.782 114.583 110.996 114.535 110.568C114.519 110.431 114.472 110.335 114.408 110.312C114.375 110.3 114.317 110.299 114.236 110.323H114.234ZM109.851 109.907C109.597 109.982 109.178 110.238 108.683 110.797C108.015 111.551 107.845 112.35 107.969 113.01C109.813 111.296 110.142 110.244 110.081 109.939C110.072 109.894 110.063 109.892 110.051 109.889C110.005 109.877 109.938 109.881 109.85 109.907H109.851Z" fill="#2C2789"/>
<path d="M85.6142 110.663L43.9616 122.958C43.9251 122.969 43.8855 122.947 43.8748 122.911L43.0692 120.181C43.0585 120.145 43.0798 120.105 43.1164 120.095L84.7689 107.799C84.8054 107.789 84.845 107.81 84.8557 107.847L85.6614 110.576C85.672 110.612 85.6507 110.652 85.6142 110.663Z" fill="#B8D0FC"/>
<path d="M77.0863 117.828L45.2264 127.235C45.1941 127.244 45.1757 127.278 45.1852 127.311L45.996 130.057C46.0056 130.089 46.0394 130.107 46.0717 130.098L77.9316 120.691C77.9639 120.681 77.9823 120.647 77.9728 120.615L77.162 117.869C77.1524 117.837 77.1186 117.818 77.0863 117.828Z" fill="#B8D0FC"/>
</g>
<defs>
<clipPath id="clip0_798_692">
<rect width="172" height="198.869" fill="white"/>
</clipPath>
</defs>
</svg>
