<svg width="208" height="33" viewBox="0 0 208 33" fill="none" xmlns="http://www.w3.org/2000/svg">
<path d="M39.5443 14.4592L33.8011 19.4491L35.5508 26.9115C35.6474 27.3166 35.6225 27.7414 35.4794 28.1323C35.3363 28.5232 35.0813 28.8626 34.7467 29.1076C34.4121 29.3527 34.0129 29.4924 33.5995 29.5091C33.186 29.5258 32.777 29.4187 32.4239 29.2015L25.9787 25.2075L19.5296 29.2015C19.1767 29.4175 18.7681 29.5235 18.3554 29.5062C17.9427 29.4889 17.5443 29.349 17.2104 29.1041C16.8765 28.8593 16.622 28.5205 16.4789 28.1303C16.3359 27.7401 16.3107 27.3161 16.4066 26.9115L18.1627 19.4491L12.4195 14.4592C12.1072 14.1874 11.8813 13.829 11.7701 13.4288C11.6589 13.0285 11.6672 12.6041 11.7941 12.2086C11.921 11.8131 12.1608 11.464 12.4836 11.2049C12.8063 10.9459 13.1978 10.7882 13.609 10.7518L21.139 10.1401L24.0439 3.06197C24.2011 2.67622 24.4687 2.34626 24.8127 2.11403C25.1566 1.88181 25.5614 1.75781 25.9755 1.75781C26.3896 1.75781 26.7944 1.88181 27.1384 2.11403C27.4823 2.34626 27.7499 2.67622 27.9072 3.06197L30.8107 10.1401L38.3408 10.7518C38.7528 10.7869 39.1454 10.9436 39.4693 11.2024C39.7933 11.4611 40.0342 11.8103 40.1618 12.2063C40.2895 12.6023 40.2983 13.0274 40.1871 13.4284C40.0759 13.8294 39.8496 14.1884 39.5367 14.4605L39.5443 14.4592Z" fill="#FFC435"/>
<path d="M78.7196 14.4592L72.9763 19.4491L74.7261 26.9115C74.8227 27.3166 74.7978 27.7414 74.6547 28.1323C74.5116 28.5232 74.2566 28.8626 73.922 29.1076C73.5874 29.3527 73.1882 29.4924 72.7747 29.5091C72.3613 29.5258 71.9523 29.4187 71.5992 29.2015L65.154 25.2075L58.7049 29.2015C58.352 29.4175 57.9434 29.5235 57.5307 29.5062C57.118 29.4889 56.7196 29.349 56.3857 29.1041C56.0518 28.8593 55.7973 28.5205 55.6542 28.1303C55.5112 27.7401 55.486 27.3161 55.5819 26.9115L57.338 19.4491L51.5948 14.4592C51.2824 14.1874 51.0566 13.829 50.9454 13.4288C50.8341 13.0285 50.8425 12.6041 50.9694 12.2086C51.0963 11.8131 51.3361 11.464 51.6589 11.2049C51.9816 10.9459 52.3731 10.7882 52.7843 10.7518L60.3143 10.1401L63.2192 3.06197C63.3764 2.67622 63.644 2.34626 63.9879 2.11403C64.3319 1.88181 64.7367 1.75781 65.1508 1.75781C65.5649 1.75781 65.9697 1.88181 66.3137 2.11403C66.6576 2.34626 66.9252 2.67622 67.0825 3.06197L69.986 10.1401L77.5161 10.7518C77.9281 10.7869 78.3207 10.9436 78.6446 11.2024C78.9685 11.4611 79.2095 11.8103 79.3371 12.2063C79.4648 12.6023 79.4736 13.0274 79.3624 13.4284C79.2512 13.8294 79.0249 14.1884 78.712 14.4605L78.7196 14.4592Z" fill="#FFC435"/>
<path d="M117.839 14.4592L112.096 19.4491L113.846 26.9115C113.942 27.3166 113.917 27.7414 113.774 28.1323C113.631 28.5232 113.376 28.8626 113.042 29.1076C112.707 29.3527 112.308 29.4924 111.894 29.5091C111.481 29.5258 111.072 29.4187 110.719 29.2015L104.274 25.2075L97.8246 29.2015C97.4716 29.4175 97.063 29.5235 96.6503 29.5062C96.2376 29.4889 95.8392 29.349 95.5053 29.1041C95.1714 28.8593 94.9169 28.5205 94.7739 28.1303C94.6308 27.7401 94.6057 27.3161 94.7015 26.9115L96.4577 19.4491L90.7144 14.4592C90.4021 14.1874 90.1762 13.829 90.065 13.4288C89.9538 13.0285 89.9621 12.6041 90.089 12.2086C90.2159 11.8131 90.4557 11.464 90.7785 11.2049C91.1013 10.9459 91.4927 10.7882 91.9039 10.7518L99.434 10.1401L102.339 3.06197C102.496 2.67622 102.764 2.34626 103.108 2.11403C103.452 1.88181 103.856 1.75781 104.27 1.75781C104.685 1.75781 105.089 1.88181 105.433 2.11403C105.777 2.34626 106.045 2.67622 106.202 3.06197L109.106 10.1401L116.636 10.7518C117.048 10.7869 117.44 10.9436 117.764 11.2024C118.088 11.4611 118.329 11.8103 118.457 12.2063C118.584 12.6023 118.593 13.0274 118.482 13.4284C118.371 13.8294 118.145 14.1884 117.832 14.4605L117.839 14.4592Z" fill="#FFC435"/>
<path d="M156.958 14.4592L151.215 19.4491L152.965 26.9115C153.061 27.3166 153.037 27.7414 152.893 28.1323C152.75 28.5232 152.495 28.8626 152.161 29.1076C151.826 29.3527 151.427 29.4924 151.014 29.5091C150.6 29.5258 150.191 29.4187 149.838 29.2015L143.393 25.2075L136.944 29.2015C136.591 29.4175 136.182 29.5235 135.769 29.5062C135.357 29.4889 134.958 29.349 134.624 29.1041C134.291 28.8593 134.036 28.5205 133.893 28.1303C133.75 27.7401 133.725 27.3161 133.821 26.9115L135.577 19.4491L129.834 14.4592C129.521 14.1874 129.295 13.829 129.184 13.4288C129.073 13.0285 129.081 12.6041 129.208 12.2086C129.335 11.8131 129.575 11.464 129.898 11.2049C130.22 10.9459 130.612 10.7882 131.023 10.7518L138.553 10.1401L141.458 3.06197C141.615 2.67622 141.883 2.34626 142.227 2.11403C142.571 1.88181 142.975 1.75781 143.39 1.75781C143.804 1.75781 144.208 1.88181 144.552 2.11403C144.896 2.34626 145.164 2.67622 145.321 3.06197L148.225 10.1401L155.755 10.7518C156.167 10.7869 156.559 10.9436 156.883 11.2024C157.207 11.4611 157.448 11.8103 157.576 12.2063C157.704 12.6023 157.712 13.0274 157.601 13.4284C157.49 13.8294 157.264 14.1884 156.951 14.4605L156.958 14.4592Z" fill="#FFC435"/>
<path d="M196.758 12.2001C196.63 11.8049 196.389 11.4567 196.065 11.1992C195.741 10.9417 195.349 10.7865 194.938 10.7531L187.408 10.1414L184.5 3.06197C184.343 2.67622 184.075 2.34626 183.731 2.11403C183.387 1.88181 182.983 1.75781 182.569 1.75781C182.154 1.75781 181.75 1.88181 181.406 2.11403C181.062 2.34626 180.794 2.67622 180.637 3.06197L177.732 10.1401L170.198 10.7531C169.786 10.7882 169.394 10.9449 169.07 11.2036C168.746 11.4624 168.505 11.8116 168.377 12.2076C168.249 12.6036 168.241 13.0287 168.352 13.4297C168.463 13.8307 168.689 14.1897 169.002 14.4618L174.746 19.4517L172.996 26.9128C172.899 27.3179 172.924 27.7427 173.067 28.1336C173.21 28.5245 173.465 28.8639 173.8 29.1089C174.134 29.3539 174.534 29.4936 174.947 29.5104C175.361 29.5271 175.77 29.42 176.123 29.2028L182.568 25.2088L189.017 29.2028C189.37 29.4188 189.779 29.5248 190.191 29.5075C190.604 29.4902 191.002 29.3503 191.336 29.1054C191.67 28.8606 191.925 28.5218 192.068 28.1316C192.211 27.7414 192.236 27.3173 192.14 26.9128L190.384 19.4504L196.127 14.4605C196.443 14.1889 196.671 13.8291 196.783 13.4267C196.895 13.0243 196.887 12.5974 196.758 12.2001ZM194.8 12.903L188.584 18.3003C188.443 18.4233 188.337 18.5832 188.279 18.7624C188.222 18.9417 188.214 19.1335 188.258 19.3168L190.157 27.387C190.162 27.3981 190.162 27.4107 190.158 27.4222C190.154 27.4336 190.146 27.4431 190.135 27.4487C190.112 27.4666 190.106 27.4628 190.086 27.4487L183.103 23.1244C182.942 23.0255 182.757 22.9735 182.568 22.9741V3.81374C182.599 3.81374 182.602 3.82402 182.613 3.84715L185.759 11.5061C185.83 11.6812 185.949 11.8329 186.101 11.9445C186.253 12.056 186.433 12.1231 186.62 12.1384L194.777 12.8015C194.797 12.8015 194.809 12.8015 194.82 12.8388C194.832 12.876 194.82 12.8902 194.8 12.903Z" fill="#FFC435"/>
</svg>
