<svg width="25" height="25" viewBox="0 0 25 25" fill="none" xmlns="http://www.w3.org/2000/svg">
<path fill-rule="evenodd" clip-rule="evenodd" d="M12.2865 2.20979C12.201 2.23124 12.0715 2.27866 11.9988 2.3152C11.8422 2.39386 8.82573 5.38419 8.74037 5.54545C8.67125 5.67606 8.66315 6.01732 8.72533 6.18183C8.78479 6.33927 8.96213 6.52182 9.12207 6.59024C9.2154 6.63019 9.44205 6.64683 9.89263 6.64683H10.5309V8.4524V10.258L10.87 10.1015C11.0564 10.0154 11.357 9.90602 11.5378 9.85847C12.1446 9.69885 13.2873 9.53118 14.2604 9.45897L14.6406 9.43078V8.03881V6.64683H15.2749C15.9519 6.64683 16.0732 6.62242 16.2587 6.449C16.4823 6.23994 16.558 5.85589 16.4326 5.56674C16.4004 5.49264 15.7004 4.7624 14.8401 3.90554C13.6539 2.72411 13.2614 2.3574 13.1136 2.29227C12.8882 2.19298 12.5055 2.15484 12.2865 2.20979ZM6.54459 5.58515C6.43602 5.61573 6.1522 5.87418 5.3867 6.63968C4.525 7.50139 4.3685 7.67638 4.34504 7.8046C4.30805 8.00696 4.35206 8.18507 4.47535 8.33158C4.60115 8.48104 4.79159 8.53673 5.17814 8.53702L5.47609 8.53726V11.7436V14.9499L5.56856 14.9291C5.77971 14.8819 6.60476 14.786 7.16104 14.744C7.48878 14.7193 7.87254 14.689 8.01379 14.6766L8.27064 14.6541V11.5957V8.53726L8.56859 8.53702C8.73248 8.53689 8.93471 8.51787 9.01802 8.49473C9.29644 8.41739 9.46699 8.10288 9.39988 7.79046C9.35702 7.59094 7.55614 5.77415 7.26378 5.63549C7.04498 5.53173 6.79623 5.5143 6.54459 5.58515ZM17.9694 5.58642C17.8657 5.61938 17.5421 5.91474 16.8115 6.64293C15.9487 7.50295 15.7933 7.67621 15.7698 7.8046C15.7328 8.00696 15.7768 8.18507 15.9001 8.33158C16.0259 8.48104 16.2164 8.53673 16.6029 8.53702L16.9009 8.53726V8.94823V9.35919L17.1372 9.36055C17.4331 9.36223 18.8086 9.42877 19.3153 9.46588L19.6954 9.49374V9.0155V8.53726L19.9934 8.53702C20.1573 8.53689 20.3595 8.51787 20.4428 8.49473C20.6244 8.4443 20.792 8.25801 20.8279 8.06667C20.8857 7.75882 20.8493 7.70815 19.8447 6.69561C19.3218 6.16872 18.8328 5.69952 18.7579 5.653C18.5964 5.55273 18.1847 5.51796 17.9694 5.58642ZM15.257 9.85428C13.5436 9.9262 11.9485 10.152 11.2233 10.4252C10.9358 10.5336 10.6586 10.7164 10.5876 10.8445C10.5454 10.9206 10.5335 11.3877 10.5322 13.0168L10.5305 15.0921L9.4314 15.1008C6.479 15.1239 4.29338 15.4695 3.76032 15.9974L3.58566 16.1704L3.58533 17.3778L3.58504 18.5853L3.24628 18.6796C2.60317 18.8586 2.26922 19.075 2.21456 19.3483C2.1694 19.574 2.18452 21.6726 2.23223 21.7984C2.36238 22.142 2.8315 22.362 3.87333 22.5681C4.92026 22.7752 6.07926 22.8744 7.83913 22.9075C10.8781 22.9646 13.6063 22.6384 14.3556 22.1284C14.6072 21.9571 14.6596 21.8435 14.6756 21.435L14.6901 21.0645L14.9428 21.0943C15.3399 21.1411 18.125 21.1286 18.8529 21.0767C20.7193 20.9437 21.9458 20.7194 22.5474 20.4012C22.9821 20.1712 22.9417 20.6771 22.9419 15.4549L22.942 10.886L22.8361 10.7602C22.2902 10.1115 18.8702 9.70263 15.257 9.85428ZM11.5583 11.8508C13.4684 12.4094 18.1444 12.5178 20.9078 12.0676C21.4919 11.9724 22.0184 11.8514 22.2267 11.7644C22.3092 11.7299 22.3929 11.7017 22.4128 11.7017C22.4326 11.7017 22.4489 12.0541 22.4489 12.4848V13.2679L22.2331 13.3644C21.8111 13.5532 21.8324 13.563 21.8324 13.1812C21.8324 12.7403 21.7644 12.6077 21.5374 12.6064C21.3317 12.6053 21.2982 12.6884 21.2982 13.199V13.663L20.9797 13.7124C20.8045 13.7396 20.6288 13.7711 20.5893 13.7825C20.5247 13.801 20.5173 13.7665 20.5173 13.444C20.5173 13.0312 20.4664 12.9346 20.2489 12.9346C20.0491 12.9346 20.0062 13.0201 19.9831 13.4646L19.9625 13.8592L19.6749 13.8857C19.5166 13.9002 19.2716 13.9216 19.1303 13.9332L18.8735 13.9542V13.6138C18.8735 13.2347 18.8357 13.1675 18.6228 13.1675C18.4225 13.1675 18.3634 13.2647 18.3455 13.6236C18.3368 13.7984 18.3087 13.955 18.2831 13.9716C18.2575 13.9882 17.9637 14.0021 17.6303 14.0025L17.0242 14.0031V13.7246C17.0242 13.3796 16.957 13.2633 16.7576 13.2633C16.5407 13.2633 16.4899 13.3458 16.4899 13.6978V14.0031L15.8632 14.0025C15.5185 14.0021 15.2142 13.9877 15.187 13.9704C15.1572 13.9514 15.1327 13.8105 15.1253 13.6157C15.1142 13.3213 15.1035 13.2852 15.0051 13.2119C14.9346 13.1594 14.8668 13.141 14.8101 13.159C14.6337 13.2149 14.5995 13.2931 14.5995 13.6394V13.9685L14.4865 13.9471C14.4243 13.9353 14.207 13.9142 14.0036 13.9001C13.453 13.8621 13.4899 13.8938 13.4899 13.459C13.4899 13.0285 13.4413 12.9346 13.2187 12.9346C13.0134 12.9346 12.9556 13.0491 12.9556 13.4561C12.9556 13.7081 12.9424 13.7911 12.9043 13.7795C12.876 13.771 12.7095 13.7413 12.5344 13.7133L12.2159 13.6627V13.2165C12.2159 12.825 12.2058 12.7601 12.1337 12.688C12.0338 12.5881 11.8587 12.5816 11.7568 12.6738C11.6941 12.7306 11.6816 12.8061 11.6816 13.1303V13.5188L11.5686 13.4918C11.5065 13.4768 11.3724 13.424 11.2707 13.3743L11.0857 13.2839L11.0746 12.4881C11.0641 11.7406 11.0678 11.6939 11.1362 11.7204C11.1763 11.7359 11.3662 11.7946 11.5583 11.8508ZM12.1466 14.1872C12.8197 14.3235 13.8386 14.4395 14.8944 14.4999C15.8326 14.5536 18.6104 14.5273 19.3461 14.4578C20.6081 14.3385 21.6123 14.1692 22.1568 13.984L22.4489 13.8847V14.6621V15.4396L22.349 15.505C22.294 15.541 22.1553 15.6061 22.0407 15.6496L21.8324 15.7288L21.8318 15.3899C21.8315 15.2007 21.8084 15.0059 21.7796 14.949C21.7049 14.8013 21.5372 14.7525 21.4041 14.8397C21.3005 14.9076 21.2982 14.9195 21.2982 15.3773V15.8456L21.103 15.8867C20.9956 15.9094 20.8199 15.9408 20.7126 15.9565L20.5173 15.985V15.6311C20.5173 15.3318 20.5046 15.2643 20.4352 15.1949C20.3252 15.0849 20.2062 15.0913 20.084 15.2136C19.992 15.3056 19.9831 15.3466 19.9831 15.6809V16.0473L19.7879 16.0717C19.6805 16.0851 19.4309 16.1085 19.2331 16.1237L18.8735 16.1514V15.8305C18.8735 15.5895 18.8566 15.4908 18.8055 15.4344C18.7362 15.3579 18.5636 15.3355 18.4754 15.3916C18.3911 15.4451 18.3392 15.6428 18.3392 15.9105V16.1687L17.9013 16.1955C17.6605 16.2102 17.3646 16.2223 17.2438 16.2223H17.0242V15.9571C17.0242 15.8112 17.0025 15.6443 16.976 15.5862C16.9155 15.4534 16.7556 15.4098 16.616 15.4879C16.5178 15.5429 16.5096 15.5707 16.4985 15.8847L16.4866 16.2223H16.2645C16.065 16.2223 16.0356 16.2106 15.9746 16.1074C15.8892 15.9628 15.6985 15.8312 15.396 15.7083C15.2439 15.6465 15.1403 15.5749 15.1047 15.5069C15.0322 15.3684 14.8637 15.3271 14.7164 15.4116C14.6116 15.4717 14.568 15.4706 14.1626 15.3975C13.9206 15.3539 13.6708 15.3182 13.6077 15.3182C13.535 15.3182 13.4767 15.2881 13.449 15.2365C13.3871 15.1207 13.2296 15.0922 13.0917 15.1717C12.9957 15.227 12.9135 15.2329 12.6063 15.2063C12.2432 15.1749 12.2362 15.1723 12.2235 15.0622C12.2061 14.9107 12.0255 14.7715 11.8889 14.8044C11.7644 14.8343 11.6816 14.932 11.6817 15.0486C11.6818 15.1277 11.6618 15.1324 11.3735 15.1197L11.0652 15.1062V14.5002V13.8943L11.3437 13.9877C11.4968 14.039 11.8581 14.1288 12.1466 14.1872ZM22.4489 16.8529C22.4489 17.689 22.4522 17.6782 22.1597 17.798C21.8132 17.9399 21.8324 17.9528 21.8324 17.5785C21.8324 17.1397 21.7641 17.005 21.5408 17.0037C21.3456 17.0026 21.3023 17.1055 21.2894 17.6004L21.2776 18.0506L21.0105 18.1003C20.8636 18.1276 20.6925 18.1508 20.6304 18.1519L20.5173 18.1538V17.818C20.5173 17.4288 20.4633 17.3319 20.2462 17.3319C20.0384 17.3319 19.9831 17.4452 19.9831 17.8708C19.9831 18.2907 20.0326 18.2578 19.3358 18.3011L18.8735 18.3299V18.0003C18.8735 17.6328 18.8343 17.5648 18.6228 17.5648C18.4208 17.5648 18.3622 17.6624 18.3456 18.0267L18.331 18.3493L18.1444 18.3748C18.0419 18.3889 17.7478 18.4004 17.491 18.4004H17.0242V18.1219C17.0242 17.7769 16.957 17.6606 16.7576 17.6606C16.5407 17.6606 16.4899 17.7431 16.4899 18.0951V18.4004H16.2639H16.0378V17.585V16.7697L17.2605 16.7433C19.5001 16.6949 21.1139 16.5149 22.079 16.2058C22.2485 16.1516 22.4011 16.1053 22.418 16.1031C22.435 16.1008 22.4489 16.4382 22.4489 16.8529ZM4.78333 17.169C6.01207 17.4827 8.13901 17.648 10.4076 17.606C12.6525 17.5645 14.3263 17.3715 15.2763 17.0447L15.5036 16.9664V17.7557C15.5036 18.6547 15.5319 18.5851 15.1065 18.7315L14.8871 18.8069V18.4005C14.8871 18.0271 14.8797 17.9889 14.7958 17.9301C14.6616 17.8361 14.5345 17.8519 14.4381 17.9744C14.3644 18.068 14.3529 18.14 14.3529 18.5058V18.9288L14.1371 18.9713C14.0185 18.9947 13.8521 19.0258 13.7673 19.0404L13.6132 19.0671V18.7132C13.6132 18.4141 13.6004 18.3465 13.531 18.2771C13.4324 18.1785 13.2948 18.1716 13.1703 18.2589C13.0864 18.3176 13.0789 18.356 13.0789 18.7258V19.1288L12.8221 19.1533C12.6808 19.1668 12.4311 19.1902 12.2673 19.2054L11.9693 19.2329V18.9286C11.9693 18.5628 11.9055 18.4415 11.7134 18.4415C11.4877 18.4415 11.4351 18.532 11.4351 18.9205V19.2634H11.1949C11.0628 19.2634 10.7576 19.2754 10.5168 19.2902L10.0789 19.317V19.0025C10.0789 18.6523 10.0071 18.5237 9.81175 18.5237C9.61638 18.5237 9.54462 18.6523 9.54462 19.0025V19.317L9.1067 19.2902C8.86588 19.2754 8.56074 19.2634 8.42861 19.2634H8.18845V18.9276C8.18845 18.5384 8.13436 18.4415 7.91729 18.4415C7.71719 18.4415 7.65419 18.5582 7.65419 18.9289V19.2337L7.39734 19.2092C7.25609 19.1956 7.00705 19.1723 6.84394 19.1572L6.54735 19.1298L6.53572 18.7152C6.52454 18.3182 6.51957 18.2981 6.41847 18.2414C6.27886 18.1632 6.119 18.2069 6.05846 18.3397C6.032 18.3978 6.01034 18.5852 6.01034 18.7562V19.0671L5.85623 19.0404C5.77149 19.0258 5.60505 18.9947 5.48636 18.9713L5.27061 18.9288V18.4797C5.27061 18.0853 5.26058 18.0205 5.18841 17.9483C5.14321 17.9031 5.05999 17.8661 5.00348 17.8661C4.79594 17.8661 4.73635 17.9895 4.73635 18.4191V18.8077L4.57111 18.7494C4.4802 18.7173 4.3415 18.6606 4.26288 18.6232L4.11991 18.5554V17.7605V16.9657L4.29403 17.0271C4.38979 17.0609 4.60998 17.1247 4.78333 17.169ZM22.4049 19.8627C22.3612 19.9154 21.9545 20.0853 21.872 20.0853C21.8501 20.0853 21.8321 19.9431 21.8318 19.7668C21.8315 19.5917 21.808 19.4024 21.7796 19.3463C21.7049 19.1986 21.5372 19.1498 21.4041 19.237C21.3006 19.3048 21.2982 19.3169 21.2982 19.7734V20.2404L21.0208 20.289C20.8682 20.3157 20.6925 20.347 20.6304 20.3585L20.5173 20.3795V20.0087C20.5173 19.6721 20.5089 19.632 20.426 19.574C20.3014 19.4867 20.1638 19.4936 20.0653 19.5922C19.9948 19.6627 19.9831 19.7291 19.9831 20.0595V20.4446L19.6851 20.4711C19.5213 20.4857 19.2716 20.5087 19.1303 20.5223L18.8735 20.547V20.2163C18.8735 19.8478 18.8255 19.7566 18.6318 19.7566C18.4152 19.7566 18.368 19.8341 18.3476 20.2235L18.3289 20.5785L17.954 20.5788C17.7477 20.5789 17.4541 20.5909 17.3016 20.6053L17.0242 20.6315V20.3173C17.0242 19.9641 16.9524 19.8388 16.75 19.8388C16.5464 19.8388 16.4899 19.9384 16.4899 20.2973V20.6199L15.8837 20.5977C15.5503 20.5855 15.143 20.5653 14.9785 20.5528L14.6794 20.5302L14.6908 19.9744L14.7022 19.4186L15.0515 19.3181C15.2437 19.2629 15.5124 19.1566 15.6487 19.0819L15.8966 18.9461L17.3747 18.9228C19.6225 18.8875 21.2366 18.702 22.2023 18.3679L22.4283 18.2897L22.4395 19.0486C22.4471 19.5614 22.4359 19.8254 22.4049 19.8627ZM3.67981 20.327C4.78349 20.5634 5.92864 20.6622 7.88072 20.6894C10.6192 20.7278 12.7591 20.5343 13.8632 20.1485L14.1474 20.0492V20.8451V21.641L13.9317 21.7434C13.5128 21.9424 13.531 21.9518 13.531 21.5356C13.531 21.1045 13.4761 20.9891 13.2718 20.9901C13.0346 20.9912 13.0192 21.0227 12.9967 21.5521L12.9762 22.0358L12.6885 22.0854C12.1816 22.1729 12.2159 22.1954 12.2159 21.7753C12.2159 21.3681 12.1814 21.3045 11.9607 21.3045C11.7457 21.3045 11.6816 21.4304 11.6816 21.8524V22.2132L11.5481 22.237C11.4746 22.25 11.2249 22.2733 10.9933 22.2885L10.572 22.3163V21.9952C10.572 21.6342 10.5143 21.5237 10.3255 21.5237C10.1359 21.5237 10.0604 21.6557 10.0441 22.0156L10.0296 22.3348L9.78105 22.3608C9.64441 22.3751 9.35036 22.3867 9.12762 22.3867H8.7227L8.72208 22.1299C8.72138 21.8282 8.6597 21.6835 8.50924 21.6306C8.42717 21.6017 8.37416 21.6094 8.29435 21.6617C8.19519 21.7267 8.18845 21.752 8.18845 22.0589V22.3867H7.76298C7.52893 22.3867 7.22379 22.3748 7.08489 22.3603L6.83227 22.3339V22.0371C6.83227 21.799 6.81542 21.7188 6.74707 21.632C6.6507 21.5094 6.52355 21.4937 6.38937 21.5877C6.30775 21.6448 6.29802 21.6871 6.29802 21.984V22.3163L5.87678 22.2885C5.64508 22.2733 5.39542 22.25 5.32198 22.237L5.18841 22.2132V21.846C5.18841 21.5073 5.18032 21.4708 5.08362 21.3741C5.00233 21.2928 4.95388 21.2753 4.86786 21.296C4.69103 21.3386 4.65416 21.4254 4.65416 21.7987C4.65416 22.1919 4.68609 22.1726 4.18155 22.0854L3.89388 22.0357L3.88217 21.5664C3.87572 21.3069 3.85052 21.0731 3.82578 21.0433C3.80121 21.0137 3.71043 20.9895 3.62404 20.9895C3.39135 20.9895 3.33908 21.0891 3.33908 21.5329C3.33908 21.7312 3.33053 21.8936 3.32005 21.8936C3.30957 21.8936 3.20326 21.8551 3.08375 21.8081C2.70858 21.6606 2.72263 21.6991 2.72263 20.8212V20.0491L3.01199 20.1476C3.17116 20.2017 3.4717 20.2824 3.67981 20.327Z" fill="black"/>
<path fill-rule="evenodd" clip-rule="evenodd" d="M12.2865 2.20979C12.201 2.23124 12.0715 2.27866 11.9988 2.3152C11.8422 2.39386 8.82573 5.38419 8.74037 5.54545C8.67125 5.67606 8.66315 6.01732 8.72533 6.18183C8.78479 6.33927 8.96213 6.52182 9.12207 6.59024C9.2154 6.63019 9.44205 6.64683 9.89263 6.64683H10.5309V8.4524V10.258L10.87 10.1015C11.0564 10.0154 11.357 9.90602 11.5378 9.85847C12.1446 9.69885 13.2873 9.53118 14.2604 9.45897L14.6406 9.43078V8.03881V6.64683H15.2749C15.9519 6.64683 16.0732 6.62242 16.2587 6.449C16.4823 6.23994 16.558 5.85589 16.4326 5.56674C16.4004 5.49264 15.7004 4.7624 14.8401 3.90554C13.6539 2.72411 13.2614 2.3574 13.1136 2.29227C12.8882 2.19298 12.5055 2.15484 12.2865 2.20979ZM6.54459 5.58515C6.43602 5.61573 6.1522 5.87418 5.3867 6.63968C4.525 7.50139 4.3685 7.67638 4.34504 7.8046C4.30805 8.00696 4.35206 8.18507 4.47535 8.33158C4.60115 8.48104 4.79159 8.53673 5.17814 8.53702L5.47609 8.53726V11.7436V14.9499L5.56856 14.9291C5.77971 14.8819 6.60476 14.786 7.16104 14.744C7.48878 14.7193 7.87254 14.689 8.01379 14.6766L8.27064 14.6541V11.5957V8.53726L8.56859 8.53702C8.73248 8.53689 8.93471 8.51787 9.01802 8.49473C9.29644 8.41739 9.46699 8.10288 9.39988 7.79046C9.35702 7.59094 7.55614 5.77415 7.26378 5.63549C7.04498 5.53173 6.79623 5.5143 6.54459 5.58515ZM17.9694 5.58642C17.8657 5.61938 17.5421 5.91474 16.8115 6.64293C15.9487 7.50295 15.7933 7.67621 15.7698 7.8046C15.7328 8.00696 15.7768 8.18507 15.9001 8.33158C16.0259 8.48104 16.2164 8.53673 16.6029 8.53702L16.9009 8.53726V8.94823V9.35919L17.1372 9.36055C17.4331 9.36223 18.8086 9.42877 19.3153 9.46588L19.6954 9.49374V9.0155V8.53726L19.9934 8.53702C20.1573 8.53689 20.3595 8.51787 20.4428 8.49473C20.6244 8.4443 20.792 8.25801 20.8279 8.06667C20.8857 7.75882 20.8493 7.70815 19.8447 6.69561C19.3218 6.16872 18.8328 5.69952 18.7579 5.653C18.5964 5.55273 18.1847 5.51796 17.9694 5.58642ZM15.257 9.85428C13.5436 9.9262 11.9485 10.152 11.2233 10.4252C10.9358 10.5336 10.6586 10.7164 10.5876 10.8445C10.5454 10.9206 10.5335 11.3877 10.5322 13.0168L10.5305 15.0921L9.4314 15.1008C6.479 15.1239 4.29338 15.4695 3.76032 15.9974L3.58566 16.1704L3.58533 17.3778L3.58504 18.5853L3.24628 18.6796C2.60317 18.8586 2.26922 19.075 2.21456 19.3483C2.1694 19.574 2.18452 21.6726 2.23223 21.7984C2.36238 22.142 2.8315 22.362 3.87333 22.5681C4.92026 22.7752 6.07926 22.8744 7.83913 22.9075C10.8781 22.9646 13.6063 22.6384 14.3556 22.1284C14.6072 21.9571 14.6596 21.8435 14.6756 21.435L14.6901 21.0645L14.9428 21.0943C15.3399 21.1411 18.125 21.1286 18.8529 21.0767C20.7193 20.9437 21.9458 20.7194 22.5474 20.4012C22.9821 20.1712 22.9417 20.6771 22.9419 15.4549L22.942 10.886L22.8361 10.7602C22.2902 10.1115 18.8702 9.70263 15.257 9.85428ZM11.5583 11.8508C13.4684 12.4094 18.1444 12.5178 20.9078 12.0676C21.4919 11.9724 22.0184 11.8514 22.2267 11.7644C22.3092 11.7299 22.3929 11.7017 22.4128 11.7017C22.4326 11.7017 22.4489 12.0541 22.4489 12.4848V13.2679L22.2331 13.3644C21.8111 13.5532 21.8324 13.563 21.8324 13.1812C21.8324 12.7403 21.7644 12.6077 21.5374 12.6064C21.3317 12.6053 21.2982 12.6884 21.2982 13.199V13.663L20.9797 13.7124C20.8045 13.7396 20.6288 13.7711 20.5893 13.7825C20.5247 13.801 20.5173 13.7665 20.5173 13.444C20.5173 13.0312 20.4664 12.9346 20.2489 12.9346C20.0491 12.9346 20.0062 13.0201 19.9831 13.4646L19.9625 13.8592L19.6749 13.8857C19.5166 13.9002 19.2716 13.9216 19.1303 13.9332L18.8735 13.9542V13.6138C18.8735 13.2347 18.8357 13.1675 18.6228 13.1675C18.4225 13.1675 18.3634 13.2647 18.3455 13.6236C18.3368 13.7984 18.3087 13.955 18.2831 13.9716C18.2575 13.9882 17.9637 14.0021 17.6303 14.0025L17.0242 14.0031V13.7246C17.0242 13.3796 16.957 13.2633 16.7576 13.2633C16.5407 13.2633 16.4899 13.3458 16.4899 13.6978V14.0031L15.8632 14.0025C15.5185 14.0021 15.2142 13.9877 15.187 13.9704C15.1572 13.9514 15.1327 13.8105 15.1253 13.6157C15.1142 13.3213 15.1035 13.2852 15.0051 13.2119C14.9346 13.1594 14.8668 13.141 14.8101 13.159C14.6337 13.2149 14.5995 13.2931 14.5995 13.6394V13.9685L14.4865 13.9471C14.4243 13.9353 14.207 13.9142 14.0036 13.9001C13.453 13.8621 13.4899 13.8938 13.4899 13.459C13.4899 13.0285 13.4413 12.9346 13.2187 12.9346C13.0134 12.9346 12.9556 13.0491 12.9556 13.4561C12.9556 13.7081 12.9424 13.7911 12.9043 13.7795C12.876 13.771 12.7095 13.7413 12.5344 13.7133L12.2159 13.6627V13.2165C12.2159 12.825 12.2058 12.7601 12.1337 12.688C12.0338 12.5881 11.8587 12.5816 11.7568 12.6738C11.6941 12.7306 11.6816 12.8061 11.6816 13.1303V13.5188L11.5686 13.4918C11.5065 13.4768 11.3724 13.424 11.2707 13.3743L11.0857 13.2839L11.0746 12.4881C11.0641 11.7406 11.0678 11.6939 11.1362 11.7204C11.1763 11.7359 11.3662 11.7946 11.5583 11.8508ZM12.1466 14.1872C12.8197 14.3235 13.8386 14.4395 14.8944 14.4999C15.8326 14.5536 18.6104 14.5273 19.3461 14.4578C20.6081 14.3385 21.6123 14.1692 22.1568 13.984L22.4489 13.8847V14.6621V15.4396L22.349 15.505C22.294 15.541 22.1553 15.6061 22.0407 15.6496L21.8324 15.7288L21.8318 15.3899C21.8315 15.2007 21.8084 15.0059 21.7796 14.949C21.7049 14.8013 21.5372 14.7525 21.4041 14.8397C21.3005 14.9076 21.2982 14.9195 21.2982 15.3773V15.8456L21.103 15.8867C20.9956 15.9094 20.8199 15.9408 20.7126 15.9565L20.5173 15.985V15.6311C20.5173 15.3318 20.5046 15.2643 20.4352 15.1949C20.3252 15.0849 20.2062 15.0913 20.084 15.2136C19.992 15.3056 19.9831 15.3466 19.9831 15.6809V16.0473L19.7879 16.0717C19.6805 16.0851 19.4309 16.1085 19.2331 16.1237L18.8735 16.1514V15.8305C18.8735 15.5895 18.8566 15.4908 18.8055 15.4344C18.7362 15.3579 18.5636 15.3355 18.4754 15.3916C18.3911 15.4451 18.3392 15.6428 18.3392 15.9105V16.1687L17.9013 16.1955C17.6605 16.2102 17.3646 16.2223 17.2438 16.2223H17.0242V15.9571C17.0242 15.8112 17.0025 15.6443 16.976 15.5862C16.9155 15.4534 16.7556 15.4098 16.616 15.4879C16.5178 15.5429 16.5096 15.5707 16.4985 15.8847L16.4866 16.2223H16.2645C16.065 16.2223 16.0356 16.2106 15.9746 16.1074C15.8892 15.9628 15.6985 15.8312 15.396 15.7083C15.2439 15.6465 15.1403 15.5749 15.1047 15.5069C15.0322 15.3684 14.8637 15.3271 14.7164 15.4116C14.6116 15.4717 14.568 15.4706 14.1626 15.3975C13.9206 15.3539 13.6708 15.3182 13.6077 15.3182C13.535 15.3182 13.4767 15.2881 13.449 15.2365C13.3871 15.1207 13.2296 15.0922 13.0917 15.1717C12.9957 15.227 12.9135 15.2329 12.6063 15.2063C12.2432 15.1749 12.2362 15.1723 12.2235 15.0622C12.2061 14.9107 12.0255 14.7715 11.8889 14.8044C11.7644 14.8343 11.6816 14.932 11.6817 15.0486C11.6818 15.1277 11.6618 15.1324 11.3735 15.1197L11.0652 15.1062V14.5002V13.8943L11.3437 13.9877C11.4968 14.039 11.8581 14.1288 12.1466 14.1872ZM22.4489 16.8529C22.4489 17.689 22.4522 17.6782 22.1597 17.798C21.8132 17.9399 21.8324 17.9528 21.8324 17.5785C21.8324 17.1397 21.7641 17.005 21.5408 17.0037C21.3456 17.0026 21.3023 17.1055 21.2894 17.6004L21.2776 18.0506L21.0105 18.1003C20.8636 18.1276 20.6925 18.1508 20.6304 18.1519L20.5173 18.1538V17.818C20.5173 17.4288 20.4633 17.3319 20.2462 17.3319C20.0384 17.3319 19.9831 17.4452 19.9831 17.8708C19.9831 18.2907 20.0326 18.2578 19.3358 18.3011L18.8735 18.3299V18.0003C18.8735 17.6328 18.8343 17.5648 18.6228 17.5648C18.4208 17.5648 18.3622 17.6624 18.3456 18.0267L18.331 18.3493L18.1444 18.3748C18.0419 18.3889 17.7478 18.4004 17.491 18.4004H17.0242V18.1219C17.0242 17.7769 16.957 17.6606 16.7576 17.6606C16.5407 17.6606 16.4899 17.7431 16.4899 18.0951V18.4004H16.2639H16.0378V17.585V16.7697L17.2605 16.7433C19.5001 16.6949 21.1139 16.5149 22.079 16.2058C22.2485 16.1516 22.4011 16.1053 22.418 16.1031C22.435 16.1008 22.4489 16.4382 22.4489 16.8529ZM4.78333 17.169C6.01207 17.4827 8.13901 17.648 10.4076 17.606C12.6525 17.5645 14.3263 17.3715 15.2763 17.0447L15.5036 16.9664V17.7557C15.5036 18.6547 15.5319 18.5851 15.1065 18.7315L14.8871 18.8069V18.4005C14.8871 18.0271 14.8797 17.9889 14.7958 17.9301C14.6616 17.8361 14.5345 17.8519 14.4381 17.9744C14.3644 18.068 14.3529 18.14 14.3529 18.5058V18.9288L14.1371 18.9713C14.0185 18.9947 13.8521 19.0258 13.7673 19.0404L13.6132 19.0671V18.7132C13.6132 18.4141 13.6004 18.3465 13.531 18.2771C13.4324 18.1785 13.2948 18.1716 13.1703 18.2589C13.0864 18.3176 13.0789 18.356 13.0789 18.7258V19.1288L12.8221 19.1533C12.6808 19.1668 12.4311 19.1902 12.2673 19.2054L11.9693 19.2329V18.9286C11.9693 18.5628 11.9055 18.4415 11.7134 18.4415C11.4877 18.4415 11.4351 18.532 11.4351 18.9205V19.2634H11.1949C11.0628 19.2634 10.7576 19.2754 10.5168 19.2902L10.0789 19.317V19.0025C10.0789 18.6523 10.0071 18.5237 9.81175 18.5237C9.61638 18.5237 9.54462 18.6523 9.54462 19.0025V19.317L9.1067 19.2902C8.86588 19.2754 8.56074 19.2634 8.42861 19.2634H8.18845V18.9276C8.18845 18.5384 8.13436 18.4415 7.91729 18.4415C7.71719 18.4415 7.65419 18.5582 7.65419 18.9289V19.2337L7.39734 19.2092C7.25609 19.1956 7.00705 19.1723 6.84394 19.1572L6.54735 19.1298L6.53572 18.7152C6.52454 18.3182 6.51957 18.2981 6.41847 18.2414C6.27886 18.1632 6.119 18.2069 6.05846 18.3397C6.032 18.3978 6.01034 18.5852 6.01034 18.7562V19.0671L5.85623 19.0404C5.77149 19.0258 5.60505 18.9947 5.48636 18.9713L5.27061 18.9288V18.4797C5.27061 18.0853 5.26058 18.0205 5.18841 17.9483C5.14321 17.9031 5.05999 17.8661 5.00348 17.8661C4.79594 17.8661 4.73635 17.9895 4.73635 18.4191V18.8077L4.57111 18.7494C4.4802 18.7173 4.3415 18.6606 4.26288 18.6232L4.11991 18.5554V17.7605V16.9657L4.29403 17.0271C4.38979 17.0609 4.60998 17.1247 4.78333 17.169ZM22.4049 19.8627C22.3612 19.9154 21.9545 20.0853 21.872 20.0853C21.8501 20.0853 21.8321 19.9431 21.8318 19.7668C21.8315 19.5917 21.808 19.4024 21.7796 19.3463C21.7049 19.1986 21.5372 19.1498 21.4041 19.237C21.3006 19.3048 21.2982 19.3169 21.2982 19.7734V20.2404L21.0208 20.289C20.8682 20.3157 20.6925 20.347 20.6304 20.3585L20.5173 20.3795V20.0087C20.5173 19.6721 20.5089 19.632 20.426 19.574C20.3014 19.4867 20.1638 19.4936 20.0653 19.5922C19.9948 19.6627 19.9831 19.7291 19.9831 20.0595V20.4446L19.6851 20.4711C19.5213 20.4857 19.2716 20.5087 19.1303 20.5223L18.8735 20.547V20.2163C18.8735 19.8478 18.8255 19.7566 18.6318 19.7566C18.4152 19.7566 18.368 19.8341 18.3476 20.2235L18.3289 20.5785L17.954 20.5788C17.7477 20.5789 17.4541 20.5909 17.3016 20.6053L17.0242 20.6315V20.3173C17.0242 19.9641 16.9524 19.8388 16.75 19.8388C16.5464 19.8388 16.4899 19.9384 16.4899 20.2973V20.6199L15.8837 20.5977C15.5503 20.5855 15.143 20.5653 14.9785 20.5528L14.6794 20.5302L14.6908 19.9744L14.7022 19.4186L15.0515 19.3181C15.2437 19.2629 15.5124 19.1566 15.6487 19.0819L15.8966 18.9461L17.3747 18.9228C19.6225 18.8875 21.2366 18.702 22.2023 18.3679L22.4283 18.2897L22.4395 19.0486C22.4471 19.5614 22.4359 19.8254 22.4049 19.8627ZM3.67981 20.327C4.78349 20.5634 5.92864 20.6622 7.88072 20.6894C10.6192 20.7278 12.7591 20.5343 13.8632 20.1485L14.1474 20.0492V20.8451V21.641L13.9317 21.7434C13.5128 21.9424 13.531 21.9518 13.531 21.5356C13.531 21.1045 13.4761 20.9891 13.2718 20.9901C13.0346 20.9912 13.0192 21.0227 12.9967 21.5521L12.9762 22.0358L12.6885 22.0854C12.1816 22.1729 12.2159 22.1954 12.2159 21.7753C12.2159 21.3681 12.1814 21.3045 11.9607 21.3045C11.7457 21.3045 11.6816 21.4304 11.6816 21.8524V22.2132L11.5481 22.237C11.4746 22.25 11.2249 22.2733 10.9933 22.2885L10.572 22.3163V21.9952C10.572 21.6342 10.5143 21.5237 10.3255 21.5237C10.1359 21.5237 10.0604 21.6557 10.0441 22.0156L10.0296 22.3348L9.78105 22.3608C9.64441 22.3751 9.35036 22.3867 9.12762 22.3867H8.7227L8.72208 22.1299C8.72138 21.8282 8.6597 21.6835 8.50924 21.6306C8.42717 21.6017 8.37416 21.6094 8.29435 21.6617C8.19519 21.7267 8.18845 21.752 8.18845 22.0589V22.3867H7.76298C7.52893 22.3867 7.22379 22.3748 7.08489 22.3603L6.83227 22.3339V22.0371C6.83227 21.799 6.81542 21.7188 6.74707 21.632C6.6507 21.5094 6.52355 21.4937 6.38937 21.5877C6.30775 21.6448 6.29802 21.6871 6.29802 21.984V22.3163L5.87678 22.2885C5.64508 22.2733 5.39542 22.25 5.32198 22.237L5.18841 22.2132V21.846C5.18841 21.5073 5.18032 21.4708 5.08362 21.3741C5.00233 21.2928 4.95388 21.2753 4.86786 21.296C4.69103 21.3386 4.65416 21.4254 4.65416 21.7987C4.65416 22.1919 4.68609 22.1726 4.18155 22.0854L3.89388 22.0357L3.88217 21.5664C3.87572 21.3069 3.85052 21.0731 3.82578 21.0433C3.80121 21.0137 3.71043 20.9895 3.62404 20.9895C3.39135 20.9895 3.33908 21.0891 3.33908 21.5329C3.33908 21.7312 3.33053 21.8936 3.32005 21.8936C3.30957 21.8936 3.20326 21.8551 3.08375 21.8081C2.70858 21.6606 2.72263 21.6991 2.72263 20.8212V20.0491L3.01199 20.1476C3.17116 20.2017 3.4717 20.2824 3.67981 20.327Z" fill="black"/>
<path fill-rule="evenodd" clip-rule="evenodd" d="M12.2865 2.20979C12.201 2.23124 12.0715 2.27866 11.9988 2.3152C11.8422 2.39386 8.82573 5.38419 8.74037 5.54545C8.67125 5.67606 8.66315 6.01732 8.72533 6.18183C8.78479 6.33927 8.96213 6.52182 9.12207 6.59024C9.2154 6.63019 9.44205 6.64683 9.89263 6.64683H10.5309V8.4524V10.258L10.87 10.1015C11.0564 10.0154 11.357 9.90602 11.5378 9.85847C12.1446 9.69885 13.2873 9.53118 14.2604 9.45897L14.6406 9.43078V8.03881V6.64683H15.2749C15.9519 6.64683 16.0732 6.62242 16.2587 6.449C16.4823 6.23994 16.558 5.85589 16.4326 5.56674C16.4004 5.49264 15.7004 4.7624 14.8401 3.90554C13.6539 2.72411 13.2614 2.3574 13.1136 2.29227C12.8882 2.19298 12.5055 2.15484 12.2865 2.20979ZM6.54459 5.58515C6.43602 5.61573 6.1522 5.87418 5.3867 6.63968C4.525 7.50139 4.3685 7.67638 4.34504 7.8046C4.30805 8.00696 4.35206 8.18507 4.47535 8.33158C4.60115 8.48104 4.79159 8.53673 5.17814 8.53702L5.47609 8.53726V11.7436V14.9499L5.56856 14.9291C5.77971 14.8819 6.60476 14.786 7.16104 14.744C7.48878 14.7193 7.87254 14.689 8.01379 14.6766L8.27064 14.6541V11.5957V8.53726L8.56859 8.53702C8.73248 8.53689 8.93471 8.51787 9.01802 8.49473C9.29644 8.41739 9.46699 8.10288 9.39988 7.79046C9.35702 7.59094 7.55614 5.77415 7.26378 5.63549C7.04498 5.53173 6.79623 5.5143 6.54459 5.58515ZM17.9694 5.58642C17.8657 5.61938 17.5421 5.91474 16.8115 6.64293C15.9487 7.50295 15.7933 7.67621 15.7698 7.8046C15.7328 8.00696 15.7768 8.18507 15.9001 8.33158C16.0259 8.48104 16.2164 8.53673 16.6029 8.53702L16.9009 8.53726V8.94823V9.35919L17.1372 9.36055C17.4331 9.36223 18.8086 9.42877 19.3153 9.46588L19.6954 9.49374V9.0155V8.53726L19.9934 8.53702C20.1573 8.53689 20.3595 8.51787 20.4428 8.49473C20.6244 8.4443 20.792 8.25801 20.8279 8.06667C20.8857 7.75882 20.8493 7.70815 19.8447 6.69561C19.3218 6.16872 18.8328 5.69952 18.7579 5.653C18.5964 5.55273 18.1847 5.51796 17.9694 5.58642ZM15.257 9.85428C13.5436 9.9262 11.9485 10.152 11.2233 10.4252C10.9358 10.5336 10.6586 10.7164 10.5876 10.8445C10.5454 10.9206 10.5335 11.3877 10.5322 13.0168L10.5305 15.0921L9.4314 15.1008C6.479 15.1239 4.29338 15.4695 3.76032 15.9974L3.58566 16.1704L3.58533 17.3778L3.58504 18.5853L3.24628 18.6796C2.60317 18.8586 2.26922 19.075 2.21456 19.3483C2.1694 19.574 2.18452 21.6726 2.23223 21.7984C2.36238 22.142 2.8315 22.362 3.87333 22.5681C4.92026 22.7752 6.07926 22.8744 7.83913 22.9075C10.8781 22.9646 13.6063 22.6384 14.3556 22.1284C14.6072 21.9571 14.6596 21.8435 14.6756 21.435L14.6901 21.0645L14.9428 21.0943C15.3399 21.1411 18.125 21.1286 18.8529 21.0767C20.7193 20.9437 21.9458 20.7194 22.5474 20.4012C22.9821 20.1712 22.9417 20.6771 22.9419 15.4549L22.942 10.886L22.8361 10.7602C22.2902 10.1115 18.8702 9.70263 15.257 9.85428ZM11.5583 11.8508C13.4684 12.4094 18.1444 12.5178 20.9078 12.0676C21.4919 11.9724 22.0184 11.8514 22.2267 11.7644C22.3092 11.7299 22.3929 11.7017 22.4128 11.7017C22.4326 11.7017 22.4489 12.0541 22.4489 12.4848V13.2679L22.2331 13.3644C21.8111 13.5532 21.8324 13.563 21.8324 13.1812C21.8324 12.7403 21.7644 12.6077 21.5374 12.6064C21.3317 12.6053 21.2982 12.6884 21.2982 13.199V13.663L20.9797 13.7124C20.8045 13.7396 20.6288 13.7711 20.5893 13.7825C20.5247 13.801 20.5173 13.7665 20.5173 13.444C20.5173 13.0312 20.4664 12.9346 20.2489 12.9346C20.0491 12.9346 20.0062 13.0201 19.9831 13.4646L19.9625 13.8592L19.6749 13.8857C19.5166 13.9002 19.2716 13.9216 19.1303 13.9332L18.8735 13.9542V13.6138C18.8735 13.2347 18.8357 13.1675 18.6228 13.1675C18.4225 13.1675 18.3634 13.2647 18.3455 13.6236C18.3368 13.7984 18.3087 13.955 18.2831 13.9716C18.2575 13.9882 17.9637 14.0021 17.6303 14.0025L17.0242 14.0031V13.7246C17.0242 13.3796 16.957 13.2633 16.7576 13.2633C16.5407 13.2633 16.4899 13.3458 16.4899 13.6978V14.0031L15.8632 14.0025C15.5185 14.0021 15.2142 13.9877 15.187 13.9704C15.1572 13.9514 15.1327 13.8105 15.1253 13.6157C15.1142 13.3213 15.1035 13.2852 15.0051 13.2119C14.9346 13.1594 14.8668 13.141 14.8101 13.159C14.6337 13.2149 14.5995 13.2931 14.5995 13.6394V13.9685L14.4865 13.9471C14.4243 13.9353 14.207 13.9142 14.0036 13.9001C13.453 13.8621 13.4899 13.8938 13.4899 13.459C13.4899 13.0285 13.4413 12.9346 13.2187 12.9346C13.0134 12.9346 12.9556 13.0491 12.9556 13.4561C12.9556 13.7081 12.9424 13.7911 12.9043 13.7795C12.876 13.771 12.7095 13.7413 12.5344 13.7133L12.2159 13.6627V13.2165C12.2159 12.825 12.2058 12.7601 12.1337 12.688C12.0338 12.5881 11.8587 12.5816 11.7568 12.6738C11.6941 12.7306 11.6816 12.8061 11.6816 13.1303V13.5188L11.5686 13.4918C11.5065 13.4768 11.3724 13.424 11.2707 13.3743L11.0857 13.2839L11.0746 12.4881C11.0641 11.7406 11.0678 11.6939 11.1362 11.7204C11.1763 11.7359 11.3662 11.7946 11.5583 11.8508ZM12.1466 14.1872C12.8197 14.3235 13.8386 14.4395 14.8944 14.4999C15.8326 14.5536 18.6104 14.5273 19.3461 14.4578C20.6081 14.3385 21.6123 14.1692 22.1568 13.984L22.4489 13.8847V14.6621V15.4396L22.349 15.505C22.294 15.541 22.1553 15.6061 22.0407 15.6496L21.8324 15.7288L21.8318 15.3899C21.8315 15.2007 21.8084 15.0059 21.7796 14.949C21.7049 14.8013 21.5372 14.7525 21.4041 14.8397C21.3005 14.9076 21.2982 14.9195 21.2982 15.3773V15.8456L21.103 15.8867C20.9956 15.9094 20.8199 15.9408 20.7126 15.9565L20.5173 15.985V15.6311C20.5173 15.3318 20.5046 15.2643 20.4352 15.1949C20.3252 15.0849 20.2062 15.0913 20.084 15.2136C19.992 15.3056 19.9831 15.3466 19.9831 15.6809V16.0473L19.7879 16.0717C19.6805 16.0851 19.4309 16.1085 19.2331 16.1237L18.8735 16.1514V15.8305C18.8735 15.5895 18.8566 15.4908 18.8055 15.4344C18.7362 15.3579 18.5636 15.3355 18.4754 15.3916C18.3911 15.4451 18.3392 15.6428 18.3392 15.9105V16.1687L17.9013 16.1955C17.6605 16.2102 17.3646 16.2223 17.2438 16.2223H17.0242V15.9571C17.0242 15.8112 17.0025 15.6443 16.976 15.5862C16.9155 15.4534 16.7556 15.4098 16.616 15.4879C16.5178 15.5429 16.5096 15.5707 16.4985 15.8847L16.4866 16.2223H16.2645C16.065 16.2223 16.0356 16.2106 15.9746 16.1074C15.8892 15.9628 15.6985 15.8312 15.396 15.7083C15.2439 15.6465 15.1403 15.5749 15.1047 15.5069C15.0322 15.3684 14.8637 15.3271 14.7164 15.4116C14.6116 15.4717 14.568 15.4706 14.1626 15.3975C13.9206 15.3539 13.6708 15.3182 13.6077 15.3182C13.535 15.3182 13.4767 15.2881 13.449 15.2365C13.3871 15.1207 13.2296 15.0922 13.0917 15.1717C12.9957 15.227 12.9135 15.2329 12.6063 15.2063C12.2432 15.1749 12.2362 15.1723 12.2235 15.0622C12.2061 14.9107 12.0255 14.7715 11.8889 14.8044C11.7644 14.8343 11.6816 14.932 11.6817 15.0486C11.6818 15.1277 11.6618 15.1324 11.3735 15.1197L11.0652 15.1062V14.5002V13.8943L11.3437 13.9877C11.4968 14.039 11.8581 14.1288 12.1466 14.1872ZM22.4489 16.8529C22.4489 17.689 22.4522 17.6782 22.1597 17.798C21.8132 17.9399 21.8324 17.9528 21.8324 17.5785C21.8324 17.1397 21.7641 17.005 21.5408 17.0037C21.3456 17.0026 21.3023 17.1055 21.2894 17.6004L21.2776 18.0506L21.0105 18.1003C20.8636 18.1276 20.6925 18.1508 20.6304 18.1519L20.5173 18.1538V17.818C20.5173 17.4288 20.4633 17.3319 20.2462 17.3319C20.0384 17.3319 19.9831 17.4452 19.9831 17.8708C19.9831 18.2907 20.0326 18.2578 19.3358 18.3011L18.8735 18.3299V18.0003C18.8735 17.6328 18.8343 17.5648 18.6228 17.5648C18.4208 17.5648 18.3622 17.6624 18.3456 18.0267L18.331 18.3493L18.1444 18.3748C18.0419 18.3889 17.7478 18.4004 17.491 18.4004H17.0242V18.1219C17.0242 17.7769 16.957 17.6606 16.7576 17.6606C16.5407 17.6606 16.4899 17.7431 16.4899 18.0951V18.4004H16.2639H16.0378V17.585V16.7697L17.2605 16.7433C19.5001 16.6949 21.1139 16.5149 22.079 16.2058C22.2485 16.1516 22.4011 16.1053 22.418 16.1031C22.435 16.1008 22.4489 16.4382 22.4489 16.8529ZM4.78333 17.169C6.01207 17.4827 8.13901 17.648 10.4076 17.606C12.6525 17.5645 14.3263 17.3715 15.2763 17.0447L15.5036 16.9664V17.7557C15.5036 18.6547 15.5319 18.5851 15.1065 18.7315L14.8871 18.8069V18.4005C14.8871 18.0271 14.8797 17.9889 14.7958 17.9301C14.6616 17.8361 14.5345 17.8519 14.4381 17.9744C14.3644 18.068 14.3529 18.14 14.3529 18.5058V18.9288L14.1371 18.9713C14.0185 18.9947 13.8521 19.0258 13.7673 19.0404L13.6132 19.0671V18.7132C13.6132 18.4141 13.6004 18.3465 13.531 18.2771C13.4324 18.1785 13.2948 18.1716 13.1703 18.2589C13.0864 18.3176 13.0789 18.356 13.0789 18.7258V19.1288L12.8221 19.1533C12.6808 19.1668 12.4311 19.1902 12.2673 19.2054L11.9693 19.2329V18.9286C11.9693 18.5628 11.9055 18.4415 11.7134 18.4415C11.4877 18.4415 11.4351 18.532 11.4351 18.9205V19.2634H11.1949C11.0628 19.2634 10.7576 19.2754 10.5168 19.2902L10.0789 19.317V19.0025C10.0789 18.6523 10.0071 18.5237 9.81175 18.5237C9.61638 18.5237 9.54462 18.6523 9.54462 19.0025V19.317L9.1067 19.2902C8.86588 19.2754 8.56074 19.2634 8.42861 19.2634H8.18845V18.9276C8.18845 18.5384 8.13436 18.4415 7.91729 18.4415C7.71719 18.4415 7.65419 18.5582 7.65419 18.9289V19.2337L7.39734 19.2092C7.25609 19.1956 7.00705 19.1723 6.84394 19.1572L6.54735 19.1298L6.53572 18.7152C6.52454 18.3182 6.51957 18.2981 6.41847 18.2414C6.27886 18.1632 6.119 18.2069 6.05846 18.3397C6.032 18.3978 6.01034 18.5852 6.01034 18.7562V19.0671L5.85623 19.0404C5.77149 19.0258 5.60505 18.9947 5.48636 18.9713L5.27061 18.9288V18.4797C5.27061 18.0853 5.26058 18.0205 5.18841 17.9483C5.14321 17.9031 5.05999 17.8661 5.00348 17.8661C4.79594 17.8661 4.73635 17.9895 4.73635 18.4191V18.8077L4.57111 18.7494C4.4802 18.7173 4.3415 18.6606 4.26288 18.6232L4.11991 18.5554V17.7605V16.9657L4.29403 17.0271C4.38979 17.0609 4.60998 17.1247 4.78333 17.169ZM22.4049 19.8627C22.3612 19.9154 21.9545 20.0853 21.872 20.0853C21.8501 20.0853 21.8321 19.9431 21.8318 19.7668C21.8315 19.5917 21.808 19.4024 21.7796 19.3463C21.7049 19.1986 21.5372 19.1498 21.4041 19.237C21.3006 19.3048 21.2982 19.3169 21.2982 19.7734V20.2404L21.0208 20.289C20.8682 20.3157 20.6925 20.347 20.6304 20.3585L20.5173 20.3795V20.0087C20.5173 19.6721 20.5089 19.632 20.426 19.574C20.3014 19.4867 20.1638 19.4936 20.0653 19.5922C19.9948 19.6627 19.9831 19.7291 19.9831 20.0595V20.4446L19.6851 20.4711C19.5213 20.4857 19.2716 20.5087 19.1303 20.5223L18.8735 20.547V20.2163C18.8735 19.8478 18.8255 19.7566 18.6318 19.7566C18.4152 19.7566 18.368 19.8341 18.3476 20.2235L18.3289 20.5785L17.954 20.5788C17.7477 20.5789 17.4541 20.5909 17.3016 20.6053L17.0242 20.6315V20.3173C17.0242 19.9641 16.9524 19.8388 16.75 19.8388C16.5464 19.8388 16.4899 19.9384 16.4899 20.2973V20.6199L15.8837 20.5977C15.5503 20.5855 15.143 20.5653 14.9785 20.5528L14.6794 20.5302L14.6908 19.9744L14.7022 19.4186L15.0515 19.3181C15.2437 19.2629 15.5124 19.1566 15.6487 19.0819L15.8966 18.9461L17.3747 18.9228C19.6225 18.8875 21.2366 18.702 22.2023 18.3679L22.4283 18.2897L22.4395 19.0486C22.4471 19.5614 22.4359 19.8254 22.4049 19.8627ZM3.67981 20.327C4.78349 20.5634 5.92864 20.6622 7.88072 20.6894C10.6192 20.7278 12.7591 20.5343 13.8632 20.1485L14.1474 20.0492V20.8451V21.641L13.9317 21.7434C13.5128 21.9424 13.531 21.9518 13.531 21.5356C13.531 21.1045 13.4761 20.9891 13.2718 20.9901C13.0346 20.9912 13.0192 21.0227 12.9967 21.5521L12.9762 22.0358L12.6885 22.0854C12.1816 22.1729 12.2159 22.1954 12.2159 21.7753C12.2159 21.3681 12.1814 21.3045 11.9607 21.3045C11.7457 21.3045 11.6816 21.4304 11.6816 21.8524V22.2132L11.5481 22.237C11.4746 22.25 11.2249 22.2733 10.9933 22.2885L10.572 22.3163V21.9952C10.572 21.6342 10.5143 21.5237 10.3255 21.5237C10.1359 21.5237 10.0604 21.6557 10.0441 22.0156L10.0296 22.3348L9.78105 22.3608C9.64441 22.3751 9.35036 22.3867 9.12762 22.3867H8.7227L8.72208 22.1299C8.72138 21.8282 8.6597 21.6835 8.50924 21.6306C8.42717 21.6017 8.37416 21.6094 8.29435 21.6617C8.19519 21.7267 8.18845 21.752 8.18845 22.0589V22.3867H7.76298C7.52893 22.3867 7.22379 22.3748 7.08489 22.3603L6.83227 22.3339V22.0371C6.83227 21.799 6.81542 21.7188 6.74707 21.632C6.6507 21.5094 6.52355 21.4937 6.38937 21.5877C6.30775 21.6448 6.29802 21.6871 6.29802 21.984V22.3163L5.87678 22.2885C5.64508 22.2733 5.39542 22.25 5.32198 22.237L5.18841 22.2132V21.846C5.18841 21.5073 5.18032 21.4708 5.08362 21.3741C5.00233 21.2928 4.95388 21.2753 4.86786 21.296C4.69103 21.3386 4.65416 21.4254 4.65416 21.7987C4.65416 22.1919 4.68609 22.1726 4.18155 22.0854L3.89388 22.0357L3.88217 21.5664C3.87572 21.3069 3.85052 21.0731 3.82578 21.0433C3.80121 21.0137 3.71043 20.9895 3.62404 20.9895C3.39135 20.9895 3.33908 21.0891 3.33908 21.5329C3.33908 21.7312 3.33053 21.8936 3.32005 21.8936C3.30957 21.8936 3.20326 21.8551 3.08375 21.8081C2.70858 21.6606 2.72263 21.6991 2.72263 20.8212V20.0491L3.01199 20.1476C3.17116 20.2017 3.4717 20.2824 3.67981 20.327Z" fill="black"/>
<path fill-rule="evenodd" clip-rule="evenodd" d="M12.2865 2.20979C12.201 2.23124 12.0715 2.27866 11.9988 2.3152C11.8422 2.39386 8.82573 5.38419 8.74037 5.54545C8.67125 5.67606 8.66315 6.01732 8.72533 6.18183C8.78479 6.33927 8.96213 6.52182 9.12207 6.59024C9.2154 6.63019 9.44205 6.64683 9.89263 6.64683H10.5309V8.4524V10.258L10.87 10.1015C11.0564 10.0154 11.357 9.90602 11.5378 9.85847C12.1446 9.69885 13.2873 9.53118 14.2604 9.45897L14.6406 9.43078V8.03881V6.64683H15.2749C15.9519 6.64683 16.0732 6.62242 16.2587 6.449C16.4823 6.23994 16.558 5.85589 16.4326 5.56674C16.4004 5.49264 15.7004 4.7624 14.8401 3.90554C13.6539 2.72411 13.2614 2.3574 13.1136 2.29227C12.8882 2.19298 12.5055 2.15484 12.2865 2.20979ZM6.54459 5.58515C6.43602 5.61573 6.1522 5.87418 5.3867 6.63968C4.525 7.50139 4.3685 7.67638 4.34504 7.8046C4.30805 8.00696 4.35206 8.18507 4.47535 8.33158C4.60115 8.48104 4.79159 8.53673 5.17814 8.53702L5.47609 8.53726V11.7436V14.9499L5.56856 14.9291C5.77971 14.8819 6.60476 14.786 7.16104 14.744C7.48878 14.7193 7.87254 14.689 8.01379 14.6766L8.27064 14.6541V11.5957V8.53726L8.56859 8.53702C8.73248 8.53689 8.93471 8.51787 9.01802 8.49473C9.29644 8.41739 9.46699 8.10288 9.39988 7.79046C9.35702 7.59094 7.55614 5.77415 7.26378 5.63549C7.04498 5.53173 6.79623 5.5143 6.54459 5.58515ZM17.9694 5.58642C17.8657 5.61938 17.5421 5.91474 16.8115 6.64293C15.9487 7.50295 15.7933 7.67621 15.7698 7.8046C15.7328 8.00696 15.7768 8.18507 15.9001 8.33158C16.0259 8.48104 16.2164 8.53673 16.6029 8.53702L16.9009 8.53726V8.94823V9.35919L17.1372 9.36055C17.4331 9.36223 18.8086 9.42877 19.3153 9.46588L19.6954 9.49374V9.0155V8.53726L19.9934 8.53702C20.1573 8.53689 20.3595 8.51787 20.4428 8.49473C20.6244 8.4443 20.792 8.25801 20.8279 8.06667C20.8857 7.75882 20.8493 7.70815 19.8447 6.69561C19.3218 6.16872 18.8328 5.69952 18.7579 5.653C18.5964 5.55273 18.1847 5.51796 17.9694 5.58642ZM15.257 9.85428C13.5436 9.9262 11.9485 10.152 11.2233 10.4252C10.9358 10.5336 10.6586 10.7164 10.5876 10.8445C10.5454 10.9206 10.5335 11.3877 10.5322 13.0168L10.5305 15.0921L9.4314 15.1008C6.479 15.1239 4.29338 15.4695 3.76032 15.9974L3.58566 16.1704L3.58533 17.3778L3.58504 18.5853L3.24628 18.6796C2.60317 18.8586 2.26922 19.075 2.21456 19.3483C2.1694 19.574 2.18452 21.6726 2.23223 21.7984C2.36238 22.142 2.8315 22.362 3.87333 22.5681C4.92026 22.7752 6.07926 22.8744 7.83913 22.9075C10.8781 22.9646 13.6063 22.6384 14.3556 22.1284C14.6072 21.9571 14.6596 21.8435 14.6756 21.435L14.6901 21.0645L14.9428 21.0943C15.3399 21.1411 18.125 21.1286 18.8529 21.0767C20.7193 20.9437 21.9458 20.7194 22.5474 20.4012C22.9821 20.1712 22.9417 20.6771 22.9419 15.4549L22.942 10.886L22.8361 10.7602C22.2902 10.1115 18.8702 9.70263 15.257 9.85428ZM11.5583 11.8508C13.4684 12.4094 18.1444 12.5178 20.9078 12.0676C21.4919 11.9724 22.0184 11.8514 22.2267 11.7644C22.3092 11.7299 22.3929 11.7017 22.4128 11.7017C22.4326 11.7017 22.4489 12.0541 22.4489 12.4848V13.2679L22.2331 13.3644C21.8111 13.5532 21.8324 13.563 21.8324 13.1812C21.8324 12.7403 21.7644 12.6077 21.5374 12.6064C21.3317 12.6053 21.2982 12.6884 21.2982 13.199V13.663L20.9797 13.7124C20.8045 13.7396 20.6288 13.7711 20.5893 13.7825C20.5247 13.801 20.5173 13.7665 20.5173 13.444C20.5173 13.0312 20.4664 12.9346 20.2489 12.9346C20.0491 12.9346 20.0062 13.0201 19.9831 13.4646L19.9625 13.8592L19.6749 13.8857C19.5166 13.9002 19.2716 13.9216 19.1303 13.9332L18.8735 13.9542V13.6138C18.8735 13.2347 18.8357 13.1675 18.6228 13.1675C18.4225 13.1675 18.3634 13.2647 18.3455 13.6236C18.3368 13.7984 18.3087 13.955 18.2831 13.9716C18.2575 13.9882 17.9637 14.0021 17.6303 14.0025L17.0242 14.0031V13.7246C17.0242 13.3796 16.957 13.2633 16.7576 13.2633C16.5407 13.2633 16.4899 13.3458 16.4899 13.6978V14.0031L15.8632 14.0025C15.5185 14.0021 15.2142 13.9877 15.187 13.9704C15.1572 13.9514 15.1327 13.8105 15.1253 13.6157C15.1142 13.3213 15.1035 13.2852 15.0051 13.2119C14.9346 13.1594 14.8668 13.141 14.8101 13.159C14.6337 13.2149 14.5995 13.2931 14.5995 13.6394V13.9685L14.4865 13.9471C14.4243 13.9353 14.207 13.9142 14.0036 13.9001C13.453 13.8621 13.4899 13.8938 13.4899 13.459C13.4899 13.0285 13.4413 12.9346 13.2187 12.9346C13.0134 12.9346 12.9556 13.0491 12.9556 13.4561C12.9556 13.7081 12.9424 13.7911 12.9043 13.7795C12.876 13.771 12.7095 13.7413 12.5344 13.7133L12.2159 13.6627V13.2165C12.2159 12.825 12.2058 12.7601 12.1337 12.688C12.0338 12.5881 11.8587 12.5816 11.7568 12.6738C11.6941 12.7306 11.6816 12.8061 11.6816 13.1303V13.5188L11.5686 13.4918C11.5065 13.4768 11.3724 13.424 11.2707 13.3743L11.0857 13.2839L11.0746 12.4881C11.0641 11.7406 11.0678 11.6939 11.1362 11.7204C11.1763 11.7359 11.3662 11.7946 11.5583 11.8508ZM12.1466 14.1872C12.8197 14.3235 13.8386 14.4395 14.8944 14.4999C15.8326 14.5536 18.6104 14.5273 19.3461 14.4578C20.6081 14.3385 21.6123 14.1692 22.1568 13.984L22.4489 13.8847V14.6621V15.4396L22.349 15.505C22.294 15.541 22.1553 15.6061 22.0407 15.6496L21.8324 15.7288L21.8318 15.3899C21.8315 15.2007 21.8084 15.0059 21.7796 14.949C21.7049 14.8013 21.5372 14.7525 21.4041 14.8397C21.3005 14.9076 21.2982 14.9195 21.2982 15.3773V15.8456L21.103 15.8867C20.9956 15.9094 20.8199 15.9408 20.7126 15.9565L20.5173 15.985V15.6311C20.5173 15.3318 20.5046 15.2643 20.4352 15.1949C20.3252 15.0849 20.2062 15.0913 20.084 15.2136C19.992 15.3056 19.9831 15.3466 19.9831 15.6809V16.0473L19.7879 16.0717C19.6805 16.0851 19.4309 16.1085 19.2331 16.1237L18.8735 16.1514V15.8305C18.8735 15.5895 18.8566 15.4908 18.8055 15.4344C18.7362 15.3579 18.5636 15.3355 18.4754 15.3916C18.3911 15.4451 18.3392 15.6428 18.3392 15.9105V16.1687L17.9013 16.1955C17.6605 16.2102 17.3646 16.2223 17.2438 16.2223H17.0242V15.9571C17.0242 15.8112 17.0025 15.6443 16.976 15.5862C16.9155 15.4534 16.7556 15.4098 16.616 15.4879C16.5178 15.5429 16.5096 15.5707 16.4985 15.8847L16.4866 16.2223H16.2645C16.065 16.2223 16.0356 16.2106 15.9746 16.1074C15.8892 15.9628 15.6985 15.8312 15.396 15.7083C15.2439 15.6465 15.1403 15.5749 15.1047 15.5069C15.0322 15.3684 14.8637 15.3271 14.7164 15.4116C14.6116 15.4717 14.568 15.4706 14.1626 15.3975C13.9206 15.3539 13.6708 15.3182 13.6077 15.3182C13.535 15.3182 13.4767 15.2881 13.449 15.2365C13.3871 15.1207 13.2296 15.0922 13.0917 15.1717C12.9957 15.227 12.9135 15.2329 12.6063 15.2063C12.2432 15.1749 12.2362 15.1723 12.2235 15.0622C12.2061 14.9107 12.0255 14.7715 11.8889 14.8044C11.7644 14.8343 11.6816 14.932 11.6817 15.0486C11.6818 15.1277 11.6618 15.1324 11.3735 15.1197L11.0652 15.1062V14.5002V13.8943L11.3437 13.9877C11.4968 14.039 11.8581 14.1288 12.1466 14.1872ZM22.4489 16.8529C22.4489 17.689 22.4522 17.6782 22.1597 17.798C21.8132 17.9399 21.8324 17.9528 21.8324 17.5785C21.8324 17.1397 21.7641 17.005 21.5408 17.0037C21.3456 17.0026 21.3023 17.1055 21.2894 17.6004L21.2776 18.0506L21.0105 18.1003C20.8636 18.1276 20.6925 18.1508 20.6304 18.1519L20.5173 18.1538V17.818C20.5173 17.4288 20.4633 17.3319 20.2462 17.3319C20.0384 17.3319 19.9831 17.4452 19.9831 17.8708C19.9831 18.2907 20.0326 18.2578 19.3358 18.3011L18.8735 18.3299V18.0003C18.8735 17.6328 18.8343 17.5648 18.6228 17.5648C18.4208 17.5648 18.3622 17.6624 18.3456 18.0267L18.331 18.3493L18.1444 18.3748C18.0419 18.3889 17.7478 18.4004 17.491 18.4004H17.0242V18.1219C17.0242 17.7769 16.957 17.6606 16.7576 17.6606C16.5407 17.6606 16.4899 17.7431 16.4899 18.0951V18.4004H16.2639H16.0378V17.585V16.7697L17.2605 16.7433C19.5001 16.6949 21.1139 16.5149 22.079 16.2058C22.2485 16.1516 22.4011 16.1053 22.418 16.1031C22.435 16.1008 22.4489 16.4382 22.4489 16.8529ZM4.78333 17.169C6.01207 17.4827 8.13901 17.648 10.4076 17.606C12.6525 17.5645 14.3263 17.3715 15.2763 17.0447L15.5036 16.9664V17.7557C15.5036 18.6547 15.5319 18.5851 15.1065 18.7315L14.8871 18.8069V18.4005C14.8871 18.0271 14.8797 17.9889 14.7958 17.9301C14.6616 17.8361 14.5345 17.8519 14.4381 17.9744C14.3644 18.068 14.3529 18.14 14.3529 18.5058V18.9288L14.1371 18.9713C14.0185 18.9947 13.8521 19.0258 13.7673 19.0404L13.6132 19.0671V18.7132C13.6132 18.4141 13.6004 18.3465 13.531 18.2771C13.4324 18.1785 13.2948 18.1716 13.1703 18.2589C13.0864 18.3176 13.0789 18.356 13.0789 18.7258V19.1288L12.8221 19.1533C12.6808 19.1668 12.4311 19.1902 12.2673 19.2054L11.9693 19.2329V18.9286C11.9693 18.5628 11.9055 18.4415 11.7134 18.4415C11.4877 18.4415 11.4351 18.532 11.4351 18.9205V19.2634H11.1949C11.0628 19.2634 10.7576 19.2754 10.5168 19.2902L10.0789 19.317V19.0025C10.0789 18.6523 10.0071 18.5237 9.81175 18.5237C9.61638 18.5237 9.54462 18.6523 9.54462 19.0025V19.317L9.1067 19.2902C8.86588 19.2754 8.56074 19.2634 8.42861 19.2634H8.18845V18.9276C8.18845 18.5384 8.13436 18.4415 7.91729 18.4415C7.71719 18.4415 7.65419 18.5582 7.65419 18.9289V19.2337L7.39734 19.2092C7.25609 19.1956 7.00705 19.1723 6.84394 19.1572L6.54735 19.1298L6.53572 18.7152C6.52454 18.3182 6.51957 18.2981 6.41847 18.2414C6.27886 18.1632 6.119 18.2069 6.05846 18.3397C6.032 18.3978 6.01034 18.5852 6.01034 18.7562V19.0671L5.85623 19.0404C5.77149 19.0258 5.60505 18.9947 5.48636 18.9713L5.27061 18.9288V18.4797C5.27061 18.0853 5.26058 18.0205 5.18841 17.9483C5.14321 17.9031 5.05999 17.8661 5.00348 17.8661C4.79594 17.8661 4.73635 17.9895 4.73635 18.4191V18.8077L4.57111 18.7494C4.4802 18.7173 4.3415 18.6606 4.26288 18.6232L4.11991 18.5554V17.7605V16.9657L4.29403 17.0271C4.38979 17.0609 4.60998 17.1247 4.78333 17.169ZM22.4049 19.8627C22.3612 19.9154 21.9545 20.0853 21.872 20.0853C21.8501 20.0853 21.8321 19.9431 21.8318 19.7668C21.8315 19.5917 21.808 19.4024 21.7796 19.3463C21.7049 19.1986 21.5372 19.1498 21.4041 19.237C21.3006 19.3048 21.2982 19.3169 21.2982 19.7734V20.2404L21.0208 20.289C20.8682 20.3157 20.6925 20.347 20.6304 20.3585L20.5173 20.3795V20.0087C20.5173 19.6721 20.5089 19.632 20.426 19.574C20.3014 19.4867 20.1638 19.4936 20.0653 19.5922C19.9948 19.6627 19.9831 19.7291 19.9831 20.0595V20.4446L19.6851 20.4711C19.5213 20.4857 19.2716 20.5087 19.1303 20.5223L18.8735 20.547V20.2163C18.8735 19.8478 18.8255 19.7566 18.6318 19.7566C18.4152 19.7566 18.368 19.8341 18.3476 20.2235L18.3289 20.5785L17.954 20.5788C17.7477 20.5789 17.4541 20.5909 17.3016 20.6053L17.0242 20.6315V20.3173C17.0242 19.9641 16.9524 19.8388 16.75 19.8388C16.5464 19.8388 16.4899 19.9384 16.4899 20.2973V20.6199L15.8837 20.5977C15.5503 20.5855 15.143 20.5653 14.9785 20.5528L14.6794 20.5302L14.6908 19.9744L14.7022 19.4186L15.0515 19.3181C15.2437 19.2629 15.5124 19.1566 15.6487 19.0819L15.8966 18.9461L17.3747 18.9228C19.6225 18.8875 21.2366 18.702 22.2023 18.3679L22.4283 18.2897L22.4395 19.0486C22.4471 19.5614 22.4359 19.8254 22.4049 19.8627ZM3.67981 20.327C4.78349 20.5634 5.92864 20.6622 7.88072 20.6894C10.6192 20.7278 12.7591 20.5343 13.8632 20.1485L14.1474 20.0492V20.8451V21.641L13.9317 21.7434C13.5128 21.9424 13.531 21.9518 13.531 21.5356C13.531 21.1045 13.4761 20.9891 13.2718 20.9901C13.0346 20.9912 13.0192 21.0227 12.9967 21.5521L12.9762 22.0358L12.6885 22.0854C12.1816 22.1729 12.2159 22.1954 12.2159 21.7753C12.2159 21.3681 12.1814 21.3045 11.9607 21.3045C11.7457 21.3045 11.6816 21.4304 11.6816 21.8524V22.2132L11.5481 22.237C11.4746 22.25 11.2249 22.2733 10.9933 22.2885L10.572 22.3163V21.9952C10.572 21.6342 10.5143 21.5237 10.3255 21.5237C10.1359 21.5237 10.0604 21.6557 10.0441 22.0156L10.0296 22.3348L9.78105 22.3608C9.64441 22.3751 9.35036 22.3867 9.12762 22.3867H8.7227L8.72208 22.1299C8.72138 21.8282 8.6597 21.6835 8.50924 21.6306C8.42717 21.6017 8.37416 21.6094 8.29435 21.6617C8.19519 21.7267 8.18845 21.752 8.18845 22.0589V22.3867H7.76298C7.52893 22.3867 7.22379 22.3748 7.08489 22.3603L6.83227 22.3339V22.0371C6.83227 21.799 6.81542 21.7188 6.74707 21.632C6.6507 21.5094 6.52355 21.4937 6.38937 21.5877C6.30775 21.6448 6.29802 21.6871 6.29802 21.984V22.3163L5.87678 22.2885C5.64508 22.2733 5.39542 22.25 5.32198 22.237L5.18841 22.2132V21.846C5.18841 21.5073 5.18032 21.4708 5.08362 21.3741C5.00233 21.2928 4.95388 21.2753 4.86786 21.296C4.69103 21.3386 4.65416 21.4254 4.65416 21.7987C4.65416 22.1919 4.68609 22.1726 4.18155 22.0854L3.89388 22.0357L3.88217 21.5664C3.87572 21.3069 3.85052 21.0731 3.82578 21.0433C3.80121 21.0137 3.71043 20.9895 3.62404 20.9895C3.39135 20.9895 3.33908 21.0891 3.33908 21.5329C3.33908 21.7312 3.33053 21.8936 3.32005 21.8936C3.30957 21.8936 3.20326 21.8551 3.08375 21.8081C2.70858 21.6606 2.72263 21.6991 2.72263 20.8212V20.0491L3.01199 20.1476C3.17116 20.2017 3.4717 20.2824 3.67981 20.327Z" fill="black"/>
<path fill-rule="evenodd" clip-rule="evenodd" d="M12.2865 2.20979C12.201 2.23124 12.0715 2.27866 11.9988 2.3152C11.8422 2.39386 8.82573 5.38419 8.74037 5.54545C8.67125 5.67606 8.66315 6.01732 8.72533 6.18183C8.78479 6.33927 8.96213 6.52182 9.12207 6.59024C9.2154 6.63019 9.44205 6.64683 9.89263 6.64683H10.5309V8.4524V10.258L10.87 10.1015C11.0564 10.0154 11.357 9.90602 11.5378 9.85847C12.1446 9.69885 13.2873 9.53118 14.2604 9.45897L14.6406 9.43078V8.03881V6.64683H15.2749C15.9519 6.64683 16.0732 6.62242 16.2587 6.449C16.4823 6.23994 16.558 5.85589 16.4326 5.56674C16.4004 5.49264 15.7004 4.7624 14.8401 3.90554C13.6539 2.72411 13.2614 2.3574 13.1136 2.29227C12.8882 2.19298 12.5055 2.15484 12.2865 2.20979ZM6.54459 5.58515C6.43602 5.61573 6.1522 5.87418 5.3867 6.63968C4.525 7.50139 4.3685 7.67638 4.34504 7.8046C4.30805 8.00696 4.35206 8.18507 4.47535 8.33158C4.60115 8.48104 4.79159 8.53673 5.17814 8.53702L5.47609 8.53726V11.7436V14.9499L5.56856 14.9291C5.77971 14.8819 6.60476 14.786 7.16104 14.744C7.48878 14.7193 7.87254 14.689 8.01379 14.6766L8.27064 14.6541V11.5957V8.53726L8.56859 8.53702C8.73248 8.53689 8.93471 8.51787 9.01802 8.49473C9.29644 8.41739 9.46699 8.10288 9.39988 7.79046C9.35702 7.59094 7.55614 5.77415 7.26378 5.63549C7.04498 5.53173 6.79623 5.5143 6.54459 5.58515ZM17.9694 5.58642C17.8657 5.61938 17.5421 5.91474 16.8115 6.64293C15.9487 7.50295 15.7933 7.67621 15.7698 7.8046C15.7328 8.00696 15.7768 8.18507 15.9001 8.33158C16.0259 8.48104 16.2164 8.53673 16.6029 8.53702L16.9009 8.53726V8.94823V9.35919L17.1372 9.36055C17.4331 9.36223 18.8086 9.42877 19.3153 9.46588L19.6954 9.49374V9.0155V8.53726L19.9934 8.53702C20.1573 8.53689 20.3595 8.51787 20.4428 8.49473C20.6244 8.4443 20.792 8.25801 20.8279 8.06667C20.8857 7.75882 20.8493 7.70815 19.8447 6.69561C19.3218 6.16872 18.8328 5.69952 18.7579 5.653C18.5964 5.55273 18.1847 5.51796 17.9694 5.58642ZM15.257 9.85428C13.5436 9.9262 11.9485 10.152 11.2233 10.4252C10.9358 10.5336 10.6586 10.7164 10.5876 10.8445C10.5454 10.9206 10.5335 11.3877 10.5322 13.0168L10.5305 15.0921L9.4314 15.1008C6.479 15.1239 4.29338 15.4695 3.76032 15.9974L3.58566 16.1704L3.58533 17.3778L3.58504 18.5853L3.24628 18.6796C2.60317 18.8586 2.26922 19.075 2.21456 19.3483C2.1694 19.574 2.18452 21.6726 2.23223 21.7984C2.36238 22.142 2.8315 22.362 3.87333 22.5681C4.92026 22.7752 6.07926 22.8744 7.83913 22.9075C10.8781 22.9646 13.6063 22.6384 14.3556 22.1284C14.6072 21.9571 14.6596 21.8435 14.6756 21.435L14.6901 21.0645L14.9428 21.0943C15.3399 21.1411 18.125 21.1286 18.8529 21.0767C20.7193 20.9437 21.9458 20.7194 22.5474 20.4012C22.9821 20.1712 22.9417 20.6771 22.9419 15.4549L22.942 10.886L22.8361 10.7602C22.2902 10.1115 18.8702 9.70263 15.257 9.85428ZM11.5583 11.8508C13.4684 12.4094 18.1444 12.5178 20.9078 12.0676C21.4919 11.9724 22.0184 11.8514 22.2267 11.7644C22.3092 11.7299 22.3929 11.7017 22.4128 11.7017C22.4326 11.7017 22.4489 12.0541 22.4489 12.4848V13.2679L22.2331 13.3644C21.8111 13.5532 21.8324 13.563 21.8324 13.1812C21.8324 12.7403 21.7644 12.6077 21.5374 12.6064C21.3317 12.6053 21.2982 12.6884 21.2982 13.199V13.663L20.9797 13.7124C20.8045 13.7396 20.6288 13.7711 20.5893 13.7825C20.5247 13.801 20.5173 13.7665 20.5173 13.444C20.5173 13.0312 20.4664 12.9346 20.2489 12.9346C20.0491 12.9346 20.0062 13.0201 19.9831 13.4646L19.9625 13.8592L19.6749 13.8857C19.5166 13.9002 19.2716 13.9216 19.1303 13.9332L18.8735 13.9542V13.6138C18.8735 13.2347 18.8357 13.1675 18.6228 13.1675C18.4225 13.1675 18.3634 13.2647 18.3455 13.6236C18.3368 13.7984 18.3087 13.955 18.2831 13.9716C18.2575 13.9882 17.9637 14.0021 17.6303 14.0025L17.0242 14.0031V13.7246C17.0242 13.3796 16.957 13.2633 16.7576 13.2633C16.5407 13.2633 16.4899 13.3458 16.4899 13.6978V14.0031L15.8632 14.0025C15.5185 14.0021 15.2142 13.9877 15.187 13.9704C15.1572 13.9514 15.1327 13.8105 15.1253 13.6157C15.1142 13.3213 15.1035 13.2852 15.0051 13.2119C14.9346 13.1594 14.8668 13.141 14.8101 13.159C14.6337 13.2149 14.5995 13.2931 14.5995 13.6394V13.9685L14.4865 13.9471C14.4243 13.9353 14.207 13.9142 14.0036 13.9001C13.453 13.8621 13.4899 13.8938 13.4899 13.459C13.4899 13.0285 13.4413 12.9346 13.2187 12.9346C13.0134 12.9346 12.9556 13.0491 12.9556 13.4561C12.9556 13.7081 12.9424 13.7911 12.9043 13.7795C12.876 13.771 12.7095 13.7413 12.5344 13.7133L12.2159 13.6627V13.2165C12.2159 12.825 12.2058 12.7601 12.1337 12.688C12.0338 12.5881 11.8587 12.5816 11.7568 12.6738C11.6941 12.7306 11.6816 12.8061 11.6816 13.1303V13.5188L11.5686 13.4918C11.5065 13.4768 11.3724 13.424 11.2707 13.3743L11.0857 13.2839L11.0746 12.4881C11.0641 11.7406 11.0678 11.6939 11.1362 11.7204C11.1763 11.7359 11.3662 11.7946 11.5583 11.8508ZM12.1466 14.1872C12.8197 14.3235 13.8386 14.4395 14.8944 14.4999C15.8326 14.5536 18.6104 14.5273 19.3461 14.4578C20.6081 14.3385 21.6123 14.1692 22.1568 13.984L22.4489 13.8847V14.6621V15.4396L22.349 15.505C22.294 15.541 22.1553 15.6061 22.0407 15.6496L21.8324 15.7288L21.8318 15.3899C21.8315 15.2007 21.8084 15.0059 21.7796 14.949C21.7049 14.8013 21.5372 14.7525 21.4041 14.8397C21.3005 14.9076 21.2982 14.9195 21.2982 15.3773V15.8456L21.103 15.8867C20.9956 15.9094 20.8199 15.9408 20.7126 15.9565L20.5173 15.985V15.6311C20.5173 15.3318 20.5046 15.2643 20.4352 15.1949C20.3252 15.0849 20.2062 15.0913 20.084 15.2136C19.992 15.3056 19.9831 15.3466 19.9831 15.6809V16.0473L19.7879 16.0717C19.6805 16.0851 19.4309 16.1085 19.2331 16.1237L18.8735 16.1514V15.8305C18.8735 15.5895 18.8566 15.4908 18.8055 15.4344C18.7362 15.3579 18.5636 15.3355 18.4754 15.3916C18.3911 15.4451 18.3392 15.6428 18.3392 15.9105V16.1687L17.9013 16.1955C17.6605 16.2102 17.3646 16.2223 17.2438 16.2223H17.0242V15.9571C17.0242 15.8112 17.0025 15.6443 16.976 15.5862C16.9155 15.4534 16.7556 15.4098 16.616 15.4879C16.5178 15.5429 16.5096 15.5707 16.4985 15.8847L16.4866 16.2223H16.2645C16.065 16.2223 16.0356 16.2106 15.9746 16.1074C15.8892 15.9628 15.6985 15.8312 15.396 15.7083C15.2439 15.6465 15.1403 15.5749 15.1047 15.5069C15.0322 15.3684 14.8637 15.3271 14.7164 15.4116C14.6116 15.4717 14.568 15.4706 14.1626 15.3975C13.9206 15.3539 13.6708 15.3182 13.6077 15.3182C13.535 15.3182 13.4767 15.2881 13.449 15.2365C13.3871 15.1207 13.2296 15.0922 13.0917 15.1717C12.9957 15.227 12.9135 15.2329 12.6063 15.2063C12.2432 15.1749 12.2362 15.1723 12.2235 15.0622C12.2061 14.9107 12.0255 14.7715 11.8889 14.8044C11.7644 14.8343 11.6816 14.932 11.6817 15.0486C11.6818 15.1277 11.6618 15.1324 11.3735 15.1197L11.0652 15.1062V14.5002V13.8943L11.3437 13.9877C11.4968 14.039 11.8581 14.1288 12.1466 14.1872ZM22.4489 16.8529C22.4489 17.689 22.4522 17.6782 22.1597 17.798C21.8132 17.9399 21.8324 17.9528 21.8324 17.5785C21.8324 17.1397 21.7641 17.005 21.5408 17.0037C21.3456 17.0026 21.3023 17.1055 21.2894 17.6004L21.2776 18.0506L21.0105 18.1003C20.8636 18.1276 20.6925 18.1508 20.6304 18.1519L20.5173 18.1538V17.818C20.5173 17.4288 20.4633 17.3319 20.2462 17.3319C20.0384 17.3319 19.9831 17.4452 19.9831 17.8708C19.9831 18.2907 20.0326 18.2578 19.3358 18.3011L18.8735 18.3299V18.0003C18.8735 17.6328 18.8343 17.5648 18.6228 17.5648C18.4208 17.5648 18.3622 17.6624 18.3456 18.0267L18.331 18.3493L18.1444 18.3748C18.0419 18.3889 17.7478 18.4004 17.491 18.4004H17.0242V18.1219C17.0242 17.7769 16.957 17.6606 16.7576 17.6606C16.5407 17.6606 16.4899 17.7431 16.4899 18.0951V18.4004H16.2639H16.0378V17.585V16.7697L17.2605 16.7433C19.5001 16.6949 21.1139 16.5149 22.079 16.2058C22.2485 16.1516 22.4011 16.1053 22.418 16.1031C22.435 16.1008 22.4489 16.4382 22.4489 16.8529ZM4.78333 17.169C6.01207 17.4827 8.13901 17.648 10.4076 17.606C12.6525 17.5645 14.3263 17.3715 15.2763 17.0447L15.5036 16.9664V17.7557C15.5036 18.6547 15.5319 18.5851 15.1065 18.7315L14.8871 18.8069V18.4005C14.8871 18.0271 14.8797 17.9889 14.7958 17.9301C14.6616 17.8361 14.5345 17.8519 14.4381 17.9744C14.3644 18.068 14.3529 18.14 14.3529 18.5058V18.9288L14.1371 18.9713C14.0185 18.9947 13.8521 19.0258 13.7673 19.0404L13.6132 19.0671V18.7132C13.6132 18.4141 13.6004 18.3465 13.531 18.2771C13.4324 18.1785 13.2948 18.1716 13.1703 18.2589C13.0864 18.3176 13.0789 18.356 13.0789 18.7258V19.1288L12.8221 19.1533C12.6808 19.1668 12.4311 19.1902 12.2673 19.2054L11.9693 19.2329V18.9286C11.9693 18.5628 11.9055 18.4415 11.7134 18.4415C11.4877 18.4415 11.4351 18.532 11.4351 18.9205V19.2634H11.1949C11.0628 19.2634 10.7576 19.2754 10.5168 19.2902L10.0789 19.317V19.0025C10.0789 18.6523 10.0071 18.5237 9.81175 18.5237C9.61638 18.5237 9.54462 18.6523 9.54462 19.0025V19.317L9.1067 19.2902C8.86588 19.2754 8.56074 19.2634 8.42861 19.2634H8.18845V18.9276C8.18845 18.5384 8.13436 18.4415 7.91729 18.4415C7.71719 18.4415 7.65419 18.5582 7.65419 18.9289V19.2337L7.39734 19.2092C7.25609 19.1956 7.00705 19.1723 6.84394 19.1572L6.54735 19.1298L6.53572 18.7152C6.52454 18.3182 6.51957 18.2981 6.41847 18.2414C6.27886 18.1632 6.119 18.2069 6.05846 18.3397C6.032 18.3978 6.01034 18.5852 6.01034 18.7562V19.0671L5.85623 19.0404C5.77149 19.0258 5.60505 18.9947 5.48636 18.9713L5.27061 18.9288V18.4797C5.27061 18.0853 5.26058 18.0205 5.18841 17.9483C5.14321 17.9031 5.05999 17.8661 5.00348 17.8661C4.79594 17.8661 4.73635 17.9895 4.73635 18.4191V18.8077L4.57111 18.7494C4.4802 18.7173 4.3415 18.6606 4.26288 18.6232L4.11991 18.5554V17.7605V16.9657L4.29403 17.0271C4.38979 17.0609 4.60998 17.1247 4.78333 17.169ZM22.4049 19.8627C22.3612 19.9154 21.9545 20.0853 21.872 20.0853C21.8501 20.0853 21.8321 19.9431 21.8318 19.7668C21.8315 19.5917 21.808 19.4024 21.7796 19.3463C21.7049 19.1986 21.5372 19.1498 21.4041 19.237C21.3006 19.3048 21.2982 19.3169 21.2982 19.7734V20.2404L21.0208 20.289C20.8682 20.3157 20.6925 20.347 20.6304 20.3585L20.5173 20.3795V20.0087C20.5173 19.6721 20.5089 19.632 20.426 19.574C20.3014 19.4867 20.1638 19.4936 20.0653 19.5922C19.9948 19.6627 19.9831 19.7291 19.9831 20.0595V20.4446L19.6851 20.4711C19.5213 20.4857 19.2716 20.5087 19.1303 20.5223L18.8735 20.547V20.2163C18.8735 19.8478 18.8255 19.7566 18.6318 19.7566C18.4152 19.7566 18.368 19.8341 18.3476 20.2235L18.3289 20.5785L17.954 20.5788C17.7477 20.5789 17.4541 20.5909 17.3016 20.6053L17.0242 20.6315V20.3173C17.0242 19.9641 16.9524 19.8388 16.75 19.8388C16.5464 19.8388 16.4899 19.9384 16.4899 20.2973V20.6199L15.8837 20.5977C15.5503 20.5855 15.143 20.5653 14.9785 20.5528L14.6794 20.5302L14.6908 19.9744L14.7022 19.4186L15.0515 19.3181C15.2437 19.2629 15.5124 19.1566 15.6487 19.0819L15.8966 18.9461L17.3747 18.9228C19.6225 18.8875 21.2366 18.702 22.2023 18.3679L22.4283 18.2897L22.4395 19.0486C22.4471 19.5614 22.4359 19.8254 22.4049 19.8627ZM3.67981 20.327C4.78349 20.5634 5.92864 20.6622 7.88072 20.6894C10.6192 20.7278 12.7591 20.5343 13.8632 20.1485L14.1474 20.0492V20.8451V21.641L13.9317 21.7434C13.5128 21.9424 13.531 21.9518 13.531 21.5356C13.531 21.1045 13.4761 20.9891 13.2718 20.9901C13.0346 20.9912 13.0192 21.0227 12.9967 21.5521L12.9762 22.0358L12.6885 22.0854C12.1816 22.1729 12.2159 22.1954 12.2159 21.7753C12.2159 21.3681 12.1814 21.3045 11.9607 21.3045C11.7457 21.3045 11.6816 21.4304 11.6816 21.8524V22.2132L11.5481 22.237C11.4746 22.25 11.2249 22.2733 10.9933 22.2885L10.572 22.3163V21.9952C10.572 21.6342 10.5143 21.5237 10.3255 21.5237C10.1359 21.5237 10.0604 21.6557 10.0441 22.0156L10.0296 22.3348L9.78105 22.3608C9.64441 22.3751 9.35036 22.3867 9.12762 22.3867H8.7227L8.72208 22.1299C8.72138 21.8282 8.6597 21.6835 8.50924 21.6306C8.42717 21.6017 8.37416 21.6094 8.29435 21.6617C8.19519 21.7267 8.18845 21.752 8.18845 22.0589V22.3867H7.76298C7.52893 22.3867 7.22379 22.3748 7.08489 22.3603L6.83227 22.3339V22.0371C6.83227 21.799 6.81542 21.7188 6.74707 21.632C6.6507 21.5094 6.52355 21.4937 6.38937 21.5877C6.30775 21.6448 6.29802 21.6871 6.29802 21.984V22.3163L5.87678 22.2885C5.64508 22.2733 5.39542 22.25 5.32198 22.237L5.18841 22.2132V21.846C5.18841 21.5073 5.18032 21.4708 5.08362 21.3741C5.00233 21.2928 4.95388 21.2753 4.86786 21.296C4.69103 21.3386 4.65416 21.4254 4.65416 21.7987C4.65416 22.1919 4.68609 22.1726 4.18155 22.0854L3.89388 22.0357L3.88217 21.5664C3.87572 21.3069 3.85052 21.0731 3.82578 21.0433C3.80121 21.0137 3.71043 20.9895 3.62404 20.9895C3.39135 20.9895 3.33908 21.0891 3.33908 21.5329C3.33908 21.7312 3.33053 21.8936 3.32005 21.8936C3.30957 21.8936 3.20326 21.8551 3.08375 21.8081C2.70858 21.6606 2.72263 21.6991 2.72263 20.8212V20.0491L3.01199 20.1476C3.17116 20.2017 3.4717 20.2824 3.67981 20.327Z" fill="black"/>
<path fill-rule="evenodd" clip-rule="evenodd" d="M12.2865 2.20979C12.201 2.23124 12.0715 2.27866 11.9988 2.3152C11.8422 2.39386 8.82573 5.38419 8.74037 5.54545C8.67125 5.67606 8.66315 6.01732 8.72533 6.18183C8.78479 6.33927 8.96213 6.52182 9.12207 6.59024C9.2154 6.63019 9.44205 6.64683 9.89263 6.64683H10.5309V8.4524V10.258L10.87 10.1015C11.0564 10.0154 11.357 9.90602 11.5378 9.85847C12.1446 9.69885 13.2873 9.53118 14.2604 9.45897L14.6406 9.43078V8.03881V6.64683H15.2749C15.9519 6.64683 16.0732 6.62242 16.2587 6.449C16.4823 6.23994 16.558 5.85589 16.4326 5.56674C16.4004 5.49264 15.7004 4.7624 14.8401 3.90554C13.6539 2.72411 13.2614 2.3574 13.1136 2.29227C12.8882 2.19298 12.5055 2.15484 12.2865 2.20979ZM6.54459 5.58515C6.43602 5.61573 6.1522 5.87418 5.3867 6.63968C4.525 7.50139 4.3685 7.67638 4.34504 7.8046C4.30805 8.00696 4.35206 8.18507 4.47535 8.33158C4.60115 8.48104 4.79159 8.53673 5.17814 8.53702L5.47609 8.53726V11.7436V14.9499L5.56856 14.9291C5.77971 14.8819 6.60476 14.786 7.16104 14.744C7.48878 14.7193 7.87254 14.689 8.01379 14.6766L8.27064 14.6541V11.5957V8.53726L8.56859 8.53702C8.73248 8.53689 8.93471 8.51787 9.01802 8.49473C9.29644 8.41739 9.46699 8.10288 9.39988 7.79046C9.35702 7.59094 7.55614 5.77415 7.26378 5.63549C7.04498 5.53173 6.79623 5.5143 6.54459 5.58515ZM17.9694 5.58642C17.8657 5.61938 17.5421 5.91474 16.8115 6.64293C15.9487 7.50295 15.7933 7.67621 15.7698 7.8046C15.7328 8.00696 15.7768 8.18507 15.9001 8.33158C16.0259 8.48104 16.2164 8.53673 16.6029 8.53702L16.9009 8.53726V8.94823V9.35919L17.1372 9.36055C17.4331 9.36223 18.8086 9.42877 19.3153 9.46588L19.6954 9.49374V9.0155V8.53726L19.9934 8.53702C20.1573 8.53689 20.3595 8.51787 20.4428 8.49473C20.6244 8.4443 20.792 8.25801 20.8279 8.06667C20.8857 7.75882 20.8493 7.70815 19.8447 6.69561C19.3218 6.16872 18.8328 5.69952 18.7579 5.653C18.5964 5.55273 18.1847 5.51796 17.9694 5.58642ZM15.257 9.85428C13.5436 9.9262 11.9485 10.152 11.2233 10.4252C10.9358 10.5336 10.6586 10.7164 10.5876 10.8445C10.5454 10.9206 10.5335 11.3877 10.5322 13.0168L10.5305 15.0921L9.4314 15.1008C6.479 15.1239 4.29338 15.4695 3.76032 15.9974L3.58566 16.1704L3.58533 17.3778L3.58504 18.5853L3.24628 18.6796C2.60317 18.8586 2.26922 19.075 2.21456 19.3483C2.1694 19.574 2.18452 21.6726 2.23223 21.7984C2.36238 22.142 2.8315 22.362 3.87333 22.5681C4.92026 22.7752 6.07926 22.8744 7.83913 22.9075C10.8781 22.9646 13.6063 22.6384 14.3556 22.1284C14.6072 21.9571 14.6596 21.8435 14.6756 21.435L14.6901 21.0645L14.9428 21.0943C15.3399 21.1411 18.125 21.1286 18.8529 21.0767C20.7193 20.9437 21.9458 20.7194 22.5474 20.4012C22.9821 20.1712 22.9417 20.6771 22.9419 15.4549L22.942 10.886L22.8361 10.7602C22.2902 10.1115 18.8702 9.70263 15.257 9.85428ZM11.5583 11.8508C13.4684 12.4094 18.1444 12.5178 20.9078 12.0676C21.4919 11.9724 22.0184 11.8514 22.2267 11.7644C22.3092 11.7299 22.3929 11.7017 22.4128 11.7017C22.4326 11.7017 22.4489 12.0541 22.4489 12.4848V13.2679L22.2331 13.3644C21.8111 13.5532 21.8324 13.563 21.8324 13.1812C21.8324 12.7403 21.7644 12.6077 21.5374 12.6064C21.3317 12.6053 21.2982 12.6884 21.2982 13.199V13.663L20.9797 13.7124C20.8045 13.7396 20.6288 13.7711 20.5893 13.7825C20.5247 13.801 20.5173 13.7665 20.5173 13.444C20.5173 13.0312 20.4664 12.9346 20.2489 12.9346C20.0491 12.9346 20.0062 13.0201 19.9831 13.4646L19.9625 13.8592L19.6749 13.8857C19.5166 13.9002 19.2716 13.9216 19.1303 13.9332L18.8735 13.9542V13.6138C18.8735 13.2347 18.8357 13.1675 18.6228 13.1675C18.4225 13.1675 18.3634 13.2647 18.3455 13.6236C18.3368 13.7984 18.3087 13.955 18.2831 13.9716C18.2575 13.9882 17.9637 14.0021 17.6303 14.0025L17.0242 14.0031V13.7246C17.0242 13.3796 16.957 13.2633 16.7576 13.2633C16.5407 13.2633 16.4899 13.3458 16.4899 13.6978V14.0031L15.8632 14.0025C15.5185 14.0021 15.2142 13.9877 15.187 13.9704C15.1572 13.9514 15.1327 13.8105 15.1253 13.6157C15.1142 13.3213 15.1035 13.2852 15.0051 13.2119C14.9346 13.1594 14.8668 13.141 14.8101 13.159C14.6337 13.2149 14.5995 13.2931 14.5995 13.6394V13.9685L14.4865 13.9471C14.4243 13.9353 14.207 13.9142 14.0036 13.9001C13.453 13.8621 13.4899 13.8938 13.4899 13.459C13.4899 13.0285 13.4413 12.9346 13.2187 12.9346C13.0134 12.9346 12.9556 13.0491 12.9556 13.4561C12.9556 13.7081 12.9424 13.7911 12.9043 13.7795C12.876 13.771 12.7095 13.7413 12.5344 13.7133L12.2159 13.6627V13.2165C12.2159 12.825 12.2058 12.7601 12.1337 12.688C12.0338 12.5881 11.8587 12.5816 11.7568 12.6738C11.6941 12.7306 11.6816 12.8061 11.6816 13.1303V13.5188L11.5686 13.4918C11.5065 13.4768 11.3724 13.424 11.2707 13.3743L11.0857 13.2839L11.0746 12.4881C11.0641 11.7406 11.0678 11.6939 11.1362 11.7204C11.1763 11.7359 11.3662 11.7946 11.5583 11.8508ZM12.1466 14.1872C12.8197 14.3235 13.8386 14.4395 14.8944 14.4999C15.8326 14.5536 18.6104 14.5273 19.3461 14.4578C20.6081 14.3385 21.6123 14.1692 22.1568 13.984L22.4489 13.8847V14.6621V15.4396L22.349 15.505C22.294 15.541 22.1553 15.6061 22.0407 15.6496L21.8324 15.7288L21.8318 15.3899C21.8315 15.2007 21.8084 15.0059 21.7796 14.949C21.7049 14.8013 21.5372 14.7525 21.4041 14.8397C21.3005 14.9076 21.2982 14.9195 21.2982 15.3773V15.8456L21.103 15.8867C20.9956 15.9094 20.8199 15.9408 20.7126 15.9565L20.5173 15.985V15.6311C20.5173 15.3318 20.5046 15.2643 20.4352 15.1949C20.3252 15.0849 20.2062 15.0913 20.084 15.2136C19.992 15.3056 19.9831 15.3466 19.9831 15.6809V16.0473L19.7879 16.0717C19.6805 16.0851 19.4309 16.1085 19.2331 16.1237L18.8735 16.1514V15.8305C18.8735 15.5895 18.8566 15.4908 18.8055 15.4344C18.7362 15.3579 18.5636 15.3355 18.4754 15.3916C18.3911 15.4451 18.3392 15.6428 18.3392 15.9105V16.1687L17.9013 16.1955C17.6605 16.2102 17.3646 16.2223 17.2438 16.2223H17.0242V15.9571C17.0242 15.8112 17.0025 15.6443 16.976 15.5862C16.9155 15.4534 16.7556 15.4098 16.616 15.4879C16.5178 15.5429 16.5096 15.5707 16.4985 15.8847L16.4866 16.2223H16.2645C16.065 16.2223 16.0356 16.2106 15.9746 16.1074C15.8892 15.9628 15.6985 15.8312 15.396 15.7083C15.2439 15.6465 15.1403 15.5749 15.1047 15.5069C15.0322 15.3684 14.8637 15.3271 14.7164 15.4116C14.6116 15.4717 14.568 15.4706 14.1626 15.3975C13.9206 15.3539 13.6708 15.3182 13.6077 15.3182C13.535 15.3182 13.4767 15.2881 13.449 15.2365C13.3871 15.1207 13.2296 15.0922 13.0917 15.1717C12.9957 15.227 12.9135 15.2329 12.6063 15.2063C12.2432 15.1749 12.2362 15.1723 12.2235 15.0622C12.2061 14.9107 12.0255 14.7715 11.8889 14.8044C11.7644 14.8343 11.6816 14.932 11.6817 15.0486C11.6818 15.1277 11.6618 15.1324 11.3735 15.1197L11.0652 15.1062V14.5002V13.8943L11.3437 13.9877C11.4968 14.039 11.8581 14.1288 12.1466 14.1872ZM22.4489 16.8529C22.4489 17.689 22.4522 17.6782 22.1597 17.798C21.8132 17.9399 21.8324 17.9528 21.8324 17.5785C21.8324 17.1397 21.7641 17.005 21.5408 17.0037C21.3456 17.0026 21.3023 17.1055 21.2894 17.6004L21.2776 18.0506L21.0105 18.1003C20.8636 18.1276 20.6925 18.1508 20.6304 18.1519L20.5173 18.1538V17.818C20.5173 17.4288 20.4633 17.3319 20.2462 17.3319C20.0384 17.3319 19.9831 17.4452 19.9831 17.8708C19.9831 18.2907 20.0326 18.2578 19.3358 18.3011L18.8735 18.3299V18.0003C18.8735 17.6328 18.8343 17.5648 18.6228 17.5648C18.4208 17.5648 18.3622 17.6624 18.3456 18.0267L18.331 18.3493L18.1444 18.3748C18.0419 18.3889 17.7478 18.4004 17.491 18.4004H17.0242V18.1219C17.0242 17.7769 16.957 17.6606 16.7576 17.6606C16.5407 17.6606 16.4899 17.7431 16.4899 18.0951V18.4004H16.2639H16.0378V17.585V16.7697L17.2605 16.7433C19.5001 16.6949 21.1139 16.5149 22.079 16.2058C22.2485 16.1516 22.4011 16.1053 22.418 16.1031C22.435 16.1008 22.4489 16.4382 22.4489 16.8529ZM4.78333 17.169C6.01207 17.4827 8.13901 17.648 10.4076 17.606C12.6525 17.5645 14.3263 17.3715 15.2763 17.0447L15.5036 16.9664V17.7557C15.5036 18.6547 15.5319 18.5851 15.1065 18.7315L14.8871 18.8069V18.4005C14.8871 18.0271 14.8797 17.9889 14.7958 17.9301C14.6616 17.8361 14.5345 17.8519 14.4381 17.9744C14.3644 18.068 14.3529 18.14 14.3529 18.5058V18.9288L14.1371 18.9713C14.0185 18.9947 13.8521 19.0258 13.7673 19.0404L13.6132 19.0671V18.7132C13.6132 18.4141 13.6004 18.3465 13.531 18.2771C13.4324 18.1785 13.2948 18.1716 13.1703 18.2589C13.0864 18.3176 13.0789 18.356 13.0789 18.7258V19.1288L12.8221 19.1533C12.6808 19.1668 12.4311 19.1902 12.2673 19.2054L11.9693 19.2329V18.9286C11.9693 18.5628 11.9055 18.4415 11.7134 18.4415C11.4877 18.4415 11.4351 18.532 11.4351 18.9205V19.2634H11.1949C11.0628 19.2634 10.7576 19.2754 10.5168 19.2902L10.0789 19.317V19.0025C10.0789 18.6523 10.0071 18.5237 9.81175 18.5237C9.61638 18.5237 9.54462 18.6523 9.54462 19.0025V19.317L9.1067 19.2902C8.86588 19.2754 8.56074 19.2634 8.42861 19.2634H8.18845V18.9276C8.18845 18.5384 8.13436 18.4415 7.91729 18.4415C7.71719 18.4415 7.65419 18.5582 7.65419 18.9289V19.2337L7.39734 19.2092C7.25609 19.1956 7.00705 19.1723 6.84394 19.1572L6.54735 19.1298L6.53572 18.7152C6.52454 18.3182 6.51957 18.2981 6.41847 18.2414C6.27886 18.1632 6.119 18.2069 6.05846 18.3397C6.032 18.3978 6.01034 18.5852 6.01034 18.7562V19.0671L5.85623 19.0404C5.77149 19.0258 5.60505 18.9947 5.48636 18.9713L5.27061 18.9288V18.4797C5.27061 18.0853 5.26058 18.0205 5.18841 17.9483C5.14321 17.9031 5.05999 17.8661 5.00348 17.8661C4.79594 17.8661 4.73635 17.9895 4.73635 18.4191V18.8077L4.57111 18.7494C4.4802 18.7173 4.3415 18.6606 4.26288 18.6232L4.11991 18.5554V17.7605V16.9657L4.29403 17.0271C4.38979 17.0609 4.60998 17.1247 4.78333 17.169ZM22.4049 19.8627C22.3612 19.9154 21.9545 20.0853 21.872 20.0853C21.8501 20.0853 21.8321 19.9431 21.8318 19.7668C21.8315 19.5917 21.808 19.4024 21.7796 19.3463C21.7049 19.1986 21.5372 19.1498 21.4041 19.237C21.3006 19.3048 21.2982 19.3169 21.2982 19.7734V20.2404L21.0208 20.289C20.8682 20.3157 20.6925 20.347 20.6304 20.3585L20.5173 20.3795V20.0087C20.5173 19.6721 20.5089 19.632 20.426 19.574C20.3014 19.4867 20.1638 19.4936 20.0653 19.5922C19.9948 19.6627 19.9831 19.7291 19.9831 20.0595V20.4446L19.6851 20.4711C19.5213 20.4857 19.2716 20.5087 19.1303 20.5223L18.8735 20.547V20.2163C18.8735 19.8478 18.8255 19.7566 18.6318 19.7566C18.4152 19.7566 18.368 19.8341 18.3476 20.2235L18.3289 20.5785L17.954 20.5788C17.7477 20.5789 17.4541 20.5909 17.3016 20.6053L17.0242 20.6315V20.3173C17.0242 19.9641 16.9524 19.8388 16.75 19.8388C16.5464 19.8388 16.4899 19.9384 16.4899 20.2973V20.6199L15.8837 20.5977C15.5503 20.5855 15.143 20.5653 14.9785 20.5528L14.6794 20.5302L14.6908 19.9744L14.7022 19.4186L15.0515 19.3181C15.2437 19.2629 15.5124 19.1566 15.6487 19.0819L15.8966 18.9461L17.3747 18.9228C19.6225 18.8875 21.2366 18.702 22.2023 18.3679L22.4283 18.2897L22.4395 19.0486C22.4471 19.5614 22.4359 19.8254 22.4049 19.8627ZM3.67981 20.327C4.78349 20.5634 5.92864 20.6622 7.88072 20.6894C10.6192 20.7278 12.7591 20.5343 13.8632 20.1485L14.1474 20.0492V20.8451V21.641L13.9317 21.7434C13.5128 21.9424 13.531 21.9518 13.531 21.5356C13.531 21.1045 13.4761 20.9891 13.2718 20.9901C13.0346 20.9912 13.0192 21.0227 12.9967 21.5521L12.9762 22.0358L12.6885 22.0854C12.1816 22.1729 12.2159 22.1954 12.2159 21.7753C12.2159 21.3681 12.1814 21.3045 11.9607 21.3045C11.7457 21.3045 11.6816 21.4304 11.6816 21.8524V22.2132L11.5481 22.237C11.4746 22.25 11.2249 22.2733 10.9933 22.2885L10.572 22.3163V21.9952C10.572 21.6342 10.5143 21.5237 10.3255 21.5237C10.1359 21.5237 10.0604 21.6557 10.0441 22.0156L10.0296 22.3348L9.78105 22.3608C9.64441 22.3751 9.35036 22.3867 9.12762 22.3867H8.7227L8.72208 22.1299C8.72138 21.8282 8.6597 21.6835 8.50924 21.6306C8.42717 21.6017 8.37416 21.6094 8.29435 21.6617C8.19519 21.7267 8.18845 21.752 8.18845 22.0589V22.3867H7.76298C7.52893 22.3867 7.22379 22.3748 7.08489 22.3603L6.83227 22.3339V22.0371C6.83227 21.799 6.81542 21.7188 6.74707 21.632C6.6507 21.5094 6.52355 21.4937 6.38937 21.5877C6.30775 21.6448 6.29802 21.6871 6.29802 21.984V22.3163L5.87678 22.2885C5.64508 22.2733 5.39542 22.25 5.32198 22.237L5.18841 22.2132V21.846C5.18841 21.5073 5.18032 21.4708 5.08362 21.3741C5.00233 21.2928 4.95388 21.2753 4.86786 21.296C4.69103 21.3386 4.65416 21.4254 4.65416 21.7987C4.65416 22.1919 4.68609 22.1726 4.18155 22.0854L3.89388 22.0357L3.88217 21.5664C3.87572 21.3069 3.85052 21.0731 3.82578 21.0433C3.80121 21.0137 3.71043 20.9895 3.62404 20.9895C3.39135 20.9895 3.33908 21.0891 3.33908 21.5329C3.33908 21.7312 3.33053 21.8936 3.32005 21.8936C3.30957 21.8936 3.20326 21.8551 3.08375 21.8081C2.70858 21.6606 2.72263 21.6991 2.72263 20.8212V20.0491L3.01199 20.1476C3.17116 20.2017 3.4717 20.2824 3.67981 20.327Z" fill="black"/>
<path fill-rule="evenodd" clip-rule="evenodd" d="M12.2865 2.20979C12.201 2.23124 12.0715 2.27866 11.9988 2.3152C11.8422 2.39386 8.82573 5.38419 8.74037 5.54545C8.67125 5.67606 8.66315 6.01732 8.72533 6.18183C8.78479 6.33927 8.96213 6.52182 9.12207 6.59024C9.2154 6.63019 9.44205 6.64683 9.89263 6.64683H10.5309V8.4524V10.258L10.87 10.1015C11.0564 10.0154 11.357 9.90602 11.5378 9.85847C12.1446 9.69885 13.2873 9.53118 14.2604 9.45897L14.6406 9.43078V8.03881V6.64683H15.2749C15.9519 6.64683 16.0732 6.62242 16.2587 6.449C16.4823 6.23994 16.558 5.85589 16.4326 5.56674C16.4004 5.49264 15.7004 4.7624 14.8401 3.90554C13.6539 2.72411 13.2614 2.3574 13.1136 2.29227C12.8882 2.19298 12.5055 2.15484 12.2865 2.20979ZM6.54459 5.58515C6.43602 5.61573 6.1522 5.87418 5.3867 6.63968C4.525 7.50139 4.3685 7.67638 4.34504 7.8046C4.30805 8.00696 4.35206 8.18507 4.47535 8.33158C4.60115 8.48104 4.79159 8.53673 5.17814 8.53702L5.47609 8.53726V11.7436V14.9499L5.56856 14.9291C5.77971 14.8819 6.60476 14.786 7.16104 14.744C7.48878 14.7193 7.87254 14.689 8.01379 14.6766L8.27064 14.6541V11.5957V8.53726L8.56859 8.53702C8.73248 8.53689 8.93471 8.51787 9.01802 8.49473C9.29644 8.41739 9.46699 8.10288 9.39988 7.79046C9.35702 7.59094 7.55614 5.77415 7.26378 5.63549C7.04498 5.53173 6.79623 5.5143 6.54459 5.58515ZM17.9694 5.58642C17.8657 5.61938 17.5421 5.91474 16.8115 6.64293C15.9487 7.50295 15.7933 7.67621 15.7698 7.8046C15.7328 8.00696 15.7768 8.18507 15.9001 8.33158C16.0259 8.48104 16.2164 8.53673 16.6029 8.53702L16.9009 8.53726V8.94823V9.35919L17.1372 9.36055C17.4331 9.36223 18.8086 9.42877 19.3153 9.46588L19.6954 9.49374V9.0155V8.53726L19.9934 8.53702C20.1573 8.53689 20.3595 8.51787 20.4428 8.49473C20.6244 8.4443 20.792 8.25801 20.8279 8.06667C20.8857 7.75882 20.8493 7.70815 19.8447 6.69561C19.3218 6.16872 18.8328 5.69952 18.7579 5.653C18.5964 5.55273 18.1847 5.51796 17.9694 5.58642ZM15.257 9.85428C13.5436 9.9262 11.9485 10.152 11.2233 10.4252C10.9358 10.5336 10.6586 10.7164 10.5876 10.8445C10.5454 10.9206 10.5335 11.3877 10.5322 13.0168L10.5305 15.0921L9.4314 15.1008C6.479 15.1239 4.29338 15.4695 3.76032 15.9974L3.58566 16.1704L3.58533 17.3778L3.58504 18.5853L3.24628 18.6796C2.60317 18.8586 2.26922 19.075 2.21456 19.3483C2.1694 19.574 2.18452 21.6726 2.23223 21.7984C2.36238 22.142 2.8315 22.362 3.87333 22.5681C4.92026 22.7752 6.07926 22.8744 7.83913 22.9075C10.8781 22.9646 13.6063 22.6384 14.3556 22.1284C14.6072 21.9571 14.6596 21.8435 14.6756 21.435L14.6901 21.0645L14.9428 21.0943C15.3399 21.1411 18.125 21.1286 18.8529 21.0767C20.7193 20.9437 21.9458 20.7194 22.5474 20.4012C22.9821 20.1712 22.9417 20.6771 22.9419 15.4549L22.942 10.886L22.8361 10.7602C22.2902 10.1115 18.8702 9.70263 15.257 9.85428ZM11.5583 11.8508C13.4684 12.4094 18.1444 12.5178 20.9078 12.0676C21.4919 11.9724 22.0184 11.8514 22.2267 11.7644C22.3092 11.7299 22.3929 11.7017 22.4128 11.7017C22.4326 11.7017 22.4489 12.0541 22.4489 12.4848V13.2679L22.2331 13.3644C21.8111 13.5532 21.8324 13.563 21.8324 13.1812C21.8324 12.7403 21.7644 12.6077 21.5374 12.6064C21.3317 12.6053 21.2982 12.6884 21.2982 13.199V13.663L20.9797 13.7124C20.8045 13.7396 20.6288 13.7711 20.5893 13.7825C20.5247 13.801 20.5173 13.7665 20.5173 13.444C20.5173 13.0312 20.4664 12.9346 20.2489 12.9346C20.0491 12.9346 20.0062 13.0201 19.9831 13.4646L19.9625 13.8592L19.6749 13.8857C19.5166 13.9002 19.2716 13.9216 19.1303 13.9332L18.8735 13.9542V13.6138C18.8735 13.2347 18.8357 13.1675 18.6228 13.1675C18.4225 13.1675 18.3634 13.2647 18.3455 13.6236C18.3368 13.7984 18.3087 13.955 18.2831 13.9716C18.2575 13.9882 17.9637 14.0021 17.6303 14.0025L17.0242 14.0031V13.7246C17.0242 13.3796 16.957 13.2633 16.7576 13.2633C16.5407 13.2633 16.4899 13.3458 16.4899 13.6978V14.0031L15.8632 14.0025C15.5185 14.0021 15.2142 13.9877 15.187 13.9704C15.1572 13.9514 15.1327 13.8105 15.1253 13.6157C15.1142 13.3213 15.1035 13.2852 15.0051 13.2119C14.9346 13.1594 14.8668 13.141 14.8101 13.159C14.6337 13.2149 14.5995 13.2931 14.5995 13.6394V13.9685L14.4865 13.9471C14.4243 13.9353 14.207 13.9142 14.0036 13.9001C13.453 13.8621 13.4899 13.8938 13.4899 13.459C13.4899 13.0285 13.4413 12.9346 13.2187 12.9346C13.0134 12.9346 12.9556 13.0491 12.9556 13.4561C12.9556 13.7081 12.9424 13.7911 12.9043 13.7795C12.876 13.771 12.7095 13.7413 12.5344 13.7133L12.2159 13.6627V13.2165C12.2159 12.825 12.2058 12.7601 12.1337 12.688C12.0338 12.5881 11.8587 12.5816 11.7568 12.6738C11.6941 12.7306 11.6816 12.8061 11.6816 13.1303V13.5188L11.5686 13.4918C11.5065 13.4768 11.3724 13.424 11.2707 13.3743L11.0857 13.2839L11.0746 12.4881C11.0641 11.7406 11.0678 11.6939 11.1362 11.7204C11.1763 11.7359 11.3662 11.7946 11.5583 11.8508ZM12.1466 14.1872C12.8197 14.3235 13.8386 14.4395 14.8944 14.4999C15.8326 14.5536 18.6104 14.5273 19.3461 14.4578C20.6081 14.3385 21.6123 14.1692 22.1568 13.984L22.4489 13.8847V14.6621V15.4396L22.349 15.505C22.294 15.541 22.1553 15.6061 22.0407 15.6496L21.8324 15.7288L21.8318 15.3899C21.8315 15.2007 21.8084 15.0059 21.7796 14.949C21.7049 14.8013 21.5372 14.7525 21.4041 14.8397C21.3005 14.9076 21.2982 14.9195 21.2982 15.3773V15.8456L21.103 15.8867C20.9956 15.9094 20.8199 15.9408 20.7126 15.9565L20.5173 15.985V15.6311C20.5173 15.3318 20.5046 15.2643 20.4352 15.1949C20.3252 15.0849 20.2062 15.0913 20.084 15.2136C19.992 15.3056 19.9831 15.3466 19.9831 15.6809V16.0473L19.7879 16.0717C19.6805 16.0851 19.4309 16.1085 19.2331 16.1237L18.8735 16.1514V15.8305C18.8735 15.5895 18.8566 15.4908 18.8055 15.4344C18.7362 15.3579 18.5636 15.3355 18.4754 15.3916C18.3911 15.4451 18.3392 15.6428 18.3392 15.9105V16.1687L17.9013 16.1955C17.6605 16.2102 17.3646 16.2223 17.2438 16.2223H17.0242V15.9571C17.0242 15.8112 17.0025 15.6443 16.976 15.5862C16.9155 15.4534 16.7556 15.4098 16.616 15.4879C16.5178 15.5429 16.5096 15.5707 16.4985 15.8847L16.4866 16.2223H16.2645C16.065 16.2223 16.0356 16.2106 15.9746 16.1074C15.8892 15.9628 15.6985 15.8312 15.396 15.7083C15.2439 15.6465 15.1403 15.5749 15.1047 15.5069C15.0322 15.3684 14.8637 15.3271 14.7164 15.4116C14.6116 15.4717 14.568 15.4706 14.1626 15.3975C13.9206 15.3539 13.6708 15.3182 13.6077 15.3182C13.535 15.3182 13.4767 15.2881 13.449 15.2365C13.3871 15.1207 13.2296 15.0922 13.0917 15.1717C12.9957 15.227 12.9135 15.2329 12.6063 15.2063C12.2432 15.1749 12.2362 15.1723 12.2235 15.0622C12.2061 14.9107 12.0255 14.7715 11.8889 14.8044C11.7644 14.8343 11.6816 14.932 11.6817 15.0486C11.6818 15.1277 11.6618 15.1324 11.3735 15.1197L11.0652 15.1062V14.5002V13.8943L11.3437 13.9877C11.4968 14.039 11.8581 14.1288 12.1466 14.1872ZM22.4489 16.8529C22.4489 17.689 22.4522 17.6782 22.1597 17.798C21.8132 17.9399 21.8324 17.9528 21.8324 17.5785C21.8324 17.1397 21.7641 17.005 21.5408 17.0037C21.3456 17.0026 21.3023 17.1055 21.2894 17.6004L21.2776 18.0506L21.0105 18.1003C20.8636 18.1276 20.6925 18.1508 20.6304 18.1519L20.5173 18.1538V17.818C20.5173 17.4288 20.4633 17.3319 20.2462 17.3319C20.0384 17.3319 19.9831 17.4452 19.9831 17.8708C19.9831 18.2907 20.0326 18.2578 19.3358 18.3011L18.8735 18.3299V18.0003C18.8735 17.6328 18.8343 17.5648 18.6228 17.5648C18.4208 17.5648 18.3622 17.6624 18.3456 18.0267L18.331 18.3493L18.1444 18.3748C18.0419 18.3889 17.7478 18.4004 17.491 18.4004H17.0242V18.1219C17.0242 17.7769 16.957 17.6606 16.7576 17.6606C16.5407 17.6606 16.4899 17.7431 16.4899 18.0951V18.4004H16.2639H16.0378V17.585V16.7697L17.2605 16.7433C19.5001 16.6949 21.1139 16.5149 22.079 16.2058C22.2485 16.1516 22.4011 16.1053 22.418 16.1031C22.435 16.1008 22.4489 16.4382 22.4489 16.8529ZM4.78333 17.169C6.01207 17.4827 8.13901 17.648 10.4076 17.606C12.6525 17.5645 14.3263 17.3715 15.2763 17.0447L15.5036 16.9664V17.7557C15.5036 18.6547 15.5319 18.5851 15.1065 18.7315L14.8871 18.8069V18.4005C14.8871 18.0271 14.8797 17.9889 14.7958 17.9301C14.6616 17.8361 14.5345 17.8519 14.4381 17.9744C14.3644 18.068 14.3529 18.14 14.3529 18.5058V18.9288L14.1371 18.9713C14.0185 18.9947 13.8521 19.0258 13.7673 19.0404L13.6132 19.0671V18.7132C13.6132 18.4141 13.6004 18.3465 13.531 18.2771C13.4324 18.1785 13.2948 18.1716 13.1703 18.2589C13.0864 18.3176 13.0789 18.356 13.0789 18.7258V19.1288L12.8221 19.1533C12.6808 19.1668 12.4311 19.1902 12.2673 19.2054L11.9693 19.2329V18.9286C11.9693 18.5628 11.9055 18.4415 11.7134 18.4415C11.4877 18.4415 11.4351 18.532 11.4351 18.9205V19.2634H11.1949C11.0628 19.2634 10.7576 19.2754 10.5168 19.2902L10.0789 19.317V19.0025C10.0789 18.6523 10.0071 18.5237 9.81175 18.5237C9.61638 18.5237 9.54462 18.6523 9.54462 19.0025V19.317L9.1067 19.2902C8.86588 19.2754 8.56074 19.2634 8.42861 19.2634H8.18845V18.9276C8.18845 18.5384 8.13436 18.4415 7.91729 18.4415C7.71719 18.4415 7.65419 18.5582 7.65419 18.9289V19.2337L7.39734 19.2092C7.25609 19.1956 7.00705 19.1723 6.84394 19.1572L6.54735 19.1298L6.53572 18.7152C6.52454 18.3182 6.51957 18.2981 6.41847 18.2414C6.27886 18.1632 6.119 18.2069 6.05846 18.3397C6.032 18.3978 6.01034 18.5852 6.01034 18.7562V19.0671L5.85623 19.0404C5.77149 19.0258 5.60505 18.9947 5.48636 18.9713L5.27061 18.9288V18.4797C5.27061 18.0853 5.26058 18.0205 5.18841 17.9483C5.14321 17.9031 5.05999 17.8661 5.00348 17.8661C4.79594 17.8661 4.73635 17.9895 4.73635 18.4191V18.8077L4.57111 18.7494C4.4802 18.7173 4.3415 18.6606 4.26288 18.6232L4.11991 18.5554V17.7605V16.9657L4.29403 17.0271C4.38979 17.0609 4.60998 17.1247 4.78333 17.169ZM22.4049 19.8627C22.3612 19.9154 21.9545 20.0853 21.872 20.0853C21.8501 20.0853 21.8321 19.9431 21.8318 19.7668C21.8315 19.5917 21.808 19.4024 21.7796 19.3463C21.7049 19.1986 21.5372 19.1498 21.4041 19.237C21.3006 19.3048 21.2982 19.3169 21.2982 19.7734V20.2404L21.0208 20.289C20.8682 20.3157 20.6925 20.347 20.6304 20.3585L20.5173 20.3795V20.0087C20.5173 19.6721 20.5089 19.632 20.426 19.574C20.3014 19.4867 20.1638 19.4936 20.0653 19.5922C19.9948 19.6627 19.9831 19.7291 19.9831 20.0595V20.4446L19.6851 20.4711C19.5213 20.4857 19.2716 20.5087 19.1303 20.5223L18.8735 20.547V20.2163C18.8735 19.8478 18.8255 19.7566 18.6318 19.7566C18.4152 19.7566 18.368 19.8341 18.3476 20.2235L18.3289 20.5785L17.954 20.5788C17.7477 20.5789 17.4541 20.5909 17.3016 20.6053L17.0242 20.6315V20.3173C17.0242 19.9641 16.9524 19.8388 16.75 19.8388C16.5464 19.8388 16.4899 19.9384 16.4899 20.2973V20.6199L15.8837 20.5977C15.5503 20.5855 15.143 20.5653 14.9785 20.5528L14.6794 20.5302L14.6908 19.9744L14.7022 19.4186L15.0515 19.3181C15.2437 19.2629 15.5124 19.1566 15.6487 19.0819L15.8966 18.9461L17.3747 18.9228C19.6225 18.8875 21.2366 18.702 22.2023 18.3679L22.4283 18.2897L22.4395 19.0486C22.4471 19.5614 22.4359 19.8254 22.4049 19.8627ZM3.67981 20.327C4.78349 20.5634 5.92864 20.6622 7.88072 20.6894C10.6192 20.7278 12.7591 20.5343 13.8632 20.1485L14.1474 20.0492V20.8451V21.641L13.9317 21.7434C13.5128 21.9424 13.531 21.9518 13.531 21.5356C13.531 21.1045 13.4761 20.9891 13.2718 20.9901C13.0346 20.9912 13.0192 21.0227 12.9967 21.5521L12.9762 22.0358L12.6885 22.0854C12.1816 22.1729 12.2159 22.1954 12.2159 21.7753C12.2159 21.3681 12.1814 21.3045 11.9607 21.3045C11.7457 21.3045 11.6816 21.4304 11.6816 21.8524V22.2132L11.5481 22.237C11.4746 22.25 11.2249 22.2733 10.9933 22.2885L10.572 22.3163V21.9952C10.572 21.6342 10.5143 21.5237 10.3255 21.5237C10.1359 21.5237 10.0604 21.6557 10.0441 22.0156L10.0296 22.3348L9.78105 22.3608C9.64441 22.3751 9.35036 22.3867 9.12762 22.3867H8.7227L8.72208 22.1299C8.72138 21.8282 8.6597 21.6835 8.50924 21.6306C8.42717 21.6017 8.37416 21.6094 8.29435 21.6617C8.19519 21.7267 8.18845 21.752 8.18845 22.0589V22.3867H7.76298C7.52893 22.3867 7.22379 22.3748 7.08489 22.3603L6.83227 22.3339V22.0371C6.83227 21.799 6.81542 21.7188 6.74707 21.632C6.6507 21.5094 6.52355 21.4937 6.38937 21.5877C6.30775 21.6448 6.29802 21.6871 6.29802 21.984V22.3163L5.87678 22.2885C5.64508 22.2733 5.39542 22.25 5.32198 22.237L5.18841 22.2132V21.846C5.18841 21.5073 5.18032 21.4708 5.08362 21.3741C5.00233 21.2928 4.95388 21.2753 4.86786 21.296C4.69103 21.3386 4.65416 21.4254 4.65416 21.7987C4.65416 22.1919 4.68609 22.1726 4.18155 22.0854L3.89388 22.0357L3.88217 21.5664C3.87572 21.3069 3.85052 21.0731 3.82578 21.0433C3.80121 21.0137 3.71043 20.9895 3.62404 20.9895C3.39135 20.9895 3.33908 21.0891 3.33908 21.5329C3.33908 21.7312 3.33053 21.8936 3.32005 21.8936C3.30957 21.8936 3.20326 21.8551 3.08375 21.8081C2.70858 21.6606 2.72263 21.6991 2.72263 20.8212V20.0491L3.01199 20.1476C3.17116 20.2017 3.4717 20.2824 3.67981 20.327Z" fill="black"/>
<path fill-rule="evenodd" clip-rule="evenodd" d="M12.2865 2.20979C12.201 2.23124 12.0715 2.27866 11.9988 2.3152C11.8422 2.39386 8.82573 5.38419 8.74037 5.54545C8.67125 5.67606 8.66315 6.01732 8.72533 6.18183C8.78479 6.33927 8.96213 6.52182 9.12207 6.59024C9.2154 6.63019 9.44205 6.64683 9.89263 6.64683H10.5309V8.4524V10.258L10.87 10.1015C11.0564 10.0154 11.357 9.90602 11.5378 9.85847C12.1446 9.69885 13.2873 9.53118 14.2604 9.45897L14.6406 9.43078V8.03881V6.64683H15.2749C15.9519 6.64683 16.0732 6.62242 16.2587 6.449C16.4823 6.23994 16.558 5.85589 16.4326 5.56674C16.4004 5.49264 15.7004 4.7624 14.8401 3.90554C13.6539 2.72411 13.2614 2.3574 13.1136 2.29227C12.8882 2.19298 12.5055 2.15484 12.2865 2.20979ZM6.54459 5.58515C6.43602 5.61573 6.1522 5.87418 5.3867 6.63968C4.525 7.50139 4.3685 7.67638 4.34504 7.8046C4.30805 8.00696 4.35206 8.18507 4.47535 8.33158C4.60115 8.48104 4.79159 8.53673 5.17814 8.53702L5.47609 8.53726V11.7436V14.9499L5.56856 14.9291C5.77971 14.8819 6.60476 14.786 7.16104 14.744C7.48878 14.7193 7.87254 14.689 8.01379 14.6766L8.27064 14.6541V11.5957V8.53726L8.56859 8.53702C8.73248 8.53689 8.93471 8.51787 9.01802 8.49473C9.29644 8.41739 9.46699 8.10288 9.39988 7.79046C9.35702 7.59094 7.55614 5.77415 7.26378 5.63549C7.04498 5.53173 6.79623 5.5143 6.54459 5.58515ZM17.9694 5.58642C17.8657 5.61938 17.5421 5.91474 16.8115 6.64293C15.9487 7.50295 15.7933 7.67621 15.7698 7.8046C15.7328 8.00696 15.7768 8.18507 15.9001 8.33158C16.0259 8.48104 16.2164 8.53673 16.6029 8.53702L16.9009 8.53726V8.94823V9.35919L17.1372 9.36055C17.4331 9.36223 18.8086 9.42877 19.3153 9.46588L19.6954 9.49374V9.0155V8.53726L19.9934 8.53702C20.1573 8.53689 20.3595 8.51787 20.4428 8.49473C20.6244 8.4443 20.792 8.25801 20.8279 8.06667C20.8857 7.75882 20.8493 7.70815 19.8447 6.69561C19.3218 6.16872 18.8328 5.69952 18.7579 5.653C18.5964 5.55273 18.1847 5.51796 17.9694 5.58642ZM15.257 9.85428C13.5436 9.9262 11.9485 10.152 11.2233 10.4252C10.9358 10.5336 10.6586 10.7164 10.5876 10.8445C10.5454 10.9206 10.5335 11.3877 10.5322 13.0168L10.5305 15.0921L9.4314 15.1008C6.479 15.1239 4.29338 15.4695 3.76032 15.9974L3.58566 16.1704L3.58533 17.3778L3.58504 18.5853L3.24628 18.6796C2.60317 18.8586 2.26922 19.075 2.21456 19.3483C2.1694 19.574 2.18452 21.6726 2.23223 21.7984C2.36238 22.142 2.8315 22.362 3.87333 22.5681C4.92026 22.7752 6.07926 22.8744 7.83913 22.9075C10.8781 22.9646 13.6063 22.6384 14.3556 22.1284C14.6072 21.9571 14.6596 21.8435 14.6756 21.435L14.6901 21.0645L14.9428 21.0943C15.3399 21.1411 18.125 21.1286 18.8529 21.0767C20.7193 20.9437 21.9458 20.7194 22.5474 20.4012C22.9821 20.1712 22.9417 20.6771 22.9419 15.4549L22.942 10.886L22.8361 10.7602C22.2902 10.1115 18.8702 9.70263 15.257 9.85428ZM11.5583 11.8508C13.4684 12.4094 18.1444 12.5178 20.9078 12.0676C21.4919 11.9724 22.0184 11.8514 22.2267 11.7644C22.3092 11.7299 22.3929 11.7017 22.4128 11.7017C22.4326 11.7017 22.4489 12.0541 22.4489 12.4848V13.2679L22.2331 13.3644C21.8111 13.5532 21.8324 13.563 21.8324 13.1812C21.8324 12.7403 21.7644 12.6077 21.5374 12.6064C21.3317 12.6053 21.2982 12.6884 21.2982 13.199V13.663L20.9797 13.7124C20.8045 13.7396 20.6288 13.7711 20.5893 13.7825C20.5247 13.801 20.5173 13.7665 20.5173 13.444C20.5173 13.0312 20.4664 12.9346 20.2489 12.9346C20.0491 12.9346 20.0062 13.0201 19.9831 13.4646L19.9625 13.8592L19.6749 13.8857C19.5166 13.9002 19.2716 13.9216 19.1303 13.9332L18.8735 13.9542V13.6138C18.8735 13.2347 18.8357 13.1675 18.6228 13.1675C18.4225 13.1675 18.3634 13.2647 18.3455 13.6236C18.3368 13.7984 18.3087 13.955 18.2831 13.9716C18.2575 13.9882 17.9637 14.0021 17.6303 14.0025L17.0242 14.0031V13.7246C17.0242 13.3796 16.957 13.2633 16.7576 13.2633C16.5407 13.2633 16.4899 13.3458 16.4899 13.6978V14.0031L15.8632 14.0025C15.5185 14.0021 15.2142 13.9877 15.187 13.9704C15.1572 13.9514 15.1327 13.8105 15.1253 13.6157C15.1142 13.3213 15.1035 13.2852 15.0051 13.2119C14.9346 13.1594 14.8668 13.141 14.8101 13.159C14.6337 13.2149 14.5995 13.2931 14.5995 13.6394V13.9685L14.4865 13.9471C14.4243 13.9353 14.207 13.9142 14.0036 13.9001C13.453 13.8621 13.4899 13.8938 13.4899 13.459C13.4899 13.0285 13.4413 12.9346 13.2187 12.9346C13.0134 12.9346 12.9556 13.0491 12.9556 13.4561C12.9556 13.7081 12.9424 13.7911 12.9043 13.7795C12.876 13.771 12.7095 13.7413 12.5344 13.7133L12.2159 13.6627V13.2165C12.2159 12.825 12.2058 12.7601 12.1337 12.688C12.0338 12.5881 11.8587 12.5816 11.7568 12.6738C11.6941 12.7306 11.6816 12.8061 11.6816 13.1303V13.5188L11.5686 13.4918C11.5065 13.4768 11.3724 13.424 11.2707 13.3743L11.0857 13.2839L11.0746 12.4881C11.0641 11.7406 11.0678 11.6939 11.1362 11.7204C11.1763 11.7359 11.3662 11.7946 11.5583 11.8508ZM12.1466 14.1872C12.8197 14.3235 13.8386 14.4395 14.8944 14.4999C15.8326 14.5536 18.6104 14.5273 19.3461 14.4578C20.6081 14.3385 21.6123 14.1692 22.1568 13.984L22.4489 13.8847V14.6621V15.4396L22.349 15.505C22.294 15.541 22.1553 15.6061 22.0407 15.6496L21.8324 15.7288L21.8318 15.3899C21.8315 15.2007 21.8084 15.0059 21.7796 14.949C21.7049 14.8013 21.5372 14.7525 21.4041 14.8397C21.3005 14.9076 21.2982 14.9195 21.2982 15.3773V15.8456L21.103 15.8867C20.9956 15.9094 20.8199 15.9408 20.7126 15.9565L20.5173 15.985V15.6311C20.5173 15.3318 20.5046 15.2643 20.4352 15.1949C20.3252 15.0849 20.2062 15.0913 20.084 15.2136C19.992 15.3056 19.9831 15.3466 19.9831 15.6809V16.0473L19.7879 16.0717C19.6805 16.0851 19.4309 16.1085 19.2331 16.1237L18.8735 16.1514V15.8305C18.8735 15.5895 18.8566 15.4908 18.8055 15.4344C18.7362 15.3579 18.5636 15.3355 18.4754 15.3916C18.3911 15.4451 18.3392 15.6428 18.3392 15.9105V16.1687L17.9013 16.1955C17.6605 16.2102 17.3646 16.2223 17.2438 16.2223H17.0242V15.9571C17.0242 15.8112 17.0025 15.6443 16.976 15.5862C16.9155 15.4534 16.7556 15.4098 16.616 15.4879C16.5178 15.5429 16.5096 15.5707 16.4985 15.8847L16.4866 16.2223H16.2645C16.065 16.2223 16.0356 16.2106 15.9746 16.1074C15.8892 15.9628 15.6985 15.8312 15.396 15.7083C15.2439 15.6465 15.1403 15.5749 15.1047 15.5069C15.0322 15.3684 14.8637 15.3271 14.7164 15.4116C14.6116 15.4717 14.568 15.4706 14.1626 15.3975C13.9206 15.3539 13.6708 15.3182 13.6077 15.3182C13.535 15.3182 13.4767 15.2881 13.449 15.2365C13.3871 15.1207 13.2296 15.0922 13.0917 15.1717C12.9957 15.227 12.9135 15.2329 12.6063 15.2063C12.2432 15.1749 12.2362 15.1723 12.2235 15.0622C12.2061 14.9107 12.0255 14.7715 11.8889 14.8044C11.7644 14.8343 11.6816 14.932 11.6817 15.0486C11.6818 15.1277 11.6618 15.1324 11.3735 15.1197L11.0652 15.1062V14.5002V13.8943L11.3437 13.9877C11.4968 14.039 11.8581 14.1288 12.1466 14.1872ZM22.4489 16.8529C22.4489 17.689 22.4522 17.6782 22.1597 17.798C21.8132 17.9399 21.8324 17.9528 21.8324 17.5785C21.8324 17.1397 21.7641 17.005 21.5408 17.0037C21.3456 17.0026 21.3023 17.1055 21.2894 17.6004L21.2776 18.0506L21.0105 18.1003C20.8636 18.1276 20.6925 18.1508 20.6304 18.1519L20.5173 18.1538V17.818C20.5173 17.4288 20.4633 17.3319 20.2462 17.3319C20.0384 17.3319 19.9831 17.4452 19.9831 17.8708C19.9831 18.2907 20.0326 18.2578 19.3358 18.3011L18.8735 18.3299V18.0003C18.8735 17.6328 18.8343 17.5648 18.6228 17.5648C18.4208 17.5648 18.3622 17.6624 18.3456 18.0267L18.331 18.3493L18.1444 18.3748C18.0419 18.3889 17.7478 18.4004 17.491 18.4004H17.0242V18.1219C17.0242 17.7769 16.957 17.6606 16.7576 17.6606C16.5407 17.6606 16.4899 17.7431 16.4899 18.0951V18.4004H16.2639H16.0378V17.585V16.7697L17.2605 16.7433C19.5001 16.6949 21.1139 16.5149 22.079 16.2058C22.2485 16.1516 22.4011 16.1053 22.418 16.1031C22.435 16.1008 22.4489 16.4382 22.4489 16.8529ZM4.78333 17.169C6.01207 17.4827 8.13901 17.648 10.4076 17.606C12.6525 17.5645 14.3263 17.3715 15.2763 17.0447L15.5036 16.9664V17.7557C15.5036 18.6547 15.5319 18.5851 15.1065 18.7315L14.8871 18.8069V18.4005C14.8871 18.0271 14.8797 17.9889 14.7958 17.9301C14.6616 17.8361 14.5345 17.8519 14.4381 17.9744C14.3644 18.068 14.3529 18.14 14.3529 18.5058V18.9288L14.1371 18.9713C14.0185 18.9947 13.8521 19.0258 13.7673 19.0404L13.6132 19.0671V18.7132C13.6132 18.4141 13.6004 18.3465 13.531 18.2771C13.4324 18.1785 13.2948 18.1716 13.1703 18.2589C13.0864 18.3176 13.0789 18.356 13.0789 18.7258V19.1288L12.8221 19.1533C12.6808 19.1668 12.4311 19.1902 12.2673 19.2054L11.9693 19.2329V18.9286C11.9693 18.5628 11.9055 18.4415 11.7134 18.4415C11.4877 18.4415 11.4351 18.532 11.4351 18.9205V19.2634H11.1949C11.0628 19.2634 10.7576 19.2754 10.5168 19.2902L10.0789 19.317V19.0025C10.0789 18.6523 10.0071 18.5237 9.81175 18.5237C9.61638 18.5237 9.54462 18.6523 9.54462 19.0025V19.317L9.1067 19.2902C8.86588 19.2754 8.56074 19.2634 8.42861 19.2634H8.18845V18.9276C8.18845 18.5384 8.13436 18.4415 7.91729 18.4415C7.71719 18.4415 7.65419 18.5582 7.65419 18.9289V19.2337L7.39734 19.2092C7.25609 19.1956 7.00705 19.1723 6.84394 19.1572L6.54735 19.1298L6.53572 18.7152C6.52454 18.3182 6.51957 18.2981 6.41847 18.2414C6.27886 18.1632 6.119 18.2069 6.05846 18.3397C6.032 18.3978 6.01034 18.5852 6.01034 18.7562V19.0671L5.85623 19.0404C5.77149 19.0258 5.60505 18.9947 5.48636 18.9713L5.27061 18.9288V18.4797C5.27061 18.0853 5.26058 18.0205 5.18841 17.9483C5.14321 17.9031 5.05999 17.8661 5.00348 17.8661C4.79594 17.8661 4.73635 17.9895 4.73635 18.4191V18.8077L4.57111 18.7494C4.4802 18.7173 4.3415 18.6606 4.26288 18.6232L4.11991 18.5554V17.7605V16.9657L4.29403 17.0271C4.38979 17.0609 4.60998 17.1247 4.78333 17.169ZM22.4049 19.8627C22.3612 19.9154 21.9545 20.0853 21.872 20.0853C21.8501 20.0853 21.8321 19.9431 21.8318 19.7668C21.8315 19.5917 21.808 19.4024 21.7796 19.3463C21.7049 19.1986 21.5372 19.1498 21.4041 19.237C21.3006 19.3048 21.2982 19.3169 21.2982 19.7734V20.2404L21.0208 20.289C20.8682 20.3157 20.6925 20.347 20.6304 20.3585L20.5173 20.3795V20.0087C20.5173 19.6721 20.5089 19.632 20.426 19.574C20.3014 19.4867 20.1638 19.4936 20.0653 19.5922C19.9948 19.6627 19.9831 19.7291 19.9831 20.0595V20.4446L19.6851 20.4711C19.5213 20.4857 19.2716 20.5087 19.1303 20.5223L18.8735 20.547V20.2163C18.8735 19.8478 18.8255 19.7566 18.6318 19.7566C18.4152 19.7566 18.368 19.8341 18.3476 20.2235L18.3289 20.5785L17.954 20.5788C17.7477 20.5789 17.4541 20.5909 17.3016 20.6053L17.0242 20.6315V20.3173C17.0242 19.9641 16.9524 19.8388 16.75 19.8388C16.5464 19.8388 16.4899 19.9384 16.4899 20.2973V20.6199L15.8837 20.5977C15.5503 20.5855 15.143 20.5653 14.9785 20.5528L14.6794 20.5302L14.6908 19.9744L14.7022 19.4186L15.0515 19.3181C15.2437 19.2629 15.5124 19.1566 15.6487 19.0819L15.8966 18.9461L17.3747 18.9228C19.6225 18.8875 21.2366 18.702 22.2023 18.3679L22.4283 18.2897L22.4395 19.0486C22.4471 19.5614 22.4359 19.8254 22.4049 19.8627ZM3.67981 20.327C4.78349 20.5634 5.92864 20.6622 7.88072 20.6894C10.6192 20.7278 12.7591 20.5343 13.8632 20.1485L14.1474 20.0492V20.8451V21.641L13.9317 21.7434C13.5128 21.9424 13.531 21.9518 13.531 21.5356C13.531 21.1045 13.4761 20.9891 13.2718 20.9901C13.0346 20.9912 13.0192 21.0227 12.9967 21.5521L12.9762 22.0358L12.6885 22.0854C12.1816 22.1729 12.2159 22.1954 12.2159 21.7753C12.2159 21.3681 12.1814 21.3045 11.9607 21.3045C11.7457 21.3045 11.6816 21.4304 11.6816 21.8524V22.2132L11.5481 22.237C11.4746 22.25 11.2249 22.2733 10.9933 22.2885L10.572 22.3163V21.9952C10.572 21.6342 10.5143 21.5237 10.3255 21.5237C10.1359 21.5237 10.0604 21.6557 10.0441 22.0156L10.0296 22.3348L9.78105 22.3608C9.64441 22.3751 9.35036 22.3867 9.12762 22.3867H8.7227L8.72208 22.1299C8.72138 21.8282 8.6597 21.6835 8.50924 21.6306C8.42717 21.6017 8.37416 21.6094 8.29435 21.6617C8.19519 21.7267 8.18845 21.752 8.18845 22.0589V22.3867H7.76298C7.52893 22.3867 7.22379 22.3748 7.08489 22.3603L6.83227 22.3339V22.0371C6.83227 21.799 6.81542 21.7188 6.74707 21.632C6.6507 21.5094 6.52355 21.4937 6.38937 21.5877C6.30775 21.6448 6.29802 21.6871 6.29802 21.984V22.3163L5.87678 22.2885C5.64508 22.2733 5.39542 22.25 5.32198 22.237L5.18841 22.2132V21.846C5.18841 21.5073 5.18032 21.4708 5.08362 21.3741C5.00233 21.2928 4.95388 21.2753 4.86786 21.296C4.69103 21.3386 4.65416 21.4254 4.65416 21.7987C4.65416 22.1919 4.68609 22.1726 4.18155 22.0854L3.89388 22.0357L3.88217 21.5664C3.87572 21.3069 3.85052 21.0731 3.82578 21.0433C3.80121 21.0137 3.71043 20.9895 3.62404 20.9895C3.39135 20.9895 3.33908 21.0891 3.33908 21.5329C3.33908 21.7312 3.33053 21.8936 3.32005 21.8936C3.30957 21.8936 3.20326 21.8551 3.08375 21.8081C2.70858 21.6606 2.72263 21.6991 2.72263 20.8212V20.0491L3.01199 20.1476C3.17116 20.2017 3.4717 20.2824 3.67981 20.327Z" fill="black"/>
</svg>
